<svg width="15" height="21" viewBox="0 0 15 21" fill="none" xmlns="http://www.w3.org/2000/svg">
<path opacity="0.9" fill-rule="evenodd" clip-rule="evenodd" d="M8.19302 5.88112C7.98472 5.67313 7.70239 5.55631 7.40802 5.55631C7.11366 5.55631 6.83133 5.67313 6.62302 5.88112L1.06702 11.4371C0.872026 11.6479 0.766229 11.9261 0.77182 12.2132C0.777411 12.5003 0.893957 12.7741 1.09701 12.9771C1.30007 13.1802 1.57387 13.2967 1.86098 13.3023C2.14809 13.3079 2.42621 13.2021 2.63702 13.0071L6.29702 9.34712V19.2591C6.29702 19.5538 6.41407 19.8364 6.62243 20.0447C6.83078 20.2531 7.11337 20.3701 7.40802 20.3701C7.70268 20.3701 7.98527 20.2531 8.19362 20.0447C8.40197 19.8364 8.51902 19.5538 8.51902 19.2591V9.34812L12.178 13.0071C12.3862 13.2153 12.6686 13.3323 12.963 13.3323C13.2575 13.3323 13.5398 13.2153 13.748 13.0071C13.9562 12.7989 14.0732 12.5165 14.0732 12.2221C14.0732 11.9277 13.9562 11.6453 13.748 11.4371L8.19302 5.88112ZM13.704 2.59212C13.9987 2.59212 14.2813 2.47507 14.4896 2.26671C14.698 2.05836 14.815 1.77577 14.815 1.48112C14.815 1.18646 14.698 0.903875 14.4896 0.695522C14.2813 0.487169 13.9987 0.370117 13.704 0.370117L1.11002 0.370117C0.815368 0.370117 0.532781 0.487169 0.324428 0.695522C0.116075 0.903875 -0.000976562 1.18646 -0.000976562 1.48112C-0.000976562 1.77577 0.116075 2.05836 0.324428 2.26671C0.532781 2.47507 0.815368 2.59212 1.11002 2.59212H13.703H13.704Z" fill="white"/>
</svg>
