<svg width="10" height="11" viewBox="0 0 10 11" fill="none" xmlns="http://www.w3.org/2000/svg">
<path fill-rule="evenodd" clip-rule="evenodd" d="M5 0.870117C2.2381 0.870117 0 3.10821 0 5.87012C0 8.63202 2.2381 10.8701 5 10.8701C7.7619 10.8701 10 8.63202 10 5.87012C10 3.10821 7.7619 0.870117 5 0.870117ZM4.89905 8.27012C4.83333 8.2705 4.76818 8.25782 4.7074 8.23281C4.64662 8.20781 4.59141 8.17098 4.54498 8.12446C4.49855 8.07794 4.46183 8.02266 4.43694 7.96184C4.41205 7.90101 4.39949 7.83584 4.4 7.77012C4.4 7.49107 4.62381 7.27012 4.89905 7.27012C5.17619 7.27012 5.4 7.48869 5.4 7.77012C5.40064 7.83604 5.38811 7.90142 5.36315 7.96243C5.33819 8.02345 5.3013 8.07886 5.25464 8.12543C5.20798 8.172 5.15249 8.20879 5.09143 8.23363C5.03037 8.25848 4.96497 8.27088 4.89905 8.27012ZM5.74143 5.75393C5.33333 5.99583 5.19524 6.17345 5.19524 6.48059V6.67012H4.3819L4.37524 6.46393C4.33524 5.96964 4.50381 5.6625 4.9281 5.40821C5.32429 5.16631 5.49048 5.01297 5.49048 4.71488C5.49048 4.41774 5.20952 4.19916 4.86 4.19916C4.50619 4.19916 4.25048 4.4344 4.2319 4.78964H3.4C3.41619 4.01726 3.97429 3.47012 4.91667 3.47012C5.79524 3.47012 6.4 3.96916 6.4 4.68631C6.4 5.16345 6.17476 5.4925 5.74143 5.75393Z" fill="white"/>
</svg>
