<svg width="6" height="4" viewBox="0 0 6 4" fill="none" xmlns="http://www.w3.org/2000/svg">
<path d="M4.7296 0.3344C4.78934 0.282503 4.85876 0.242937 4.93386 0.217979C5.00895 0.193022 5.08824 0.183166 5.16716 0.18898C5.24608 0.194794 5.32308 0.216162 5.3937 0.251855C5.46433 0.287547 5.5272 0.336859 5.57869 0.39695C5.63019 0.457041 5.66928 0.526724 5.69373 0.601987C5.71818 0.67725 5.7275 0.756607 5.72115 0.835486C5.7148 0.914366 5.69291 0.991211 5.65674 1.0616C5.62057 1.13198 5.57084 1.19452 5.5104 1.2456L3.4008 3.0536C3.25578 3.17797 3.07105 3.24634 2.88 3.24634C2.68896 3.24634 2.50422 3.17797 2.3592 3.0536L0.249601 1.2456C0.128662 1.14206 0.0538082 0.994717 0.0415058 0.835986C0.0292034 0.677255 0.0804601 0.520139 0.184 0.3992C0.287541 0.278261 0.434884 0.203407 0.593615 0.191105C0.752345 0.178802 0.909462 0.230059 1.0304 0.3336L2.88 1.9208L4.7296 0.3344Z" fill="white" fill-opacity="0.5"/>
</svg>
