<svg width="35" height="36" viewBox="0 0 35 36" fill="none" xmlns="http://www.w3.org/2000/svg">
<g clip-path="url(#clip0_1_5813)">
<g filter="url(#filter0_d_1_5813)">
<rect width="35" height="35" transform="translate(0 0.870117)" fill="url(#paint0_linear_1_5813)"/>
<path fill-rule="evenodd" clip-rule="evenodd" d="M13.171 7.93312C14.291 7.88112 14.648 7.87012 17.5 7.87012C20.352 7.87012 20.71 7.88212 21.828 7.93312C22.947 7.98312 23.71 8.16312 24.378 8.42112C25.078 8.68512 25.713 9.09812 26.238 9.63312C26.7721 10.1571 27.1851 10.7916 27.448 11.4921C27.708 12.1601 27.886 12.9231 27.937 14.0401C27.988 15.1621 28 15.5191 28 18.3701C28 21.2221 27.988 21.5801 27.937 22.6991C27.887 23.8161 27.707 24.5791 27.448 25.2481C27.1846 25.9487 26.7717 26.5834 26.238 27.1081C25.7133 27.6418 25.0786 28.0548 24.378 28.3181C23.71 28.5781 22.947 28.7561 21.83 28.8071C20.71 28.8581 20.352 28.8701 17.5 28.8701C14.648 28.8701 14.29 28.8581 13.171 28.8071C12.054 28.7571 11.291 28.5771 10.622 28.3181C9.92147 28.0547 9.28675 27.6418 8.762 27.1081C8.22787 26.5836 7.81459 25.9488 7.551 25.2481C7.292 24.5801 7.115 23.8171 7.063 22.7001C7.011 21.5781 7 21.2201 7 18.3701C7 15.5181 7.012 15.1601 7.063 14.0421C7.113 12.9231 7.293 12.1601 7.551 11.4921C7.81497 10.7914 8.22858 10.1566 8.763 9.63212C9.28726 9.09811 9.92167 8.68484 10.622 8.42112C11.29 8.16212 12.054 7.98512 13.171 7.93312ZM21.743 9.82312C20.636 9.77312 20.303 9.76212 17.5 9.76212C14.697 9.76212 14.364 9.77212 13.257 9.82312C12.233 9.87012 11.677 10.0411 11.307 10.1851C10.817 10.3751 10.467 10.6021 10.099 10.9691C9.7508 11.3082 9.48292 11.721 9.315 12.1771C9.171 12.5471 9 13.1031 8.953 14.1271C8.903 15.2341 8.892 15.5671 8.892 18.3701C8.892 21.1731 8.902 21.5061 8.953 22.6131C9 23.6371 9.171 24.1931 9.315 24.5631C9.483 25.0181 9.751 25.4321 10.099 25.7711C10.4382 26.1192 10.8509 26.3871 11.307 26.5551C11.677 26.6991 12.233 26.8701 13.257 26.9171C14.364 26.9671 14.696 26.9781 17.5 26.9781C20.305 26.9781 20.636 26.9681 21.743 26.9171C22.767 26.8701 23.323 26.6991 23.693 26.5551C24.183 26.3651 24.533 26.1381 24.901 25.7711C25.2491 25.4319 25.517 25.0192 25.685 24.5631C25.829 24.1931 26 23.6371 26.047 22.6131C26.097 21.5061 26.108 21.1731 26.108 18.3701C26.108 15.5671 26.098 15.2341 26.047 14.1271C26 13.1031 25.829 12.5471 25.685 12.1771C25.517 11.721 25.2491 11.3083 24.901 10.9691C24.5619 10.6209 24.1491 10.3531 23.693 10.1851C23.323 10.0411 22.767 9.87012 21.743 9.82312ZM16.159 21.6071C16.5904 21.7842 17.0528 21.8734 17.5191 21.8694C17.9854 21.8654 18.4462 21.7684 18.8745 21.584C19.3028 21.3996 19.69 21.1316 20.0133 20.7956C20.3367 20.4596 20.5897 20.0624 20.7575 19.6273C20.9254 19.1923 21.0046 18.7281 20.9907 18.262C20.9768 17.7958 20.8699 17.3372 20.6764 16.9129C20.4829 16.4887 20.2067 16.1073 19.8639 15.7912C19.521 15.4751 19.1185 15.2306 18.68 15.0721C17.8184 14.7607 16.8692 14.7992 16.0357 15.1794C15.2022 15.5595 14.5507 16.251 14.221 17.1057C13.8913 17.9605 13.9095 18.9103 14.2718 19.7518C14.6341 20.5932 15.3115 21.2592 16.159 21.6071ZM13.684 14.5541C14.183 14.0434 14.7784 13.6368 15.4356 13.3579C16.0929 13.079 16.7989 12.9332 17.5129 12.9291C18.2269 12.9249 18.9346 13.0625 19.5951 13.3338C20.2555 13.6052 20.8555 14.0048 21.3604 14.5097C21.8653 15.0146 22.2649 15.6146 22.5363 16.2751C22.8076 16.9355 22.9452 17.6432 22.9411 18.3572C22.9369 19.0712 22.7912 19.7772 22.5122 20.4345C22.2333 21.0917 21.8267 21.6871 21.316 22.1861C20.3 23.1789 18.9335 23.7311 17.5129 23.7229C16.0924 23.7147 14.7324 23.1467 13.7279 22.1422C12.7234 21.1377 12.1554 19.7777 12.1472 18.3572C12.139 16.9367 12.6912 15.5702 13.684 14.5541ZM24.094 13.7771C24.2213 13.6635 24.3246 13.5255 24.3976 13.3712C24.4707 13.217 24.5121 13.0497 24.5194 12.8792C24.5268 12.7087 24.4998 12.5384 24.4402 12.3785C24.3806 12.2186 24.2896 12.0722 24.1725 11.9481C24.0554 11.824 23.9145 11.7246 23.7584 11.6558C23.6022 11.587 23.4338 11.5502 23.2631 11.5476C23.0925 11.545 22.9231 11.5766 22.7649 11.6406C22.6066 11.7046 22.4629 11.7996 22.342 11.9201C22.1065 12.1549 21.9719 12.4724 21.9668 12.8049C21.9617 13.1375 22.0865 13.4589 22.3148 13.7008C22.543 13.9427 22.8566 14.086 23.1889 14.1003C23.5212 14.1145 23.8459 13.9986 24.094 13.7771Z" fill="white"/>
</g>
</g>
<defs>
<filter id="filter0_d_1_5813" x="-16" y="-10.1299" width="67" height="67" filterUnits="userSpaceOnUse" color-interpolation-filters="sRGB">
<feFlood flood-opacity="0" result="BackgroundImageFix"/>
<feColorMatrix in="SourceAlpha" type="matrix" values="0 0 0 0 0 0 0 0 0 0 0 0 0 0 0 0 0 0 127 0" result="hardAlpha"/>
<feOffset dy="5"/>
<feGaussianBlur stdDeviation="8"/>
<feComposite in2="hardAlpha" operator="out"/>
<feColorMatrix type="matrix" values="0 0 0 0 0.729412 0 0 0 0 0.301961 0 0 0 0 0.396078 0 0 0 0.3 0"/>
<feBlend mode="normal" in2="BackgroundImageFix" result="effect1_dropShadow_1_5813"/>
<feBlend mode="normal" in="SourceGraphic" in2="effect1_dropShadow_1_5813" result="shape"/>
</filter>
<linearGradient id="paint0_linear_1_5813" x1="31.4757" y1="-2.46681" x2="3.52428" y2="37.4668" gradientUnits="userSpaceOnUse">
<stop offset="0.0765" stop-color="#7E2BF4"/>
<stop offset="0.5193" stop-color="#ED146E"/>
<stop offset="0.9529" stop-color="#FFC90C"/>
</linearGradient>
<clipPath id="clip0_1_5813">
<rect y="0.870117" width="35" height="35" rx="10" fill="white"/>
</clipPath>
</defs>
</svg>
