<svg width="35" height="36" viewBox="0 0 35 36" fill="none" xmlns="http://www.w3.org/2000/svg">
<g clip-path="url(#clip0_1_5821)">
<g filter="url(#filter0_d_1_5821)">
<rect width="35" height="35" transform="translate(0 0.870117)" fill="url(#paint0_linear_1_5821)"/>
<path fill-rule="evenodd" clip-rule="evenodd" d="M7 17.8452C7 23.066 10.7917 27.406 15.75 28.2869V20.7035H13.125V17.7869H15.75V15.4535C15.75 12.8285 17.4417 11.3702 19.8333 11.3702C20.5917 11.3702 21.4083 11.4869 22.1667 11.6035V14.2869H20.825C19.5417 14.2869 19.25 14.9285 19.25 15.7452V17.7869H22.05L21.5833 20.7035H19.25V28.2869C24.2083 27.406 28 23.0672 28 17.8452C28 12.0375 23.275 7.28687 17.5 7.28687C11.725 7.28687 7 12.0375 7 17.8452Z" fill="white"/>
</g>
</g>
<defs>
<filter id="filter0_d_1_5821" x="-16" y="-10.1299" width="67" height="67" filterUnits="userSpaceOnUse" color-interpolation-filters="sRGB">
<feFlood flood-opacity="0" result="BackgroundImageFix"/>
<feColorMatrix in="SourceAlpha" type="matrix" values="0 0 0 0 0 0 0 0 0 0 0 0 0 0 0 0 0 0 127 0" result="hardAlpha"/>
<feOffset dy="5"/>
<feGaussianBlur stdDeviation="8"/>
<feComposite in2="hardAlpha" operator="out"/>
<feColorMatrix type="matrix" values="0 0 0 0 0.45098 0 0 0 0 0.588235 0 0 0 0 0.862745 0 0 0 0.3 0"/>
<feBlend mode="normal" in2="BackgroundImageFix" result="effect1_dropShadow_1_5821"/>
<feBlend mode="normal" in="SourceGraphic" in2="effect1_dropShadow_1_5821" result="shape"/>
</filter>
<linearGradient id="paint0_linear_1_5821" x1="0" y1="0" x2="35" y2="35" gradientUnits="userSpaceOnUse">
<stop stop-color="#82A4E9"/>
<stop offset="1" stop-color="#108DE7"/>
</linearGradient>
<clipPath id="clip0_1_5821">
<rect y="0.870117" width="35" height="35" rx="10" fill="white"/>
</clipPath>
</defs>
</svg>
