<svg width="16" height="15" viewBox="0 0 16 15" fill="none" xmlns="http://www.w3.org/2000/svg">
<path fill-rule="evenodd" clip-rule="evenodd" d="M11.15 0.5C12.3099 0.5 13.25 1.396 13.25 2.4999V12.5001C13.25 13.604 12.3099 14.5 11.15 14.5H4.85C3.6901 14.5 2.75 13.604 2.75 12.5001V2.4999C2.75 1.396 3.6901 0.5 4.85 0.5H11.15ZM5.9 1.5003V1.7999C5.9 1.98555 5.97375 2.1636 6.10503 2.29487C6.2363 2.42615 6.41435 2.4999 6.6 2.4999H9.4C9.58565 2.4999 9.7637 2.42615 9.89497 2.29487C10.0262 2.1636 10.1 1.98555 10.1 1.7999V1.501H11.15L11.2725 1.508C11.7947 1.5654 12.2 1.9882 12.2 2.5006V12.5008L12.193 12.617C12.1321 13.114 11.689 13.5004 11.15 13.5004H4.85L4.7275 13.4934C4.2053 13.436 3.8 13.0132 3.8 12.5008V2.4999L3.807 2.3837C3.8679 1.886 4.311 1.5003 4.85 1.5003H5.9Z" fill="white"/>
</svg>
