<svg width="16" height="16" viewBox="0 0 16 16" fill="none" xmlns="http://www.w3.org/2000/svg">
<mask id="mask0_1_59" style="mask-type:luminance" maskUnits="userSpaceOnUse" x="0" y="0" width="16" height="16">
<path d="M0.670044 0.5H15.67V15.5H0.670044V0.5Z" fill="white"/>
</mask>
<g mask="url(#mask0_1_59)">
<path fill-rule="evenodd" clip-rule="evenodd" d="M3.40219 1.23179C3.63437 0.999694 3.91 0.815611 4.21333 0.69005C4.51666 0.56449 4.84175 0.49991 5.17004 0.5C5.77396 0.499706 6.36767 0.655763 6.89339 0.952981C7.41911 1.2502 7.85893 1.67846 8.17004 2.19607C8.48116 1.67846 8.92098 1.2502 9.4467 0.952981C9.97241 0.655763 10.5661 0.499706 11.17 0.5C11.833 0.5 12.4688 0.763355 12.9376 1.23213C13.4063 1.7009 13.6697 2.3367 13.6697 2.99964V3.28571C13.6697 3.73357 13.5368 4.15143 13.3086 4.49964H14.17C14.5679 4.49964 14.9494 4.65768 15.2307 4.93898C15.512 5.22029 15.67 5.60182 15.67 5.99964V7.00036C15.67 7.39818 15.512 7.77971 15.2307 8.06102C14.9494 8.34232 14.5679 8.50036 14.17 8.50036H8.6704V4.49964H11.4561C12.1258 4.49964 12.67 3.95643 12.67 3.28571V2.99964C12.67 2.80266 12.6312 2.60761 12.5559 2.42562C12.4805 2.24363 12.37 2.07827 12.2307 1.93898C12.0914 1.7997 11.9261 1.68921 11.7441 1.61382C11.5621 1.53844 11.367 1.49964 11.17 1.49964C10.8417 1.49964 10.5166 1.56433 10.2132 1.69002C9.90988 1.81571 9.63428 1.99992 9.40215 2.23215C9.17002 2.46438 8.98592 2.74006 8.86037 3.04346C8.73481 3.34685 8.67026 3.67201 8.6704 4.00036V4.49964H7.66969V4.00036C7.66983 3.67201 7.60528 3.34685 7.47972 3.04346C7.35416 2.74006 7.17006 2.46438 6.93794 2.23215C6.70581 1.99992 6.4302 1.81571 6.12686 1.69002C5.82352 1.56433 5.49839 1.49964 5.17004 1.49964C4.77222 1.49964 4.39069 1.65768 4.10938 1.93898C3.82808 2.22029 3.67004 2.60182 3.67004 2.99964V3.28571C3.67004 3.95643 4.21433 4.49964 4.88397 4.49964H7.66969V8.50036H2.17004C1.77222 8.50036 1.39069 8.34232 1.10938 8.06102C0.828079 7.77971 0.670044 7.39818 0.670044 7.00036V5.99964C0.670044 5.60182 0.828079 5.22029 1.10938 4.93898C1.39069 4.65768 1.77222 4.49964 2.17004 4.49964H3.03254C2.79569 4.13913 2.66978 3.71707 2.6704 3.28571V2.99964C2.6704 2.33643 2.9329 1.70107 3.40219 1.23179ZM1.66969 9.5H7.66969V15.5H4.1704C3.84205 15.5001 3.51689 15.4356 3.2135 15.31C2.91011 15.1845 2.63442 15.0004 2.40219 14.7683C2.16997 14.5361 1.98575 14.2605 1.86006 13.9572C1.73438 13.6538 1.66969 13.3287 1.66969 13.0004V9.5ZM12.1697 15.5H8.6704V9.5H14.6704V13.0004C14.6704 13.3287 14.6057 13.6538 14.48 13.9572C14.3543 14.2605 14.1701 14.5361 13.9379 14.7683C13.7057 15.0004 13.43 15.1845 13.1266 15.31C12.8232 15.4356 12.498 15.5001 12.1697 15.5Z" fill="white"/>
</g>
</svg>
