<svg width="16" height="11" viewBox="0 0 16 11" fill="none" xmlns="http://www.w3.org/2000/svg">
<path d="M9.34381 5.66499C9.34381 6.02138 9.20224 6.36317 8.95024 6.61517C8.69823 6.86717 8.35645 7.00874 8.00006 7.00874C7.64368 7.00874 7.30189 6.86717 7.04989 6.61517C6.79788 6.36317 6.65631 6.02138 6.65631 5.66499C6.65631 5.30861 6.79788 4.96682 7.04989 4.71482C7.30189 4.46282 7.64368 4.32124 8.00006 4.32124C8.35645 4.32124 8.69823 4.46282 8.95024 4.71482C9.20224 4.96682 9.34381 5.30861 9.34381 5.66499Z" fill="white"/>
<path fill-rule="evenodd" clip-rule="evenodd" d="M6.41884 3.37376C6.45629 3.41363 6.48553 3.46049 6.50486 3.51167C6.52419 3.56285 6.53325 3.61734 6.53151 3.67202C6.52977 3.7267 6.51726 3.7805 6.49471 3.83034C6.47216 3.88019 6.44001 3.9251 6.40009 3.96251C6.17199 4.17681 5.98929 4.43476 5.86281 4.72104C5.73634 5.00732 5.66867 5.31609 5.66383 5.62902C5.65899 5.94196 5.71708 6.25267 5.83464 6.54273C5.95221 6.83278 6.12685 7.09625 6.34821 7.31751C6.42628 7.39558 6.47014 7.50147 6.47014 7.61188C6.47014 7.72229 6.42628 7.82818 6.34821 7.90626C6.27014 7.98433 6.16425 8.02819 6.05384 8.02819C5.94342 8.02819 5.83753 7.98433 5.75946 7.90626C5.45934 7.60606 5.22259 7.24863 5.06325 6.85519C4.90391 6.46174 4.82522 6.0403 4.83187 5.61586C4.83852 5.19143 4.93035 4.77265 5.10194 4.38439C5.27352 3.99613 5.52134 3.64629 5.83071 3.35563C5.91113 3.28009 6.01824 3.23957 6.12852 3.24297C6.2388 3.24636 6.34322 3.29341 6.41884 3.37376Z" fill="white"/>
<path fill-rule="evenodd" clip-rule="evenodd" d="M5.03195 2.1475C5.1957 2.30938 5.19758 2.5725 5.0357 2.73625C4.31422 3.46666 3.88773 4.43769 3.83802 5.46316C3.78831 6.48862 4.11887 7.49635 4.76633 8.29313C4.83595 8.37891 4.86864 8.48883 4.85721 8.59872C4.84578 8.7086 4.79117 8.80944 4.70539 8.87906C4.61961 8.94868 4.50969 8.98137 4.3998 8.96995C4.28992 8.95852 4.18907 8.90391 4.11945 8.81813C3.343 7.86209 2.94673 6.65312 3.00658 5.42296C3.06644 4.1928 3.57823 3.02801 4.44383 2.15188C4.48223 2.11296 4.52793 2.082 4.57831 2.06075C4.62868 2.0395 4.68275 2.02839 4.73743 2.02804C4.7921 2.02769 4.8463 2.03812 4.89695 2.05872C4.94759 2.07933 4.99368 2.10971 5.03258 2.14813L5.03195 2.1475ZM9.58133 3.37375C9.54387 3.41362 9.51464 3.46049 9.4953 3.51167C9.47597 3.56284 9.46692 3.61733 9.46866 3.67201C9.4704 3.72669 9.4829 3.78049 9.50545 3.83034C9.528 3.88018 9.56016 3.92509 9.60008 3.9625C9.82801 4.1769 10.0106 4.43488 10.137 4.72114C10.2633 5.00741 10.3309 5.31614 10.3358 5.62903C10.3406 5.94191 10.2826 6.25258 10.1651 6.54262C10.0477 6.83266 9.87315 7.09616 9.65195 7.3175C9.57388 7.39557 9.53002 7.50146 9.53002 7.61188C9.53002 7.72229 9.57388 7.82818 9.65195 7.90625C9.73003 7.98432 9.83592 8.02818 9.94633 8.02818C10.0567 8.02818 10.1626 7.98432 10.2407 7.90625C10.5409 7.6061 10.7777 7.24868 10.9371 6.85523C11.0965 6.46178 11.1752 6.04031 11.1686 5.61585C11.1619 5.19139 11.0701 4.7726 10.8984 4.38433C10.7268 3.99606 10.4789 3.64624 10.1695 3.35563C10.089 3.28009 9.98192 3.23956 9.87164 3.24296C9.76136 3.24636 9.65694 3.2934 9.58133 3.37375Z" fill="white"/>
<path fill-rule="evenodd" clip-rule="evenodd" d="M10.9682 2.1475C10.9293 2.18591 10.8983 2.2316 10.8771 2.28198C10.8558 2.33236 10.8447 2.38643 10.8444 2.4411C10.844 2.49577 10.8544 2.54998 10.8751 2.60062C10.8957 2.65126 10.926 2.69735 10.9645 2.73625C11.6861 3.4666 12.1126 4.43764 12.1624 5.46315C12.2121 6.48865 11.8814 7.49641 11.2338 8.29313C11.1994 8.3356 11.1736 8.38445 11.158 8.43688C11.1424 8.48931 11.1373 8.54431 11.1429 8.59871C11.1486 8.65312 11.1649 8.70589 11.191 8.75399C11.217 8.80209 11.2523 8.84459 11.2948 8.87906C11.3372 8.91354 11.3861 8.9393 11.4385 8.9549C11.491 8.97049 11.5459 8.9756 11.6004 8.96995C11.6548 8.96429 11.7075 8.94797 11.7556 8.92192C11.8037 8.89587 11.8462 8.8606 11.8807 8.81813C12.6574 7.86212 13.0539 6.65306 12.9942 5.42276C12.9344 4.19245 12.4226 3.0275 11.557 2.15125C11.5185 2.11234 11.4729 2.08137 11.4225 2.06013C11.3721 2.03888 11.318 2.02776 11.2634 2.02741C11.2087 2.02706 11.1545 2.03749 11.1038 2.0581C11.0532 2.0787 11.0071 2.10908 10.9682 2.1475Z" fill="white"/>
</svg>
