<svg width="43" height="43" viewBox="0 0 43 43" fill="none" xmlns="http://www.w3.org/2000/svg">
<g clip-path="url(#clip0_1_6286)">
<g clip-path="url(#clip1_1_6286)">
<g clip-path="url(#clip2_1_6286)">
<path d="M17.3348 15.6233H12.2308C11.6733 15.6233 11.4643 15.8165 11.3598 16.3786L9.44359 27.3745C9.33907 27.919 9.49585 28.1122 10.0533 28.1122H15.2793C17.7356 28.1122 19.6866 27.0407 20.0872 24.7748C20.3485 23.2466 19.913 22.1049 18.8853 21.613L18.9027 21.5428C19.8956 20.928 20.3834 20.2605 20.6098 19.0837C20.9757 16.9934 19.7563 15.6233 17.3348 15.6233ZM17.0213 19.435C16.8993 20.12 16.4813 20.3835 15.7845 20.3835H10.6619L10.9986 18.4513H16.1154C16.8296 18.4513 17.1432 18.7499 17.0213 19.435ZM16.5684 24.2303C16.4465 24.968 16.011 25.2666 15.2793 25.2666H13.2586L13.6244 23.2115H15.6277C16.3768 23.2115 16.7077 23.5277 16.5684 24.2303Z" fill="#2662CC"/>
<path fill-rule="evenodd" clip-rule="evenodd" d="M23.6583 15.6233H28.623C31.2535 15.6233 32.6993 17.2744 32.2116 19.997C31.9286 21.2442 31.0966 21.9336 29.9273 22.7023C29.905 22.7139 29.8825 22.7255 29.8599 22.7372C29.9818 22.9655 30.0864 23.2115 30.1908 23.4926L31.0966 27.2515C31.2535 27.7258 31.0618 28.1122 30.487 28.1122H28.6056C27.6823 28.1122 27.3165 27.8837 27.1424 27.269L26.5848 24.1073C26.3933 23.5101 26.2714 23.2115 25.5048 23.2115H25.052L24.3203 27.3745C24.2157 27.919 24.0067 28.1122 23.4493 28.1122H21.4808C20.9234 28.1122 20.7667 27.919 20.8711 27.3745L22.7873 16.3611C22.8919 15.8165 23.1009 15.6233 23.6583 15.6233ZM28.4621 19.4438C28.3406 20.1288 27.9237 20.3922 27.229 20.3922H22.0848L22.4215 18.4601H27.5589C28.2711 18.4601 28.5837 18.7588 28.4621 19.4438Z" fill="#2662CC"/>
<path d="M18.2402 34.3751H15.898V33.9977L17.0034 33.0412C17.1551 32.9065 17.267 32.789 17.339 32.6886C17.4125 32.5883 17.4493 32.4931 17.4493 32.4028C17.4493 32.2796 17.411 32.183 17.3343 32.1132C17.2576 32.0421 17.1481 32.0065 17.0057 32.0065C16.8524 32.0065 16.7311 32.0497 16.642 32.1361C16.5544 32.2211 16.5106 32.3336 16.5106 32.4734H15.83C15.83 32.3044 15.8793 32.1501 15.9778 32.0103C16.078 31.8706 16.2187 31.7613 16.4003 31.6826C16.5818 31.6026 16.7874 31.5625 17.0175 31.5625C17.3695 31.5625 17.6425 31.6311 17.8365 31.7683C18.0322 31.9055 18.1299 32.0992 18.1299 32.3495C18.1299 32.4867 18.0861 32.6264 17.9984 32.7687C17.9109 32.911 17.7607 33.0768 17.5479 33.2661L16.7711 33.9311H18.2402V34.3751Z" fill="#2662CC"/>
<path d="M21.126 33.228C21.126 33.6116 21.0282 33.905 20.8327 34.1083C20.6371 34.3116 20.3508 34.4132 19.9737 34.4132C19.6014 34.4132 19.3167 34.3135 19.1195 34.1141C18.9223 33.9146 18.8214 33.6287 18.8168 33.2565V32.7458C18.8168 32.3583 18.9153 32.0643 19.1125 31.8636C19.3112 31.6629 19.5967 31.5625 19.9691 31.5625C20.3415 31.5625 20.6262 31.6622 20.8233 31.8617C21.0205 32.0598 21.1214 32.345 21.126 32.7173V33.228ZM20.4478 32.6677C20.4478 32.4378 20.4087 32.2707 20.3305 32.1665C20.2538 32.0611 20.1333 32.0083 19.9691 32.0083C19.8095 32.0083 19.6913 32.0585 19.6147 32.1589C19.5396 32.258 19.4996 32.4136 19.495 32.6257V33.3003C19.495 33.5265 19.5325 33.6948 19.6077 33.8053C19.6843 33.9146 19.8064 33.9692 19.9737 33.9692C20.1396 33.9692 20.2593 33.9164 20.3329 33.811C20.4063 33.7056 20.4446 33.5443 20.4478 33.327V32.6677Z" fill="#2662CC"/>
<path d="M24.0965 34.3751H21.7543V33.9977L22.8597 33.0412C23.0114 32.9065 23.1233 32.789 23.1953 32.6886C23.2688 32.5883 23.3056 32.4931 23.3056 32.4028C23.3056 32.2796 23.2673 32.183 23.1906 32.1132C23.114 32.0421 23.0044 32.0065 22.8621 32.0065C22.7087 32.0065 22.5874 32.0497 22.4983 32.1361C22.4106 32.2211 22.3669 32.3336 22.3669 32.4734H21.6863C21.6863 32.3044 21.7355 32.1501 21.8341 32.0103C21.9343 31.8706 22.075 31.7613 22.2565 31.6826C22.4381 31.6026 22.6438 31.5625 22.8738 31.5625C23.2258 31.5625 23.4988 31.6311 23.6928 31.7683C23.8884 31.9055 23.9862 32.0992 23.9862 32.3495C23.9862 32.4867 23.9424 32.6264 23.8548 32.7687C23.7671 32.911 23.617 33.0768 23.4042 33.2661L22.6274 33.9311H24.0965V34.3751Z" fill="#2662CC"/>
<path d="M26.33 34.3752H25.6517V32.2523L24.8421 32.4563V32.0084L26.2572 31.5969H26.33V34.3752Z" fill="#2662CC"/>
<path d="M10.5682 38.401L11.012 38.6998L11.6912 37.729L12.2484 38.104L10.3929 40.7556L9.38819 40.0795C9.06876 39.8646 8.87124 39.6289 8.79561 39.3726C8.71999 39.1164 8.77138 38.8608 8.94979 38.6058C9.07638 38.4249 9.22239 38.3009 9.38783 38.2336C9.55118 38.1667 9.739 38.152 9.95132 38.1895L10.1246 36.7123L10.1424 36.6868L10.7404 37.0892L10.5682 38.401ZM10.7023 39.1423L10.2529 38.8399C10.113 38.7457 9.98046 38.7074 9.85528 38.725C9.72924 38.7437 9.62332 38.8144 9.53751 38.937C9.45 39.062 9.4177 39.185 9.44063 39.3057C9.46231 39.4257 9.54806 39.5361 9.69787 39.6369L10.1454 39.9381L10.7023 39.1423Z" fill="#2662CC"/>
<path d="M7.24889 35.9629L8.18046 36.8483L8.7918 36.2298L7.6985 35.1907L8.07627 34.8083L9.65477 36.3087L7.37245 38.6179L5.79718 37.1207L6.17809 36.7353L7.26816 37.7714L7.81209 37.221L6.88052 36.3356L7.24889 35.9629Z" fill="#2662CC"/>
<path d="M5.22842 32.9453C5.52892 32.7622 5.83046 32.7058 6.133 32.776C6.43466 32.8451 6.69843 33.0321 6.9243 33.3371C7.17136 33.6707 7.2517 34.0148 7.16535 34.3692C7.07689 34.7234 6.83281 35.0428 6.43309 35.3275L6.27089 35.443C6.01575 35.6247 5.75834 35.7407 5.49865 35.791C5.23896 35.8413 4.99705 35.8216 4.7729 35.7319C4.54665 35.6418 4.35324 35.4885 4.19266 35.2716C3.9703 34.9713 3.87321 34.6711 3.90135 34.3708C3.92949 34.0705 4.08119 33.8005 4.35647 33.5608L4.75352 34.097C4.59191 34.232 4.50284 34.3674 4.48629 34.5029C4.46765 34.6381 4.51921 34.7879 4.64097 34.9523C4.77332 35.131 4.93819 35.2184 5.13558 35.2143C5.33087 35.2099 5.56669 35.111 5.84303 34.9179L6.0435 34.7751C6.33023 34.5709 6.50849 34.3793 6.57828 34.2005C6.64718 34.0204 6.61369 33.8386 6.47781 33.6551C6.35517 33.4895 6.22557 33.3934 6.08903 33.3669C5.9504 33.3401 5.79587 33.3782 5.62546 33.4814L5.22842 32.9453Z" fill="#2662CC"/>
<path d="M3.19622 30.0907C3.48727 29.9537 3.76713 29.884 4.03581 29.8816C4.30448 29.8794 4.54452 29.9444 4.7559 30.0769C4.96663 30.208 5.13144 30.395 5.25033 30.638C5.36792 30.8782 5.41396 31.1203 5.38844 31.3642C5.36292 31.6082 5.26653 31.8332 5.09925 32.0393C4.93063 32.246 4.70449 32.417 4.42086 32.5521L4.27467 32.6209C3.98362 32.7579 3.70276 32.8272 3.43208 32.8289C3.15939 32.8298 2.91836 32.7644 2.70899 32.6326C2.49761 32.5002 2.3328 32.3131 2.21455 32.0716C2.09632 31.8299 2.05096 31.5875 2.07847 31.3443C2.10399 31.1004 2.20275 30.875 2.37472 30.6683C2.5447 30.4609 2.77454 30.289 3.06423 30.1527L3.19622 30.0907ZM3.35846 30.759C3.04846 30.9049 2.83955 31.0702 2.73173 31.2549C2.62391 31.4395 2.61938 31.6328 2.71813 31.8345C2.81624 32.0351 2.97179 32.1521 3.1848 32.1857C3.39646 32.2201 3.65626 32.1656 3.96421 32.0222L4.10837 31.9544C4.41025 31.8124 4.6178 31.6477 4.73104 31.4605C4.84427 31.2732 4.85086 31.0775 4.75081 30.8731C4.6527 30.6725 4.49748 30.5561 4.28512 30.5238C4.0714 30.4922 3.81057 30.5479 3.50263 30.6912L3.35846 30.759Z" fill="#2662CC"/>
<path d="M1.00577 28.9791L3.10062 27.5999L0.588651 27.383L0.368347 26.5401L3.54504 25.7417L3.71334 26.3857L2.845 26.604L1.32932 26.9165L3.91632 27.1624L4.0315 27.6032L1.88562 29.0362L3.36556 28.5959L4.23391 28.3777L4.40166 29.0195L1.22496 29.8179L1.00577 28.9791Z" fill="#2662CC"/>
<path d="M0.161854 24.5342L2.51221 23.6342L0.108261 22.8874L0.0799561 22.0177L3.35765 21.915L3.37927 22.5795L2.4833 22.6076L0.934604 22.5897L3.40534 23.3808L3.42014 23.8356L1.00805 24.7774L2.55019 24.6628L3.44615 24.6348L3.4677 25.297L0.190015 25.3996L0.161854 24.5342Z" fill="#2662CC"/>
<path d="M2.3453 19.2986L2.13699 20.5543L3.00399 20.6927L3.24846 19.2189L3.78422 19.3044L3.43127 21.4321L0.194458 20.9157L0.546693 18.7925L1.0869 18.8786L0.843158 20.348L1.61456 20.471L1.82287 19.2153L2.3453 19.2986Z" fill="#2662CC"/>
<path d="M4.76666 16.2333L4.5465 16.8597L2.07796 17.3898L4.11792 18.0792L3.89776 18.7057L0.797363 17.6578L1.01753 17.0314L3.49106 16.5007L1.44684 15.8098L1.66627 15.1855L4.76666 16.2333Z" fill="#2662CC"/>
<path d="M2.44232 13.8958L5.224 15.599L5.7584 14.7597C5.91109 14.5199 5.99206 14.2718 6.00134 14.0154C6.01268 13.7584 5.95025 13.5145 5.81406 13.2835C5.67914 13.0534 5.4824 12.8592 5.22385 12.7008L5.09585 12.6225C4.83729 12.4642 4.57399 12.3759 4.30596 12.3576C4.03872 12.338 3.78925 12.3892 3.55757 12.5113C3.32588 12.6332 3.13346 12.8131 2.9803 13.0509L2.44232 13.8958ZM5.11761 14.7527L3.26061 13.6157L3.43358 13.3441C3.57353 13.1242 3.75372 13.0011 3.97416 12.9746C4.19458 12.9481 4.44188 13.0171 4.71603 13.1815L4.86314 13.2715C5.14589 13.4447 5.32328 13.6332 5.39532 13.8369C5.46863 14.0415 5.43491 14.2543 5.29415 14.4754L5.11761 14.7527Z" fill="#2662CC"/>
<path d="M6.75768 10.6033L5.93986 11.5909L6.62173 12.1339L7.58155 10.9749L8.00291 11.3105L6.61715 12.9839L4.07147 10.9566L5.4544 9.28662L5.87926 9.62496L4.92228 10.7806L5.52898 11.2637L6.34682 10.2761L6.75768 10.6033Z" fill="#2662CC"/>
<path d="M8.40722 10.8525L6.25006 8.43037L7.01006 7.77948C7.2272 7.59352 7.46412 7.47565 7.72083 7.42587C7.97767 7.37403 8.23318 7.39566 8.48735 7.49078C8.74052 7.58479 8.96736 7.74436 9.16787 7.9695L9.26713 8.08096C9.46764 8.30609 9.59842 8.54696 9.65948 8.80355C9.72166 9.05918 9.70977 9.30884 9.6238 9.55255C9.53783 9.79626 9.38733 10.0112 9.17231 10.1973L8.40722 10.8525ZM7.11901 8.39875L8.55909 10.0157L8.80507 9.80507C9.00412 9.63461 9.09944 9.44056 9.09103 9.22294C9.08262 9.00533 8.97386 8.77688 8.76475 8.5376L8.65067 8.40951C8.4314 8.1633 8.21344 8.02154 7.9968 7.98421C7.77916 7.94579 7.57026 8.01229 7.37008 8.18373L7.11901 8.39875Z" fill="#2662CC"/>
<path d="M12.0193 8.06569L10.5787 5.17669L11.6107 4.6819C11.9681 4.5105 12.2729 4.44796 12.525 4.49427C12.7763 4.53926 12.9667 4.6914 13.096 4.95067C13.1666 5.09221 13.1918 5.235 13.1717 5.37904C13.1509 5.52176 13.087 5.64995 12.9799 5.76359C13.1494 5.7282 13.3054 5.74602 13.4478 5.81706C13.5916 5.88745 13.704 6.00401 13.7851 6.16671C13.9236 6.4445 13.9381 6.69816 13.8286 6.92769C13.7191 7.15723 13.4977 7.35352 13.1645 7.51657L12.0193 8.06569ZM11.999 6.51665L12.3878 7.29644L12.9078 7.0471C13.0508 6.97855 13.1456 6.89211 13.1922 6.78781C13.2395 6.68154 13.2338 6.56954 13.1751 6.45181C13.0432 6.18726 12.8366 6.11994 12.5555 6.24985L11.999 6.51665ZM11.7892 6.096L12.2384 5.88062C12.542 5.72851 12.6354 5.53538 12.5186 5.30125C12.4534 5.17028 12.3674 5.09513 12.2608 5.07576C12.155 5.05443 12.0183 5.08386 11.851 5.16406L11.4262 5.3678L11.7892 6.096Z" fill="#2662CC"/>
<path d="M15.4839 4.72137L15.7199 3.14223L16.4284 2.93701L15.9881 5.20179L16.3249 6.32021L15.6661 6.51104L15.3292 5.39262L13.7047 3.72599L14.4153 3.52014L15.4839 4.72137Z" fill="#2662CC"/>
<path d="M19.0063 5.74541L18.8776 2.53203L20.0254 2.48783C20.423 2.47252 20.7277 2.53594 20.9392 2.6781C21.1507 2.81879 21.2623 3.03332 21.2738 3.3217C21.2801 3.47913 21.2444 3.61976 21.1667 3.74359C21.089 3.86594 20.9777 3.95791 20.8329 4.01948C21.0026 4.05421 21.138 4.13225 21.239 4.25361C21.3415 4.37493 21.3964 4.52606 21.4037 4.70704C21.416 5.01602 21.3248 5.25383 21.1302 5.42047C20.9355 5.58712 20.6522 5.67908 20.2802 5.69636L19.0063 5.74541ZM19.6255 4.32018L19.6602 5.18752L20.2386 5.16525C20.3977 5.15912 20.5199 5.11757 20.6055 5.0406C20.6926 4.96209 20.7335 4.85737 20.7282 4.72641C20.7165 4.43216 20.5551 4.2888 20.2443 4.29634L19.6255 4.32018ZM19.6068 3.8523L20.1064 3.83305C20.4467 3.81406 20.6117 3.67434 20.6012 3.41391C20.5954 3.26825 20.5477 3.16546 20.4582 3.10555C20.37 3.0441 20.233 3.01696 20.0469 3.02413L19.5743 3.04233L19.6068 3.8523Z" fill="#2662CC"/>
<path d="M25.0838 4.50993C25.0379 4.82329 24.9412 5.0901 24.7936 5.31032C24.6462 5.53055 24.4575 5.68995 24.2277 5.78852C23.9993 5.88729 23.7491 5.91756 23.4772 5.87928C23.2082 5.84143 22.9774 5.74426 22.7849 5.58776C22.5924 5.43125 22.4553 5.22752 22.3738 4.97654C22.2924 4.72411 22.2733 4.44474 22.3166 4.13846L22.3397 3.98104C22.3855 3.66767 22.483 3.40025 22.6323 3.17877C22.7831 2.95605 22.9727 2.79603 23.2008 2.69871C23.4306 2.60014 23.6807 2.56988 23.9513 2.60794C24.2218 2.646 24.4525 2.74391 24.6432 2.90166C24.8357 3.05816 24.9718 3.26398 25.0512 3.51912C25.1323 3.773 25.1501 4.05591 25.1045 4.36782L25.0838 4.50993ZM24.4271 4.27027C24.4759 3.9365 24.452 3.67431 24.3555 3.48372C24.2591 3.29312 24.0978 3.18193 23.8719 3.15015C23.6475 3.11857 23.4618 3.1802 23.3147 3.33504C23.1679 3.48843 23.0695 3.73044 23.0196 4.0611L22.9969 4.21633C22.9494 4.54136 22.9734 4.80208 23.0691 4.99851C23.1647 5.19493 23.327 5.30924 23.5559 5.34145C23.7804 5.37303 23.9653 5.31129 24.1109 5.15623C24.2567 4.99974 24.3545 4.75615 24.4043 4.4255L24.4271 4.27027Z" fill="#2662CC"/>
<path d="M28.3969 5.51409C28.2941 5.81417 28.1497 6.05944 27.9641 6.24989C27.7784 6.44035 27.5635 6.56369 27.3193 6.61989C27.0765 6.67657 26.8249 6.66199 26.5644 6.57614C26.3068 6.49123 26.0978 6.35475 25.9373 6.16671C25.7769 5.97866 25.6796 5.75399 25.6456 5.49269C25.6121 5.22998 25.6448 4.95184 25.7438 4.65828L25.7955 4.50754C25.8983 4.20745 26.0436 3.96172 26.2311 3.77034C26.4206 3.57802 26.6365 3.45423 26.8788 3.39895C27.123 3.34274 27.3746 3.35733 27.6337 3.44271C27.8927 3.52808 28.1015 3.66526 28.2601 3.85423C28.4206 4.04228 28.5164 4.26881 28.5476 4.53383C28.5806 4.79792 28.5459 5.07932 28.4435 5.37801L28.3969 5.51409ZM27.7952 5.162C27.9047 4.84237 27.9296 4.58027 27.8699 4.37571C27.8101 4.17116 27.672 4.03322 27.4557 3.96192C27.2408 3.89109 27.0468 3.91877 26.8736 4.04501C26.701 4.16984 26.5596 4.39043 26.4495 4.7068L26.3986 4.85545C26.2919 5.16669 26.2675 5.42739 26.3254 5.63753C26.3833 5.84767 26.5218 5.98887 26.741 6.06111C26.9559 6.13195 27.1492 6.10401 27.3209 5.97732C27.4931 5.84922 27.6343 5.627 27.7443 5.31063L27.7952 5.162Z" fill="#2662CC"/>
<path d="M29.8515 6.48722L29.3615 6.64713L28.9115 7.45297L28.3188 7.13463L29.8943 4.31421L30.4869 4.63254L29.7728 5.91103L30.2293 5.70048L31.4805 5.16628L32.2094 5.55783L30.4881 6.26253L30.6635 8.39416L29.9584 8.01535L29.8515 6.48722Z" fill="#2662CC"/>
<path d="M33.9682 6.77422L33.0684 9.08588L35.2478 7.84199L35.9236 8.40593L33.7984 10.8551L33.2822 10.4243L33.8631 9.75481L34.9173 8.64212L32.6595 9.90473L32.3061 9.60988L33.2159 7.22536L32.2661 8.42225L31.6852 9.09174L31.1705 8.66234L33.2957 6.21313L33.9682 6.77422Z" fill="#2662CC"/>
<path d="M35.7681 12.1977L35.0368 11.2838L34.3662 11.5191L33.9226 10.9648L37.256 9.92114L37.6425 10.4042L35.8207 13.3366L35.3771 12.7822L35.7681 12.1977ZM35.5799 11.0931L36.086 11.7256L36.7972 10.6645L35.5799 11.0931Z" fill="#2662CC"/>
<path d="M37.692 13.9538L37.1935 13.8215L36.3643 14.2491L36.0498 13.6626L38.9523 12.166L39.2668 12.7525L37.9511 13.4309L38.4503 13.5029L39.794 13.7358L40.1809 14.4572L38.3491 14.1115L37.294 15.9832L36.9197 15.2852L37.692 13.9538Z" fill="#2662CC"/>
<path d="M39.485 17.9272L39.086 16.7166L38.2502 16.9815L38.7185 18.4023L38.202 18.566L37.5259 16.5148L40.6463 15.5256L41.321 17.5727L40.8003 17.7377L40.3333 16.3213L39.5896 16.557L39.9887 17.7675L39.485 17.9272Z" fill="#2662CC"/>
<path d="M39.7364 20.1012L39.6584 19.5789L38.4706 19.7493L38.3727 19.0938L41.6175 18.6279L41.794 19.8102C41.8501 20.1861 41.808 20.4883 41.6676 20.7168C41.5272 20.9453 41.301 21.0819 40.989 21.1267C40.7676 21.1585 40.5756 21.1377 40.4129 21.0644C40.2519 20.9922 40.1133 20.8671 39.9972 20.6887L38.7739 21.5675L38.7427 21.572L38.6377 20.8683L39.7364 20.1012ZM40.2 19.5011L40.2789 20.03C40.3034 20.1946 40.3648 20.316 40.4631 20.3942C40.5627 20.4722 40.6876 20.5004 40.8376 20.4788C40.9906 20.4569 41.1046 20.3966 41.1794 20.298C41.2544 20.201 41.2788 20.0642 41.2524 19.8879L41.1738 19.3613L40.2 19.5011Z" fill="#2662CC"/>
<path d="M39.8742 24.9456L39.9366 24.4212L38.7444 24.2846L38.8228 23.6265L42.0799 23.9997L41.9385 25.1865C41.8936 25.5638 41.7731 25.845 41.5772 26.0302C41.3813 26.2153 41.1268 26.2899 40.8136 26.2539C40.5914 26.2285 40.4114 26.1597 40.2735 26.0476C40.1371 25.937 40.0363 25.781 39.9711 25.5792L38.5576 26.1178L38.5263 26.1143L38.6105 25.4078L39.8742 24.9456ZM40.4803 24.4835L40.4171 25.0144C40.3974 25.1797 40.4246 25.3125 40.4988 25.413C40.5745 25.5136 40.6877 25.5725 40.8384 25.5897C40.9919 25.6072 41.1179 25.578 41.2161 25.5018C41.3142 25.4271 41.3738 25.3012 41.3949 25.1243L41.4579 24.5955L40.4803 24.4835Z" fill="#2662CC"/>
<path d="M38.5321 28.653L38.8794 27.5422L38.2994 27.1368L38.51 26.4631L41.2874 28.5504L41.1039 29.1375L37.6088 29.3456L37.8194 28.672L38.5321 28.653ZM39.3492 27.8706L39.1088 28.6393L40.4033 28.6057L39.3492 27.8706Z" fill="#2662CC"/>
<path d="M38.7947 33.0495L39.2464 32.1697L36.8062 30.9649L37.1099 30.373L39.5503 31.5778L39.9959 30.7098L40.4847 30.9511L39.2835 33.2909L38.7947 33.0495Z" fill="#2662CC"/>
<path d="M35.6419 32.8724L36.0178 32.3218L38.7429 34.1105L38.3671 34.6612L35.6419 32.8724Z" fill="#2662CC"/>
<path d="M33.5589 35.3788L34.0046 34.8807L36.4939 35.307L34.8722 33.9113L35.3179 33.4133L37.7827 35.5344L37.3371 36.0325L34.8428 35.6051L36.468 37.0037L36.0238 37.5L33.5589 35.3788Z" fill="#2662CC"/>
<path d="M31.4158 37.6423C31.4208 37.4563 31.4854 37.2645 31.6094 37.067C31.7343 36.8705 31.9028 36.6901 32.1148 36.5257C32.3374 36.3531 32.571 36.2488 32.8158 36.2128C33.0604 36.179 33.3017 36.2172 33.5398 36.3272C33.7768 36.4383 33.9951 36.6153 34.1949 36.8582L34.3332 37.0298C34.5363 37.2816 34.6689 37.5326 34.731 37.7829C34.7928 38.0353 34.7816 38.273 34.6973 38.496C34.6128 38.7212 34.461 38.9187 34.242 39.0886C33.9369 39.3252 33.6408 39.4386 33.3532 39.4286C33.0668 39.4199 32.7976 39.2917 32.5461 39.0438L33.0619 38.6437C33.2019 38.7698 33.3395 38.8348 33.4748 38.8388C33.6089 38.8437 33.7466 38.7913 33.888 38.6817C34.0682 38.5419 34.1519 38.3692 34.1389 38.1633C34.126 37.9574 34.0144 37.7229 33.8042 37.4598L33.6742 37.2987C33.461 37.0342 33.2486 36.8741 33.0371 36.8185C32.8257 36.7628 32.621 36.8117 32.4232 36.9652C32.2242 37.1195 32.1158 37.2711 32.0981 37.4201L32.4487 37.8549L32.9311 37.4808L33.2398 37.8638L32.2275 38.6487L31.4158 37.6423Z" fill="#2662CC"/>
<path d="M29.5785 39.1943C29.6395 39.3042 29.7258 39.3672 29.8373 39.383C29.9494 39.4002 30.1263 39.3862 30.3679 39.341C30.6102 39.2972 30.809 39.2748 30.9641 39.274C31.3874 39.2726 31.6806 39.4188 31.8436 39.7122C31.9283 39.8648 31.9603 40.0239 31.9393 40.1893C31.9178 40.3568 31.8439 40.5177 31.7178 40.6723C31.5903 40.8276 31.4243 40.9598 31.2199 41.069C31.0142 41.1789 30.8105 41.2399 30.6087 41.2521C30.4076 41.2657 30.2259 41.2294 30.0635 41.1434C29.8999 41.0581 29.771 40.9307 29.6769 40.7613L30.2703 40.4444C30.3421 40.5737 30.4394 40.6518 30.5619 40.6785C30.6852 40.7065 30.822 40.6805 30.9723 40.6001C31.1174 40.5227 31.2132 40.432 31.26 40.3283C31.3074 40.2259 31.3037 40.1255 31.2492 40.0272C31.1982 39.9355 31.1087 39.8836 30.9805 39.8715C30.8511 39.8601 30.6796 39.8762 30.4662 39.9198C30.0733 40.0005 29.7589 40.0084 29.5227 39.9434C29.2865 39.8784 29.1074 39.736 28.9853 39.5162C28.8495 39.2718 28.8371 39.0293 28.9481 38.789C29.0598 38.5499 29.2753 38.3452 29.5944 38.1747C29.8159 38.0564 30.0396 37.9881 30.2653 37.9698C30.4918 37.9527 30.6917 37.9877 30.8647 38.0746C31.0365 38.1623 31.1731 38.2972 31.2743 38.4796L30.679 38.7976C30.5059 38.4859 30.2295 38.4315 29.8497 38.6344C29.7087 38.7098 29.614 38.7964 29.5658 38.8943C29.5182 38.9934 29.5225 39.0934 29.5785 39.1943Z" fill="#2662CC"/>
</g>
</g>
</g>
<defs>
<clipPath id="clip0_1_6286">
<rect width="42" height="42" fill="white" transform="translate(0.0799561 0.870117)"/>
</clipPath>
<clipPath id="clip1_1_6286">
<rect width="42" height="42" fill="white" transform="translate(0.0799561 0.870117)"/>
</clipPath>
<clipPath id="clip2_1_6286">
<rect width="42" height="38.7692" fill="white" transform="translate(0.0799561 2.4856)"/>
</clipPath>
</defs>
</svg>
