<svg width="40" height="41" viewBox="0 0 40 41" fill="none" xmlns="http://www.w3.org/2000/svg">
<path d="M30 0.429993H10C4.47715 0.429993 0 4.90715 0 10.43V30.43C0 35.9528 4.47715 40.43 10 40.43H30C35.5228 40.43 40 35.9528 40 30.43V10.43C40 4.90715 35.5228 0.429993 30 0.429993Z" fill="url(#paint0_linear_1_334)"/>
<path d="M14.687 17.383C14.927 16.211 14.495 15.376 13.712 14.826C12.996 14.349 12.093 14.276 11.142 14.754L7.16401 16.55C6.16501 17.003 5.73801 18.175 6.16501 19.155C6.3765 19.6315 6.76836 20.0048 7.25465 20.1928C7.74093 20.3808 8.28194 20.3683 8.75901 20.158L9.28301 19.918L8.42801 24.582C8.18801 25.991 9.09601 27.139 10.335 27.38C11.646 27.622 12.929 26.758 13.145 25.441L14.687 17.384V17.383ZM15.11 14.43C15.634 15.053 16.253 15.82 15.941 17.683L15.134 22.063L15.278 25.58C15.302 26.849 15.922 27.399 16.969 27.399H19.635C20.466 27.399 20.827 26.752 21.158 25.942L23.181 20.944L23.397 25.724C23.421 26.776 23.944 27.423 24.92 27.423H27.946C28.801 27.423 29.161 26.897 29.541 25.966L33.422 16.399C33.85 15.419 33.591 14.441 32.543 14.441H30.613C29.897 14.441 29.397 14.681 29.113 15.371L26.491 21.773L26.251 16.057C26.202 14.837 25.631 14.431 24.939 14.431H22.964C22.177 14.431 21.725 14.74 21.49 15.338L18.872 21.798L18.632 15.912C18.607 14.812 18.228 14.431 17.344 14.431H15.11V14.43Z" fill="white"/>
<defs>
<linearGradient id="paint0_linear_1_334" x1="-2.07795e-07" y1="2.57299" x2="23.909" y2="47.034" gradientUnits="userSpaceOnUse">
<stop stop-color="#1BF1FF"/>
<stop offset="1" stop-color="#0855C4"/>
</linearGradient>
</defs>
</svg>
