<svg width="8" height="9" viewBox="0 0 8 9" fill="none" xmlns="http://www.w3.org/2000/svg">
<path d="M3.96625 0.669747L3.618 1.01778C3.53557 1.10015 3.53557 1.23371 3.618 1.3161L6.34662 4.04297H0.341076C0.224512 4.04297 0.130005 4.13742 0.130005 4.25391V4.7461C0.130005 4.86259 0.224512 4.95703 0.341076 4.95703H6.34662L3.618 7.68393C3.53557 7.7663 3.53557 7.89986 3.618 7.98225L3.96625 8.33028C4.04867 8.41265 4.18231 8.41265 4.26475 8.33028L7.9482 4.64917C8.03062 4.5668 8.03062 4.43324 7.9482 4.35085L4.26474 0.669747C4.18231 0.587359 4.04867 0.587359 3.96625 0.669747Z" fill="black" fill-opacity="0.3"/>
</svg>
