<svg width="41" height="41" viewBox="0 0 41 41" fill="none" xmlns="http://www.w3.org/2000/svg">
<path d="M32.5 0.429993H8.5C4.08172 0.429993 0.5 4.01171 0.5 8.42999V32.43C0.5 36.8483 4.08172 40.43 8.5 40.43H32.5C36.9183 40.43 40.5 36.8483 40.5 32.43V8.42999C40.5 4.01171 36.9183 0.429993 32.5 0.429993Z" fill="url(#paint0_linear_1_456)"/>
<path fill-rule="evenodd" clip-rule="evenodd" d="M9.7 13.237C9.56 12.351 9.49 11.909 9.609 11.544C9.71335 11.2227 9.91673 10.9426 10.19 10.744C10.501 10.518 10.944 10.448 11.829 10.308L19.416 9.10597C20.301 8.96597 20.743 8.89597 21.109 9.01397C21.4305 9.11859 21.7105 9.32233 21.909 9.59598C22.135 9.90598 22.205 10.349 22.345 11.234L24.449 24.518C24.589 25.403 24.659 25.846 24.54 26.211C24.4359 26.5322 24.2329 26.8122 23.96 27.011C23.648 27.237 23.206 27.307 22.32 27.447L14.733 28.649C13.848 28.789 13.406 28.859 13.041 28.74C12.7198 28.6359 12.4398 28.4329 12.241 28.16C12.015 27.848 11.945 27.406 11.805 26.52L9.7 13.237ZM20.483 12.07C20.573 12.633 20.209 13.158 19.672 13.243C19.135 13.328 18.627 12.941 18.538 12.379C18.448 11.816 18.812 11.291 19.349 11.206C19.886 11.121 20.394 11.508 20.483 12.07ZM14.8 26.55C15.337 26.464 15.7 25.939 15.611 25.376C15.522 24.813 15.014 24.426 14.477 24.511C13.94 24.596 13.577 25.121 13.666 25.684C13.756 26.247 14.263 26.634 14.8 26.549V26.55ZM19.365 17.851L17.504 15.994C17.4345 15.9246 17.3545 15.8666 17.267 15.822C16.782 15.574 16.174 15.782 15.908 16.285L14.624 18.715C14.413 19.115 14.478 19.598 14.784 19.903L16.645 21.761C16.715 21.831 16.795 21.888 16.882 21.933C17.367 22.181 17.975 21.973 18.242 21.47L19.525 19.039C19.6287 18.8498 19.6691 18.6324 19.6403 18.4187C19.6115 18.2049 19.515 18.006 19.365 17.851Z" fill="white"/>
<path fill-rule="evenodd" clip-rule="evenodd" d="M18.08 29.817L18.257 29.852L25.794 31.338C26.674 31.511 27.113 31.598 27.482 31.493C27.8072 31.401 28.095 31.2085 28.304 30.943C28.541 30.64 28.628 30.201 28.801 29.321L31.403 16.126C31.576 15.246 31.663 14.807 31.558 14.437C31.4654 14.1124 31.2726 13.8253 31.007 13.617C30.705 13.379 30.265 13.292 29.387 13.119L24.369 12.129C24.486 12.544 24.572 13.089 24.694 13.856L26.397 24.612C26.607 25.939 26.713 26.603 26.534 27.152C26.3776 27.6339 26.0727 28.0539 25.663 28.352C25.196 28.69 24.533 28.795 23.205 29.005L18.146 29.807L18.08 29.817ZM29.745 15.904C29.855 15.345 29.512 14.807 28.978 14.701C28.444 14.596 27.923 14.964 27.812 15.523C27.702 16.083 28.045 16.621 28.579 16.726C29.113 16.831 29.634 16.463 29.745 15.904Z" fill="white"/>
<defs>
<linearGradient id="paint0_linear_1_456" x1="25.129" y1="40.13" x2="5.67" y2="-1.24101" gradientUnits="userSpaceOnUse">
<stop stop-color="#8391AF"/>
<stop offset="0.431" stop-color="#43B0FB"/>
<stop offset="1" stop-color="#C700FF"/>
</linearGradient>
</defs>
</svg>
