<svg width="17" height="17" viewBox="0 0 17 17" fill="none" xmlns="http://www.w3.org/2000/svg">
<g clip-path="url(#clip0_1_151)">
<path d="M8.02002 16.5C12.4383 16.5 16.02 12.9183 16.02 8.5C16.02 4.08172 12.4383 0.5 8.02002 0.5C3.60174 0.5 0.0200195 4.08172 0.0200195 8.5C0.0200195 12.9183 3.60174 16.5 8.02002 16.5Z" fill="#F0F0F0"/>
<path d="M1.67375 3.62943C1.04534 4.44702 0.5715 5.38936 0.295593 6.41308H4.45741L1.67375 3.62943Z" fill="#0066B1"/>
<path d="M15.7444 6.4131C15.4685 5.38941 14.9946 4.44706 14.3662 3.62947L11.5826 6.4131H15.7444Z" fill="#0066B1"/>
<path d="M0.295593 10.587C0.571531 11.6107 1.04537 12.553 1.67375 13.3706L4.45731 10.587H0.295593Z" fill="#0066B1"/>
<path d="M12.8906 2.15378C12.073 1.52537 11.1307 1.05153 10.1069 0.775589V4.93737L12.8906 2.15378Z" fill="#0066B1"/>
<path d="M3.14941 14.8462C3.96701 15.4746 4.90935 15.9485 5.93304 16.2244V12.0627L3.14941 14.8462Z" fill="#0066B1"/>
<path d="M5.93301 0.775589C4.90932 1.05153 3.96698 1.52537 3.14941 2.15375L5.93301 4.93734V0.775589Z" fill="#0066B1"/>
<path d="M10.1069 16.2244C11.1306 15.9485 12.073 15.4746 12.8905 14.8462L10.1069 12.0627V16.2244Z" fill="#0066B1"/>
<path d="M11.5826 10.587L14.3662 13.3706C14.9946 12.5531 15.4685 11.6107 15.7444 10.587H11.5826Z" fill="#0066B1"/>
<path d="M15.9523 7.45653H9.06355H9.06352V0.567719C8.72193 0.52325 8.37368 0.5 8.02002 0.5C7.6663 0.5 7.31811 0.52325 6.97655 0.567719V7.45647V7.4565H0.0877383C0.0432695 7.79809 0.0200195 8.14634 0.0200195 8.5C0.0200195 8.85372 0.0432695 9.20191 0.0877383 9.54347H6.97649H6.97652V16.4323C7.31811 16.4768 7.6663 16.5 8.02002 16.5C8.37368 16.5 8.72193 16.4768 9.06349 16.4323V9.54353V9.5435H15.9523C15.9968 9.20191 16.02 8.85372 16.02 8.5C16.02 8.14634 15.9968 7.79809 15.9523 7.45653Z" fill="#BE1833"/>
<path d="M10.1069 10.587L13.6768 14.1569C13.841 13.9928 13.9976 13.8212 14.1471 13.6433L11.0907 10.587H10.1069V10.587Z" fill="#BE1833"/>
<path d="M5.93307 10.587H5.933L2.36316 14.1568C2.52728 14.321 2.69888 14.4777 2.87675 14.6271L5.93307 11.5707V10.587Z" fill="#BE1833"/>
<path d="M5.93307 6.41309V6.41303L2.36319 2.84312C2.19901 3.00725 2.04238 3.17884 1.89294 3.35672L4.94929 6.41306L5.93307 6.41309Z" fill="#BE1833"/>
<path d="M10.1069 6.4131L13.6768 2.84316C13.5127 2.67897 13.3411 2.52235 13.1632 2.37294L10.1069 5.42928V6.4131Z" fill="#BE1833"/>
</g>
<defs>
<clipPath id="clip0_1_151">
<rect width="16" height="16" fill="white" transform="translate(0.0200195 0.5)"/>
</clipPath>
</defs>
</svg>
