<svg width="14" height="15" viewBox="0 0 14 15" fill="none" xmlns="http://www.w3.org/2000/svg">
<path d="M10.704 6.932H3.84797C3.65203 6.93305 3.46442 7.01135 3.32587 7.1499C3.18732 7.28845 3.10902 7.47607 3.10797 7.672V10.62C3.10903 11.3001 3.37937 11.952 3.85987 12.4333C4.34037 12.9145 4.99191 13.1859 5.67197 13.188H8.79997C9.46555 13.1859 10.1033 12.9206 10.5739 12.4499C11.0445 11.9793 11.3099 11.3416 11.312 10.676V7.532C11.312 7.45253 11.2962 7.37385 11.2655 7.30053C11.2349 7.22721 11.19 7.1607 11.1334 7.10488C11.0769 7.04906 11.0098 7.00504 10.936 6.97536C10.8623 6.94568 10.7834 6.93094 10.704 6.932ZM7.32397 10.444V11.14C7.32089 11.1984 7.29552 11.2533 7.25309 11.2935C7.21066 11.3337 7.15442 11.3561 7.09597 11.356C7.03712 11.3561 6.98041 11.3339 6.93733 11.2938C6.89425 11.2537 6.86803 11.1987 6.86397 11.14V10.44C6.64896 10.3898 6.45756 10.2677 6.32151 10.0938C6.18546 9.91993 6.11294 9.70476 6.11597 9.484C6.11597 9.35478 6.14142 9.22683 6.19087 9.10744C6.24032 8.98806 6.31281 8.87958 6.40418 8.78821C6.49555 8.69684 6.60403 8.62435 6.72341 8.5749C6.8428 8.52545 6.97075 8.5 7.09997 8.5C7.22919 8.5 7.35715 8.52545 7.47653 8.5749C7.59592 8.62435 7.70439 8.69684 7.79576 8.78821C7.88714 8.87958 7.95962 8.98806 8.00907 9.10744C8.05852 9.22683 8.08397 9.35478 8.08397 9.484C8.08641 9.70641 8.01218 9.92287 7.87376 10.097C7.73535 10.2711 7.5412 10.3922 7.32397 10.44V10.444ZM7.22397 2.192H7.17597C6.46058 2.19518 5.77569 2.48214 5.27171 2.98988C4.76772 3.49761 4.48584 4.18461 4.48797 4.9V6.5H4.93997V4.852C4.94162 4.56247 5.00081 4.27616 5.11412 4.00972C5.22743 3.74328 5.39258 3.50203 5.59997 3.3C6.01811 2.88578 6.5834 2.6542 7.17197 2.656H7.19997C7.78853 2.66647 8.34949 2.90739 8.76235 3.32697C9.17521 3.74656 9.40702 4.31135 9.40797 4.9V6.456H9.85997V4.856C9.85385 4.15618 9.57504 3.48634 9.08279 2.98887C8.59055 2.49139 7.92369 2.20551 7.22397 2.192Z" fill="white"/>
</svg>
