<svg width="24" height="25" viewBox="0 0 24 25" fill="none" xmlns="http://www.w3.org/2000/svg">
<path d="M13.1951 8.51045V8.31476L12.5877 8.35661C12.4154 8.36768 12.2861 8.40399 12.2 8.46553C12.1582 8.4941 12.1242 8.53276 12.1013 8.57794C12.0784 8.62313 12.0672 8.67336 12.0689 8.72399C12.0689 8.83169 12.112 8.91784 12.1981 8.98122C12.2843 9.04522 12.3994 9.07661 12.5434 9.07661C12.6357 9.07661 12.7218 9.06245 12.8012 9.03415C12.8806 9.00645 12.9501 8.96645 13.0086 8.91661C13.0675 8.86666 13.1147 8.80441 13.1469 8.73423C13.1791 8.66406 13.1956 8.58767 13.1951 8.51045ZM12 0.642761C5.38338 0.642761 0.142761 5.88338 0.142761 12.5C0.142761 19.1172 5.38338 24.3572 12 24.3572C18.6166 24.3572 23.8572 19.1172 23.8572 12.5C23.8572 5.88338 18.6172 0.642761 12 0.642761ZM14.3015 7.67045C14.3575 7.51353 14.4369 7.37876 14.5391 7.26676C14.6415 7.15435 14.7676 7.06607 14.9083 7.0083C15.0607 6.94576 15.2242 6.91478 15.3889 6.91722C15.5489 6.91722 15.6923 6.94122 15.8203 6.98861C15.9495 7.03599 16.0591 7.09999 16.1508 7.18061C16.2431 7.26061 16.3157 7.35476 16.3698 7.46245C16.4234 7.56953 16.456 7.68399 16.4665 7.80276H15.9901C15.9786 7.73837 15.9568 7.67625 15.9255 7.61876C15.8948 7.56218 15.8534 7.51204 15.8037 7.47107C15.7505 7.42827 15.69 7.39534 15.6252 7.37384C15.5509 7.34902 15.4728 7.33695 15.3945 7.33815C15.2992 7.33694 15.205 7.35802 15.1194 7.39968C15.0369 7.44038 14.9647 7.4993 14.9083 7.57199C14.8505 7.64584 14.8049 7.73692 14.7729 7.84338C14.7392 7.95888 14.7228 8.07875 14.7243 8.19907C14.7243 8.33384 14.7403 8.45507 14.7735 8.56091C14.8049 8.66799 14.8511 8.75784 14.9101 8.83168C14.9692 8.90553 15.0406 8.96153 15.1237 9.0003C15.2061 9.03968 15.2978 9.05938 15.3969 9.05938C15.56 9.05938 15.6923 9.02122 15.7957 8.9443C15.9022 8.86144 15.9736 8.74147 15.9957 8.6083H16.472C16.4601 8.73323 16.4235 8.85455 16.3643 8.96522C16.3075 9.07082 16.2306 9.16427 16.1378 9.2403C16.0404 9.3188 15.9291 9.37848 15.8098 9.4163C15.6759 9.45861 15.5361 9.47939 15.3957 9.47784C15.2172 9.47784 15.0566 9.4483 14.912 9.38984C14.7712 9.33325 14.6445 9.2465 14.5409 9.13568C14.4345 9.01928 14.3534 8.88202 14.3028 8.73261C14.2446 8.56062 14.2163 8.37997 14.2191 8.19845C14.2156 8.0192 14.2435 7.8401 14.3015 7.67045ZM7.52861 6.94984H8.00492V7.37322H8.01415C8.06966 7.23684 8.1665 7.12127 8.29107 7.04276C8.35359 7.0031 8.4216 6.97283 8.49292 6.95292C8.56676 6.93261 8.6443 6.92215 8.72553 6.92215C8.9003 6.92215 9.04861 6.96399 9.16861 7.04768C9.28922 7.13076 9.37476 7.25076 9.42522 7.40768H9.43753C9.46892 7.33199 9.51138 7.2643 9.56368 7.20461C9.66964 7.08345 9.80935 6.99667 9.96492 6.95538C10.0455 6.93322 10.1305 6.92215 10.2197 6.92215C10.3428 6.92215 10.4535 6.94184 10.5545 6.98122C10.6516 7.01708 10.7398 7.07379 10.8127 7.14736C10.8857 7.22093 10.9416 7.30957 10.9766 7.40707C11.0148 7.50861 11.0345 7.62184 11.0345 7.74615V9.44953H10.5372V7.86615C10.5372 7.70245 10.4948 7.57507 10.4105 7.48461C10.3261 7.39538 10.2055 7.35045 10.0492 7.35045C9.97685 7.3497 9.90507 7.36351 9.83815 7.39107C9.77607 7.41692 9.72009 7.45549 9.67384 7.5043C9.62634 7.5542 9.58948 7.61324 9.56553 7.67784C9.53863 7.74856 9.52527 7.82371 9.52615 7.89938V9.45015H9.0363V7.82553C9.03714 7.75877 9.02566 7.69244 9.00245 7.62984C8.98156 7.57365 8.94874 7.52266 8.90624 7.48038C8.86375 7.43809 8.81259 7.40553 8.7563 7.38491C8.69223 7.36163 8.62446 7.35016 8.5563 7.35107C8.48311 7.35051 8.4106 7.36518 8.34338 7.39415C8.27908 7.4217 8.22124 7.46237 8.17356 7.51355C8.12587 7.56473 8.0894 7.62529 8.06645 7.69138C8.04122 7.7603 7.99999 7.83538 7.99999 7.91661V9.44953H7.52861V6.95045V6.94984ZM8.61045 18.9148C6.42461 18.9148 5.05353 17.396 5.05353 14.972C5.05353 12.548 6.42461 11.0243 8.61045 11.0243C10.7963 11.0243 12.1612 12.548 12.1612 14.972C12.1612 17.3954 10.7963 18.9148 8.61045 18.9148ZM12.6572 9.44399C12.4625 9.49229 12.2581 9.4844 12.0677 9.42122C11.97 9.38925 11.8794 9.33844 11.8012 9.27168C11.727 9.20738 11.6677 9.12755 11.6277 9.03784C11.5849 8.94184 11.5635 8.8377 11.5649 8.73261C11.5649 8.51292 11.6468 8.34184 11.8105 8.21815C11.9735 8.09507 12.2105 8.02307 12.5206 8.00276L13.1951 7.96399V7.77076C13.1951 7.62676 13.1489 7.51661 13.0578 7.44153C12.9661 7.36707 12.8369 7.32892 12.6701 7.32892C12.6025 7.32892 12.5391 7.33753 12.4806 7.35415C12.4257 7.36973 12.3737 7.39426 12.3268 7.42676C12.2384 7.48798 12.1773 7.58108 12.1563 7.68645H11.6886C11.6917 7.57568 11.7194 7.47353 11.7705 7.37999C11.8215 7.28645 11.8917 7.20522 11.9797 7.1363C12.0683 7.06676 12.1723 7.01322 12.2923 6.97507C12.4189 6.93532 12.551 6.9158 12.6837 6.91722C12.8357 6.91722 12.9729 6.93568 13.096 6.97507C13.2203 7.01384 13.3255 7.06799 13.4129 7.13938C13.4991 7.209 13.5685 7.29713 13.616 7.39722C13.6628 7.49753 13.6868 7.61015 13.6868 7.73445V9.44892H13.2111V9.0323H13.1988C13.1636 9.09988 13.1184 9.16172 13.0646 9.21568C12.9523 9.32757 12.8114 9.40635 12.6572 9.44338V9.44399ZM15.8018 18.9148C14.1348 18.9148 13.0018 18.0415 12.9231 16.6711H14.008C14.0923 17.4545 14.8498 17.9732 15.8868 17.9732C16.8818 17.9732 17.5963 17.4545 17.5963 16.7449C17.5963 16.1314 17.1625 15.7603 16.1569 15.5068L15.1778 15.2637C13.7698 14.9141 13.1298 14.2735 13.1298 13.2206C13.1298 11.924 14.2621 11.0237 15.8763 11.0237C17.4535 11.0237 18.5545 11.9289 18.5963 13.2311H17.5225C17.448 12.4477 16.808 11.9658 15.8548 11.9658C14.9071 11.9658 14.2517 12.452 14.2517 13.1566C14.2517 13.7117 14.664 14.0403 15.6695 14.2945L16.4954 14.5006C18.0677 14.8821 18.7132 15.5012 18.7132 16.6126C18.7126 18.0311 17.5908 18.9148 15.8018 18.9148ZM8.61045 11.9972C7.11261 11.9972 6.17599 13.1455 6.17599 14.9714C6.17599 16.7923 7.11261 17.9406 8.61045 17.9406C10.1028 17.9406 11.0443 16.7917 11.0443 14.9714C11.0449 13.1455 10.1028 11.9972 8.61045 11.9972Z" fill="white"/>
</svg>
