<svg width="61" height="16" viewBox="0 0 61 16" fill="none" xmlns="http://www.w3.org/2000/svg">
<g clip-path="url(#clip0_1_12250)">
<path d="M17.3971 5.08L15.1671 14.121C15.7271 14.121 16.2601 13.919 16.7651 13.518C17.2701 13.118 17.5921 12.636 17.7361 12.076L19.4581 5.081H22.1411L22.1221 5.157H26.7131L24.7131 12.947C24.7101 12.963 24.7011 12.988 24.6871 13.03C24.6751 13.065 24.6671 13.095 24.6611 13.12L24.6581 13.132C24.5621 13.709 24.7861 14.04 25.3281 14.125L25.3481 14.128L24.9931 15.492H24.5771C23.6151 15.492 22.8921 15.284 22.4061 14.872C21.9191 14.457 21.7341 13.898 21.8531 13.194C21.8631 13.122 21.8801 13.051 21.9031 12.982L21.9141 12.947L23.5801 6.521H21.7881L20.8081 10.522C20.4901 11.843 19.7541 12.994 18.5981 13.975L18.5571 14.009C17.3771 14.997 16.1341 15.492 14.8271 15.492H12.1471L14.3561 6.452L14.6411 5.081L17.3971 5.08ZM36.7171 5.08L34.7491 13.198C34.7451 13.225 34.7371 13.252 34.7271 13.278C34.7161 13.304 34.7071 13.332 34.7021 13.36C34.6271 13.838 34.8451 14.09 35.3571 14.118L35.0211 15.492H34.0851C33.1581 15.492 32.5281 15.212 32.1911 14.651C31.5181 15.211 30.7921 15.491 30.0101 15.491H29.5941C28.6911 15.491 27.9621 15.241 27.4061 14.743C26.8481 14.245 26.6331 13.613 26.7561 12.848C26.7661 12.758 26.7861 12.668 26.8161 12.582L27.9251 7.99C28.1231 7.16 28.6331 6.466 29.4571 5.912C30.2801 5.359 31.1691 5.081 32.1251 5.081H36.7161L36.7171 5.08ZM47.5891 5.08C48.4961 5.08 49.2241 5.331 49.7791 5.83C50.3241 6.32 50.5411 6.942 50.4311 7.694L50.4261 7.727L50.3831 7.991L49.2491 12.581C49.0521 13.388 48.5431 14.075 47.7191 14.642C46.9081 15.198 46.0271 15.482 45.0701 15.492H44.6231C43.7051 15.492 42.9631 15.246 42.4031 14.755C41.8401 14.261 41.6231 13.627 41.7481 12.848C41.7581 12.771 41.7751 12.694 41.7971 12.619L41.8081 12.582L42.9451 7.991C43.1421 7.173 43.6481 6.482 44.4651 5.921C45.2671 5.371 46.1521 5.091 47.1211 5.081L47.5891 5.08ZM10.1421 0.5C11.1921 0.5 12.0241 0.758 12.6431 1.272C13.2571 1.79 13.4971 2.474 13.3581 3.326C13.3531 3.356 13.3441 3.409 13.3231 3.492C13.3011 3.572 13.2931 3.624 13.2881 3.654L10.8351 13.5C10.7691 13.89 10.9311 14.1 11.3191 14.127L10.9741 15.492H9.90207C9.24507 15.492 8.75207 15.33 8.43007 15.005C8.10307 14.68 7.99007 14.224 8.08607 13.64C8.09707 13.55 8.11807 13.462 8.14707 13.377L9.01407 9.92H6.57007L5.17607 15.492H2.49207L3.88207 9.92H0.0700684C0.0700684 8.945 0.845068 8.152 1.81207 8.152C2.46407 8.152 3.29307 8.148 4.19107 8.147H4.32607L5.45007 3.654C5.68607 2.703 6.24007 1.939 7.11507 1.364C7.99007 0.789 8.99707 0.5 10.1421 0.5ZM42.4121 2.582L41.8081 4.935H42.9631L42.6231 6.273H41.4901L39.9001 12.599C39.8991 12.615 39.8901 12.639 39.8791 12.679C39.8651 12.719 39.8561 12.753 39.8521 12.78C39.7581 13.353 39.9861 13.666 40.5341 13.718L40.1931 15.075H39.2571C38.5021 15.075 37.9381 14.878 37.5631 14.487C37.1911 14.093 37.0601 13.559 37.1711 12.881C37.1791 12.833 37.1891 12.786 37.2021 12.741C37.2201 12.673 37.2321 12.626 37.2361 12.599L38.8261 6.273H37.5161L37.8561 4.935H39.1631L39.7471 2.582H42.4121ZM55.5201 4.81L55.3121 5.676C56.1221 5.099 57.0861 4.81 58.1991 4.81H59.1251L58.3881 7.609H56.8831L57.2101 6.281C56.5381 6.509 55.9381 6.921 55.4041 7.519C54.8711 8.114 54.5141 8.754 54.3311 9.439L52.8961 15.032H50.1341L52.7721 4.81H55.5201ZM33.7151 6.454H31.8061C31.2491 6.454 30.8841 6.797 30.7101 7.479L29.4331 12.745C29.4291 12.772 29.4201 12.814 29.4041 12.869L29.3771 12.969C29.2571 13.737 29.5801 14.119 30.3491 14.119C30.7591 14.119 31.1491 13.969 31.5141 13.669C31.8791 13.367 32.1161 13.004 32.2231 12.582L33.7151 6.454ZM47.0261 6.474C46.7061 6.474 46.4161 6.615 46.1591 6.895C45.9091 7.167 45.7261 7.519 45.6131 7.95L45.6031 7.99L44.4891 12.582C44.4821 12.62 44.4731 12.657 44.4621 12.694C44.4471 12.742 44.4371 12.779 44.4321 12.807C44.3721 13.19 44.4111 13.503 44.5521 13.748C44.6931 13.996 44.8971 14.118 45.1641 14.118C45.4571 14.118 45.7381 13.985 46.0061 13.718C46.2681 13.459 46.4591 13.093 46.5791 12.621L46.5891 12.581L47.7031 7.991L47.7391 7.766C47.8061 7.357 47.7681 7.04 47.6311 6.813C47.4941 6.587 47.2931 6.474 47.0261 6.474ZM9.79807 1.865C9.43607 1.865 9.10507 1.997 8.81307 2.26C8.52207 2.524 8.33007 2.861 8.23807 3.27L6.99707 8.146L6.99207 8.176H9.43207L9.44107 8.146L10.6821 3.267L10.7131 3.083C10.7691 2.732 10.7131 2.438 10.5521 2.21C10.3861 1.977 10.1381 1.863 9.79807 1.863V1.865ZM26.3481 0.5C26.7361 0.5 27.0481 0.637 27.2821 0.908C27.5141 1.179 27.5981 1.505 27.5341 1.884C27.4711 2.264 27.2741 2.593 26.9521 2.871C26.6271 3.149 26.2691 3.288 25.8781 3.288C25.4891 3.288 25.1781 3.151 24.9471 2.88C24.7131 2.608 24.6281 2.278 24.6971 1.884C24.7601 1.505 24.9541 1.179 25.2771 0.908C25.6021 0.637 25.9581 0.5 26.3481 0.5Z" fill="#E50539"/>
</g>
<defs>
<clipPath id="clip0_1_12250">
<rect width="60" height="15" fill="white" transform="translate(0.0700684 0.5)"/>
</clipPath>
</defs>
</svg>
