<svg width="36" height="16" viewBox="0 0 36 16" fill="none" xmlns="http://www.w3.org/2000/svg">
<g clip-path="url(#clip0_1_12257)">
<mask id="mask0_1_12257" style="mask-type:luminance" maskUnits="userSpaceOnUse" x="0" y="0" width="35" height="16">
<path d="M34.4141 0.5H0.414062V15.5H34.4141V0.5Z" fill="white"/>
</mask>
<g mask="url(#mask0_1_12257)">
<path fill-rule="evenodd" clip-rule="evenodd" d="M34.3899 0.548805C34.4125 0.575866 34.4191 0.617217 34.4044 0.640731C34.3734 0.690461 33.6704 1.55563 33.6406 1.5807C33.6296 1.58999 33.4916 1.75722 33.3339 1.95232C33.1763 2.14742 33.0382 2.31465 33.027 2.32394C33.0159 2.33323 32.8774 2.50046 32.7193 2.69557C32.5613 2.89067 32.4041 3.08039 32.3701 3.11722C32.336 3.15401 32.3126 3.21482 32.3181 3.25235C32.3269 3.31364 32.3504 3.31985 32.5496 3.31357C33.0058 3.29918 33.7629 3.24401 33.8365 3.21975C33.9232 3.19124 34.1524 3.22509 34.1524 3.26641C34.1524 3.29465 33.8762 3.36999 33.5215 3.43854C33.409 3.4603 33.2555 3.4908 33.1805 3.50638C33.1054 3.52195 32.952 3.55236 32.8394 3.57395C32.7269 3.59553 32.5735 3.62594 32.4984 3.64151C32.4234 3.65709 32.2699 3.6877 32.1574 3.70955C32.0449 3.73141 31.9202 3.76188 31.8803 3.77722C31.8176 3.80138 31.3293 4.37253 30.5377 5.3476C30.4171 5.49625 30.3094 5.62545 30.2985 5.63475C30.2875 5.64406 30.1496 5.81128 29.9919 6.00638C29.8343 6.20148 29.6961 6.36871 29.685 6.37801C29.6738 6.38728 29.5357 6.55451 29.3781 6.74961C29.2204 6.94474 29.0822 7.11197 29.0709 7.12124C29.0104 7.17106 28.5812 7.72295 28.5368 7.808C28.4771 7.9224 28.4863 7.9517 28.6932 8.30367C28.8134 8.50828 28.9403 8.72367 29.5437 9.74792C29.7978 10.1791 30.1973 10.8599 30.4011 11.2091C30.4717 11.3299 30.6374 11.6111 30.7694 11.8341C31.1 12.3922 31.1385 12.4776 31.0871 12.5389C31.0644 12.566 30.966 12.5962 30.8684 12.6061C30.7708 12.616 30.5375 12.641 30.35 12.6619C30.0206 12.6984 29.816 12.7199 29.0882 12.7943C28.9006 12.8135 28.6933 12.8384 28.6274 12.8496C28.4562 12.8787 28.358 12.7883 28.1569 12.4161C28.0642 12.2447 27.9156 11.9751 27.8266 11.8172C27.64 11.4858 27.3136 10.8965 27.1203 10.5418C27.0268 10.3704 26.9674 10.2969 26.9221 10.2969C26.8775 10.2969 26.6586 10.557 26.2184 11.1331C24.7972 12.9926 23.6611 14.4819 23.4978 14.6995C23.3495 14.8969 23.286 14.9495 23.0521 15.0689C22.7438 15.2262 22.7042 15.2337 21.4834 15.3647C21.2308 15.3918 20.8276 15.4387 20.4339 15.4867C20.28 15.5055 20.1704 15.4684 20.1704 15.3976C20.1704 15.3584 20.186 15.3388 23.0335 11.7856C23.5314 11.1643 24.245 10.2749 24.6192 9.80924C25.7835 8.3603 25.9057 8.19699 25.8853 8.11649C25.8752 8.07662 25.7031 7.73378 25.503 7.3546C25.3028 6.97542 24.9751 6.35351 24.7748 5.97261C24.5745 5.59167 24.3547 5.18121 24.2863 5.06044C24.2179 4.93966 24.1616 4.79863 24.1612 4.74709C24.1603 4.64202 24.1985 4.62052 24.5696 4.5171C24.8183 4.4478 25.182 4.30922 25.1829 4.2834C25.1833 4.2741 24.929 4.27164 24.618 4.27791C24.3069 4.28418 24.0157 4.28017 23.9708 4.26901C23.8847 4.24761 23.712 4.00697 23.5546 3.68911C23.446 3.46962 23.4725 3.4233 23.7262 3.39026C23.8244 3.37745 23.9967 3.35367 24.1093 3.33739C24.2962 3.31036 24.4815 3.28553 25.1153 3.20263C25.4988 3.15246 25.8445 3.10249 25.9554 3.08121C26.0142 3.06989 26.095 3.07796 26.1349 3.09915C26.1765 3.12121 26.2946 3.30982 26.4119 3.54158C26.5243 3.76377 26.6354 3.94727 26.6587 3.94929C26.682 3.95135 26.9338 3.94993 27.2183 3.94612C27.7249 3.93942 27.8776 3.95482 27.8776 4.0127C27.8776 4.04162 27.7718 4.07833 27.2978 4.21397C26.9231 4.32122 26.8884 4.33926 26.8899 4.42629C26.891 4.496 27.0776 4.86874 27.4653 5.57563C27.5777 5.78057 27.6251 5.83724 27.6835 5.83646C27.7377 5.83572 27.8517 5.71916 28.0992 5.41164C28.2868 5.17855 28.4636 4.96235 28.4923 4.93124C28.5209 4.90009 28.6685 4.72258 28.8203 4.53679C28.972 4.35096 29.129 4.16988 29.1692 4.13438C29.2149 4.0939 29.5032 4.0043 29.9418 3.89421C30.3267 3.79763 30.6514 3.70888 30.6634 3.69695C30.7182 3.64276 30.5999 3.62384 30.1426 3.61367C29.6242 3.60215 29.5869 3.5883 29.7114 3.45364C29.7447 3.41759 29.9013 3.2285 30.0594 3.0334C30.2174 2.8383 30.3559 2.67107 30.367 2.66178C30.3782 2.65249 30.5163 2.48526 30.674 2.29016C30.8316 2.09506 30.9697 1.92783 30.9809 1.91853C30.992 1.90924 31.1306 1.74202 31.2889 1.54692C31.5627 1.20928 31.6301 1.12891 31.8382 0.891574C31.9348 0.781373 31.8752 0.794447 32.703 0.701812C32.8718 0.682927 33.1327 0.652758 33.2828 0.634751C33.4328 0.616744 33.6972 0.589447 33.8703 0.574075C34.0434 0.558737 34.1956 0.535697 34.2085 0.522893C34.2485 0.483197 34.3466 0.497217 34.3899 0.548805Z" fill="#FFDB00"/>
<path fill-rule="evenodd" clip-rule="evenodd" d="M20.8019 2.64548C20.8417 2.68479 20.8525 2.73258 20.8381 2.8056C20.8268 2.86287 20.8023 3.0159 20.7837 3.14568C20.765 3.27545 20.7357 3.46506 20.7186 3.56702C20.6613 3.90728 20.6083 4.22326 20.5908 4.32843C20.566 4.47752 20.6546 4.5571 20.8154 4.5302C20.8826 4.51891 21.0835 4.49393 21.2617 4.47465C21.4399 4.45537 21.7084 4.42604 21.8585 4.40946C22.6011 4.32745 22.5883 4.32742 22.6802 4.4128C22.7268 4.45601 22.8081 4.56782 22.8608 4.66122C22.9136 4.75466 23.0228 4.94484 23.1034 5.08389C23.5105 5.78582 23.5221 5.81508 23.4243 5.89527C23.3945 5.91964 23.2296 5.95193 23.0577 5.967C22.8858 5.98207 22.6147 6.00984 22.4553 6.02872C22.2958 6.0476 22.035 6.07766 21.8755 6.09553C21.7161 6.11339 21.4475 6.1436 21.2787 6.16264C21.1099 6.18172 20.8567 6.20956 20.7161 6.22456C20.3833 6.26002 20.2801 6.30428 20.2538 6.4226C20.2423 6.47424 20.225 6.53922 20.2154 6.56703C20.2057 6.59484 20.184 6.70861 20.167 6.81984C20.1271 7.08118 20.0817 7.34225 20.0322 7.59512C20.0104 7.70636 19.9801 7.87321 19.9648 7.96591C19.8918 8.41015 19.8611 8.5859 19.8294 8.74119C19.8105 8.83389 19.7785 9.00833 19.7583 9.12883C19.7382 9.24934 19.7087 9.42378 19.693 9.51647C19.6772 9.60917 19.6478 9.78361 19.6276 9.90411C19.6075 10.0246 19.575 10.1991 19.5555 10.2918C19.473 10.684 19.4753 10.791 19.5702 10.9761C19.6193 11.0718 19.6948 11.173 19.7379 11.201C19.8392 11.2665 20.139 11.3559 20.1779 11.3321C20.1944 11.322 20.3414 11.2989 20.5046 11.2807C20.6678 11.2625 20.9011 11.2344 21.023 11.2183C21.3222 11.1786 21.7616 11.1265 22.1211 11.088C22.2842 11.0705 22.4325 11.0472 22.4505 11.0363C22.4993 11.0064 22.5917 11.0507 22.5917 11.1039C22.5917 11.15 21.5829 12.4947 21.3569 12.75C21.2292 12.8942 21.2188 12.897 20.5285 12.9726C20.3597 12.9911 20.0988 13.021 19.9487 13.0389C19.0771 13.1433 18.7522 13.147 18.428 13.056C17.8993 12.9075 17.4767 12.4357 17.3677 11.8722C17.3101 11.5743 17.3112 11.5572 17.4425 10.7637C17.4609 10.6524 17.4914 10.4552 17.5104 10.3255C17.5294 10.1957 17.559 10.0061 17.5761 9.90411C17.5933 9.80215 17.6251 9.61254 17.6468 9.48276C17.6686 9.35299 17.6993 9.17097 17.715 9.07827C17.7308 8.98557 17.7615 8.80355 17.7833 8.67377C17.805 8.544 17.8368 8.35439 17.854 8.25243C17.8711 8.15046 17.9007 7.96085 17.9197 7.83108C17.9387 7.7013 17.9683 7.5117 17.9856 7.40973C18.0361 7.11155 18.0824 6.83666 18.1245 6.58389C18.1461 6.45411 18.1777 6.26451 18.1947 6.16254C18.2117 6.06057 18.2407 5.87855 18.2591 5.75804C18.3098 5.4266 18.382 4.98394 18.4653 4.494C18.4941 4.32475 18.5464 4.01322 18.604 3.66815C18.621 3.56618 18.649 3.38416 18.6663 3.26365C18.7291 2.82555 18.7401 2.81399 19.1303 2.77458C19.2428 2.76323 19.45 2.73993 19.5907 2.72281C19.7313 2.70568 19.9881 2.67912 20.1611 2.66379C20.3342 2.64848 20.4864 2.6255 20.4993 2.61272C20.5444 2.56812 20.7457 2.58993 20.8019 2.64548ZM9.00208 4.26307C9.03768 4.29826 9.05027 4.34467 9.03639 4.38947C9.02432 4.42844 9.00113 4.5513 8.98489 4.66254C8.94765 4.91744 8.89077 5.28182 8.85067 5.52209C8.7931 5.86716 8.74079 6.17868 8.71201 6.34793C8.69625 6.44063 8.66556 6.62265 8.6438 6.75243C8.62205 6.8822 8.59135 7.06422 8.5756 7.15692C8.55984 7.24962 8.52915 7.43164 8.50739 7.56142C8.48564 7.69119 8.45382 7.8808 8.43667 7.98276C8.41951 8.08473 8.38998 8.27434 8.37098 8.40411C8.35199 8.53389 8.32246 8.72349 8.3053 8.82546C8.28815 8.92743 8.25633 9.11703 8.23458 9.24681C8.21282 9.37658 8.18213 9.55861 8.16637 9.6513C8.15062 9.744 8.11992 9.92602 8.09817 10.0558C8.07641 10.1856 8.04459 10.3752 8.02744 10.4772C8.01028 10.5791 7.98075 10.7687 7.96176 10.8985C7.85236 11.6464 7.75394 12.1459 7.67434 12.3573C7.64484 12.4356 7.59669 12.5634 7.56733 12.6414C7.45813 12.9313 7.08192 13.4722 6.78611 13.7645C6.34224 14.2033 5.7638 14.5236 5.08011 14.7092C4.88968 14.7609 4.73196 14.7833 4.02294 14.8596C3.58985 14.9063 3.1247 14.9586 2.82937 14.994C2.67932 15.012 2.41844 15.0422 2.24963 15.0611C2.08083 15.08 1.81227 15.1109 1.65284 15.1296C1.49342 15.1483 1.23253 15.1788 1.0731 15.1973C0.913675 15.2158 0.713288 15.2396 0.627828 15.2502C0.508606 15.2649 0.461681 15.2566 0.426215 15.2144C0.386076 15.1666 0.431671 15.0544 0.773139 14.3604C0.989348 13.9209 1.19369 13.4969 1.22725 13.418C1.2608 13.3391 1.31117 13.2557 1.33921 13.2326C1.36731 13.2094 1.54467 13.1802 1.73462 13.1673C1.92409 13.1545 2.24793 13.1272 2.45425 13.1066C2.66057 13.086 2.96749 13.0555 3.13629 13.0389C3.3051 13.0224 3.61202 12.992 3.81834 12.9715C4.02465 12.951 4.33157 12.9222 4.50037 12.9074C4.8829 12.8738 5.00331 12.836 5.23627 12.6761C5.44958 12.5297 5.68785 12.2041 5.72581 12.0071C5.73968 11.935 5.76513 11.8078 5.78231 11.7243C5.79953 11.6409 5.82883 11.4816 5.84741 11.3704C5.866 11.2592 5.89669 11.0923 5.91562 10.9996C5.93455 10.9069 5.96524 10.7401 5.98382 10.6288C6.00241 10.5176 6.033 10.3507 6.05172 10.2581C6.07048 10.1654 6.10049 10.0061 6.11839 9.90411C6.15495 9.69583 6.2134 9.3896 6.25995 9.16254C6.27703 9.07911 6.30626 8.91984 6.32485 8.80861C6.34343 8.69737 6.37412 8.53052 6.39305 8.43782C6.41198 8.34512 6.44267 8.17827 6.46126 8.06703C6.47984 7.9558 6.50907 7.79653 6.52615 7.7131C6.72408 6.74737 6.75784 6.49345 6.6951 6.44279C6.64872 6.4053 6.28982 6.4258 5.6769 6.50093C5.41183 6.53343 4.93978 6.58766 4.62727 6.62157C4.41113 6.645 4.33204 6.59916 4.36321 6.4684C4.38269 6.38666 4.46361 6.20488 4.85947 5.35355C4.94998 5.15889 5.04175 4.95182 5.06333 4.8934C5.1373 4.69348 5.24264 4.63136 5.55168 4.60547C5.83125 4.58204 6.24218 4.53809 6.75113 4.47715C7.20833 4.4224 7.92789 4.34316 8.51609 4.28279C8.68029 4.2659 8.82478 4.24207 8.8372 4.2298C8.8759 4.19154 8.94353 4.20519 9.00208 4.26307ZM16.133 5.20436C16.4333 5.29069 16.6693 5.51363 16.8513 5.8831C16.9698 6.12357 16.9709 6.12984 16.954 6.47299C16.9445 6.66377 16.9215 6.8881 16.9028 6.97153C16.8472 7.21969 16.7887 7.51655 16.7602 7.69625C16.7359 7.84925 16.7033 8.01816 16.6238 8.40411C16.6085 8.47827 16.5778 8.62995 16.5556 8.74119C16.5333 8.85243 16.5012 9.0117 16.4841 9.09512C16.467 9.17855 16.4377 9.33782 16.4192 9.44906C16.3083 10.1122 16.3134 10.1057 15.8667 10.148C15.4359 10.1889 14.6472 10.2748 14.0832 10.3423C13.9331 10.3603 13.6645 10.3912 13.4864 10.411C13.3082 10.4308 13.0473 10.4606 12.9066 10.4772C11.6689 10.6233 11.6309 10.6261 11.5853 10.5718C11.5447 10.5235 11.5593 10.3692 11.6468 9.92097C11.6685 9.80973 11.6983 9.64288 11.713 9.55018C11.7796 9.13139 11.8176 8.97731 11.8663 8.92921C11.8958 8.90002 12.0187 8.86625 12.1483 8.85169C12.2747 8.83749 12.5162 8.80965 12.685 8.7898C13.0579 8.74598 13.4307 8.70533 13.8615 8.66154C14.1727 8.62992 14.3973 8.58661 14.4653 8.54508C14.5205 8.51137 14.6967 7.80944 14.7355 7.46889L14.7575 7.27527L14.6002 7.11977C14.4506 6.97197 14.4357 6.96529 14.2971 6.98447C14.1281 7.0079 13.7303 7.05772 12.8043 7.17142C12.0844 7.25983 12.0743 7.263 11.8706 7.46437C11.6815 7.65135 11.6443 7.74125 11.5725 8.18501C11.553 8.30552 11.5231 8.48754 11.5059 8.58951C11.4887 8.69147 11.4592 8.88108 11.4402 9.01085C11.4071 9.23734 11.3922 9.32919 11.3034 9.85355C11.2814 9.98333 11.2509 10.1805 11.2356 10.2918C11.2076 10.4951 11.1564 10.8074 11.0945 11.1513C11.0762 11.2533 11.053 11.4749 11.043 11.6438L11.0247 11.9509L11.1352 12.0753C11.2817 12.2402 11.4214 12.3092 11.5556 12.2829C11.6582 12.2628 11.9614 12.224 12.4974 12.1623C13.1404 12.0883 13.4195 12.0553 13.6569 12.0253C13.7975 12.0076 14.0379 11.9841 14.1909 11.9733L14.4692 11.9536L14.756 12.3362C15.446 13.2567 15.5666 13.4242 15.5666 13.4622C15.5666 13.5398 15.4793 13.5713 15.2085 13.5914C15.0585 13.6026 14.8129 13.6261 14.6629 13.6438C14.3928 13.6755 13.9627 13.7232 13.4352 13.78C13.2852 13.7962 13.0243 13.8267 12.8555 13.8479C12.6867 13.8691 12.4258 13.8996 12.2757 13.9156C12.1257 13.9316 11.8571 13.9618 11.6789 13.9826C11.5008 14.0035 11.2399 14.034 11.0992 14.0504C10.9585 14.0669 10.6976 14.0958 10.5195 14.1146C10.3413 14.1335 10.1468 14.1586 10.0872 14.1704C9.96428 14.1948 9.57637 14.1085 9.39405 14.0161C9.2008 13.9182 9.01787 13.7131 8.89162 13.4528C8.77663 13.2157 8.77404 13.2012 8.79201 12.8966C8.80214 12.7246 8.82656 12.4929 8.84627 12.3816C8.86598 12.2704 8.89763 12.0732 8.91662 11.9434C8.93562 11.8137 8.96529 11.6241 8.98254 11.5221C9.06166 11.0552 9.08962 10.8822 9.12151 10.6625C9.14033 10.5328 9.17079 10.3356 9.1892 10.2243C9.22303 10.0196 9.27323 9.70311 9.32547 9.36479C9.34119 9.26282 9.37206 9.07321 9.39405 8.94344C9.43307 8.71315 9.45353 8.58367 9.52733 8.10074C9.60873 7.56799 9.69733 7.2424 9.83135 6.98373C9.98095 6.69489 10.2944 6.32161 10.5666 6.10813C11.0755 5.70893 11.426 5.58957 12.3951 5.48558C12.5733 5.46647 12.8418 5.43762 12.9919 5.42144C13.1419 5.40529 13.4028 5.37475 13.5716 5.35355C13.9765 5.30272 14.35 5.26281 14.7559 5.22701C14.9384 5.2109 15.0982 5.1873 15.1112 5.17453C15.159 5.12724 15.9443 5.15016 16.133 5.20436Z" fill="white"/>
</g>
</g>
<defs>
<clipPath id="clip0_1_12257">
<rect width="35" height="15" fill="white" transform="translate(0.0700684 0.5)"/>
</clipPath>
</defs>
</svg>
