<svg width="52" height="16" viewBox="0 0 52 16" fill="none" xmlns="http://www.w3.org/2000/svg">
<g clip-path="url(#clip0_1_12241)">
<path d="M26.8376 10.5543C26.7954 10.7802 26.7533 11.0052 26.6983 11.3001C26.4689 11.2341 26.2525 11.1714 25.9859 11.0943C25.8853 11.1326 25.7221 11.2279 25.5483 11.2542C24.9882 11.3389 24.5875 10.875 24.6866 10.2651C24.744 9.91131 24.824 9.56135 24.89 9.20899C24.9676 8.79488 25.0097 8.36927 25.3041 8.03032C25.3286 8.00207 25.3377 7.93505 25.3219 7.90154C25.1931 7.63009 25.2443 7.35577 25.2974 7.08049C25.374 6.6817 25.4526 6.2829 25.5311 5.88411C25.6536 5.26126 26.1333 4.80214 26.6643 4.79975C27.0453 4.79831 27.3474 5.03386 27.3915 5.41637C27.4164 5.63229 27.3824 5.85969 27.347 6.07704C27.2785 6.49211 27.1904 6.90383 27.1105 7.31603H26.4206C26.5139 6.82293 26.6011 6.34705 26.6963 5.87262C26.7251 5.72899 26.749 5.58106 26.5752 5.53941C26.3957 5.49632 26.2861 5.62223 26.2525 5.78405C26.1467 6.29056 26.0539 6.80042 25.9538 7.30789C25.9122 7.51902 26.016 7.60998 26.2095 7.61477C26.5441 7.62291 26.8792 7.62099 27.2143 7.62482C27.2531 7.62482 27.2924 7.63344 27.3436 7.63966C27.2976 7.87281 27.2536 8.0983 27.2081 8.32906C27.1124 8.33672 27.0262 8.3439 26.9142 8.35299C26.8218 8.82312 26.7279 9.2966 26.6351 9.77056C26.6092 9.90365 26.5853 10.0367 26.5613 10.1703C26.512 10.447 26.5565 10.5121 26.838 10.5528L26.8376 10.5543ZM26.2147 8.35587C25.8394 8.34007 25.736 8.41667 25.6752 8.72737C25.5804 9.21043 25.4846 9.69348 25.3942 10.1775C25.3678 10.3178 25.3324 10.5064 25.5287 10.5169C25.6268 10.5222 25.8016 10.3829 25.825 10.2819C25.972 9.64991 26.0859 9.01079 26.2147 8.35587Z" fill="white"/>
<path fill-rule="evenodd" clip-rule="evenodd" d="M29.3092 10.5767L29.3307 10.3153L28.9205 10.3685C28.9668 10.1281 29.0122 9.89161 29.0572 9.65739C29.1181 9.34039 29.1783 9.0271 29.2388 8.71443C29.3652 8.06188 29.4922 7.40943 29.6192 6.75699L29.6194 6.75563C29.8847 5.39237 30.15 4.02913 30.4103 2.66501C30.6554 1.38101 31.9744 0.356979 33.2 0.516401C34.2431 0.651885 34.8851 1.45618 34.7224 2.4984C34.6144 3.18832 34.477 3.87376 34.3396 4.55918C34.2813 4.84974 34.223 5.1403 34.167 5.43119C34.1642 5.44638 34.1571 5.46073 34.1487 5.47797C34.1444 5.48682 34.1397 5.49644 34.1349 5.50731H32.5268C32.692 4.65228 32.8553 3.80921 33.0185 2.96614C33.0299 2.90781 33.042 2.84958 33.0541 2.79134C33.0793 2.67033 33.1045 2.54923 33.1229 2.42707C33.1684 2.12259 32.9046 1.87125 32.6058 1.9445C32.3219 2.01439 32.1304 2.18913 32.0716 2.49074C31.9698 3.01221 31.8675 3.53358 31.7651 4.05494C31.6343 4.72111 31.5035 5.38726 31.374 6.05356C31.2859 6.50674 31.1986 6.96005 31.1113 7.41335C30.9562 8.21845 30.8011 9.0237 30.6415 9.82799C30.6292 9.89071 30.5704 9.94709 30.5163 9.99909L30.5005 10.0143L30.485 10.0295C30.4618 10.0528 30.4327 10.0699 30.4035 10.0871C30.3774 10.1024 30.3511 10.1178 30.3289 10.1377C30.0465 10.3905 29.7137 10.5274 29.3102 10.5767H29.3092ZM41.8922 10.7893L41.9446 10.5143L41.9449 10.5127C42.015 10.1454 42.0851 9.77795 42.154 9.41055C42.2335 8.98781 42.1373 8.86956 41.7126 8.86143C40.5646 8.83988 39.7929 7.89963 40.0069 6.76692C40.2668 5.38957 40.5363 4.01366 40.8073 2.63822C40.8873 2.23273 41.0678 1.87223 41.3263 1.54812C41.4843 1.34992 41.6849 1.27332 41.9305 1.23741C42.0426 1.22124 42.1501 1.1781 42.2581 1.13477C42.3356 1.10372 42.4132 1.07257 42.493 1.05118C42.5951 1.0235 42.7002 1.00821 42.8054 0.992902C42.8695 0.98359 42.9336 0.974267 42.9971 0.962136C43.111 0.940114 43.2245 0.912826 43.336 0.88075C43.4032 0.861403 43.4699 0.839172 43.5365 0.816947C43.6695 0.772627 43.8023 0.728328 43.9388 0.706965C44.0599 0.687815 44.2122 0.714625 44.3175 0.776383C44.9576 1.1522 45.2501 1.88181 45.0959 2.68179C44.8618 3.89397 44.6263 5.10615 44.3859 6.3169C44.373 6.38201 44.3113 6.48877 44.2701 6.48972C43.8701 6.49917 43.4701 6.49848 43.0581 6.49777C42.948 6.49758 42.8368 6.49738 42.7247 6.49738L43.2159 3.95668C43.2445 3.80809 43.2726 3.65941 43.3007 3.51071C43.3644 3.17419 43.428 2.83742 43.4974 2.50178C43.5352 2.31794 43.5117 2.13985 43.3504 2.06229C43.2144 1.9967 43.0244 1.97372 42.8789 2.01154C42.6625 2.06756 42.5188 2.24422 42.4738 2.47353C42.2048 3.84131 41.9367 5.20908 41.6739 6.57829C41.6183 6.86841 41.7548 7.03693 42.0506 7.06278C42.1423 7.07071 42.2347 7.07339 42.3271 7.07606C42.4745 7.08032 42.6218 7.08457 42.7654 7.11018C43.3289 7.21071 43.6942 7.62674 43.8158 8.24193C43.9048 8.69147 43.8555 9.13096 43.7564 9.56901C43.7435 9.62598 43.7061 9.693 43.6592 9.72412C43.1875 10.0367 42.7131 10.3457 42.2388 10.6547L41.9491 10.8434C41.9312 10.8264 41.9133 10.809 41.8958 10.7919L41.8948 10.791L41.8936 10.7898L41.8922 10.7893ZM36.5255 3.77328C36.6438 3.73473 36.7622 3.69663 36.8806 3.65854C37.2151 3.55095 37.5494 3.44339 37.8804 3.32565C37.9638 3.29594 38.0371 3.23539 38.1099 3.17528C38.1356 3.15403 38.1612 3.13284 38.1872 3.11309C38.3056 3.02321 38.4228 2.93164 38.5571 2.82665L38.733 2.6894L38.2156 8.76884L37.6625 15.2684H36.0674L36.1588 13.8418C36.0686 13.8418 35.9794 13.8414 35.8908 13.8411C35.6059 13.8401 35.3282 13.8391 35.051 13.8489C35.0017 13.8509 34.9332 13.9394 34.9121 14.0007C34.8559 14.1648 34.803 14.3303 34.7502 14.4957C34.6844 14.7019 34.6184 14.9082 34.5459 15.1119C34.5215 15.1803 34.4257 15.2679 34.3611 15.2699C33.9995 15.28 33.6377 15.2789 33.2637 15.2778C33.1435 15.2774 33.0221 15.277 32.899 15.277L33.036 14.8228C33.1679 14.3851 33.2976 13.9551 33.428 13.5258L33.5338 13.1769C34.4546 10.1392 35.3755 7.10112 36.2995 4.06436C36.319 4.00079 36.3554 3.94221 36.3918 3.88362C36.4084 3.85705 36.4249 3.83048 36.4398 3.80344C36.4571 3.79739 36.4744 3.7915 36.4918 3.78559L36.5265 3.77376L36.5255 3.77328ZM36.6471 8.35535L36.5949 8.34529L36.3517 9.18718C36.0582 10.2033 35.7641 11.2216 35.467 12.249H36.2703L36.4746 10.1378L36.6471 8.35535ZM47.7118 0.717005H46.1118C45.5598 3.56314 45.0098 6.3954 44.4549 9.25398C44.616 9.19343 44.7731 9.13461 44.9274 9.07684C45.2721 8.94781 45.6028 8.824 45.9328 8.69768C46.0174 8.66533 46.1023 8.63334 46.1871 8.60133C46.5113 8.47904 46.8366 8.35634 47.1517 8.21415L47.1722 8.20487C47.3811 8.11069 47.6263 8.00006 47.7348 7.82349C47.9487 7.47517 48.2701 7.37598 48.6112 7.27073C48.662 7.25511 48.7129 7.23611 48.763 7.2173C48.8326 7.19116 48.9022 7.16504 48.9738 7.14751C49.1543 7.10298 49.2203 6.98904 49.2543 6.81286C49.5091 5.48252 49.7673 4.15304 50.0254 2.82355C50.1543 2.15942 50.2834 1.49518 50.4119 0.830947C50.4164 0.807675 50.4132 0.783129 50.4095 0.754199C50.4076 0.739705 50.4056 0.724038 50.4043 0.706952C50.2874 0.706952 50.1713 0.706587 50.0558 0.706225C49.6938 0.705089 49.3375 0.703971 48.9814 0.714133C48.9192 0.716048 48.8187 0.808446 48.8053 0.873076C48.7046 1.3557 48.6116 1.84006 48.5187 2.32438L48.5185 2.32538L48.5183 2.3265C48.4823 2.51407 48.4463 2.70162 48.4098 2.88907C48.1427 4.26546 47.8751 5.64138 47.6017 7.01633C47.5883 7.08383 47.5189 7.19011 47.4715 7.19251C47.22 7.20409 46.9679 7.20281 46.7087 7.2015C46.6251 7.20107 46.5405 7.20065 46.4551 7.20065C46.6921 5.97881 46.9271 4.76589 47.162 3.5539L47.1628 3.54954L47.7118 0.717005ZM41.0927 9.54794H39.4683C39.3895 9.9531 39.3088 10.3559 39.2289 10.758C39.0463 11.6768 38.865 12.5897 38.7028 13.5057C38.5371 14.4407 39.1112 15.2541 40.0213 15.4542C41.2665 15.7281 42.7453 14.7375 42.999 13.4578C43.1432 12.7316 43.2844 12.0044 43.4251 11.2772C43.4813 10.9871 43.5359 10.6969 43.593 10.3941L43.5933 10.3926L43.5936 10.3908C43.6215 10.243 43.6499 10.0921 43.6793 9.93668C43.0531 10.2929 42.4696 10.6251 41.8515 10.977L41.7596 11.4565L41.7572 11.469L41.7567 11.4715C41.679 11.8777 41.5975 12.3037 41.514 12.7287C41.4996 12.8021 41.4859 12.8758 41.4723 12.9495C41.4294 13.1816 41.3862 13.4139 41.3187 13.6388C41.2272 13.9423 40.8734 14.1156 40.5895 14.0343C40.3583 13.9682 40.2793 13.7547 40.3497 13.3951L40.4283 12.9942C40.5644 12.2996 40.7006 11.605 40.8351 10.91C40.8982 10.5845 40.9593 10.2589 41.0212 9.9284L41.0927 9.54794ZM32.9727 10.4561L32.9626 10.5766L32.954 10.6801H33.1259C33.1275 10.6912 33.1296 10.7012 33.1315 10.7105C33.1353 10.7289 33.1385 10.7441 33.1359 10.7582C33.0862 11.0146 33.0376 11.2713 32.9889 11.5279C32.8684 12.1635 32.748 12.7993 32.6112 13.4315C32.3355 14.7069 31.063 15.6112 29.7684 15.4762C28.8066 15.3757 28.1498 14.4531 28.3231 13.4449C28.3476 13.3031 28.3749 13.1619 28.4034 13.0149C28.4188 12.9352 28.4346 12.8535 28.4505 12.7694C28.386 12.7772 28.3229 12.7829 28.2611 12.7886C28.1329 12.8003 28.0101 12.8115 27.8913 12.8393C26.7921 13.0944 25.7824 13.577 24.8766 14.2262C24.6087 14.418 24.3235 14.5077 24.0379 14.5974C23.9066 14.6387 23.7751 14.68 23.6453 14.7313C23.7309 14.6857 23.8169 14.6409 23.9029 14.5961C24.0862 14.5005 24.2695 14.405 24.4491 14.3023C24.6528 14.1861 24.8547 14.0665 25.0565 13.9468C25.3945 13.7465 25.7324 13.5461 26.0792 13.3621C26.569 13.1026 27.075 12.8709 27.5863 12.6564C27.8659 12.5391 28.1163 12.4137 28.2853 12.148C28.3372 12.0664 28.4067 11.9964 28.4765 11.9263C28.5181 11.8844 28.5598 11.8425 28.5979 11.798C28.6319 11.7583 28.6692 11.7023 28.6683 11.6544C28.6641 11.4374 28.8046 11.3803 28.97 11.3129L28.9886 11.3054C29.3358 11.164 29.6782 11.0115 30.0314 10.8543C30.1768 10.7896 30.324 10.724 30.4741 10.6581C30.4584 10.7444 30.4427 10.8312 30.4271 10.9182C30.3895 11.1274 30.3514 11.3382 30.3109 11.5481C30.207 12.0862 30.1008 12.6242 29.9948 13.162L29.9523 13.3774C29.88 13.7441 29.9652 13.9681 30.2046 14.0347C30.5182 14.1213 30.8729 13.915 30.9548 13.567C31.0278 13.2548 31.087 12.9396 31.1462 12.6245C31.1708 12.4935 31.1954 12.3625 31.221 12.2317C31.2385 12.142 31.2553 12.0521 31.272 11.9621C31.3166 11.7228 31.3613 11.4834 31.4201 11.2479C31.4421 11.1603 31.5345 11.0751 31.6159 11.021C31.6883 10.9732 31.7665 10.9338 31.8445 10.8946C31.9351 10.849 32.0256 10.8034 32.1066 10.7448C32.3613 10.5604 32.6352 10.4623 32.9722 10.4551L32.9727 10.4561ZM47.8494 14.0228L47.8496 14.0218C48.1823 12.3117 48.5151 10.6015 48.8412 8.89011C48.8934 8.61604 49.01 8.08821 49.01 8.08821C49.01 8.08821 48.4097 8.34285 48.1202 8.50089C47.945 8.59616 47.7549 8.6852 47.5615 8.72159C47.3629 8.75893 47.2527 8.83026 47.2135 9.03469C47.0131 10.0819 46.8098 11.1284 46.6065 12.175L46.6061 12.1771L46.6059 12.1781C46.5102 12.6707 46.4146 13.1633 46.3192 13.656C46.2511 14.0088 46.1835 14.3616 46.1151 14.7191L46.1145 14.7225L46.0109 15.2636H47.5984C47.6037 15.2419 47.6093 15.2201 47.615 15.1981C47.6268 15.1524 47.6387 15.1062 47.6477 15.0597L47.8494 14.0228ZM43.2882 15.277L43.3639 14.8824C43.4582 14.3902 43.5504 13.9094 43.6434 13.4286C43.7125 13.0723 43.7821 12.7163 43.8516 12.3602C44.0157 11.5199 44.1797 10.6798 44.3381 9.83846C44.3702 9.66803 44.4353 9.5718 44.6052 9.52297C44.952 9.42327 45.297 9.31703 45.6516 9.20788C45.7958 9.16348 45.9417 9.11855 46.0898 9.07343L46.0228 9.41974L46.0215 9.42665C45.9406 9.84526 45.8605 10.2595 45.7801 10.6734C45.7111 11.0287 45.6419 11.3839 45.5728 11.7392L45.5725 11.7404C45.357 12.847 45.1416 13.9537 44.9322 15.0616C44.9006 15.2282 44.846 15.2866 44.6727 15.2818C44.3491 15.2729 44.025 15.2745 43.6926 15.2762C43.5593 15.2768 43.4246 15.277 43.2882 15.277ZM36.4734 2.90874C36.4908 2.90282 36.5081 2.89693 36.5254 2.89088C36.553 2.87098 36.5799 2.84984 36.6069 2.8287C36.6656 2.7827 36.7244 2.73666 36.7896 2.70321C37.0191 2.58598 37.2494 2.47033 37.4797 2.35467C37.8458 2.17087 38.2118 1.98706 38.5744 1.79695C38.6534 1.75577 38.7309 1.64231 38.7429 1.55327C38.7486 1.51036 38.764 1.44211 38.783 1.35741C38.822 1.18385 38.8766 0.941254 38.8956 0.706392C38.7562 0.706392 38.6195 0.706903 38.4848 0.707407C38.1493 0.708662 37.8259 0.709871 37.5025 0.703041C37.3565 0.700168 37.2952 0.749958 37.2545 0.887358C37.1209 1.33878 36.9849 1.56787 36.8486 1.79736C36.713 2.0259 36.577 2.25483 36.443 2.70417C36.4293 2.74974 36.4326 2.80048 36.4358 2.85116C36.4374 2.87447 36.4389 2.89778 36.4387 2.92056C36.4503 2.91656 36.4619 2.91264 36.4734 2.90874Z" fill="#4690FF"/>
<path fill-rule="evenodd" clip-rule="evenodd" d="M6.42894 1.50528C6.2699 1.60056 6.11049 1.69606 5.94698 1.78365C5.77791 1.87466 5.60471 1.95791 5.43256 2.04064C5.36294 2.07411 5.29349 2.10749 5.22455 2.14127C4.78028 1.8162 4.3068 1.97706 4.22445 2.51421C4.18152 2.79402 3.99907 2.84928 3.82016 2.90347C3.77163 2.91816 3.72336 2.93278 3.67821 2.95178C3.421 3.06019 3.15483 3.14669 2.88867 3.23318C2.78576 3.26662 2.68283 3.30007 2.58044 3.33478C2.55132 3.3446 2.52086 3.35084 2.4892 3.35732C2.47456 3.36032 2.45962 3.36337 2.44448 3.36686C2.51917 1.73434 3.53793 0.798869 4.69506 0.559017C5.51371 0.389542 6.27875 0.711737 6.63781 1.38102C6.56803 1.42196 6.49851 1.4636 6.42894 1.50528ZM7.36453 11.7831C7.38715 11.6595 7.41007 11.5342 7.43441 11.4069C7.55934 11.4069 7.68282 11.4074 7.80447 11.408C8.07419 11.4092 8.33796 11.4104 8.60111 11.4054C9.22539 11.3939 9.68834 11.1134 9.94016 10.536C10.0541 10.2746 10.1504 9.99937 10.2059 9.72074C10.6439 7.51803 11.0762 5.31389 11.4956 3.10736C11.5885 2.61664 11.6665 2.1154 11.6742 1.6175C11.6833 1.05737 11.3534 0.750975 10.7928 0.727037C10.3851 0.709732 9.97647 0.708988 9.56811 0.708245C9.43421 0.708001 9.30033 0.707758 9.16651 0.70693C8.88155 0.705279 8.59659 0.705678 8.30614 0.706084C8.17547 0.706267 8.04368 0.706451 7.91028 0.706451C7.37103 3.48586 6.83286 6.25824 6.29445 9.03189L5.27766 14.2702C5.35486 14.2247 5.42904 14.1783 5.50182 14.1328C5.65696 14.0358 5.80581 13.9427 5.96418 13.87C6.3443 13.6953 6.65692 13.4334 6.94513 13.1442C7.05859 13.0298 7.14141 12.8594 7.17971 12.7004C7.25152 12.4009 7.30705 12.0972 7.36453 11.7831ZM8.76963 9.08401C8.66382 9.62834 8.36509 9.83037 7.75756 9.74611C7.82466 9.40049 7.89088 9.05807 7.95671 8.71817C8.03695 8.30383 8.11662 7.8925 8.19657 7.48117C8.2722 7.09253 8.34811 6.70392 8.42402 6.3153L8.4252 6.30929L8.42541 6.30816C8.6647 5.08321 8.90413 3.85746 9.13491 2.63101C9.17369 2.42323 9.22778 2.327 9.45998 2.34519C9.76685 2.36961 9.92244 2.44908 9.95883 2.68319C9.97415 2.78325 9.96936 2.89144 9.95021 2.9915C9.5586 5.02281 9.16411 7.05365 8.76963 9.08401ZM19.3554 13.6278C19.9983 13.7039 20.2683 13.5153 20.3889 12.8977C20.7565 11.0167 21.1209 9.13508 21.4853 7.25358L21.7916 5.67202C21.8322 5.46329 21.8736 5.25471 21.915 5.04613L21.9153 5.04487L21.9155 5.0436C22.0276 4.47945 22.1397 3.91515 22.234 3.34819C22.2749 3.1039 22.4513 3.03659 22.6124 2.97509C22.6455 2.96246 22.6779 2.95008 22.7084 2.93647C23.0066 2.80267 23.318 2.69851 23.6409 2.59048C23.7733 2.54621 23.9076 2.50128 24.0436 2.45341L23.8957 3.21982C23.7632 3.90664 23.6333 4.57976 23.5022 5.25264C22.9808 7.92642 22.4595 10.6002 21.9353 13.2735C21.9137 13.3836 21.8843 13.4923 21.8549 13.6009C21.8197 13.7308 21.7846 13.8607 21.7629 13.9926C21.6954 14.4067 21.4177 14.6083 21.0649 14.76C20.955 14.8072 20.8489 14.8639 20.7428 14.9206C20.6249 14.9836 20.5069 15.0467 20.3836 15.0966C20.1826 15.178 19.9667 15.2637 19.7551 15.2694C19.201 15.2843 18.6467 15.2819 18.0834 15.2794C17.8695 15.2785 17.654 15.2776 17.437 15.2776L17.529 14.7941L17.5292 14.7927C17.6153 14.3403 17.6996 13.8969 17.7855 13.454L18.2079 11.2804C18.6218 9.1508 19.0357 7.02126 19.4472 4.89118C19.475 4.74756 19.5276 4.65229 19.6655 4.58048C19.9235 4.44658 20.1775 4.30461 20.4315 4.16264C20.5734 4.08332 20.7155 4.00393 20.8581 3.92603C20.9424 3.87995 21.0296 3.83923 21.1292 3.79274C21.1754 3.77114 21.2245 3.74825 21.277 3.72305L19.3554 13.6278ZM5.50896 9.56079C5.40249 10.1023 5.29759 10.6441 5.19268 11.1861C5.04474 11.9503 4.89678 12.7146 4.7444 13.4779C4.49545 14.7231 3.06784 15.6882 1.81927 15.4656C0.898165 15.3019 0.284414 14.4584 0.451496 13.508C0.613978 12.5842 0.797174 11.6638 0.981278 10.739C1.05972 10.3449 1.13833 9.94997 1.21557 9.55361H2.83996C2.81246 9.69935 2.78525 9.8444 2.75814 9.98897L2.75792 9.99011C2.70014 10.2982 2.64276 10.6042 2.58383 10.9099C2.45515 11.5728 2.32525 12.2357 2.19534 12.8987L2.0979 13.396C2.02753 13.7551 2.10748 13.9686 2.33871 14.0347C2.62308 14.1156 2.97496 13.9413 3.06784 13.6378C3.13398 13.42 3.17589 13.1945 3.21776 12.9692C3.22983 12.9042 3.24191 12.8393 3.25455 12.7746C3.47286 11.6486 3.68973 10.5221 3.90516 9.39562C3.98224 8.993 3.87835 8.86852 3.46951 8.86182C2.30807 8.84171 1.54064 7.89763 1.75704 6.75199C1.8093 6.47683 1.863 6.20214 1.91895 5.91588L1.99066 5.54843C1.99066 5.54843 2.1319 4.7609 2.29945 4.21035C2.29945 4.21035 3.06257 3.94942 3.32828 3.835C3.58201 3.72537 3.7692 3.57074 3.93915 3.37206C3.94755 3.36216 3.96214 3.35753 3.98869 3.34909C4.00453 3.34405 4.02465 3.33767 4.05022 3.32801L3.97652 3.70924C3.87481 4.23539 3.77611 4.74586 3.67728 5.25544C3.64879 5.40182 3.61996 5.54804 3.59114 5.69422C3.53522 5.97784 3.47933 6.26133 3.42594 6.54566C3.3637 6.87407 3.49679 7.04355 3.83622 7.06844C3.91804 7.07429 4.00035 7.07609 4.08262 7.07789C4.216 7.08082 4.34926 7.08374 4.48014 7.10387C5.06133 7.19388 5.44289 7.619 5.56497 8.25669C5.64971 8.69857 5.59369 9.12801 5.50896 9.56079ZM17.086 13.6766H15.5162L15.6936 12.7608C15.9432 11.4732 16.1885 10.2083 16.4306 8.94275C16.4584 8.79721 16.5484 8.79721 16.657 8.79721L16.8383 8.79797C17.1766 8.79949 17.5151 8.80102 17.8534 8.7929C17.9224 8.79146 18.0406 8.73928 18.0511 8.69188C18.1354 8.30879 18.2088 7.92334 18.2844 7.52575C18.305 7.41756 18.3258 7.30839 18.347 7.1982H16.7724C17.052 5.75982 17.3276 4.33985 17.6046 2.91246L17.7213 2.31117H19.2973L19.6051 0.718867H16.4292L15.3447 6.30672C14.7652 9.29279 14.1853 12.2807 13.6036 15.277H16.1927H16.1941C16.7786 15.277 16.7811 15.277 16.8955 14.7006C16.9419 14.4678 16.9844 14.2341 17.0287 13.9904C17.0473 13.8879 17.0663 13.7832 17.086 13.6766ZM12.6011 0.715635H15.7747C15.6723 1.24992 15.5727 1.76935 15.4702 2.30555H13.8933L12.9434 7.19545H14.519L14.3366 8.13951L14.2092 8.79876C14.0803 8.79876 13.952 8.79981 13.8243 8.80085C13.5193 8.80333 13.2169 8.80578 12.9157 8.79397C12.6998 8.78536 12.6136 8.84424 12.5758 9.06877C12.508 9.4696 12.4297 9.86866 12.3515 10.2677C12.2888 10.5872 12.2261 10.9071 12.1688 11.2274C12.1329 11.4295 12.0467 11.5266 11.85 11.609C11.5445 11.7378 11.2503 11.8935 10.9562 12.0491C10.8438 12.1086 10.7312 12.1681 10.6182 12.2261C10.5625 12.2548 10.5083 12.2863 10.4409 12.3256C10.4093 12.344 10.3747 12.3641 10.3357 12.3865C11.096 8.46939 11.8466 4.60209 12.6011 0.715635ZM19.8167 3.00226L19.5112 4.57851L19.5122 4.57803C19.5639 4.54954 19.6101 4.5248 19.6523 4.50215C19.7365 4.45706 19.8051 4.4203 19.8708 4.37887C19.9472 4.33059 20.0222 4.27953 20.0972 4.22844C20.2186 4.14579 20.34 4.06304 20.4678 3.99205C21.3003 3.53053 21.3094 3.52431 21.4952 2.61805C21.4976 2.60677 21.498 2.59391 21.4984 2.58124C21.4991 2.55897 21.4998 2.53724 21.5114 2.52565C21.5233 2.51346 21.5354 2.50006 21.5477 2.48641C21.5938 2.43524 21.6432 2.38048 21.6972 2.37293C22.0045 2.3308 22.2645 2.40022 22.3478 2.78609C22.4224 2.71616 22.4926 2.64677 22.5608 2.57926C22.7085 2.43323 22.8472 2.29602 23.0027 2.18143C23.3091 1.95546 23.6361 1.75391 23.9683 1.56768C24.0938 1.49731 24.0938 1.43842 24.0598 1.32639C23.9492 0.962069 23.6744 0.737059 23.2311 0.728921C22.5265 0.716085 21.8217 0.715818 21.1169 0.715552C20.8491 0.715451 20.5814 0.715349 20.3136 0.714558C20.3051 0.714558 20.2966 0.719973 20.283 0.728591C20.2752 0.733532 20.2658 0.739526 20.2538 0.746155C20.1098 1.49037 19.9646 2.23933 19.8167 3.00226ZM6.70972 1.49071C6.90984 1.87323 6.91893 2.26149 6.84616 2.64831C6.61637 3.87582 6.3746 5.1014 6.12996 6.32603C6.11704 6.39114 6.03565 6.49072 5.98395 6.49216C5.59996 6.50187 5.21539 6.50109 4.81545 6.50028C4.70301 6.50005 4.58871 6.49982 4.47351 6.49982C4.51303 6.29302 4.55163 6.09003 4.58978 5.88944C4.65098 5.56762 4.71101 5.25199 4.77176 4.93672L4.85719 4.49274C4.98036 3.85171 5.10352 3.21075 5.23615 2.57172C5.25721 2.46974 5.33764 2.35389 5.42429 2.29644C5.7287 2.09561 6.03929 1.9043 6.35832 1.7078C6.4743 1.63636 6.5914 1.56423 6.70972 1.49071ZM11.6905 13.6738H13.2607C13.2386 13.7895 13.2172 13.9028 13.1962 14.0142C13.1215 14.4094 13.0514 14.7804 12.9726 15.1493C12.9616 15.2005 12.8687 15.2709 12.8136 15.2713C11.9858 15.2773 11.1581 15.277 10.3144 15.2767L9.77645 15.2766L9.88663 14.7025C9.95172 14.3632 10.0157 14.0295 10.08 13.6958C10.084 13.6749 10.0883 13.654 10.0926 13.6331C10.1029 13.5838 10.1131 13.5345 10.1188 13.4847C10.1394 13.3037 10.2251 13.2242 10.4099 13.1486C10.6356 13.0564 10.8371 12.8976 11.0349 12.7418C11.0682 12.7156 11.1015 12.6894 11.1347 12.6636C11.327 12.5146 11.5116 12.3558 11.6964 12.197C11.7774 12.1273 11.8587 12.0575 11.9404 11.9886L12.0026 12.0259L11.8675 12.7393L11.8667 12.7437C11.8091 13.0474 11.7505 13.356 11.6905 13.6738ZM6.78912 14.5883C6.40287 14.727 6.02011 14.8645 5.63834 15.0017C5.45479 15.0677 5.27147 15.1336 5.08809 15.1995C5.09049 15.2124 5.09276 15.2253 5.09504 15.2383C5.09731 15.2512 5.09958 15.2641 5.10198 15.2771H6.06378C6.49528 15.2771 6.74152 15.064 6.80248 14.6379C6.80305 14.6336 6.80156 14.629 6.79822 14.6185C6.79599 14.6116 6.79294 14.602 6.78912 14.5883Z" fill="#FF5C00"/>
</g>
<defs>
<clipPath id="clip0_1_12241">
<rect width="51" height="15" fill="white" transform="translate(0.0700684 0.5)"/>
</clipPath>
</defs>
</svg>
