<svg width="23" height="26" viewBox="0 0 23 26" fill="none" xmlns="http://www.w3.org/2000/svg">
<g clip-path="url(#clip0_1_5904)">
<g clip-path="url(#clip1_1_5904)">
<g clip-path="url(#clip2_1_5904)">
<mask id="mask0_1_5904" style="mask-type:luminance" maskUnits="userSpaceOnUse" x="0" y="0" width="21" height="26">
<path d="M20.7259 0.870117H0.725861V25.8701H20.7259V0.870117Z" fill="white"/>
</mask>
<g mask="url(#mask0_1_5904)">
<path fill-rule="evenodd" clip-rule="evenodd" d="M3.39261 0.870117H18.7251C19.0785 0.871181 19.4171 1.0084 19.667 1.25181C19.9169 1.49522 20.0578 1.82504 20.0589 2.16927V24.5723C20.0574 24.9159 19.9168 25.2449 19.6675 25.488C19.4183 25.731 19.0806 25.8684 18.7279 25.8701H3.39261C3.03934 25.8694 2.70073 25.7325 2.4508 25.4893C2.20088 25.2461 2.05996 24.9164 2.05887 24.5723V2.16927C2.05996 1.82504 2.20083 1.49522 2.45072 1.25181C2.70061 1.0084 3.03922 0.871181 3.39261 0.870117ZM6.18482 20.8572L7.54065 19.1532L7.90101 20.8572H6.18482ZM8.09383 21.7512C8.16041 22.013 8.19017 22.13 8.65762 22.151L8.66177 22.1496H9.33002L8.36354 18.4458H7.69529C7.03118 18.4458 6.97595 18.4687 6.61697 18.9017L3.90392 22.151L4.11365 22.1512C4.7719 22.1521 5.01101 22.1525 5.18438 22.0459C5.28329 21.9851 5.3608 21.8895 5.48253 21.7393L5.48895 21.7314L5.69881 21.4718H8.02941L8.08878 21.7314L8.09383 21.7512ZM13.7265 18.8437C13.6937 18.927 13.6341 18.9977 13.5567 19.0454C13.4366 19.118 13.2281 19.1315 12.8291 19.1315H12.1801L11.2923 22.1507C10.2651 22.1507 10.1878 22.1292 10.3548 21.5738L11.0728 19.1261H9.60651C9.79566 18.5047 9.84537 18.4536 10.573 18.4536H13.8466C13.8143 18.5831 13.7742 18.7107 13.7265 18.8356V18.8437ZM15.3421 19.1253H16.2105C17.2074 19.1253 17.1977 19.436 17.1176 19.6888C16.95 20.2807 16.9384 20.2807 15.9314 20.2806H15.8902H15.0024L15.3421 19.1253ZM14.8133 20.9315H15.7121L15.7107 20.9369C17.7665 20.9369 18.1062 20.2227 18.265 19.6942C18.4237 19.1657 18.4141 18.4663 16.3789 18.4663H15.4125H14.8933C14.3911 18.5033 14.3317 18.7096 14.2562 18.9715C14.2493 18.9954 14.2423 19.0198 14.2347 19.0446L13.4961 21.5649C13.4063 21.8622 13.3967 21.9993 13.4961 22.0787C13.6407 22.1703 14.0738 22.1634 14.3287 22.1594C14.373 22.1587 14.4122 22.158 14.4432 22.158L14.6227 21.5663L14.8133 20.9315ZM4.69723 10.4879L4.62957 10.4448C4.6278 10.3978 4.61521 10.3518 4.59275 10.3101C4.57029 10.2685 4.53852 10.2322 4.49979 10.2041V10.0333V9.83427V9.69979C4.49979 9.66616 4.51912 9.66347 4.53707 9.66482C4.57935 9.69014 4.6183 9.7204 4.65305 9.75493C4.72525 9.81861 4.80666 9.87162 4.89467 9.91228C4.97655 9.9649 5.0727 9.99253 5.1708 9.99162H5.26607C5.2901 9.99503 5.31237 10.0059 5.32958 10.0226C5.33925 10.032 5.34063 10.0454 5.32958 10.0737C5.30348 10.1107 5.27236 10.1442 5.23708 10.1732C5.23493 10.1753 5.21719 10.1898 5.18999 10.2122C5.11225 10.276 4.95737 10.4032 4.86843 10.4838L4.69723 10.4879ZM4.73313 7.23596C4.90847 6.81233 5.54497 5.62211 6.51145 6.04843C7.36747 6.42769 7.30949 7.59101 6.96569 8.31725C6.46589 9.37163 5.69546 10.0454 4.96922 9.65272C4.19466 9.23446 4.45699 7.90437 4.73313 7.23193V7.23596ZM18.8783 11.3917C18.852 11.2948 18.7002 11.2437 18.7002 11.2437C18.7002 11.1254 18.5262 11.0864 18.5262 11.0864L18.5165 11.0743C18.482 10.9398 18.3301 10.9721 18.3301 10.9721V10.9425C18.3039 10.8537 18.1603 10.8833 18.1603 10.8833C18.0954 10.777 17.9684 10.8712 17.9684 10.8712C17.957 10.8921 17.9401 10.9097 17.9195 10.9222C17.8989 10.9347 17.8753 10.9417 17.851 10.9425C17.6646 10.9519 17.6467 11.0487 17.6467 11.0487L17.5984 11.1832C17.481 11.4213 17.5459 11.5141 17.5459 11.5141C17.5689 11.5576 17.5892 11.6026 17.6067 11.6485C17.6222 11.7657 17.6514 11.8807 17.6936 11.9915C17.5929 12.009 17.5763 12.126 17.5763 12.126C17.5445 12.2363 17.2021 12.5994 17.2021 12.5994C17.111 12.6464 17.1759 12.7608 17.1759 12.7608C17.0269 12.9136 16.8601 13.049 16.6788 13.1642C16.233 13.4513 15.8262 13.792 15.468 14.1783C15.1465 14.1338 14.8195 14.1438 14.5015 14.2078V14.1487C14.2841 14.2052 14.0739 14.285 13.8747 14.3867C13.8048 14.4068 13.7305 14.4068 13.6607 14.3867C13.1981 14.1487 12.3725 14.2213 12.3725 14.2213C12.1954 14.2558 12.0207 14.3007 11.8492 14.3558L11.0415 14.3908L10.9932 14.2563C10.9766 14.2186 10.9145 14.1957 10.9145 14.1957H10.9062C10.9061 14.1504 10.9 14.1052 10.8882 14.0613L10.8689 13.5811L11.0746 13.3122C11.1368 13.3122 11.0263 12.6612 11.0263 12.6612C11.0456 12.5604 10.8744 12.1878 10.8744 12.1878C10.8878 12.1026 10.8806 12.0154 10.8535 11.9333C10.8265 11.8511 10.7802 11.7762 10.7184 11.7144C10.6598 11.6417 10.6133 11.5604 10.5803 11.4737C10.5569 11.3782 10.2586 11.2236 10.0543 11.155C9.84995 11.0864 9.47716 11.155 9.04363 11.4239C8.61009 11.6929 8.53001 12.2618 8.53001 12.3465C8.53001 12.3914 8.57417 12.5317 8.61283 12.6546C8.64717 12.7637 8.67717 12.8591 8.66808 12.8616C8.66572 12.8623 8.66248 12.8624 8.65872 12.8625C8.63163 12.8635 8.57746 12.8654 8.6308 13.0768C8.69155 13.3175 8.99392 13.5004 8.99392 13.5004C9.05881 13.5206 9.18446 13.9429 9.23416 14.1218L9.17755 14.1433L9.13199 14.228L9.02706 14.3047C8.94651 14.3201 8.86474 14.3286 8.78268 14.3302C8.39818 14.2385 7.99794 14.2285 7.60909 14.3006L6.97536 13.9886L6.93256 14.0518C6.7481 13.9944 6.55414 13.9716 6.36095 13.9846C6.36095 13.9846 5.90671 13.0956 5.49112 12.7742V12.7419C5.51658 12.7254 5.50727 12.6769 5.4988 12.6328C5.49487 12.6123 5.49112 12.5928 5.49112 12.5779C5.49112 12.5308 5.36134 12.3882 5.36134 12.3882L5.18185 12.1071C5.18185 12.1071 5.1211 11.9727 5.09763 11.8852C5.09618 11.8752 5.09199 11.8657 5.08548 11.8578C5.07897 11.8499 5.07039 11.8438 5.06065 11.8402C5.0509 11.8366 5.04034 11.8357 5.03009 11.8375C5.01983 11.8392 5.01025 11.8437 5.00236 11.8503C4.96922 11.7575 4.95956 11.6606 4.99132 11.6364C5.07483 11.4177 5.14039 11.1928 5.18737 10.964C5.19486 10.9035 5.10778 10.7105 5.05474 10.593C5.03937 10.5589 5.02682 10.5311 5.02031 10.5148C5.20532 10.3561 5.55325 10.0602 5.643 10.0091C6.33334 9.60564 6.94084 9.08652 7.22664 8.33608C7.67537 7.1593 7.45446 6.1493 6.67437 5.76332L6.644 5.74852L6.60672 5.73104L6.57358 5.71625C5.82663 5.46879 4.97475 5.8857 4.44732 7.02078C4.10906 7.74836 4.09387 8.52167 4.2775 9.33667C4.32056 9.57542 4.33354 9.8184 4.31616 10.0602V10.1113L4.09939 10.1476C4.01103 10.1866 4.03312 10.2458 4.03312 10.2458L4.08973 10.5659L4.08006 10.5766C4.04837 10.5822 4.01994 10.5991 4.00029 10.6239C3.98064 10.6488 3.97118 10.6799 3.97375 10.7111L3.96408 10.7219C3.85087 10.7407 3.85777 10.9075 3.85777 10.9075C3.83696 10.911 3.81725 10.9191 3.80016 10.9312C3.78307 10.9433 3.76905 10.959 3.75918 10.9772C3.74931 10.9954 3.74386 11.0155 3.74324 11.0361C3.74262 11.0566 3.74685 11.0771 3.7556 11.0958C3.65627 11.1591 3.71392 11.2432 3.75334 11.3007C3.75994 11.3103 3.76603 11.3192 3.77079 11.3271C3.80392 11.3823 3.9558 11.7131 3.9558 11.7131L3.76665 12.1986C3.54436 12.7231 3.32345 13.2436 3.32207 13.2436C3.31568 13.2601 3.30408 13.2742 3.28893 13.2839L3.26408 13.2987C3.26408 13.2987 3.24475 13.3135 3.23922 13.3619C3.30457 13.4328 3.38651 13.4872 3.47808 13.5206C3.59958 13.5811 3.64929 13.5892 3.69209 13.5825C3.72108 13.5462 3.72108 13.5287 3.7197 13.5193C3.71878 13.513 3.71909 13.5067 3.7194 13.5004C3.71955 13.4973 3.7197 13.4942 3.7197 13.491C3.71531 13.4752 3.71531 13.4585 3.7197 13.4426L4.0773 12.5846L4.21537 12.2645L4.24574 12.3022C4.23887 12.3045 4.23263 12.3084 4.22745 12.3134C4.22228 12.3184 4.21829 12.3245 4.21579 12.3311C4.21329 12.3378 4.21232 12.3449 4.21296 12.352C4.21361 12.3591 4.21584 12.3659 4.21951 12.3721C4.22638 12.3896 4.23111 12.4045 4.23524 12.4174C4.2444 12.4461 4.25062 12.4656 4.2706 12.4851C4.30128 12.5106 4.3218 12.5458 4.32859 12.5846C4.33536 12.6098 4.33609 12.6422 4.33678 12.6729C4.33764 12.711 4.33844 12.7465 4.35068 12.7621L4.38796 12.8172C4.39228 12.8449 4.40159 12.8724 4.4118 12.9024C4.42438 12.9395 4.43832 12.9806 4.44594 13.0311C4.45975 13.1225 4.49151 13.0916 4.49151 13.0916H4.50808C4.52157 13.1238 4.53689 13.161 4.55398 13.2026C4.73974 13.6544 5.1349 14.6157 5.67475 15.1022C5.8301 15.1344 5.97742 15.1961 6.10829 15.2838L6.09586 15.3026L6.05168 15.3752C6.05168 15.3752 6.20079 15.4478 6.31953 15.5205C6.62037 15.7012 6.93204 15.8642 7.25288 16.0086L7.41721 16.8402C6.11624 17.1831 4.9281 17.7026 3.90392 18.3611C5.94458 17.4438 8.42981 16.9059 11.1111 16.9059C13.791 16.9059 16.2776 17.4438 18.3224 18.3664C16.7872 17.3784 14.881 16.7009 12.7801 16.4639C12.9344 16.1609 13.252 16.0181 13.252 16.0181C13.361 15.9454 14.3054 15.8432 14.3054 15.8432V15.7719C15.4763 15.5178 16.0561 15.0887 16.0561 15.0887C16.2909 15.0511 16.3171 14.9919 16.3171 14.9919C16.3679 14.9389 16.4233 14.8903 16.4828 14.8467C17.1538 14.4055 17.8635 13.183 17.8635 13.183C17.8819 13.1904 17.9017 13.1937 17.9215 13.1929C17.9414 13.1921 17.9608 13.1871 17.9785 13.1783C17.9962 13.1695 18.0117 13.1571 18.0241 13.1419C18.0364 13.1267 18.0452 13.1091 18.0499 13.0903C18.1065 13.0136 18.4337 12.6034 18.4337 12.6034C18.529 12.5187 18.4723 12.4514 18.4723 12.4514L18.424 12.3923L18.442 12.3748C18.4655 12.3489 18.4936 12.289 18.5191 12.2345C18.5401 12.1897 18.5594 12.1485 18.5731 12.1327C18.6205 12.056 18.663 11.9765 18.7002 11.8947C18.7358 11.803 18.7763 11.7132 18.8217 11.6257C18.8472 11.5944 18.8654 11.5582 18.8752 11.5194C18.8849 11.4806 18.886 11.4403 18.8783 11.4011V11.3917ZM5.9539 22.646H4.92529H4.64915C4.38809 22.6651 4.35779 22.7863 4.31559 22.9552L4.30812 22.9849L3.91877 24.4629C3.87596 24.627 3.87182 24.7064 3.91877 24.7481C3.99008 24.8016 4.21585 24.7972 4.35042 24.7947C4.37475 24.7942 4.39614 24.7938 4.41305 24.7938L4.65329 23.8927H5.92214C6.02155 23.5323 6.00084 23.5067 5.59768 23.5067H4.76236L4.88248 23.0374H6.25212C6.27687 22.9649 6.29625 22.8907 6.31011 22.8155C6.32958 22.6461 6.17823 22.6466 5.99026 22.6473L5.9539 22.6474V22.646ZM6.38951 24.463L6.87689 22.646C7.41836 22.6461 7.46485 22.6602 7.38084 22.9648L6.89346 24.7938C6.34671 24.7938 6.30529 24.7817 6.38951 24.463ZM9.97217 22.9406L9.64633 24.1604L8.87591 22.8733C8.74232 22.6417 8.69016 22.6417 8.38301 22.642H8.35125H8.07511L7.71337 24.0044L7.58773 24.4576C7.50351 24.7804 7.54493 24.7925 8.0903 24.7925L8.5045 23.262L9.28045 24.541L9.28735 24.5529C9.40668 24.7601 9.42533 24.7925 9.7844 24.7925H10.073L10.6501 22.6406C10.1089 22.6406 10.0509 22.6487 9.97908 22.9379L9.97217 22.9406ZM14.5092 24.4081H15.1071H15.1126C15.3266 24.4081 15.4232 24.4215 15.4647 24.4632C15.5216 24.5152 15.4789 24.6576 15.4515 24.7488C15.4464 24.766 15.4417 24.7814 15.4384 24.7941H14.3215C13.8907 24.7941 13.8189 24.7941 13.9073 24.4592L14.3891 22.6463C14.4071 22.6463 14.4294 22.6459 14.4547 22.6454C14.5924 22.6428 14.8164 22.6386 14.8875 22.692C14.94 22.7337 14.9345 22.8184 14.8875 22.9865L14.5092 24.4081ZM16.2107 23.2881C16.1049 23.7356 16.5832 23.8048 17.0081 23.8664C17.066 23.8747 17.1229 23.883 17.1771 23.892C17.3456 23.9216 17.6549 23.9969 17.6065 24.1771L17.6033 24.1903C17.5915 24.2393 17.5646 24.3517 17.5071 24.3748C17.328 24.3959 17.1475 24.4027 16.9673 24.395H16.4426C16.2327 24.395 16.1237 24.4031 16.0602 24.4488C15.9966 24.4945 15.9594 24.5752 15.9028 24.7971H16.8692C17.7446 24.7971 18.1119 24.4784 18.1892 24.1556C18.3166 23.6842 17.8146 23.6058 17.3554 23.5342C17.2225 23.5135 17.0932 23.4933 16.9838 23.4643C16.832 23.4213 16.785 23.3514 16.8016 23.2841L16.8032 23.2778L16.8072 23.2609C16.8201 23.2044 16.8477 23.0839 16.9051 23.0622C17.0699 23.0369 17.237 23.0284 17.4036 23.0367H17.9696C18.3687 23.0367 18.4004 23.0111 18.4998 22.6426H17.5237C16.7381 22.6426 16.3073 22.882 16.2079 23.2881H16.2107ZM12.6038 22.6426H12.9545L13.4667 24.7904H13.1147C12.8692 24.7786 12.8531 24.7097 12.8182 24.5603L12.815 24.547L12.7833 24.3963H11.56L11.4509 24.547L11.4445 24.5556C11.3782 24.6439 11.3365 24.6996 11.2815 24.7348C11.1875 24.7949 11.0551 24.7948 10.696 24.7945L10.6114 24.7944L12.0377 22.9116C12.2269 22.656 12.2586 22.6426 12.6038 22.6426ZM12.5251 23.0447L11.8113 24.0346H12.7143L12.5251 23.0447ZM18.7178 25.027H18.6074L18.6212 24.9624H18.9167L18.9028 25.027H18.7965L18.7358 25.3107H18.6585L18.7178 25.027ZM19.064 24.9639H18.9563L18.8859 25.3122H18.959L19.0115 25.0352L19.046 25.3122H19.1054L19.2545 25.0352L19.191 25.3122H19.2642L19.3387 24.9639H19.2297L19.0916 25.2154L19.064 24.9639Z" fill="#78D6FF"/>
</g>
</g>
</g>
</g>
<defs>
<clipPath id="clip0_1_5904">
<rect width="21.66" height="25" fill="white" transform="translate(0.369995 0.870117)"/>
</clipPath>
<clipPath id="clip1_1_5904">
<rect width="21.66" height="25" fill="white" transform="translate(0.369995 0.870117)"/>
</clipPath>
<clipPath id="clip2_1_5904">
<rect width="21" height="25" fill="white" transform="translate(0.699982 0.870117)"/>
</clipPath>
</defs>
</svg>
