<svg width="56" height="26" viewBox="0 0 56 26" fill="none" xmlns="http://www.w3.org/2000/svg">
<g clip-path="url(#clip0_1_5885)">
<g clip-path="url(#clip1_1_5885)">
<g clip-path="url(#clip2_1_5885)">
<path d="M6.53659 6.13631V11.2663H13.4997V15.8168H6.53659V25.8702H1.6619V3.12784C1.6619 1.89321 2.14228 1.41699 3.37613 1.41699H14.9106V6.13631H6.53659Z" fill="white"/>
<path d="M16.553 25.8702V3.12784C16.553 1.89573 17.0385 1.41699 18.2723 1.41699H21.4277V25.8702H16.553Z" fill="white"/>
<path d="M33.6491 8.52754C33.6491 10.513 32.4835 11.5032 30.7996 11.5032H28.6707V5.54931H30.7996C32.4835 5.54931 33.6491 6.54457 33.6491 8.52754ZM38.6249 18.8908C38.6249 15.5725 36.8399 14.0027 35.5352 13.5542C36.7008 13.0125 38.453 11.6418 38.453 7.87747C38.453 4.4583 36.1193 1.41455 31.1409 1.41455H25.619C24.3826 1.41455 23.8997 1.89329 23.8997 3.1254V25.8678H31.3483C35.5352 25.8678 38.6249 23.5396 38.6249 18.8908ZM33.7148 18.6212C33.7148 20.6722 32.5164 21.665 30.8325 21.665H28.6707V15.5725H30.8325C32.5164 15.5725 33.7148 16.5652 33.7148 18.6212Z" fill="white"/>
<path d="M50.1208 13.0803H45.5925V8.05113C45.5925 7.02311 45.9338 5.27952 47.8579 5.27952C49.7795 5.27952 50.1208 7.02311 50.1208 8.05113V13.0803ZM54.9955 25.8701V7.50185C54.9955 5.62219 53.9665 0.870117 47.8579 0.870117C41.7443 0.870117 40.7178 5.62219 40.7178 7.50185V25.8701H45.5925V17.6283H50.1208V25.8701H54.9955Z" fill="white"/>
</g>
</g>
</g>
<defs>
<clipPath id="clip0_1_5885">
<rect width="55" height="25" fill="white" transform="translate(0.970001 0.870117)"/>
</clipPath>
<clipPath id="clip1_1_5885">
<rect width="55" height="25" fill="white" transform="translate(0.970001 0.870117)"/>
</clipPath>
<clipPath id="clip2_1_5885">
<rect width="55" height="25" fill="white" transform="translate(0.970001 0.870117)"/>
</clipPath>
</defs>
</svg>
