<svg width="35" height="26" viewBox="0 0 35 26" fill="none" xmlns="http://www.w3.org/2000/svg">
<g clip-path="url(#clip0_1_5872)">
<g clip-path="url(#clip1_1_5872)">
<g clip-path="url(#clip2_1_5872)">
<mask id="mask0_1_5872" style="mask-type:luminance" maskUnits="userSpaceOnUse" x="1" y="1" width="33" height="25">
<path d="M33.9683 1.11646H1.29182V25.6238H33.9683V1.11646Z" fill="white"/>
</mask>
<g mask="url(#mask0_1_5872)">
<path d="M27.5974 15.9791C27.5974 16.5601 27.1246 17.0314 26.5413 17.0314C25.958 17.0314 25.4852 16.5601 25.4852 15.9791C25.4852 15.398 25.958 14.9268 26.5413 14.9268C27.1246 14.9268 27.5974 15.398 27.5974 15.9791Z" fill="#FFDB00"/>
<path fill-rule="evenodd" clip-rule="evenodd" d="M2.54922 11.9941C4.32471 8.13121 8.37861 4.71675 13.3939 2.85977C15.9654 1.90772 18.6848 1.40454 21.2589 1.40454C26.9642 1.40454 31.4612 3.80144 32.9968 7.65997C33.8649 9.84203 33.7281 12.2929 32.5998 14.7468C30.8243 18.6094 26.7704 22.0238 21.7556 23.8803C19.1837 24.8328 16.4637 25.3356 13.8902 25.3356C8.18527 25.3356 3.68781 22.9388 2.15266 19.081C1.28449 16.8986 1.42135 14.4482 2.54922 11.9941ZM22.9077 9.72473C23.442 9.75069 23.8398 10.1037 23.8398 10.6273C23.8398 11.1497 23.4238 11.5306 22.8986 11.545C22.8569 11.5478 22.8322 11.5493 22.7279 11.5493C22.5655 11.5489 20.3061 11.5506 20.3061 11.5506V15.8835L20.2994 16.0285C20.2785 16.574 19.905 16.9905 19.3591 16.9905C18.8315 16.9905 18.4168 16.5625 18.402 16.0304L18.3954 15.8903L18.3949 11.5466L15.9731 11.5462C15.9731 11.5462 13.8942 16.0892 13.8286 16.2197C13.7684 16.3395 13.7145 16.4346 13.6869 16.475C13.4708 16.7884 13.2771 16.9885 12.8735 16.9885C12.4836 16.9885 12.2499 16.7901 12.0626 16.4801C12.0012 16.3787 11.9678 16.3188 11.9324 16.2493C11.8973 16.1806 10.396 12.8912 10.396 12.8912L8.91979 16.1263C8.91979 16.1263 8.8258 16.3332 8.77551 16.4202C8.55291 16.8044 8.26269 16.9885 7.90611 16.9885C7.5619 16.9885 7.26962 16.7884 7.06351 16.4231C7.05938 16.4158 7.05524 16.4084 7.0511 16.4012C7.01292 16.3339 6.97376 16.265 6.93695 16.1814C6.74018 15.7523 6.24611 14.6764 5.7624 13.6229C5.29457 12.6041 4.83642 11.6064 4.66638 11.2354C4.62655 11.1483 4.6175 11.1255 4.60058 11.0831L4.59876 11.0785C4.40461 10.5985 4.51673 10.3154 4.60041 10.1736C4.76695 9.89086 5.09138 9.69678 5.43477 9.71634C5.90431 9.7423 6.14752 10.0027 6.35158 10.432L6.42125 10.5638L7.90487 13.8037C7.90487 13.8037 9.33203 10.6788 9.38603 10.567C9.44003 10.4552 9.47795 10.3789 9.47795 10.3789C9.74838 9.85892 10.0374 9.71555 10.3944 9.71555C10.7757 9.71555 11.0761 9.91442 11.3152 10.3984C11.3152 10.3984 11.364 10.4911 11.4134 10.6017C11.4653 10.7167 12.8748 13.8057 12.8748 13.8057L14.4318 10.3988C14.4318 10.3988 14.4672 10.3178 14.5245 10.2203C14.6824 9.91523 14.9573 9.72354 15.337 9.71715L15.344 9.71703C15.4085 9.71592 15.4303 9.71555 15.5522 9.71555L22.7279 9.71515C22.8159 9.71515 22.8829 9.72218 22.9021 9.72419C22.9054 9.72454 22.9072 9.72473 22.9077 9.72473ZM30.3691 15.3069L30.4288 15.4131L30.4306 15.4162C30.5511 15.635 30.6589 15.8308 30.6589 16.0652C30.6589 16.5888 30.245 16.9857 29.7219 16.9869C29.3765 16.9873 29.0813 16.7772 28.8641 16.4446L28.7972 16.3416L26.5547 12.4436L24.3097 16.3244L24.2264 16.4534C24.0063 16.7797 23.7202 16.9873 23.3743 16.9869C22.8516 16.9857 22.4385 16.5848 22.4385 16.0612C22.4385 15.8257 22.5326 15.6531 22.6546 15.4302L22.7465 15.2745L25.6338 10.3825L25.7307 10.2355C25.931 9.92041 26.1936 9.71674 26.5543 9.70916C26.9151 9.71674 27.1693 9.91203 27.3697 10.2183L27.4628 10.3621L30.3691 15.3069Z" fill="#C755FF"/>
</g>
</g>
</g>
</g>
<defs>
<clipPath id="clip0_1_5872">
<rect width="33.33" height="25" fill="white" transform="translate(0.940002 0.870117)"/>
</clipPath>
<clipPath id="clip1_1_5872">
<rect width="33.33" height="25" fill="white" transform="translate(0.940002 0.870117)"/>
</clipPath>
<clipPath id="clip2_1_5872">
<rect width="33.33" height="24.5074" fill="white" transform="translate(0.940002 1.11646)"/>
</clipPath>
</defs>
</svg>
