<svg width="23" height="23" viewBox="0 0 23 23" fill="none" xmlns="http://www.w3.org/2000/svg">
<path d="M3.21473 18.9078C3.21473 19.7419 3.54609 20.5419 4.1359 21.1317C4.72571 21.7215 5.52566 22.0528 6.35978 22.0528H10.8813C10.9333 22.0526 10.9832 22.0317 11.02 21.9948C11.0567 21.9579 11.0773 21.9079 11.0773 21.8558V12.8147C11.0773 12.7627 11.0567 12.7127 11.02 12.6758C10.9832 12.6388 10.9333 12.618 10.8813 12.6177H3.60786C3.55628 12.6177 3.50521 12.6279 3.45756 12.6476C3.40992 12.6674 3.36665 12.6964 3.33022 12.7329C3.29379 12.7694 3.26492 12.8128 3.24527 12.8605C3.22562 12.9082 3.21556 12.9593 3.21569 13.0108V18.9078H3.21473ZM11.0773 10.8491V5.54136H12.6499V10.8491C12.6499 10.8749 12.655 10.9005 12.6649 10.9244C12.6748 10.9482 12.6893 10.9699 12.7076 10.9881C12.7259 11.0063 12.7477 11.0207 12.7716 11.0305C12.7955 11.0403 12.8211 11.0453 12.8469 11.0452H19.7262C20.1036 11.0453 20.4755 10.9548 20.8106 10.7812C21.1457 10.6076 21.4342 10.3559 21.6517 10.0475C21.9331 9.6494 22.0845 9.17395 22.085 8.6864V7.90014C22.085 7.59038 22.024 7.28365 21.9054 6.99747C21.7869 6.71129 21.6132 6.45126 21.3941 6.23223C21.1751 6.01319 20.9151 5.83945 20.6289 5.72091C20.3427 5.60237 20.036 5.54136 19.7262 5.54136H17.7347C17.7176 5.54111 17.7008 5.5364 17.6861 5.5277C17.6713 5.519 17.6591 5.5066 17.6506 5.49173C17.6421 5.47685 17.6376 5.46002 17.6376 5.4429C17.6376 5.42577 17.6421 5.40893 17.6506 5.39405C18.1096 4.62586 18.2603 3.71225 18.0725 2.83732C17.8847 1.96238 17.3722 1.19116 16.6383 0.679043C15.9045 0.166929 15.0038 -0.0480098 14.1178 0.0775377C13.2318 0.203085 12.4263 0.659787 11.8636 1.35562C11.2984 0.666945 10.4942 0.216777 9.61169 0.0949872C8.72913 -0.0268031 7.83311 0.188744 7.10251 0.698598C6.37191 1.20845 5.86047 1.9751 5.67031 2.84548C5.48015 3.71587 5.62525 4.62596 6.07665 5.39405C6.08509 5.40886 6.08955 5.42561 6.08959 5.44266C6.08962 5.45971 6.08523 5.47648 6.07685 5.49132C6.06846 5.50617 6.05636 5.51858 6.04174 5.52735C6.02712 5.53612 6.01047 5.54095 5.99343 5.54136H4.00099C3.37541 5.54136 2.77544 5.78987 2.33308 6.23223C1.89073 6.67459 1.64221 7.27455 1.64221 7.90014V8.6864C1.64322 9.31168 1.89206 9.91106 2.3342 10.3532C2.77634 10.7953 3.37572 11.0442 4.00099 11.0452H10.8813C10.9333 11.0452 10.9831 11.0245 11.0199 10.9878C11.0567 10.951 11.0773 10.9011 11.0773 10.8491ZM12.6499 3.5757C12.6499 3.18694 12.7651 2.8069 12.9811 2.48365C13.1971 2.1604 13.5041 1.90845 13.8633 1.75968C14.2225 1.6109 14.6177 1.57198 14.999 1.64782C15.3803 1.72367 15.7305 1.91088 16.0054 2.18578C16.2803 2.46068 16.4676 2.81093 16.5434 3.19222C16.6192 3.57352 16.5803 3.96875 16.4315 4.32793C16.2828 4.6871 16.0308 4.9941 15.7076 5.21008C15.3843 5.42607 15.0043 5.54136 14.6155 5.54136H12.6499V3.5757ZM8.97108 1.61483C9.24039 1.59552 9.51079 1.6319 9.76542 1.72169C10.0201 1.81149 10.2535 1.95278 10.4511 2.13676C10.6487 2.32073 10.8063 2.54345 10.914 2.79102C11.0218 3.03859 11.0774 3.3057 11.0773 3.5757V5.54136H9.11169C8.60415 5.53898 8.1172 5.34037 7.75277 4.98711C7.38833 4.63385 7.17467 4.15331 7.15651 3.64609C7.13834 3.13886 7.31707 2.64427 7.65529 2.26584C7.99352 1.88741 8.46501 1.65352 8.97108 1.61483ZM12.8469 22.0528H17.3674C18.2015 22.0528 19.0015 21.7215 19.5913 21.1317C20.1811 20.5419 20.5125 19.7419 20.5125 18.9078V13.0108C20.5125 12.9068 20.4712 12.8071 20.3976 12.7335C20.3241 12.66 20.2243 12.6187 20.1203 12.6187H12.8469C12.7948 12.6187 12.7448 12.6393 12.7079 12.676C12.671 12.7128 12.6501 12.7627 12.6499 12.8147V21.8558C12.6497 21.8817 12.6547 21.9074 12.6646 21.9313C12.6745 21.9553 12.689 21.9771 12.7073 21.9954C12.7256 22.0137 12.7474 22.0282 12.7714 22.0381C12.7953 22.048 12.821 22.053 12.8469 22.0528Z" fill="white"/>
</svg>
