<svg width="59" height="16" viewBox="0 0 59 16" fill="none" xmlns="http://www.w3.org/2000/svg">
<g clip-path="url(#clip0_1_12232)">
<path d="M21.0474 6.21934C21.0474 6.21934 20.9719 4.80592 20.183 3.82114C19.3941 2.83636 18.5297 2.57478 18.0208 2.50005C17.9653 1.92413 17.8697 1.64496 17.8697 1.64496L15.8764 1.85818L16.0076 2.87154C16.0076 2.87154 14.0143 3.76399 13.5632 6.14461C13.1121 8.52522 13.2432 10.2178 14.1454 12.0027C15.0476 13.7876 16.3453 14.3635 17.6786 14.3635C17.792 15.0142 17.8297 15.256 17.8297 15.256C17.8297 15.256 19.3897 15.0516 19.9675 14.968C19.883 14.2427 19.7564 13.7261 19.7564 13.7261C19.7564 13.7261 21.363 12.9721 21.4341 10.8531C20.4341 10.8113 19.1075 10.7827 19.1075 10.7827C19.1075 10.7827 19.1919 11.4949 18.3742 11.8423C17.5564 12.1918 16.7942 12.1346 16.1475 10.7827C15.4987 9.43086 15.5142 7.51846 16.0076 6.16659C16.5009 4.81472 17.7275 4.78614 17.9542 4.91143C18.1808 5.03673 18.6319 5.38624 18.7008 6.3886C19.6875 6.32266 21.0474 6.21934 21.0474 6.21934Z" fill="#16DE7E"/>
<path fill-rule="evenodd" clip-rule="evenodd" d="M28.6696 10.0026C26.2741 5.03912 26.6118 1.39896 26.6118 1.39896H29.3029C29.2051 3.33774 29.8673 5.74913 30.4317 7.28345C31.3473 6.19536 33.9561 1.39896 33.9561 1.39896L36.3805 2.69587C36.3805 2.69587 35.0561 5.02373 34.2805 6.34923C33.505 7.67472 31.2917 10.728 31.2917 10.728C31.2917 10.728 30.4451 14.0054 30.1917 14.9528C29.7695 14.8012 27.6318 14.3264 27.6318 14.3264C27.6318 14.3264 27.8229 13.5438 28.6696 10.0026ZM1.09449 15.5C1.37671 14.1042 0.0700684 2.14835 0.0700684 2.14835C0.0700684 2.14835 1.40337 1.91535 2.87 1.86039C3.06778 3.56177 3.81443 11.2532 3.87887 12.627C4.74729 12.5968 6.26906 12.4084 7.2876 12.2715C6.96595 11.9522 6.69179 11.5599 6.488 11.1014C5.66135 9.24179 7.00132 4.28712 7.00132 4.28712C7.00132 4.28712 8.28351 4.56409 9.22127 4.71577C8.97683 5.62581 8.5635 8.41528 8.48795 9.27037C8.4124 10.1255 8.63906 11.0926 9.25904 11.2597C9.87903 11.4268 10.519 10.8684 10.8568 9.69681C11.1946 8.52519 11.5146 6.12699 11.5901 5.0301C11.6608 5.0365 11.7469 5.04398 11.8456 5.05256C12.3239 5.09414 13.0981 5.16143 13.8456 5.25432C13.7345 6.72269 13.2079 9.56712 13.0568 10.2002C12.9079 10.8333 12.5301 12.1719 10.9146 12.9523C10.1388 13.327 9.27798 13.3439 8.50115 13.0543C8.59441 13.5617 8.71229 14.2163 8.82098 14.8581C7.35434 15.2208 4.36552 15.5 1.09449 15.5ZM20.6205 5.0258L22.256 13.5745L24.2582 13.1986L23.8071 10.8707C23.8071 10.8707 23.7938 10.6905 23.976 10.829C24.1582 10.9674 26.7959 13.1019 26.7959 13.1019L28.1204 11.484L24.8204 8.89018C24.8204 8.89018 25.6937 7.02174 25.9915 6.24139C26.2871 5.46104 26.6537 4.58178 26.6537 4.58178L24.6382 3.92672C24.6382 3.92672 23.4538 7.20419 23.2138 7.5537C22.9183 6.00619 22.6227 4.61035 22.6227 4.61035C22.6227 4.61035 21.3961 4.90051 20.6205 5.0258Z" fill="#D583FB"/>
<path fill-rule="evenodd" clip-rule="evenodd" d="M57.0065 0.5L47.8934 1.79032L48.2055 4.05591L42.641 4.84663L42.7999 2.99056L36.0289 2.38387L35.8178 4.99969L39.5266 5.33381L39.1888 10.1302C39.1888 10.1302 39.2444 12.2646 38.0178 12.7658C36.7911 13.267 35.7067 12.2778 35.7756 11.0359C33.6756 10.7853 33.0134 10.7435 33.0134 10.7435C33.0134 10.7435 32.7312 13.3659 35.0156 14.7881C37.3 16.2103 39.3444 15.0387 39.3444 15.0387L39.2177 14.3837L39.8088 14.8013C39.8088 14.8013 41.0221 14.0627 41.4443 12.8911C41.8322 11.8147 41.8413 11.7031 41.8832 11.1842C41.8869 11.1384 41.8909 11.0889 41.8954 11.0359C41.9376 10.5391 42.151 7.66794 42.2516 6.30956L42.3153 6.80866L42.7108 6.73831L42.9931 8.57818H42.7953L43.0642 10.4752H43.2753L43.8108 13.8714C43.8108 13.8714 47.5618 13.6977 50.4795 12.2469C49.9018 11.1171 49.6196 10.5323 49.6196 10.5323C49.6196 10.5323 47.5463 11.4534 45.6019 11.6754C45.4041 10.4906 45.3619 10.1411 45.3619 10.1411L48.6329 9.68166L48.364 7.82641L45.0797 8.28582L44.7975 6.44596L49.5062 5.74914L49.3023 4.35354L51.5467 4.03465L53.2355 14.4452L55.8088 14.0143L54.1088 3.67195L57.4243 3.24111L57.0065 0.5Z" fill="#FF5C00"/>
</g>
<defs>
<clipPath id="clip0_1_12232">
<rect width="58" height="15" fill="white" transform="translate(0.0700684 0.5)"/>
</clipPath>
</defs>
</svg>
