<svg width="23" height="23" viewBox="0 0 23 23" fill="none" xmlns="http://www.w3.org/2000/svg">
<path d="M7.04452 7.67857H16.9156C17.2803 7.67857 17.6301 7.82343 17.8879 8.0813C18.1458 8.33916 18.2906 8.6889 18.2906 9.05357V16.9901C18.2906 17.3547 18.1458 17.7045 17.8879 17.9623C17.6301 18.2202 17.2803 18.3651 16.9156 18.3651H7.04315C6.67847 18.3651 6.32874 18.2202 6.07087 17.9623C5.81301 17.7045 5.66815 17.3547 5.66815 16.9901V9.05357C5.66815 8.6889 5.81301 8.33916 6.07087 8.0813C6.32874 7.82343 6.67985 7.67857 7.04452 7.67857ZM6.64027 2.82207H11.9093C12.1606 2.83152 12.3985 2.93801 12.5729 3.11916C12.7474 3.3003 12.8448 3.54201 12.8448 3.79351C12.8448 4.045 12.7474 4.28671 12.5729 4.46785C12.3985 4.649 12.1606 4.75549 11.9093 4.76494H6.64027C6.50962 4.76986 6.37933 4.74837 6.25718 4.70177C6.13503 4.65516 6.02354 4.5844 5.92937 4.49371C5.8352 4.40302 5.76029 4.29426 5.70913 4.17395C5.65796 4.05364 5.63159 3.92424 5.63159 3.79351C5.63159 3.66277 5.65796 3.53337 5.70913 3.41306C5.76029 3.29275 5.8352 3.184 5.92937 3.09331C6.02354 3.00261 6.13503 2.93185 6.25718 2.88524C6.37933 2.83864 6.50962 2.81715 6.64027 2.82207Z" fill="white"/>
<path d="M17.3597 0.740326H6.35974C4.84096 0.740326 3.60974 1.97154 3.60974 3.49033V17.8426C3.60974 19.3614 4.84096 20.5926 6.35974 20.5926H17.3597C18.8785 20.5926 20.1097 19.3614 20.1097 17.8426V3.49033C20.1097 1.97154 18.8785 0.740326 17.3597 0.740326Z" stroke="white" stroke-width="1.375"/>
</svg>
