<svg width="23" height="23" viewBox="0 0 23 23" fill="none" xmlns="http://www.w3.org/2000/svg">
<path d="M11.3157 0.0528259C5.27474 0.0528259 0.359741 4.96783 0.359741 11.0088C0.359741 17.0498 5.27474 21.9648 11.3157 21.9648C17.3567 21.9648 22.2717 17.0498 22.2717 11.0088C22.2717 4.96783 17.3567 0.0528259 11.3157 0.0528259ZM10.4347 0.905826H12.1347V2.60583H10.4347V0.905826ZM18.9667 11.0088C18.9667 15.2288 15.5347 18.6598 11.3157 18.6598C7.09674 18.6598 3.66474 15.2278 3.66474 11.0088C3.66474 6.78983 7.09674 3.35783 11.3157 3.35783C15.5347 3.35783 18.9667 6.78983 18.9667 11.0088ZM4.77274 3.26383L5.97474 4.46583L4.77274 5.66783L3.57074 4.46583L4.77274 3.26383ZM2.88074 11.8588H1.18074V10.1588H2.88074V11.8588ZM4.77274 18.7528L3.57074 17.5508L4.77274 16.3488L5.97474 17.5528L4.77274 18.7548V18.7528ZM12.1337 21.1108H10.4337V19.4108H12.1337V21.1108ZM17.8587 18.7528L16.6567 17.5508L17.8587 16.3488L19.0607 17.5508L17.8587 18.7528ZM17.8587 5.66683L16.6567 4.46483L17.8597 3.26383L19.0617 4.46583L17.8597 5.66783L17.8587 5.66683ZM19.6877 11.8568V10.1578H21.3877V11.8578H19.6877V11.8568Z" fill="white"/>
<path d="M5.07971 11.0088C5.08157 12.6621 5.7392 14.247 6.9083 15.416C8.07741 16.5849 9.66248 17.2422 11.3157 17.2438C12.9688 17.242 14.5536 16.5845 15.7225 15.4156C16.8914 14.2467 17.5489 12.6619 17.5507 11.0088C17.5489 9.35578 16.8914 7.77096 15.7225 6.60207C14.5536 5.43318 12.9688 4.77569 11.3157 4.77383C9.66266 4.77569 8.07784 5.43318 6.90895 6.60207C5.74006 7.77096 5.08257 9.35578 5.08071 11.0088H5.07971ZM14.2967 10.4798C14.5644 10.9004 14.7002 11.3915 14.6867 11.8898C14.6867 13.1388 13.8047 13.8098 12.8027 13.8098C12.1187 13.8098 11.7297 13.4868 11.5167 13.2188L11.8797 14.5028H10.7397L11.0947 13.2478C10.8757 13.5078 10.4927 13.8358 9.83471 13.8358C8.83171 13.8358 7.94471 13.1508 7.94471 11.9018C7.94471 11.3968 8.03771 10.9588 8.33171 10.4798C8.79071 9.73383 11.3217 7.58683 11.3217 7.58683C11.3217 7.58683 13.8387 9.73383 14.2967 10.4798Z" fill="white"/>
</svg>
