<svg width="100" height="20" viewBox="0 0 100 20" fill="none" xmlns="http://www.w3.org/2000/svg">
<mask id="mask0_1_6211" style="mask-type:luminance" maskUnits="userSpaceOnUse" x="0" y="0" width="99" height="20">
<path d="M0.316833 0.870361H98.6175V19.8697H0.316833V0.870361Z" fill="white"/>
</mask>
<g mask="url(#mask0_1_6211)">
<path d="M5.30526 1.46248H0.935364V16.7263H5.28838C7.26698 16.8433 9.21731 16.2126 10.7529 14.9594C11.6095 14.243 12.2983 13.3472 12.7705 12.3353C13.2427 11.3234 13.4869 10.2201 13.4856 9.10338C13.5025 4.64065 10.1322 1.46248 5.30526 1.46248ZM8.7843 12.9286C7.84699 13.7487 6.63524 14.1403 4.71311 14.1403H3.90352V4.04956H4.70467C6.62574 4.04956 7.7921 4.39471 8.77585 5.28768C9.29979 5.77109 9.71698 6.3586 10.0007 7.01258C10.2844 7.66656 10.4285 8.37258 10.4235 9.08544C10.4287 9.80424 10.2858 10.5164 10.0038 11.1776C9.72181 11.8388 9.30668 12.4348 8.7843 12.9286ZM17.8471 1.46248H14.8684V16.7263H17.8471V1.46248ZM25.1239 7.31956C23.3021 6.66302 22.8102 6.22604 22.8102 5.39745C22.8102 4.56887 23.7486 3.72973 25.0321 3.72973C25.4988 3.7392 25.9571 3.85496 26.3723 4.06823C26.7875 4.2815 27.1486 4.58665 27.4282 4.96047L28.9851 2.92015C27.7556 1.81514 26.1585 1.20777 24.5054 1.21654C23.9056 1.17833 23.3043 1.26116 22.7371 1.46012C22.17 1.65907 21.6487 1.97009 21.2043 2.37465C20.7598 2.77921 20.4013 3.26904 20.1501 3.815C19.8988 4.36097 19.76 4.95189 19.7418 5.55262C19.7418 7.65627 20.7076 8.72973 23.5037 9.73247C24.2162 9.96469 24.9033 10.2708 25.5525 10.6434C25.8292 10.803 26.0591 11.0327 26.219 11.3093C26.3789 11.5859 26.4632 11.8998 26.4634 12.2193C26.4614 12.5142 26.3992 12.8056 26.2807 13.0757C26.1622 13.3458 25.9898 13.5889 25.7741 13.79C25.5584 13.9912 25.304 14.1463 25.0263 14.2457C24.7486 14.3451 24.4535 14.3868 24.1592 14.3683C23.4791 14.3795 22.8104 14.1937 22.2335 13.8334C21.6567 13.473 21.1964 12.9535 20.9081 12.3375L18.9871 14.1583C19.5265 15.0713 20.3013 15.8226 21.2305 16.3338C22.1596 16.845 23.209 17.0972 24.2689 17.0641C27.3648 17.0641 29.5329 15.0058 29.5329 12.0546C29.5149 9.65964 28.4942 8.55768 25.125 7.3185L25.1239 7.31956ZM30.4512 9.10338C30.4424 10.1601 30.6456 11.2079 31.0487 12.1848C31.4518 13.1617 32.0468 14.0478 32.7983 14.7908C33.5499 15.5337 34.4427 16.1185 35.4242 16.5104C36.4056 16.9023 37.4557 17.0935 38.5123 17.0726C39.8111 17.0676 41.0903 16.7558 42.2457 16.1627V12.6742C41.7968 13.2014 41.2383 13.6243 40.6092 13.9136C39.9801 14.2029 39.2955 14.3516 38.6031 14.3493C37.913 14.3694 37.2262 14.2459 36.5863 13.9866C35.9465 13.7273 35.3675 13.3378 34.8862 12.8428C34.4048 12.3479 34.0316 11.7583 33.7902 11.1115C33.5487 10.4647 33.4444 9.77472 33.4837 9.08544C33.4603 8.40848 33.5728 7.7337 33.8144 7.10092C34.0561 6.46814 34.4221 5.89019 34.8908 5.4012C35.3596 4.91221 35.9215 4.52208 36.5435 4.25386C37.1655 3.98563 37.8349 3.84474 38.5123 3.83951C39.219 3.84486 39.9165 4.00024 40.5587 4.29539C41.2009 4.59054 41.773 5.01871 42.2373 5.55156V2.05463C41.1174 1.45261 39.865 1.13952 38.5936 1.14371C37.5353 1.12795 36.4843 1.32173 35.5012 1.7139C34.5182 2.10607 33.6224 2.68887 32.8656 3.42874C32.1087 4.1686 31.5057 5.05091 31.0914 6.02482C30.677 6.99874 30.4594 8.04502 30.4512 9.10338ZM65.8347 11.7084L61.7635 1.46248H58.521L64.9966 17.1179H66.5905L73.1844 1.46248H69.9608L65.8347 11.7084ZM74.5323 16.7263H82.9755V14.1403H77.511V10.0238H82.775V7.43777H77.511V4.04956H82.9755V1.46142H74.5323V16.7253V16.7263ZM94.7605 5.9706C94.7605 3.11014 92.793 1.46248 89.3594 1.46248H84.961V16.7263H87.9386V10.5969H88.3218L92.4468 16.7263H96.0905L91.2815 10.2972C92.3022 10.1522 93.2296 9.62451 93.8756 8.82108C94.5217 8.01766 94.838 6.99863 94.7605 5.9706ZM88.7862 8.49329H87.8753V3.86801H88.7862C90.607 3.86801 91.6552 4.6512 91.6552 6.13526C91.6552 7.62038 90.6893 8.49329 88.7862 8.49329ZM97.1281 2.26362C97.1281 1.99974 96.9465 1.85408 96.6183 1.85408H96.1908V3.19353H96.5095V2.67422L96.8916 3.19353H97.2833L96.8009 2.63727C96.8935 2.63023 96.9796 2.58715 97.0408 2.51729C97.102 2.44742 97.1333 2.35634 97.1281 2.26362ZM96.5644 2.44622H96.5095V2.10001H96.5729C96.728 2.10001 96.8104 2.1549 96.8104 2.27312C96.8104 2.39134 96.728 2.44622 96.5634 2.44622H96.5644Z" fill="#D8D8D8"/>
<path d="M96.6911 1.34425C96.5344 1.33781 96.378 1.36281 96.2311 1.41778C96.0843 1.47274 95.9499 1.55655 95.8359 1.66428C95.7219 1.772 95.6307 1.90146 95.5675 2.04501C95.5044 2.18856 95.4706 2.3433 95.4682 2.5001C95.4658 2.65691 95.4948 2.81261 95.5536 2.95802C95.6123 3.10344 95.6996 3.23562 95.8102 3.34678C95.9208 3.45793 96.0526 3.54581 96.1977 3.60524C96.3428 3.66466 96.4984 3.69443 96.6552 3.69278C96.9587 3.68542 97.2475 3.5609 97.4611 3.34531C97.6748 3.12971 97.7967 2.83979 97.8014 2.53629C97.806 2.2328 97.693 1.93928 97.486 1.71726C97.2791 1.49524 96.9942 1.36089 96.6911 1.34425ZM96.6911 3.48485C96.5667 3.48507 96.4436 3.45982 96.3294 3.41065C96.2151 3.36148 96.1121 3.28943 96.0268 3.19894C95.9414 3.10845 95.8755 3.00145 95.8331 2.88451C95.7907 2.76758 95.7727 2.6432 95.7802 2.51905C95.7802 2.27746 95.8762 2.04576 96.047 1.87493C96.2178 1.7041 96.4495 1.60813 96.6911 1.60813C96.9327 1.60813 97.1644 1.7041 97.3352 1.87493C97.5061 2.04576 97.602 2.27746 97.602 2.51905C97.6097 2.64396 97.5916 2.76911 97.5487 2.88669C97.5059 3.00427 97.4392 3.11174 97.3529 3.20238C97.2666 3.29303 97.1626 3.3649 97.0472 3.4135C96.9319 3.4621 96.8078 3.48639 96.6827 3.48485H96.6911Z" fill="#D8D8D8"/>
<path d="M59.3683 9.07703C59.3695 10.1392 59.1615 11.1911 58.7561 12.1728C58.3508 13.1546 57.756 14.0468 57.0058 14.7987C55.4907 16.3171 53.4344 17.1715 51.2894 17.1739C50.2273 17.1751 49.1753 16.9671 48.1936 16.5617C47.2119 16.1563 46.3196 15.5616 45.5677 14.8114C44.0493 13.2963 43.1949 11.24 43.1925 9.09498C43.1901 6.94979 44.04 4.89152 45.5552 3.37296C47.0704 1.8544 49.1268 0.999943 51.272 0.997564C53.4172 0.995184 55.4754 1.84507 56.994 3.36027C58.5126 4.87546 59.366 6.93185 59.3683 9.07703Z" fill="url(#paint0_linear_1_6211)"/>
<path style="mix-blend-mode:multiply" opacity="0.65" d="M59.3683 9.07703C59.3695 10.1392 59.1615 11.1911 58.7561 12.1728C58.3508 13.1546 57.756 14.0468 57.0058 14.7987C55.4907 16.3171 53.4344 17.1715 51.2894 17.1739C50.2273 17.1751 49.1753 16.9671 48.1936 16.5617C47.2119 16.1563 46.3196 15.5616 45.5677 14.8114C44.0493 13.2963 43.1949 11.24 43.1925 9.09498C43.1901 6.94979 44.04 4.89152 45.5552 3.37296C47.0704 1.8544 49.1268 0.999943 51.272 0.997564C53.4172 0.995184 55.4754 1.84507 56.994 3.36027C58.5126 4.87546 59.366 6.93185 59.3683 9.07703Z" fill="url(#paint1_linear_1_6211)"/>
</g>
<mask id="mask1_1_6211" style="mask-type:luminance" maskUnits="userSpaceOnUse" x="0" y="0" width="99" height="20">
<path d="M0.316833 0.870361H98.6175V19.8697H0.316833V0.870361Z" fill="white"/>
</mask>
<g mask="url(#mask1_1_6211)">
<path d="M5.30526 1.46248H0.935364V16.7263H5.28838C7.26698 16.8433 9.21731 16.2126 10.7529 14.9594C11.6095 14.243 12.2983 13.3472 12.7705 12.3353C13.2427 11.3234 13.4869 10.2201 13.4856 9.10338C13.5025 4.64065 10.1322 1.46248 5.30526 1.46248ZM8.7843 12.9286C7.84699 13.7487 6.63524 14.1403 4.71311 14.1403H3.90352V4.04956H4.70467C6.62574 4.04956 7.7921 4.39471 8.77585 5.28768C9.29979 5.77109 9.71698 6.3586 10.0007 7.01258C10.2844 7.66656 10.4285 8.37258 10.4235 9.08544C10.4287 9.80424 10.2858 10.5164 10.0038 11.1776C9.72181 11.8388 9.30668 12.4348 8.7843 12.9286ZM17.8471 1.46248H14.8684V16.7263H17.8471V1.46248ZM25.1239 7.31956C23.3021 6.66302 22.8102 6.22604 22.8102 5.39745C22.8102 4.56887 23.7486 3.72973 25.0321 3.72973C25.4988 3.7392 25.9571 3.85496 26.3723 4.06823C26.7875 4.2815 27.1486 4.58665 27.4282 4.96047L28.9851 2.92015C27.7556 1.81514 26.1585 1.20777 24.5054 1.21654C23.9056 1.17833 23.3043 1.26116 22.7371 1.46012C22.17 1.65907 21.6487 1.97009 21.2043 2.37465C20.7598 2.77921 20.4013 3.26904 20.1501 3.815C19.8988 4.36097 19.76 4.95189 19.7418 5.55262C19.7418 7.65627 20.7076 8.72973 23.5037 9.73247C24.2162 9.96469 24.9033 10.2708 25.5525 10.6434C25.8292 10.803 26.0591 11.0327 26.219 11.3093C26.3789 11.5859 26.4632 11.8998 26.4634 12.2193C26.4614 12.5142 26.3992 12.8056 26.2807 13.0757C26.1622 13.3458 25.9898 13.5889 25.7741 13.79C25.5584 13.9912 25.304 14.1463 25.0263 14.2457C24.7486 14.3451 24.4535 14.3868 24.1592 14.3683C23.4791 14.3795 22.8104 14.1937 22.2335 13.8334C21.6567 13.473 21.1964 12.9535 20.9081 12.3375L18.9871 14.1583C19.5265 15.0713 20.3013 15.8226 21.2305 16.3338C22.1596 16.845 23.209 17.0972 24.2689 17.0641C27.3648 17.0641 29.5329 15.0058 29.5329 12.0546C29.5149 9.65964 28.4942 8.55768 25.125 7.3185L25.1239 7.31956ZM30.4512 9.10338C30.4424 10.1601 30.6456 11.2079 31.0487 12.1848C31.4518 13.1617 32.0468 14.0478 32.7983 14.7908C33.5499 15.5337 34.4427 16.1185 35.4242 16.5104C36.4056 16.9023 37.4557 17.0935 38.5123 17.0726C39.8111 17.0676 41.0903 16.7558 42.2457 16.1627V12.6742C41.7968 13.2014 41.2383 13.6243 40.6092 13.9136C39.9801 14.2029 39.2955 14.3516 38.6031 14.3493C37.913 14.3694 37.2262 14.2459 36.5863 13.9866C35.9465 13.7273 35.3675 13.3378 34.8862 12.8428C34.4048 12.3479 34.0316 11.7583 33.7902 11.1115C33.5487 10.4647 33.4444 9.77472 33.4837 9.08544C33.4603 8.40848 33.5728 7.7337 33.8144 7.10092C34.0561 6.46814 34.4221 5.89019 34.8908 5.4012C35.3596 4.91221 35.9215 4.52208 36.5435 4.25386C37.1655 3.98563 37.8349 3.84474 38.5123 3.83951C39.219 3.84486 39.9165 4.00024 40.5587 4.29539C41.2009 4.59054 41.773 5.01871 42.2373 5.55156V2.05463C41.1174 1.45261 39.865 1.13952 38.5936 1.14371C37.5353 1.12795 36.4843 1.32173 35.5012 1.7139C34.5182 2.10607 33.6224 2.68887 32.8656 3.42874C32.1087 4.1686 31.5057 5.05091 31.0914 6.02482C30.677 6.99874 30.4594 8.04502 30.4512 9.10338ZM65.8347 11.7084L61.7635 1.46248H58.521L64.9966 17.1179H66.5905L73.1844 1.46248H69.9608L65.8347 11.7084ZM74.5323 16.7263H82.9755V14.1403H77.511V10.0238H82.775V7.43777H77.511V4.04956H82.9755V1.46142H74.5323V16.7253V16.7263ZM94.7605 5.9706C94.7605 3.11014 92.793 1.46248 89.3594 1.46248H84.961V16.7263H87.9386V10.5969H88.3218L92.4468 16.7263H96.0905L91.2815 10.2972C92.3022 10.1522 93.2296 9.62451 93.8756 8.82108C94.5217 8.01766 94.838 6.99863 94.7605 5.9706ZM88.7862 8.49329H87.8753V3.86801H88.7862C90.607 3.86801 91.6552 4.6512 91.6552 6.13526C91.6552 7.62038 90.6893 8.49329 88.7862 8.49329ZM97.1281 2.26362C97.1281 1.99974 96.9465 1.85408 96.6183 1.85408H96.1908V3.19353H96.5095V2.67422L96.8916 3.19353H97.2833L96.8009 2.63727C96.8935 2.63023 96.9796 2.58715 97.0408 2.51729C97.102 2.44742 97.1333 2.35634 97.1281 2.26362ZM96.5644 2.44622H96.5095V2.10001H96.5729C96.728 2.10001 96.8104 2.1549 96.8104 2.27312C96.8104 2.39134 96.728 2.44622 96.5634 2.44622H96.5644Z" fill="#D8D8D8"/>
<path d="M96.6911 1.34425C96.5344 1.33781 96.378 1.36281 96.2311 1.41778C96.0843 1.47274 95.9499 1.55655 95.8359 1.66428C95.7219 1.772 95.6307 1.90146 95.5675 2.04501C95.5044 2.18856 95.4706 2.3433 95.4682 2.5001C95.4658 2.65691 95.4948 2.81261 95.5536 2.95802C95.6123 3.10344 95.6996 3.23562 95.8102 3.34678C95.9208 3.45793 96.0526 3.54581 96.1977 3.60524C96.3428 3.66466 96.4984 3.69443 96.6552 3.69278C96.9587 3.68542 97.2475 3.5609 97.4611 3.34531C97.6748 3.12971 97.7967 2.83979 97.8014 2.53629C97.806 2.2328 97.693 1.93928 97.486 1.71726C97.2791 1.49524 96.9942 1.36089 96.6911 1.34425ZM96.6911 3.48485C96.5667 3.48507 96.4436 3.45982 96.3294 3.41065C96.2151 3.36148 96.1121 3.28943 96.0268 3.19894C95.9414 3.10845 95.8755 3.00145 95.8331 2.88451C95.7907 2.76758 95.7727 2.6432 95.7802 2.51905C95.7802 2.27746 95.8762 2.04576 96.047 1.87493C96.2178 1.7041 96.4495 1.60813 96.6911 1.60813C96.9327 1.60813 97.1644 1.7041 97.3352 1.87493C97.5061 2.04576 97.602 2.27746 97.602 2.51905C97.6097 2.64396 97.5916 2.76911 97.5487 2.88669C97.5059 3.00427 97.4392 3.11174 97.3529 3.20238C97.2666 3.29303 97.1626 3.3649 97.0472 3.4135C96.9319 3.4621 96.8078 3.48639 96.6827 3.48485H96.6911Z" fill="#D8D8D8"/>
<path d="M59.3683 9.07703C59.3695 10.1392 59.1615 11.1911 58.7561 12.1728C58.3508 13.1546 57.756 14.0468 57.0058 14.7987C55.4907 16.3171 53.4344 17.1715 51.2894 17.1739C50.2273 17.1751 49.1753 16.9671 48.1936 16.5617C47.2119 16.1563 46.3196 15.5616 45.5677 14.8114C44.0493 13.2963 43.1949 11.24 43.1925 9.09498C43.1901 6.94979 44.04 4.89152 45.5552 3.37296C47.0704 1.8544 49.1268 0.999943 51.272 0.997564C53.4172 0.995184 55.4754 1.84507 56.994 3.36027C58.5126 4.87546 59.366 6.93185 59.3683 9.07703Z" fill="url(#paint2_linear_1_6211)"/>
<path style="mix-blend-mode:multiply" opacity="0.65" d="M59.3683 9.07703C59.3695 10.1392 59.1615 11.1911 58.7561 12.1728C58.3508 13.1546 57.756 14.0468 57.0058 14.7987C55.4907 16.3171 53.4344 17.1715 51.2894 17.1739C50.2273 17.1751 49.1753 16.9671 48.1936 16.5617C47.2119 16.1563 46.3196 15.5616 45.5677 14.8114C44.0493 13.2963 43.1949 11.24 43.1925 9.09498C43.1901 6.94979 44.04 4.89152 45.5552 3.37296C47.0704 1.8544 49.1268 0.999943 51.272 0.997564C53.4172 0.995184 55.4754 1.84507 56.994 3.36027C58.5126 4.87546 59.366 6.93185 59.3683 9.07703Z" fill="url(#paint3_linear_1_6211)"/>
</g>
<mask id="mask2_1_6211" style="mask-type:luminance" maskUnits="userSpaceOnUse" x="0" y="0" width="99" height="20">
<path d="M0.316833 0.870361H98.6175V19.8697H0.316833V0.870361Z" fill="white"/>
</mask>
<g mask="url(#mask2_1_6211)">
<path d="M5.30527 1.46248H0.935364V16.7263H5.28838C7.26697 16.8432 9.21726 16.2125 10.7529 14.9594C11.6091 14.2428 12.2975 13.3469 12.7693 12.335C13.2412 11.3231 13.485 10.2199 13.4835 9.10338C13.5036 4.64065 10.1322 1.46248 5.30527 1.46248ZM8.7843 12.9286C7.84699 13.7487 6.63524 14.1403 4.71311 14.1403H3.90246V4.04956H4.70467C6.62574 4.04956 7.7921 4.39471 8.77585 5.28768C9.29979 5.77109 9.71698 6.3586 10.0007 7.01258C10.2844 7.66656 10.4285 8.37258 10.4235 9.08544C10.4287 9.80423 10.2858 10.5164 10.0037 11.1775C9.72173 11.8387 9.30663 12.4348 8.7843 12.9286ZM17.846 1.46248H14.8684V16.7263H17.8471L17.846 1.46248ZM25.1239 7.31956C23.3021 6.66302 22.8102 6.22604 22.8102 5.39745C22.8102 4.56887 23.7486 3.72973 25.0321 3.72973C25.4988 3.73912 25.9572 3.85485 26.3724 4.06812C26.7876 4.2814 27.1487 4.58659 27.4282 4.96047L28.9851 2.92015C27.7556 1.81514 26.1585 1.20777 24.5054 1.21654C23.9056 1.17833 23.3043 1.26116 22.7371 1.46012C22.17 1.65907 21.6487 1.97009 21.2043 2.37465C20.7598 2.77921 20.4013 3.26904 20.1501 3.815C19.8988 4.36097 19.76 4.95189 19.7418 5.55262C19.7418 7.65627 20.7076 8.72973 23.5037 9.73247C24.2162 9.96469 24.9023 10.2708 25.5525 10.6434C25.8292 10.8031 26.059 11.0328 26.2189 11.3094C26.3787 11.586 26.4631 11.8998 26.4634 12.2193C26.4614 12.5142 26.3992 12.8056 26.2807 13.0757C26.1622 13.3458 25.9898 13.5889 25.7741 13.79C25.5584 13.9912 25.304 14.1463 25.0263 14.2457C24.7486 14.3451 24.4535 14.3868 24.1592 14.3683C23.4791 14.3795 22.8104 14.1937 22.2335 13.8334C21.6567 13.473 21.1964 12.9535 20.9081 12.3375L18.9871 14.1583C19.5264 15.0713 20.3012 15.8228 21.2304 16.3339C22.1595 16.8451 23.209 17.0973 24.2689 17.0641C27.3648 17.0641 29.5329 15.0058 29.5329 12.0546C29.5149 9.65964 28.4942 8.55768 25.125 7.3185L25.1239 7.31956ZM30.4512 9.10338C30.4424 10.1601 30.6456 11.2079 31.0487 12.1848C31.4518 13.1617 32.0468 14.0478 32.7983 14.7908C33.5499 15.5337 34.4428 16.1185 35.4242 16.5104C36.4056 16.9023 37.4557 17.0935 38.5123 17.0726C39.8111 17.0676 41.0903 16.7558 42.2457 16.1627V12.6742C41.7968 13.2014 41.2383 13.6243 40.6092 13.9136C39.9801 14.2029 39.2955 14.3516 38.6031 14.3493C37.913 14.3694 37.2262 14.2459 36.5863 13.9866C35.9465 13.7273 35.3675 13.3378 34.8862 12.8428C34.4048 12.3479 34.0316 11.7583 33.7902 11.1115C33.5487 10.4647 33.4444 9.77472 33.4837 9.08544C33.4606 8.40856 33.5733 7.7339 33.815 7.10125C34.0568 6.4686 34.4228 5.89077 34.8915 5.40183C35.3602 4.9129 35.922 4.52277 36.5439 4.25444C37.1657 3.98612 37.835 3.84503 38.5123 3.83951C39.219 3.84486 39.9165 4.00024 40.5587 4.29539C41.2009 4.59054 41.773 5.01871 42.2373 5.55156V2.05463C41.1174 1.45261 39.865 1.13952 38.5936 1.14371C37.5353 1.12795 36.4843 1.32173 35.5013 1.7139C34.5182 2.10607 33.6224 2.68887 32.8656 3.42874C32.1087 4.1686 31.5057 5.05091 31.0914 6.02482C30.677 6.99874 30.4594 8.04502 30.4512 9.10338ZM65.8347 11.7084L61.7636 1.46248H58.521L64.9966 17.1179H66.5905L73.1844 1.46248H69.9608L65.8347 11.7084ZM74.5323 16.7263H82.9755V14.1403H77.511V10.0238H82.775V7.43777H77.511V4.04956H82.9755V1.46142H74.5323V16.7253V16.7263ZM94.7605 5.9706C94.7605 3.11014 92.793 1.46248 89.3594 1.46248H84.961V16.7263H87.9386V10.5969H88.3218L92.4468 16.7263H96.0905L91.2815 10.2972C92.3022 10.1522 93.2296 9.62451 93.8756 8.82108C94.5217 8.01766 94.838 6.99863 94.7605 5.9706ZM88.7862 8.49329H87.8753V3.86801H88.7862C90.607 3.86801 91.6552 4.6512 91.6552 6.13526C91.6552 7.62038 90.6894 8.49329 88.7862 8.49329ZM97.1281 2.26362C97.1281 1.99974 96.9465 1.85408 96.6183 1.85408H96.1897V3.19353H96.5085V2.67422L96.8917 3.19353H97.2822L96.8009 2.63727C96.8934 2.62997 96.9794 2.58681 97.0405 2.51701C97.1016 2.4472 97.1331 2.35627 97.1281 2.26362ZM96.5634 2.44622H96.5085V2.10001H96.5718C96.7281 2.10001 96.8093 2.1549 96.8093 2.27312C96.8093 2.39134 96.7281 2.44622 96.5634 2.44622Z" fill="#34405E"/>
<path d="M96.6911 1.34438C96.5368 1.34202 96.3836 1.37007 96.2402 1.42693C96.0967 1.4838 95.9659 1.56835 95.8551 1.67578C95.6315 1.89273 95.5031 2.18965 95.4984 2.50122C95.4936 2.8128 95.6128 3.1135 95.8298 3.33718C96.0467 3.56087 96.3436 3.6892 96.6552 3.69396C96.9668 3.69872 97.2675 3.57951 97.4912 3.36256C97.7149 3.14561 97.8432 2.84869 97.848 2.53711C97.8527 2.22554 97.7335 1.92483 97.5165 1.70115C97.2996 1.47747 97.0027 1.34913 96.6911 1.34438ZM96.6911 3.48497C96.5667 3.48519 96.4436 3.45994 96.3294 3.41077C96.2151 3.3616 96.1121 3.28955 96.0268 3.19906C95.9414 3.10858 95.8755 3.00157 95.8331 2.88464C95.7907 2.76771 95.7727 2.64333 95.7802 2.51917C95.7802 2.27758 95.8762 2.04588 96.047 1.87506C96.2178 1.70423 96.4495 1.60826 96.6911 1.60826C96.9327 1.60826 97.1644 1.70423 97.3352 1.87506C97.506 2.04588 97.602 2.27758 97.602 2.51917C97.6096 2.64413 97.5913 2.76931 97.5483 2.88689C97.5053 3.00447 97.4386 3.11193 97.3522 3.20256C97.2658 3.29318 97.1617 3.36503 97.0463 3.41362C96.9309 3.46222 96.8068 3.4865 96.6816 3.48497H96.6911Z" fill="#231F20"/>
<path d="M59.3684 9.07704C59.3817 10.1467 59.1827 11.2085 58.7829 12.2007C58.383 13.193 57.7903 14.096 57.039 14.8576C56.2877 15.6192 55.3927 16.2242 54.406 16.6374C53.4193 17.0507 52.3604 17.2642 51.2906 17.2653C50.2208 17.2665 49.1614 17.0555 48.1737 16.6444C47.1861 16.2333 46.2898 15.6303 45.5368 14.8704C44.7839 14.1105 44.1891 13.2087 43.7871 12.2174C43.385 11.226 43.1837 10.1647 43.1946 9.09498C43.2165 6.96611 44.0769 4.93172 45.5892 3.43321C47.1015 1.9347 49.1436 1.09294 51.2726 1.09058C53.4016 1.08822 55.4456 1.92544 56.9613 3.42059C58.4769 4.91575 59.3418 6.94822 59.3684 9.07704Z" fill="#4A5370"/>
</g>
<defs>
<linearGradient id="paint0_linear_1_6211" x1="55.4154" y1="15.5516" x2="49.8233" y2="6.79078" gradientUnits="userSpaceOnUse">
<stop stop-color="#FF5C00"/>
<stop offset="0.22" stop-color="#FF5C00"/>
<stop offset="0.47" stop-color="#FF5C00"/>
<stop offset="0.62" stop-color="#FF5C00"/>
<stop offset="0.79" stop-color="#FF5C00"/>
<stop offset="1" stop-color="#FF5C00"/>
</linearGradient>
<linearGradient id="paint1_linear_1_6211" x1="54.532" y1="15.4334" x2="46.3622" y2="-0.550356" gradientUnits="userSpaceOnUse">
<stop stop-color="#FF7A00" stop-opacity="0"/>
<stop offset="0.19" stop-color="#FB6A00" stop-opacity="0.22"/>
<stop offset="0.37" stop-color="#F85C00" stop-opacity="0.41"/>
<stop offset="0.55" stop-color="#F55200" stop-opacity="0.55"/>
<stop offset="0.71" stop-color="#F34A00" stop-opacity="0.66"/>
<stop offset="0.86" stop-color="#F24600" stop-opacity="0.72"/>
<stop offset="0.98" stop-color="#F24400" stop-opacity="0.74"/>
</linearGradient>
<linearGradient id="paint2_linear_1_6211" x1="55.4154" y1="15.5516" x2="49.8233" y2="6.79078" gradientUnits="userSpaceOnUse">
<stop stop-color="#FF5C00"/>
<stop offset="0.22" stop-color="#FF5C00"/>
<stop offset="0.47" stop-color="#FF5C00"/>
<stop offset="0.62" stop-color="#FF7A00" stop-opacity="0"/>
<stop offset="0.79" stop-color="#FF5C00"/>
<stop offset="1" stop-color="#FF5C00"/>
</linearGradient>
<linearGradient id="paint3_linear_1_6211" x1="54.532" y1="15.4334" x2="46.3622" y2="-0.550356" gradientUnits="userSpaceOnUse">
<stop stop-color="#FF7A00" stop-opacity="0"/>
<stop offset="0.19" stop-color="#FB6A00" stop-opacity="0.22"/>
<stop offset="0.37" stop-color="#F85C00" stop-opacity="0.41"/>
<stop offset="0.55" stop-color="#F55200" stop-opacity="0.55"/>
<stop offset="0.71" stop-color="#F34A00" stop-opacity="0.66"/>
<stop offset="0.86" stop-color="#F24600" stop-opacity="0.72"/>
<stop offset="0.98" stop-color="#F24400" stop-opacity="0.74"/>
</linearGradient>
</defs>
</svg>
