<svg width="22" height="20" viewBox="0 0 22 20" fill="none" xmlns="http://www.w3.org/2000/svg">
<path d="M14.9022 10.1199L21.4039 0.87085H19.4566C18.5056 0.87085 17.6063 1.32998 17.0775 2.08464L10.8577 10.9274C10.3299 11.7253 10.0027 12.1412 10.0027 14.0779V19.8693H12.4884V11.6229L17.5546 18.8328C17.7854 19.1543 18.0896 19.416 18.4418 19.5963C18.7941 19.7766 19.1843 19.8702 19.5801 19.8693H21.7564L14.9022 10.1199ZM6.71283 8.10821H3.89473C2.88464 8.10821 0.971075 10.9136 0.971075 13.336H0.978463C0.969637 13.4515 0.964709 13.5673 0.963687 13.6832V19.8693H3.39654V10.6941H3.31527V10.6867H6.71283C7.03158 10.6867 7.29123 10.3669 7.29123 9.97322V8.82276C7.29123 8.42907 7.03158 8.10821 6.71283 8.10821ZM3.6488 4.92174V4.49428C3.6488 3.4367 4.42985 3.06623 5.27528 3.06623V3.05778H12.7913C14.023 3.05778 15.4278 2.07303 15.4278 0.87085H5.28478C2.48145 0.87085 0.962631 1.83133 0.962631 4.38134V9.01274V8.98847C1.05235 8.88292 3.6488 7.46332 3.6488 4.92174Z" fill="#C04DF8"/>
<path d="M14.9677 10.1199L21.4693 0.87085H19.522C18.57 0.87085 17.6718 1.32998 17.143 2.08464L10.9231 10.9274C10.3954 11.7253 10.0682 12.1412 10.0682 14.0779V19.8693H12.5527V11.6229L17.619 18.8328C17.8499 19.1544 18.1542 19.4163 18.5067 19.5966C18.8592 19.7768 19.2496 19.8703 19.6455 19.8693H21.8208L14.9677 10.1199ZM6.77721 8.10821H3.9591C2.95007 8.10821 1.03545 10.9136 1.03545 13.336H1.04284C1.03401 13.4515 1.02908 13.5673 1.02806 13.6832V19.8693H3.46303V10.6941H3.37859V10.6867H6.77721C7.09596 10.6867 7.3556 10.3669 7.3556 9.97322V8.82276C7.3556 8.42907 7.09596 8.10821 6.77721 8.10821ZM3.71423 4.92174V4.49428C3.71423 3.4367 4.49528 3.06623 5.33966 3.06623V3.05778H12.8557C14.0884 3.05778 15.4922 2.07303 15.4922 0.87085H5.34915C2.54794 0.87085 1.02806 1.83133 1.02806 4.38134V9.01274V8.98847C1.11883 8.88292 3.71423 7.46332 3.71423 4.92174Z" fill="#34405E"/>
</svg>
