<svg width="50" height="20" viewBox="0 0 50 20" fill="none" xmlns="http://www.w3.org/2000/svg">
<path fill-rule="evenodd" clip-rule="evenodd" d="M24.0083 15.7218V10.1518H26.9256C28.1277 10.1518 29.1378 9.76122 29.9568 8.98012C30.3657 8.61365 30.6906 8.16311 30.9092 7.65936C31.1278 7.15562 31.2349 6.61058 31.2233 6.06156C31.2315 5.51537 31.1227 4.97375 30.9042 4.47308C30.6858 3.97242 30.3627 3.5243 29.9568 3.15884C29.5552 2.77002 29.0805 2.46462 28.5603 2.26026C28.04 2.0559 27.4844 1.95663 26.9256 1.96819H22.2437V15.7218H24.0083ZM24.0062 8.46291V3.66127H26.9667C27.2929 3.65187 27.6173 3.71194 27.9184 3.83751C28.2196 3.96308 28.4906 4.15127 28.7135 4.38959C28.9382 4.60807 29.1168 4.8694 29.2388 5.15812C29.3608 5.44685 29.4236 5.7571 29.4236 6.07053C29.4236 6.38397 29.3608 6.69422 29.2388 6.98294C29.1168 7.27167 28.9382 7.533 28.7135 7.75148C28.4879 7.98515 28.216 8.16912 27.9152 8.29163C27.6144 8.41414 27.2914 8.47248 26.9667 8.46291H24.0062ZM38.3813 7.05166C37.6256 6.35395 36.5955 6.00456 35.2909 6.00456C33.6149 6.00456 32.3484 6.61889 31.4935 7.84859L33.0481 8.82812C33.6223 7.99531 34.4033 7.57942 35.3891 7.57942C36.018 7.57189 36.6267 7.80181 37.0936 8.2233C37.558 8.60857 37.8261 9.18384 37.8219 9.78761V10.1908C37.1443 9.80661 36.2809 9.61555 35.2329 9.61555C34.0044 9.61555 33.0228 9.90477 32.2882 10.48C31.5515 11.0553 31.1842 11.829 31.1842 12.8022C31.1762 13.2401 31.266 13.6742 31.4469 14.073C31.6278 14.4718 31.8954 14.8252 32.2302 15.1075C32.9268 15.7218 33.7943 16.029 34.8297 16.029C36.0435 16.029 37.0155 15.4907 37.7469 14.4161H37.8229V15.7218H39.5116V9.92272C39.5127 8.70674 39.1359 7.74937 38.3802 7.05166H38.3813ZM33.5917 13.9939C33.4095 13.8623 33.2613 13.689 33.1596 13.4885C33.0579 13.288 33.0056 13.0661 33.007 12.8413C33.007 12.3293 33.2466 11.9018 33.7299 11.5504C34.2091 11.2052 34.8065 11.0321 35.5242 11.0321C36.5089 11.0321 37.2762 11.2516 37.8271 11.6897C37.8271 12.4317 37.5348 13.0788 36.949 13.6298C36.4234 14.1575 35.7089 14.4531 34.9648 14.4541C34.4681 14.4637 33.9822 14.3011 33.5917 13.9939Z" fill="white"/>
<path d="M49.2056 6.31177L43.3105 19.8701H41.4886L43.6757 15.1266L39.7997 6.31282H41.7187L44.5201 13.0725H44.5592L47.2835 6.31177H49.2056Z" fill="white"/>
<path d="M16.8754 8.95272C16.8754 8.41439 16.83 7.87607 16.7392 7.34619H9.29346V10.3893H13.5578C13.4705 10.8751 13.2858 11.3382 13.0148 11.7507C12.7438 12.1632 12.3921 12.5166 11.9809 12.7896V14.7656H14.5268C16.0162 13.3902 16.8754 11.3562 16.8754 8.95272Z" fill="#FF5C00"/>
<path d="M9.29366 16.6738C11.4235 16.6738 13.2178 15.973 14.5255 14.7665L11.9808 12.7905C11.2726 13.2718 10.3597 13.5463 9.29366 13.5463C7.23345 13.5463 5.48565 12.1572 4.86084 10.2847H2.23914V12.3197C2.89574 13.6283 3.90321 14.7284 5.14898 15.4973C6.39475 16.2662 7.82975 16.6736 9.29366 16.6738Z" fill="#34A853"/>
<path d="M4.86106 10.2836C4.53067 9.30259 4.53067 8.24041 4.86106 7.25944V5.22437H2.23911C1.68631 6.32527 1.39844 7.54013 1.39844 8.77203C1.39844 10.0039 1.68631 11.2188 2.23911 12.3197L4.86106 10.2836Z" fill="#FF5C00"/>
<path d="M9.29366 3.99793C10.4195 3.97982 11.5073 4.40563 12.3217 5.1833L14.5751 2.92867C13.1469 1.58553 11.254 0.847829 9.29366 0.870375C7.82975 0.870646 6.39475 1.27798 5.14898 2.04688C3.90321 2.81578 2.89574 3.91594 2.23914 5.22446L4.86084 7.25954C5.48671 5.38807 7.23451 3.99793 9.29366 3.99793Z" fill="#34A853"/>
<path fill-rule="evenodd" clip-rule="evenodd" d="M24.0083 15.7218V10.1518H26.9256C28.1277 10.1518 29.1378 9.76122 29.9568 8.98012C30.3657 8.61365 30.6906 8.16311 30.9092 7.65936C31.1278 7.15562 31.2349 6.61058 31.2233 6.06156C31.2315 5.51537 31.1227 4.97375 30.9042 4.47308C30.6858 3.97242 30.3627 3.5243 29.9568 3.15884C29.5552 2.77002 29.0805 2.46462 28.5603 2.26026C28.04 2.0559 27.4844 1.95663 26.9256 1.96819H22.2437V15.7218H24.0083ZM24.0062 8.46291V3.66127H26.9667C27.2929 3.65187 27.6173 3.71194 27.9184 3.83751C28.2196 3.96308 28.4906 4.15127 28.7135 4.38959C28.9381 4.60815 29.1166 4.8695 29.2385 5.15821C29.3604 5.44693 29.4232 5.75714 29.4232 6.07053C29.4232 6.38393 29.3604 6.69414 29.2385 6.98285C29.1166 7.27157 28.9381 7.53292 28.7135 7.75148C28.4879 7.98515 28.216 8.16912 27.9152 8.29163C27.6144 8.41414 27.2914 8.47248 26.9667 8.46291H24.0062ZM38.3813 7.05166C37.6256 6.35395 36.5955 6.00456 35.2909 6.00456C33.6149 6.00456 32.3484 6.61889 31.4935 7.84859L33.0481 8.82812C33.6223 7.99531 34.4033 7.57942 35.3891 7.57942C36.018 7.57189 36.6267 7.80181 37.0936 8.2233C37.558 8.60857 37.8261 9.18384 37.8219 9.78761V10.1908C37.1443 9.80661 36.2809 9.61555 35.2329 9.61555C34.0044 9.61555 33.0228 9.90477 32.2882 10.48C31.5515 11.0553 31.1842 11.829 31.1842 12.8022C31.1762 13.2401 31.266 13.6742 31.4469 14.073C31.6278 14.4718 31.8954 14.8252 32.2302 15.1075C32.9268 15.7218 33.7943 16.029 34.8297 16.029C36.0435 16.029 37.0155 15.4907 37.7469 14.4161H37.8229V15.7218H39.5116V9.92272C39.5127 8.70674 39.1359 7.74937 38.3802 7.05166H38.3813ZM33.5917 13.9939C33.4095 13.8623 33.2613 13.689 33.1596 13.4885C33.0579 13.288 33.0056 13.0661 33.007 12.8413C33.007 12.3293 33.2466 11.9018 33.7299 11.5504C34.2091 11.2052 34.8065 11.0321 35.5242 11.0321C36.5089 11.0321 37.2762 11.2516 37.8271 11.6897C37.8271 12.4317 37.5348 13.0788 36.949 13.6298C36.4234 14.1575 35.7089 14.4531 34.9648 14.4541C34.4681 14.4637 33.9822 14.3011 33.5917 13.9939Z" fill="#34405E"/>
<path d="M49.2047 6.31177L43.3101 19.8701H41.4884L43.6753 15.1266L39.7997 6.31282H41.7185L44.5196 13.0725H44.5587L47.2828 6.31177H49.2047ZM16.8746 8.95272C16.8746 8.4144 16.8293 7.87607 16.7385 7.34619H9.29346V10.3893H13.5574C13.4701 10.8751 13.2854 11.3382 13.0144 11.7507C12.7434 12.1632 12.3918 12.5166 11.9806 12.7896V14.7656H14.5263C16.0166 13.3902 16.8746 11.3562 16.8746 8.95272Z" fill="#34405E"/>
<path d="M9.29366 16.6738C11.4235 16.6738 13.2178 15.973 14.5255 14.7665L11.9808 12.7905C11.2726 13.2718 10.3597 13.5463 9.29366 13.5463C7.23345 13.5463 5.48565 12.1572 4.86084 10.2847H2.23914V12.3197C2.89574 13.6283 3.90321 14.7284 5.14898 15.4973C6.39475 16.2662 7.82975 16.6736 9.29366 16.6738Z" fill="#34405E"/>
<path d="M4.86106 10.2836C4.53067 9.30259 4.53067 8.24041 4.86106 7.25944V5.22437H2.23911C1.68631 6.32527 1.39844 7.54013 1.39844 8.77203C1.39844 10.0039 1.68631 11.2188 2.23911 12.3197L4.86106 10.2836Z" fill="#34405E"/>
<path d="M9.29366 3.99793C10.4195 3.97982 11.5073 4.40563 12.3217 5.1833L14.5751 2.92867C13.1469 1.58553 11.254 0.847829 9.29366 0.870375C7.82975 0.870646 6.39475 1.27798 5.14898 2.04688C3.90321 2.81578 2.89574 3.91594 2.23914 5.22446L4.86084 7.25954C5.48671 5.38807 7.23451 3.99793 9.29366 3.99793Z" fill="#34405E"/>
</svg>
