<svg width="85" height="20" viewBox="0 0 85 20" fill="none" xmlns="http://www.w3.org/2000/svg">
<mask id="mask0_1_6156" style="mask-type:luminance" maskUnits="userSpaceOnUse" x="0" y="1" width="85" height="19">
<path d="M0.798737 1.37012H84.1007V19.3701H0.798737V1.37012Z" fill="white"/>
</mask>
<g mask="url(#mask0_1_6156)">
<path d="M6.70173 15.896C6.50861 15.8927 6.31938 15.8412 6.15122 15.7462C5.98305 15.6512 5.84126 15.5157 5.73873 15.352L1.05073 7.27204C0.906782 7.00992 0.870014 6.70222 0.948145 6.41357C1.02628 6.12491 1.21322 5.87777 1.46973 5.72404C1.73172 5.58001 2.03934 5.54309 2.32798 5.62103C2.61662 5.69897 2.86384 5.88571 3.01773 6.14204L7.70673 14.179C7.85128 14.4413 7.88839 14.7495 7.81023 15.0387C7.73208 15.3278 7.54475 15.5753 7.28773 15.729C7.07773 15.854 6.91073 15.896 6.70173 15.896Z" fill="#F69220"/>
<path d="M18.5067 11.5001C18.5067 10.9141 18.2967 10.3701 17.9627 9.7841C17.4597 8.8641 16.8737 8.2771 16.0787 7.9001C15.4087 7.5661 14.6557 7.3981 13.9017 7.4821C14.1527 6.9381 14.3207 6.3931 14.3617 5.8071C14.4457 4.9701 14.1527 4.2171 13.6507 3.2961C13.348 2.76666 12.9338 2.30942 12.4367 1.9561C11.9347 1.6631 11.4317 1.4541 10.8467 1.4121C10.2438 1.372 9.6382 1.41439 9.04673 1.5381C8.83673 1.5801 8.62673 1.6631 8.41773 1.7051L8.16773 1.8311C7.79073 1.9561 6.82773 2.5011 6.49273 2.7101L4.85973 3.6731H4.81873C4.53373 3.85345 4.32777 4.13519 4.24239 4.46147C4.15702 4.78775 4.19859 5.13427 4.35873 5.4311C4.52618 5.71869 4.80052 5.92843 5.12197 6.0146C5.44341 6.10077 5.78588 6.05637 6.07473 5.8911H6.11673L8.75373 4.3841C8.99107 4.26315 9.24524 4.17854 9.50773 4.1331C9.75773 4.0911 10.0097 4.1331 10.2607 4.1751C10.5117 4.2591 10.7207 4.3851 10.9727 4.5521C11.1827 4.7191 11.3497 4.9281 11.5167 5.1801C11.6427 5.4301 11.7677 5.6821 11.8097 5.9751C11.8517 6.2681 11.8517 6.5191 11.8097 6.7701C11.7677 7.0211 11.6837 7.2301 11.5167 7.4401C11.3907 7.6501 11.1817 7.8171 10.9727 7.9421L9.38273 8.9051L8.71273 9.2821L8.29273 9.5331C7.70773 9.8681 7.53973 10.5801 7.87473 11.1661C8.08473 11.5421 8.50273 11.7521 8.92173 11.7521C9.13073 11.7521 9.33973 11.7101 9.50773 11.5841L10.3867 11.0821L12.6467 9.8681C12.8987 9.7421 13.1067 9.6581 13.3587 9.6581C13.6097 9.6581 13.8607 9.7001 14.0707 9.7841C14.3207 9.8681 14.5307 9.9941 14.7407 10.1611C14.9497 10.3281 15.1167 10.5381 15.2837 10.7891C15.4097 11.0401 15.4937 11.2911 15.5357 11.5421C15.5777 11.7941 15.5777 12.0861 15.4937 12.3381C15.4517 12.5881 15.3257 12.7981 15.1587 13.0491C14.9907 13.2591 14.7817 13.4261 14.5307 13.5931L10.6377 15.8131H10.4277L9.71773 16.2311L8.33573 16.9841C7.74973 17.3191 7.49773 18.0721 7.83273 18.6591C8.04273 19.0771 8.46073 19.3291 8.92173 19.3291C9.13073 19.3291 9.33973 19.2861 9.50773 19.1611L12.8567 17.3611L15.5767 15.8961C16.1581 15.5632 16.6931 15.155 17.1677 14.6821C17.6277 14.2221 17.9637 13.7191 18.1727 13.2171C18.4237 12.6311 18.5487 12.0871 18.5067 11.5001ZM53.1667 13.6771C52.9167 13.6771 52.6227 13.6771 52.4137 13.4671C52.2037 13.2591 52.2037 12.9661 52.2037 12.7141V6.4351C52.2037 6.1851 52.2037 5.8911 52.4137 5.6821C52.6237 5.4721 52.9157 5.4721 53.1667 5.4721H55.5107C57.1437 5.4721 58.0647 6.3931 58.0647 7.7751C58.0647 8.6951 57.4787 9.2821 57.0177 9.4911C57.5207 9.7421 58.1477 10.2451 58.1477 11.3331C58.1477 12.8821 57.1017 13.7191 55.6367 13.7191H53.1667V13.6771ZM53.8367 6.8961V8.7801H55.4267C56.0967 8.7801 56.4737 8.4031 56.4737 7.8171C56.4737 7.2311 56.0967 6.8541 55.4277 6.8541H53.8367V6.8961ZM55.5107 12.2541C56.2227 12.2541 56.5997 11.7941 56.5997 11.2491C56.5997 10.7051 56.2647 10.2451 55.5107 10.2451H53.8367V12.2541H55.5107ZM60.7017 11.1241C60.7017 11.9191 61.1617 12.4641 62.0417 12.4641C62.4187 12.4641 62.7947 12.3801 63.0877 12.1291C63.3387 11.9611 63.4647 11.9191 63.6317 11.9191C63.9247 11.9191 64.2187 12.2121 64.2187 12.5471C64.2187 12.8401 63.9667 13.0911 63.6317 13.3011C63.2137 13.5941 62.6697 13.7191 61.9997 13.7191C60.5767 13.7191 59.1947 13.0911 59.1947 10.6211C59.1947 8.6541 60.2417 7.5241 61.8317 7.5241C63.4647 7.5241 64.3857 8.6961 64.4697 10.2031C64.4697 10.4541 64.4277 10.7051 64.2597 10.8731C64.0507 11.0821 63.8417 11.0821 63.5897 11.0821H60.7017V11.1241ZM62.8787 9.4491C62.7117 9.0731 62.3767 8.8211 61.8737 8.8211C61.3717 8.8211 61.0367 9.0731 60.8697 9.4491C60.7857 9.6591 60.7437 9.8261 60.7437 10.1191H63.0457C63.02 9.88934 62.9639 9.66403 62.8787 9.4491ZM65.9347 8.9891H65.7667C65.4737 8.9891 65.3897 8.9891 65.2647 8.9051C65.1725 8.85876 65.0958 8.78666 65.0438 8.69755C64.9918 8.60844 64.9667 8.50615 64.9717 8.4031C64.9717 8.1931 65.0557 7.9841 65.2647 7.9011C65.3897 7.8171 65.4747 7.8171 65.7667 7.8171H65.9347V7.0201C65.9347 6.6441 65.9347 6.5181 66.0177 6.3501C66.0843 6.2321 66.182 6.13464 66.3001 6.06833C66.4183 6.00203 66.5523 5.96944 66.6877 5.9741C66.9807 5.9741 67.2317 6.1001 67.3577 6.3511C67.4417 6.5181 67.4417 6.6441 67.4417 7.0211V7.8161H67.9017C68.1947 7.8161 68.2787 7.8161 68.4037 7.9001C68.4959 7.94644 68.5727 8.01853 68.6247 8.10764C68.6767 8.19675 68.7017 8.29904 68.6967 8.4021C68.6967 8.6121 68.6137 8.8201 68.4047 8.9041C68.2787 8.9881 68.1947 8.9881 67.9017 8.9881H67.4417V11.8761C67.4417 12.1691 67.5247 12.3791 67.9437 12.4211C68.1537 12.4211 68.2787 12.4621 68.4037 12.5041C68.5717 12.5881 68.6967 12.7551 68.6967 13.0481C68.6967 13.3001 68.5717 13.5081 68.4047 13.5931C68.2787 13.6761 68.0697 13.6761 67.7767 13.6761H67.6927C66.4367 13.6761 65.9347 12.8391 65.9347 11.9601V8.9891ZM69.9947 8.9891H69.8277C69.5347 8.9891 69.4507 8.9891 69.3247 8.9051C69.2325 8.85876 69.1558 8.78666 69.1038 8.69755C69.0518 8.60844 69.0267 8.50615 69.0317 8.4031C69.0317 8.1931 69.1157 7.9841 69.3247 7.9011C69.4507 7.8171 69.5347 7.8171 69.8277 7.8171H69.9947V7.0201C69.9947 6.6441 69.9947 6.5181 70.0787 6.3501C70.1453 6.2321 70.243 6.13464 70.3611 6.06833C70.4792 6.00203 70.6133 5.96944 70.7487 5.9741C71.0417 5.9741 71.2927 6.1001 71.4187 6.3511C71.5017 6.5181 71.5017 6.6441 71.5017 7.0211V7.8161H71.9617C72.2557 7.8161 72.3387 7.8161 72.4647 7.9001C72.5569 7.94644 72.6337 8.01853 72.6857 8.10764C72.7377 8.19675 72.7627 8.29904 72.7577 8.4021C72.7577 8.6121 72.6737 8.8201 72.4647 8.9041C72.3387 8.9881 72.2547 8.9881 71.9627 8.9881H71.5027V11.8761C71.5027 12.1691 71.5857 12.3791 72.0037 12.4211C72.2137 12.4211 72.3387 12.4621 72.4637 12.5041C72.6317 12.5881 72.7577 12.7551 72.7577 13.0481C72.7577 13.3001 72.6317 13.5081 72.4647 13.5931C72.3387 13.6761 72.1297 13.6761 71.8367 13.6761H71.7527C70.4967 13.6761 69.9947 12.8391 69.9947 11.9601V8.9891ZM74.8507 11.1241C74.8507 11.9191 75.3107 12.4641 76.1907 12.4641C76.5667 12.4641 76.9437 12.3801 77.2367 12.1291C77.4877 11.9611 77.6137 11.9191 77.7807 11.9191C78.0737 11.9191 78.3667 12.2121 78.3667 12.5471C78.3667 12.8401 78.1167 13.0911 77.7807 13.3011C77.3627 13.5941 76.8177 13.7191 76.1487 13.7191C74.7247 13.7191 73.3437 13.0911 73.3437 10.6211C73.3437 8.6541 74.3897 7.5241 75.9807 7.5241C77.6137 7.5241 78.5347 8.6961 78.6177 10.2031C78.6177 10.4541 78.5767 10.7051 78.4087 10.8731C78.1987 11.0821 77.9907 11.0821 77.7387 11.0821H74.8507V11.1241ZM77.0277 9.4491C76.8597 9.0731 76.5247 8.8211 76.0227 8.8211C75.5207 8.8211 75.1857 9.0731 75.0177 9.4491C74.9347 9.6591 74.8927 9.8261 74.8927 10.1191H77.1947C77.1107 9.8261 77.1107 9.6591 77.0277 9.4491ZM82.6787 7.5651C83.1387 7.5651 83.4317 7.6491 83.7247 7.8581C83.9347 8.0261 84.1017 8.2351 84.1017 8.4861C84.1017 8.6961 84.0177 8.9051 83.8917 9.0301C83.7554 9.15871 83.577 9.23335 83.3897 9.2401C83.2227 9.2401 83.0967 9.1981 82.8877 9.0721C82.7207 8.9891 82.5117 8.9051 82.3017 8.9051C81.7997 8.9051 81.2977 9.2401 81.2977 9.9931V12.6731C81.2977 13.0491 81.2977 13.1751 81.2137 13.3431C81.1472 13.4611 81.0495 13.5586 80.9314 13.6249C80.8132 13.6912 80.6791 13.7238 80.5437 13.7191C80.2087 13.7191 79.9997 13.5931 79.8737 13.3421C79.7897 13.1751 79.7897 13.0491 79.7897 12.6721V8.6121C79.7897 8.2351 79.7897 8.1091 79.9157 7.9421C79.9837 7.83784 80.0769 7.75246 80.1867 7.69389C80.2965 7.63532 80.4193 7.60546 80.5437 7.6071C80.7128 7.60305 80.8771 7.66306 81.0037 7.7751C81.1297 7.9001 81.2137 8.0251 81.2137 8.2351C81.5487 7.9001 82.0927 7.5651 82.6787 7.5651Z" fill="#606060"/>
<path d="M27.2967 11.5002L25.9587 8.8632V12.5472C25.9587 12.9242 25.9587 13.0492 25.8327 13.2592C25.757 13.3782 25.6516 13.4754 25.527 13.5413C25.4023 13.6072 25.2627 13.6396 25.1217 13.6352C24.9805 13.6397 24.8405 13.6073 24.7157 13.5412C24.5908 13.4751 24.4853 13.3776 24.4097 13.2582C24.3257 13.0492 24.2847 12.9242 24.2847 12.5472V6.3932C24.2847 6.0582 24.3257 5.8072 24.5347 5.6402C24.6832 5.50367 24.878 5.42862 25.0797 5.4302C25.2897 5.4302 25.4147 5.4722 25.5397 5.5562C25.7077 5.6402 25.8327 5.8492 25.9587 6.0582L28.0097 9.9512L30.0607 6.0582C30.1447 5.8492 30.3127 5.6822 30.4797 5.5562C30.6179 5.4712 30.7776 5.4278 30.9397 5.4312C31.1497 5.4312 31.3167 5.5142 31.4847 5.6402C31.6937 5.8502 31.7347 6.0582 31.7347 6.3932V12.5892C31.7347 12.9652 31.7347 13.0912 31.6097 13.3002C31.534 13.4195 31.4286 13.517 31.3037 13.5831C31.1789 13.6492 31.0389 13.6816 30.8977 13.6772C30.7567 13.6815 30.617 13.6489 30.4923 13.5828C30.3676 13.5167 30.2623 13.4193 30.1867 13.3002C30.1027 13.0912 30.0607 12.9652 30.0607 12.5892V8.9052L28.8467 11.5002C28.6377 11.8772 28.4707 12.0442 28.0937 12.0442C27.7167 12.0442 27.5077 11.9192 27.2977 11.5002H27.2967Z" fill="#F69220"/>
<path d="M30.9807 13.719C30.6457 13.719 30.3527 13.552 30.2277 13.3C30.1017 13.091 30.1017 12.965 30.1017 12.589V9.15599L28.8877 11.542C28.6777 11.919 28.5107 12.128 28.0507 12.128C27.6317 12.128 27.4227 11.919 27.2137 11.542L25.9987 9.15599V12.589C25.9987 12.966 25.9987 13.091 25.8727 13.3C25.7477 13.552 25.4547 13.719 25.1197 13.719C24.7847 13.719 24.4917 13.552 24.3657 13.3C24.2407 13.091 24.2407 12.924 24.2407 12.589V6.39299C24.2407 6.05899 24.2827 5.80699 24.4907 5.55599C24.5646 5.47426 24.6554 5.40957 24.7567 5.36641C24.8581 5.32324 24.9676 5.30262 25.0777 5.30599C25.2877 5.30599 25.4547 5.34599 25.5797 5.43099C25.7897 5.55599 25.9147 5.80699 25.9987 5.93299L27.9657 9.69999L29.9337 5.93299C30.0167 5.80699 30.1427 5.55599 30.3517 5.43099C30.4777 5.34699 30.6447 5.30499 30.8547 5.30499C30.9647 5.30189 31.0741 5.32274 31.1753 5.36608C31.2765 5.40941 31.367 5.47421 31.4407 5.55599C31.6497 5.76599 31.6907 6.01599 31.6907 6.39299V12.589C31.6907 12.966 31.6907 13.091 31.5657 13.3C31.6077 13.552 31.3167 13.719 30.9807 13.719ZM30.2277 8.61199V12.589C30.2277 12.966 30.2277 13.091 30.3117 13.259C30.4367 13.468 30.6877 13.593 30.9387 13.593C31.2317 13.593 31.4417 13.468 31.5667 13.258C31.6507 13.091 31.6507 12.965 31.6507 12.588V6.39399C31.6507 6.05999 31.6087 5.84999 31.4407 5.68299C31.3755 5.61592 31.2975 5.56274 31.2112 5.52665C31.1249 5.49056 31.0322 5.47231 30.9387 5.47299C30.7772 5.47536 30.6189 5.51872 30.4787 5.59899C30.3527 5.68299 30.2277 5.84999 30.1017 6.05899L28.0087 10.036L25.9157 6.05999C25.7907 5.84999 25.6647 5.68299 25.5387 5.59999C25.4032 5.50884 25.2418 5.46426 25.0787 5.47299C24.9852 5.47231 24.8925 5.49056 24.8062 5.52665C24.72 5.56274 24.6419 5.61592 24.5767 5.68299C24.4087 5.84999 24.3667 6.10099 24.3667 6.39399V12.59C24.3667 12.967 24.3667 13.092 24.4507 13.26C24.5767 13.469 24.8277 13.594 25.0787 13.594C25.3717 13.594 25.5807 13.469 25.7067 13.259C25.9167 13.092 25.9167 12.966 25.9167 12.589V8.61299L27.3807 11.459C27.5907 11.879 27.7577 12.004 28.0927 12.004C28.4277 12.004 28.5947 11.878 28.8047 11.46L30.2277 8.61199ZM35.3347 13.677C34.7487 13.677 34.2457 13.468 33.9117 13.133C33.4087 12.631 33.2837 12.087 33.2837 11.417V8.56999C33.2837 8.19399 33.2837 8.06799 33.3667 7.89999C33.4927 7.69099 33.7017 7.56599 33.9947 7.56599C34.2877 7.56599 34.5387 7.69099 34.6227 7.90099C34.7067 8.06799 34.7067 8.19399 34.7067 8.57099V11.208C34.7067 12.003 35.2087 12.296 35.7117 12.296C36.1717 12.296 36.7157 12.045 36.7157 11.208V8.56999C36.7157 8.19399 36.7157 8.06799 36.7997 7.89999C36.9247 7.69099 37.1347 7.56599 37.4277 7.56599C37.7207 7.56599 37.9717 7.69099 38.0557 7.90099C38.1387 8.06799 38.1387 8.19399 38.1387 8.57099V12.589C38.1387 12.966 38.1387 13.091 38.0137 13.259C37.9458 13.3632 37.8526 13.4486 37.7428 13.5072C37.633 13.5658 37.5102 13.5956 37.3857 13.594C37.2167 13.598 37.0524 13.538 36.9257 13.426C36.7997 13.301 36.7577 13.176 36.7157 13.008C36.4647 13.468 35.8787 13.677 35.3347 13.677Z" fill="#F69220"/>
<path d="M35.3347 13.7612C34.7487 13.7612 34.2457 13.5512 33.8697 13.2172C33.4507 12.7982 33.2417 12.2542 33.2417 11.4592V8.61217C33.2417 8.23517 33.2417 8.11017 33.3247 7.90117C33.4507 7.64917 33.7017 7.52417 34.0367 7.52417C34.3717 7.52417 34.6227 7.64917 34.7487 7.90117C34.8317 8.06817 34.8317 8.23517 34.8317 8.61217V11.2502C34.8317 12.1712 35.5437 12.2552 35.7527 12.2552C35.9627 12.2552 36.6737 12.1712 36.6737 11.2502V8.61217C36.6737 8.23517 36.6737 8.11017 36.7577 7.90117C36.8837 7.64917 37.1347 7.52417 37.4697 7.52417C37.8047 7.52417 38.0557 7.64917 38.1807 7.90117C38.2647 8.06817 38.2647 8.23517 38.2647 8.61217V12.6312C38.2647 13.0082 38.2647 13.1332 38.1387 13.3422C38.0631 13.4613 37.9578 13.5587 37.8331 13.6248C37.7085 13.6909 37.5687 13.7234 37.4277 13.7192C37.334 13.7199 37.2412 13.7017 37.1547 13.6656C37.0683 13.6295 36.99 13.5763 36.9247 13.5092C36.7997 13.4262 36.7577 13.3012 36.7157 13.1752C36.4227 13.5522 35.8787 13.7612 35.3347 13.7612ZM34.0787 7.64917C33.7857 7.64917 33.5767 7.77517 33.4927 7.98417C33.4087 8.11017 33.4087 8.27717 33.4087 8.61217V11.4592C33.4087 12.2122 33.5767 12.7142 33.9947 13.0912C34.3297 13.4262 34.7897 13.5942 35.3767 13.5942C35.9207 13.5942 36.4647 13.3842 36.8417 12.9662L36.9247 12.8822L36.9667 13.0072C37.0087 13.2172 37.0507 13.3012 37.1767 13.4272C37.3017 13.5102 37.4267 13.5942 37.5947 13.5942C37.8457 13.5942 38.0977 13.4682 38.1807 13.3012C38.2647 13.1332 38.2647 13.0492 38.2647 12.6732V8.65417C38.2647 8.27717 38.2647 8.15217 38.1807 8.02617C38.0967 7.81617 37.8457 7.69117 37.5947 7.69117C37.3437 7.69117 37.0927 7.81717 37.0087 8.02617C36.9247 8.15217 36.9247 8.31917 36.9247 8.65417V11.2912C36.9247 12.1292 36.3807 12.4212 35.8787 12.4212C35.3767 12.4212 34.8317 12.1282 34.8317 11.2912V8.65417C34.8317 8.27717 34.8317 8.15217 34.7487 8.02617C34.5387 7.77517 34.3297 7.64917 34.0787 7.64917ZM43.3297 7.85817C43.6647 8.02617 44.0417 8.31817 44.0417 8.69517C44.0417 8.90517 43.9577 9.03017 43.8317 9.19817C43.7487 9.32317 43.5397 9.40717 43.3717 9.40717C43.2047 9.40717 43.0787 9.36517 42.8697 9.19717C42.6177 9.03017 42.4507 8.94717 42.1577 8.94717C41.8227 8.94717 41.5297 9.07217 41.3207 9.32317C41.1107 9.61617 40.9857 9.99317 40.9857 10.6212C40.9857 11.2492 41.0697 11.6672 41.3207 11.9612C41.5307 12.2112 41.8227 12.3372 42.1577 12.3372C42.4507 12.3372 42.6177 12.2532 42.8697 12.0872C43.0787 11.9192 43.2047 11.8772 43.3717 11.8772C43.5397 11.8772 43.7067 11.9612 43.8317 12.0872C43.9577 12.2122 44.0417 12.3792 44.0417 12.5882C44.0417 12.9652 43.6647 13.2582 43.3297 13.4262C42.9947 13.6352 42.6187 13.7192 42.1577 13.7192C40.9857 13.7192 39.4787 13.0912 39.4787 10.6632C39.4787 8.23517 40.9437 7.60717 42.1587 7.60717C42.566 7.5602 42.9774 7.6484 43.3297 7.85817Z" fill="#F69220"/>
<path d="M42.1157 13.7601C41.4485 13.7653 40.7992 13.5443 40.2737 13.1331C39.6877 12.5891 39.3537 11.7511 39.3537 10.6631C39.3537 9.53313 39.6457 8.73713 40.2737 8.19313C40.8597 7.64913 41.6137 7.56513 42.1157 7.56513C42.5757 7.56513 42.9527 7.64913 43.3297 7.85813C43.6647 8.02613 44.0837 8.31813 44.0837 8.73813C44.0837 8.94713 43.9997 9.11413 43.8737 9.28213C43.7373 9.41037 43.5588 9.48465 43.3717 9.49113C43.2047 9.49113 43.0367 9.44913 42.8277 9.28113C42.5767 9.11413 42.4087 9.03113 42.1577 9.03113C42.005 9.0269 41.8534 9.05875 41.7152 9.12408C41.5771 9.18941 41.4563 9.28638 41.3627 9.40713C41.1527 9.70013 41.0277 10.0771 41.0277 10.6631C41.0277 11.2911 41.1117 11.6681 41.3627 11.9611C41.5717 12.2111 41.8227 12.3371 42.1577 12.3371C42.4087 12.3371 42.6177 12.2541 42.8277 12.0871C43.0377 11.9611 43.1627 11.8351 43.3717 11.8351C43.5387 11.8351 43.7487 11.9191 43.8737 12.0451C44.0417 12.2121 44.0837 12.3791 44.0837 12.5891C44.0837 12.9241 43.8317 13.2171 43.3297 13.5091C42.9497 13.685 42.5343 13.7702 42.1157 13.7601ZM42.1577 7.64913C41.3627 7.64913 39.5627 7.94213 39.5627 10.6211C39.5627 13.3421 41.3627 13.6351 42.1577 13.6351C42.6177 13.6351 42.9527 13.5511 43.2877 13.3421C43.7477 13.0911 43.9577 12.8401 43.9577 12.5471C43.9577 12.3791 43.8737 12.2541 43.7477 12.0871C43.6333 11.9823 43.4848 11.9226 43.3297 11.9191C43.1627 11.9191 43.0367 11.9611 42.8697 12.1291C42.6177 12.3371 42.4097 12.3791 42.1157 12.3791C41.7387 12.3791 41.4457 12.2541 41.2367 11.9611C40.9857 11.6681 40.9017 11.2491 40.9017 10.6211C40.9017 9.99313 41.0277 9.57513 41.2367 9.28113C41.4467 9.03113 41.7387 8.86313 42.1167 8.86313C42.4507 8.86313 42.6187 8.94713 42.8697 9.11413C43.0787 9.24013 43.2047 9.32413 43.3297 9.32413C43.4977 9.32413 43.6227 9.24013 43.7487 9.15613C43.8756 9.03582 43.9505 8.87081 43.9577 8.69613C43.9577 8.31913 43.5387 8.02613 43.2877 7.90013C42.9527 7.73313 42.6177 7.64913 42.1577 7.64913ZM49.9437 13.3001C49.8177 13.5101 49.6087 13.6351 49.3157 13.6351C49.0227 13.6351 48.7717 13.5101 48.6877 13.3001C48.6047 13.1331 48.6047 13.0071 48.6047 12.6301V9.99313C48.6047 9.19813 48.1017 8.90513 47.5997 8.90513C47.0977 8.90513 46.5947 9.15613 46.5947 9.99313V12.6311C46.5947 13.0071 46.5947 13.1331 46.5107 13.3011C46.3857 13.5101 46.1767 13.6351 45.8837 13.6351C45.5907 13.6351 45.3387 13.5101 45.2557 13.3001C45.1717 13.1331 45.1717 13.0071 45.1717 12.6301V6.43613C45.1717 6.05913 45.1717 5.93413 45.2557 5.76613C45.3807 5.55713 45.5907 5.43213 45.8837 5.43213C46.1767 5.43213 46.4277 5.55713 46.5107 5.76613C46.5947 5.93413 46.5947 6.05913 46.5947 6.43613V8.19413C46.9717 7.81813 47.3907 7.56613 48.0597 7.56613C48.6457 7.56613 49.1487 7.77613 49.4837 8.11113C49.9857 8.61313 50.1107 9.15713 50.1107 9.82713V12.6731C50.0697 13.0081 50.0277 13.1321 49.9437 13.3001Z" fill="#F69220"/>
<path d="M49.3157 13.7202C48.9807 13.7202 48.7297 13.5942 48.6037 13.3422C48.5207 13.1752 48.5207 13.0072 48.5207 12.6312V9.99417C48.5207 9.07317 47.8087 8.98917 47.5997 8.98917C47.3897 8.98917 46.6787 9.07317 46.6787 9.99417V12.6312C46.6787 13.0082 46.6787 13.1332 46.5947 13.3422C46.4697 13.5942 46.2177 13.7192 45.8837 13.7192C45.5487 13.7192 45.2977 13.5942 45.1717 13.3422C45.0877 13.1752 45.0877 13.0072 45.0877 12.6312V6.43517C45.0877 6.05917 45.0877 5.93317 45.1717 5.72417C45.2977 5.47317 45.5487 5.34717 45.8837 5.34717C46.2177 5.34717 46.4697 5.47317 46.5947 5.72417C46.6787 5.89117 46.6787 6.05917 46.6787 6.43517V8.06817C47.0977 7.69117 47.5157 7.52417 48.0597 7.52417C48.6457 7.52417 49.1487 7.73417 49.5247 8.06817C49.9447 8.48717 50.1527 9.03117 50.1527 9.82617V12.6732C50.1527 13.0492 50.1527 13.1752 50.0697 13.3842C49.9017 13.5942 49.6507 13.7192 49.3157 13.7192V13.7202ZM47.5997 8.86317C48.1017 8.86317 48.6457 9.15617 48.6457 9.99317V12.6312C48.6457 13.0082 48.6457 13.1332 48.7297 13.2592C48.8137 13.4682 49.0647 13.5942 49.3157 13.5942C49.5667 13.5942 49.8177 13.4682 49.9017 13.2592C49.9857 13.1332 49.9857 12.9662 49.9857 12.6312V9.78417C49.9857 9.03117 49.8177 8.52817 49.3997 8.15217C49.0647 7.81717 48.6047 7.64917 48.0187 7.64917C47.4317 7.64917 47.0137 7.81717 46.5947 8.23517L46.4697 8.36117V6.43517C46.4697 6.05917 46.4697 5.93317 46.3857 5.80817C46.3017 5.59817 46.0507 5.47317 45.7997 5.47317C45.5067 5.47317 45.2977 5.59817 45.2137 5.80817C45.1297 5.93317 45.1297 6.10117 45.1297 6.43517V12.6732C45.1297 13.0492 45.1297 13.1752 45.2137 13.3002C45.2977 13.5102 45.5487 13.6352 45.7997 13.6352C46.0507 13.6352 46.3017 13.5102 46.3857 13.3002C46.4697 13.1752 46.4697 13.0072 46.4697 12.6732V10.0352C46.5107 9.15617 47.0557 8.86317 47.5997 8.86317Z" fill="#F69220"/>
</g>
<mask id="mask1_1_6156" style="mask-type:luminance" maskUnits="userSpaceOnUse" x="0" y="1" width="85" height="19">
<path d="M0.798737 1.37012H84.1007V19.3701H0.798737V1.37012Z" fill="white"/>
</mask>
<g mask="url(#mask1_1_6156)">
<path d="M6.70173 15.896C6.50861 15.8927 6.31938 15.8412 6.15122 15.7462C5.98305 15.6512 5.84126 15.5157 5.73873 15.352L1.05073 7.27204C0.906782 7.00992 0.870014 6.70222 0.948145 6.41357C1.02628 6.12491 1.21322 5.87777 1.46973 5.72404C1.73172 5.58001 2.03934 5.54309 2.32798 5.62103C2.61662 5.69897 2.86384 5.88571 3.01773 6.14204L7.70673 14.179C7.85128 14.4413 7.88839 14.7495 7.81023 15.0387C7.73208 15.3278 7.54475 15.5753 7.28773 15.729C7.07773 15.854 6.91073 15.896 6.70173 15.896Z" fill="#4A5370"/>
<path d="M18.5067 11.5001C18.5067 10.9141 18.2967 10.3701 17.9627 9.7841C17.4597 8.8641 16.8737 8.2771 16.0787 7.9001C15.4087 7.5661 14.6557 7.3981 13.9017 7.4821C14.1527 6.9381 14.3207 6.3931 14.3617 5.8071C14.4457 4.9701 14.1527 4.2171 13.6507 3.2961C13.348 2.76666 12.9338 2.30942 12.4367 1.9561C11.9347 1.6631 11.4317 1.4541 10.8467 1.4121C10.2438 1.372 9.6382 1.41439 9.04673 1.5381C8.83673 1.5801 8.62673 1.6631 8.41773 1.7051L8.16773 1.8311C7.79073 1.9561 6.82773 2.5011 6.49273 2.7101L4.85973 3.6731H4.81873C4.53373 3.85345 4.32777 4.13519 4.24239 4.46147C4.15702 4.78775 4.19859 5.13427 4.35873 5.4311C4.52618 5.71869 4.80052 5.92843 5.12197 6.0146C5.44341 6.10077 5.78588 6.05637 6.07473 5.8911H6.11673L8.75373 4.3841C8.99107 4.26315 9.24524 4.17854 9.50773 4.1331C9.75773 4.0911 10.0097 4.1331 10.2607 4.1751C10.5117 4.2591 10.7207 4.3851 10.9727 4.5521C11.1827 4.7191 11.3497 4.9281 11.5167 5.1801C11.6427 5.4301 11.7677 5.6821 11.8097 5.9751C11.8517 6.2681 11.8517 6.5191 11.8097 6.7701C11.7677 7.0211 11.6837 7.2301 11.5167 7.4401C11.3907 7.6501 11.1817 7.8171 10.9727 7.9421L9.38273 8.9051L8.71273 9.2821L8.29273 9.5331C7.70773 9.8681 7.53973 10.5801 7.87473 11.1661C8.08473 11.5421 8.50273 11.7521 8.92173 11.7521C9.13073 11.7521 9.33973 11.7101 9.50773 11.5841L10.3867 11.0821L12.6467 9.8681C12.8987 9.7421 13.1067 9.6581 13.3587 9.6581C13.6097 9.6581 13.8607 9.7001 14.0707 9.7841C14.3207 9.8681 14.5307 9.9941 14.7407 10.1611C14.9497 10.3281 15.1167 10.5381 15.2837 10.7891C15.4097 11.0401 15.4937 11.2911 15.5357 11.5421C15.5777 11.7941 15.5777 12.0861 15.4937 12.3381C15.4517 12.5881 15.3257 12.7981 15.1587 13.0491C14.9907 13.2591 14.7817 13.4261 14.5307 13.5931L10.6377 15.8131H10.4277L9.71773 16.2311L8.33573 16.9841C7.74973 17.3191 7.49773 18.0721 7.83273 18.6591C8.04273 19.0771 8.46073 19.3291 8.92173 19.3291C9.13073 19.3291 9.33973 19.2861 9.50773 19.1611L12.8567 17.3611L15.5767 15.8961C16.1582 15.5632 16.6931 15.155 17.1677 14.6821C17.5949 14.2639 17.9363 13.7662 18.1727 13.2171C18.4237 12.6311 18.5487 12.0871 18.5067 11.5001ZM53.1667 13.6771C52.9167 13.6771 52.6227 13.6771 52.4137 13.4671C52.2037 13.2591 52.2037 12.9661 52.2037 12.7141V6.4351C52.2037 6.1851 52.2037 5.8911 52.4137 5.6821C52.6237 5.4721 52.9157 5.4721 53.1667 5.4721H55.5107C57.1437 5.4721 58.0647 6.3931 58.0647 7.7751C58.0647 8.6951 57.4787 9.2821 57.0177 9.4911C57.5207 9.7421 58.1477 10.2451 58.1477 11.3331C58.1477 12.8821 57.1017 13.7191 55.6367 13.7191H53.1667V13.6771ZM53.8367 6.8961V8.7801H55.4267C56.0967 8.7801 56.4737 8.4031 56.4737 7.8171C56.4737 7.2311 56.0967 6.8541 55.4277 6.8541H53.8367V6.8961ZM55.5107 12.2541C56.2227 12.2541 56.5997 11.7941 56.5997 11.2491C56.5997 10.7051 56.2647 10.2451 55.5107 10.2451H53.8367V12.2541H55.5107ZM60.7017 11.1241C60.7017 11.9191 61.1617 12.4641 62.0417 12.4641C62.4187 12.4641 62.7947 12.3801 63.0877 12.1291C63.3387 11.9611 63.4647 11.9191 63.6317 11.9191C63.9247 11.9191 64.2187 12.2121 64.2187 12.5471C64.2187 12.8401 63.9667 13.0911 63.6317 13.3011C63.2137 13.5941 62.6697 13.7191 61.9997 13.7191C60.5767 13.7191 59.1947 13.0911 59.1947 10.6211C59.1947 8.6541 60.2417 7.5241 61.8317 7.5241C63.4647 7.5241 64.3857 8.6961 64.4697 10.2031C64.4697 10.4541 64.4277 10.7051 64.2597 10.8731C64.0507 11.0821 63.8417 11.0821 63.5897 11.0821H60.7017V11.1241ZM62.8787 9.4491C62.7117 9.0731 62.3767 8.8211 61.8737 8.8211C61.3717 8.8211 61.0367 9.0731 60.8697 9.4491C60.7857 9.6591 60.7437 9.8261 60.7437 10.1191H63.0457C63.02 9.88934 62.9639 9.66403 62.8787 9.4491ZM65.9347 8.9891H65.7667C65.4737 8.9891 65.3897 8.9891 65.2647 8.9051C65.1725 8.85876 65.0958 8.78666 65.0438 8.69755C64.9918 8.60844 64.9667 8.50615 64.9717 8.4031C64.9717 8.1931 65.0557 7.9841 65.2647 7.9011C65.3897 7.8171 65.4747 7.8171 65.7667 7.8171H65.9347V7.0201C65.9347 6.6441 65.9347 6.5181 66.0177 6.3501C66.0843 6.2321 66.182 6.13464 66.3001 6.06833C66.4183 6.00203 66.5523 5.96944 66.6877 5.9741C66.9807 5.9741 67.2317 6.1001 67.3577 6.3511C67.4417 6.5181 67.4417 6.6441 67.4417 7.0211V7.8161H67.9017C68.1947 7.8161 68.2787 7.8161 68.4037 7.9001C68.4959 7.94644 68.5727 8.01853 68.6247 8.10764C68.6767 8.19675 68.7017 8.29904 68.6967 8.4021C68.6967 8.6121 68.6137 8.8201 68.4047 8.9041C68.2787 8.9881 68.1947 8.9881 67.9017 8.9881H67.4417V11.8761C67.4417 12.1691 67.5247 12.3791 67.9437 12.4211C68.1537 12.4211 68.2787 12.4621 68.4037 12.5041C68.5717 12.5881 68.6967 12.7551 68.6967 13.0481C68.6967 13.3001 68.5717 13.5081 68.4047 13.5931C68.2787 13.6761 68.0697 13.6761 67.7767 13.6761H67.6927C66.4367 13.6761 65.9347 12.8391 65.9347 11.9601V8.9891ZM69.9947 8.9891H69.8277C69.5347 8.9891 69.4507 8.9891 69.3247 8.9051C69.2325 8.85876 69.1558 8.78666 69.1038 8.69755C69.0518 8.60844 69.0267 8.50615 69.0317 8.4031C69.0317 8.1931 69.1157 7.9841 69.3247 7.9011C69.4507 7.8171 69.5347 7.8171 69.8277 7.8171H69.9947V7.0201C69.9947 6.6441 69.9947 6.5181 70.0787 6.3501C70.1453 6.2321 70.243 6.13464 70.3611 6.06833C70.4792 6.00203 70.6133 5.96944 70.7487 5.9741C71.0417 5.9741 71.2927 6.1001 71.4187 6.3511C71.5017 6.5181 71.5017 6.6441 71.5017 7.0211V7.8161H71.9617C72.2557 7.8161 72.3387 7.8161 72.4647 7.9001C72.5569 7.94644 72.6337 8.01853 72.6857 8.10764C72.7377 8.19675 72.7627 8.29904 72.7577 8.4021C72.7577 8.6121 72.6737 8.8201 72.4647 8.9041C72.3387 8.9881 72.2547 8.9881 71.9627 8.9881H71.5027V11.8761C71.5027 12.1691 71.5857 12.3791 72.0037 12.4211C72.2137 12.4211 72.3387 12.4621 72.4637 12.5041C72.6317 12.5881 72.7577 12.7551 72.7577 13.0481C72.7577 13.3001 72.6317 13.5081 72.4647 13.5931C72.3387 13.6761 72.1297 13.6761 71.8367 13.6761H71.7527C70.4967 13.6761 69.9947 12.8391 69.9947 11.9601V8.9891ZM74.8507 11.1241C74.8507 11.9191 75.3107 12.4641 76.1907 12.4641C76.5667 12.4641 76.9437 12.3801 77.2367 12.1291C77.4877 11.9611 77.6137 11.9191 77.7807 11.9191C78.0737 11.9191 78.3667 12.2121 78.3667 12.5471C78.3667 12.8401 78.1167 13.0911 77.7807 13.3011C77.3627 13.5941 76.8177 13.7191 76.1487 13.7191C74.7247 13.7191 73.3437 13.0911 73.3437 10.6211C73.3437 8.6541 74.3897 7.5241 75.9807 7.5241C77.6137 7.5241 78.5347 8.6961 78.6177 10.2031C78.6177 10.4541 78.5767 10.7051 78.4087 10.8731C78.1987 11.0821 77.9907 11.0821 77.7387 11.0821H74.8507V11.1241ZM77.0277 9.4491C76.8597 9.0731 76.5247 8.8211 76.0227 8.8211C75.5207 8.8211 75.1857 9.0731 75.0177 9.4491C74.9347 9.6591 74.8927 9.8261 74.8927 10.1191H77.1947C77.1107 9.8261 77.1107 9.6591 77.0277 9.4491ZM82.6787 7.5651C83.1387 7.5651 83.4317 7.6491 83.7247 7.8581C83.9347 8.0261 84.1017 8.2351 84.1017 8.4861C84.1017 8.6961 84.0177 8.9051 83.8917 9.0301C83.7554 9.15871 83.577 9.23335 83.3897 9.2401C83.2227 9.2401 83.0967 9.1981 82.8877 9.0721C82.7207 8.9891 82.5117 8.9051 82.3017 8.9051C81.7997 8.9051 81.2977 9.2401 81.2977 9.9931V12.6731C81.2977 13.0491 81.2977 13.1751 81.2137 13.3431C81.1472 13.4611 81.0495 13.5586 80.9314 13.6249C80.8132 13.6912 80.6791 13.7238 80.5437 13.7191C80.2087 13.7191 79.9997 13.5931 79.8737 13.3421C79.7897 13.1751 79.7897 13.0491 79.7897 12.6721V8.6121C79.7897 8.2351 79.7897 8.1091 79.9157 7.9421C79.9837 7.83784 80.0769 7.75246 80.1867 7.69389C80.2965 7.63532 80.4193 7.60546 80.5437 7.6071C80.7128 7.60305 80.8771 7.66306 81.0037 7.7751C81.1297 7.9001 81.2137 8.0251 81.2137 8.2351C81.5487 7.9001 82.0927 7.5651 82.6787 7.5651Z" fill="#34405E"/>
<path d="M27.2967 11.5002L25.9587 8.8632V12.5472C25.9587 12.9242 25.9587 13.0492 25.8327 13.2592C25.757 13.3782 25.6516 13.4754 25.527 13.5413C25.4023 13.6072 25.2627 13.6396 25.1217 13.6352C24.9805 13.6397 24.8405 13.6073 24.7157 13.5412C24.5908 13.4751 24.4853 13.3776 24.4097 13.2582C24.3257 13.0492 24.2847 12.9242 24.2847 12.5472V6.3932C24.2847 6.0582 24.3257 5.8072 24.5347 5.6402C24.6832 5.50367 24.878 5.42862 25.0797 5.4302C25.2897 5.4302 25.4147 5.4722 25.5397 5.5562C25.7077 5.6402 25.8327 5.8492 25.9587 6.0582L28.0097 9.9512L30.0607 6.0582C30.1447 5.8492 30.3127 5.6822 30.4797 5.5562C30.6179 5.4712 30.7776 5.4278 30.9397 5.4312C31.1497 5.4312 31.3167 5.5142 31.4847 5.6402C31.6937 5.8502 31.7347 6.0582 31.7347 6.3932V12.5892C31.7347 12.9652 31.7347 13.0912 31.6097 13.3002C31.534 13.4195 31.4286 13.517 31.3037 13.5831C31.1789 13.6492 31.0389 13.6816 30.8977 13.6772C30.7567 13.6815 30.617 13.6489 30.4923 13.5828C30.3676 13.5167 30.2623 13.4193 30.1867 13.3002C30.1027 13.0912 30.0607 12.9652 30.0607 12.5892V8.9052L28.8467 11.5002C28.6377 11.8772 28.4707 12.0442 28.0937 12.0442C27.7167 12.0442 27.5077 11.9192 27.2977 11.5002H27.2967Z" fill="#4A5370"/>
<path d="M30.9807 13.719C30.6457 13.719 30.3527 13.552 30.2277 13.3C30.1017 13.091 30.1017 12.965 30.1017 12.589V9.15599L28.8877 11.542C28.6777 11.919 28.5107 12.128 28.0507 12.128C27.6317 12.128 27.4227 11.919 27.2137 11.542L25.9987 9.15599V12.589C25.9987 12.966 25.9987 13.091 25.8727 13.3C25.7477 13.552 25.4547 13.719 25.1197 13.719C24.7847 13.719 24.4917 13.552 24.3657 13.3C24.2407 13.091 24.2407 12.924 24.2407 12.589V6.39299C24.2407 6.05899 24.2827 5.80699 24.4907 5.55599C24.5646 5.47426 24.6554 5.40957 24.7567 5.36641C24.8581 5.32324 24.9676 5.30262 25.0777 5.30599C25.2877 5.30599 25.4547 5.34599 25.5797 5.43099C25.7897 5.55599 25.9147 5.80699 25.9987 5.93299L27.9657 9.69999L29.9337 5.93299C30.0167 5.80699 30.1427 5.55599 30.3517 5.43099C30.4777 5.34699 30.6447 5.30499 30.8547 5.30499C30.9647 5.30189 31.0741 5.32274 31.1753 5.36608C31.2765 5.40941 31.367 5.47421 31.4407 5.55599C31.6497 5.76599 31.6907 6.01599 31.6907 6.39299V12.589C31.6907 12.966 31.6907 13.091 31.5657 13.3C31.6077 13.552 31.3167 13.719 30.9807 13.719ZM30.2277 8.61199V12.589C30.2277 12.966 30.2277 13.091 30.3117 13.259C30.4367 13.468 30.6877 13.593 30.9387 13.593C31.2317 13.593 31.4417 13.468 31.5667 13.258C31.6507 13.091 31.6507 12.965 31.6507 12.588V6.39399C31.6507 6.05999 31.6087 5.84999 31.4407 5.68299C31.3755 5.61592 31.2975 5.56274 31.2112 5.52665C31.1249 5.49056 31.0322 5.47231 30.9387 5.47299C30.7772 5.47536 30.6189 5.51872 30.4787 5.59899C30.3527 5.68299 30.2277 5.84999 30.1017 6.05899L28.0087 10.036L25.9157 6.05999C25.7907 5.84999 25.6647 5.68299 25.5387 5.59999C25.4032 5.50884 25.2418 5.46426 25.0787 5.47299C24.9852 5.47231 24.8925 5.49056 24.8062 5.52665C24.72 5.56274 24.6419 5.61592 24.5767 5.68299C24.4087 5.84999 24.3667 6.10099 24.3667 6.39399V12.59C24.3667 12.967 24.3667 13.092 24.4507 13.26C24.5767 13.469 24.8277 13.594 25.0787 13.594C25.3717 13.594 25.5807 13.469 25.7067 13.259C25.9167 13.092 25.9167 12.966 25.9167 12.589V8.61299L27.3807 11.459C27.5907 11.879 27.7577 12.004 28.0927 12.004C28.4277 12.004 28.5947 11.878 28.8047 11.46L30.2277 8.61199ZM35.3347 13.677C34.7487 13.677 34.2457 13.468 33.9117 13.133C33.4087 12.631 33.2837 12.087 33.2837 11.417V8.56999C33.2837 8.19399 33.2837 8.06799 33.3667 7.89999C33.4927 7.69099 33.7017 7.56599 33.9947 7.56599C34.2877 7.56599 34.5387 7.69099 34.6227 7.90099C34.7067 8.06799 34.7067 8.19399 34.7067 8.57099V11.208C34.7067 12.003 35.2087 12.296 35.7117 12.296C36.1717 12.296 36.7157 12.045 36.7157 11.208V8.56999C36.7157 8.19399 36.7157 8.06799 36.7997 7.89999C36.9247 7.69099 37.1347 7.56599 37.4277 7.56599C37.7207 7.56599 37.9717 7.69099 38.0557 7.90099C38.1387 8.06799 38.1387 8.19399 38.1387 8.57099V12.589C38.1387 12.966 38.1387 13.091 38.0137 13.259C37.9458 13.3632 37.8526 13.4486 37.7428 13.5072C37.633 13.5658 37.5102 13.5956 37.3857 13.594C37.2167 13.598 37.0524 13.538 36.9257 13.426C36.7997 13.301 36.7577 13.176 36.7157 13.008C36.4647 13.468 35.8787 13.677 35.3347 13.677Z" fill="#4A5370"/>
<path d="M35.3347 13.7612C34.7487 13.7612 34.2457 13.5512 33.8697 13.2172C33.4507 12.7982 33.2417 12.2542 33.2417 11.4592V8.61217C33.2417 8.23517 33.2417 8.11017 33.3247 7.90117C33.4507 7.64917 33.7017 7.52417 34.0367 7.52417C34.3717 7.52417 34.6227 7.64917 34.7487 7.90117C34.8317 8.06817 34.8317 8.23517 34.8317 8.61217V11.2502C34.8317 12.1712 35.5437 12.2552 35.7527 12.2552C35.9627 12.2552 36.6737 12.1712 36.6737 11.2502V8.61217C36.6737 8.23517 36.6737 8.11017 36.7577 7.90117C36.8837 7.64917 37.1347 7.52417 37.4697 7.52417C37.8047 7.52417 38.0557 7.64917 38.1807 7.90117C38.2647 8.06817 38.2647 8.23517 38.2647 8.61217V12.6312C38.2647 13.0082 38.2647 13.1332 38.1387 13.3422C38.0631 13.4613 37.9578 13.5587 37.8331 13.6248C37.7085 13.6909 37.5687 13.7234 37.4277 13.7192C37.334 13.7199 37.2412 13.7017 37.1547 13.6656C37.0683 13.6295 36.99 13.5763 36.9247 13.5092C36.7997 13.4262 36.7577 13.3012 36.7157 13.1752C36.4227 13.5522 35.8787 13.7612 35.3347 13.7612ZM34.0787 7.64917C33.7857 7.64917 33.5767 7.77517 33.4927 7.98417C33.4087 8.11017 33.4087 8.27717 33.4087 8.61217V11.4592C33.4087 12.2122 33.5767 12.7142 33.9947 13.0912C34.3297 13.4262 34.7897 13.5942 35.3767 13.5942C35.9207 13.5942 36.4647 13.3842 36.8417 12.9662L36.9247 12.8822L36.9667 13.0072C37.0087 13.2172 37.0507 13.3012 37.1767 13.4272C37.3017 13.5102 37.4267 13.5942 37.5947 13.5942C37.8457 13.5942 38.0977 13.4682 38.1807 13.3012C38.2647 13.1332 38.2647 13.0492 38.2647 12.6732V8.65417C38.2647 8.27717 38.2647 8.15217 38.1807 8.02617C38.0967 7.81617 37.8457 7.69117 37.5947 7.69117C37.3437 7.69117 37.0927 7.81717 37.0087 8.02617C36.9247 8.15217 36.9247 8.31917 36.9247 8.65417V11.2912C36.9247 12.1292 36.3807 12.4212 35.8787 12.4212C35.3767 12.4212 34.8317 12.1282 34.8317 11.2912V8.65417C34.8317 8.27717 34.8317 8.15217 34.7487 8.02617C34.5387 7.77517 34.3297 7.64917 34.0787 7.64917ZM43.3297 7.85817C43.6647 8.02617 44.0417 8.31817 44.0417 8.69517C44.0417 8.90517 43.9577 9.03017 43.8317 9.19817C43.7487 9.32317 43.5387 9.40717 43.3717 9.40717C43.2047 9.40717 43.0787 9.36517 42.8697 9.19717C42.6177 9.03017 42.4507 8.94717 42.1577 8.94717C41.8227 8.94717 41.5297 9.07217 41.3207 9.32317C41.1107 9.61617 40.9857 9.99317 40.9857 10.6212C40.9857 11.2492 41.0697 11.6672 41.3207 11.9612C41.5307 12.2112 41.8227 12.3372 42.1577 12.3372C42.4507 12.3372 42.6177 12.2532 42.8697 12.0872C43.0787 11.9192 43.2037 11.8772 43.3717 11.8772C43.5387 11.8772 43.7067 11.9612 43.8317 12.0872C43.9577 12.2122 44.0417 12.3792 44.0417 12.5882C44.0417 12.9652 43.6647 13.2582 43.3297 13.4262C42.9947 13.6352 42.6177 13.7192 42.1577 13.7192C40.9857 13.7192 39.4777 13.0912 39.4777 10.6632C39.4777 8.23517 40.9437 7.60717 42.1577 7.60717C42.5653 7.55998 42.9772 7.64818 43.3297 7.85817Z" fill="#4A5370"/>
<path d="M42.1157 13.7601C41.4485 13.7653 40.7992 13.5443 40.2737 13.1331C39.6877 12.5891 39.3537 11.7511 39.3537 10.6631C39.3537 9.53313 39.6457 8.73713 40.2737 8.19313C40.8597 7.64913 41.6137 7.56513 42.1157 7.56513C42.5757 7.56513 42.9527 7.64913 43.3297 7.85813C43.6647 8.02613 44.0837 8.31813 44.0837 8.73813C44.0837 8.94713 43.9997 9.11413 43.8737 9.28213C43.7373 9.41037 43.5588 9.48465 43.3717 9.49113C43.2037 9.49113 43.0367 9.44913 42.8277 9.28113C42.5757 9.11413 42.4087 9.03113 42.1577 9.03113C42.005 9.0269 41.8534 9.05875 41.7152 9.12408C41.5771 9.18941 41.4563 9.28638 41.3627 9.40713C41.1527 9.70013 41.0277 10.0771 41.0277 10.6631C41.0277 11.2911 41.1107 11.6681 41.3627 11.9611C41.5717 12.2111 41.8227 12.3371 42.1577 12.3371C42.4087 12.3371 42.6177 12.2541 42.8277 12.0871C43.0367 11.9611 43.1627 11.8351 43.3717 11.8351C43.5387 11.8351 43.7487 11.9191 43.8737 12.0451C44.0417 12.2121 44.0837 12.3791 44.0837 12.5891C44.0837 12.9241 43.8317 13.2171 43.3297 13.5091C42.9497 13.685 42.5343 13.7702 42.1157 13.7601ZM42.1577 7.64913C41.3627 7.64913 39.5627 7.94213 39.5627 10.6211C39.5627 13.3421 41.3627 13.6351 42.1577 13.6351C42.6177 13.6351 42.9527 13.5511 43.2877 13.3421C43.7477 13.0911 43.9577 12.8401 43.9577 12.5471C43.9577 12.3791 43.8737 12.2541 43.7477 12.0871C43.6333 11.9823 43.4848 11.9226 43.3297 11.9191C43.1627 11.9191 43.0367 11.9611 42.8697 12.1291C42.6177 12.3371 42.4097 12.3791 42.1157 12.3791C41.7387 12.3791 41.4457 12.2541 41.2367 11.9611C40.9857 11.6681 40.9017 11.2491 40.9017 10.6211C40.9017 9.99313 41.0277 9.57513 41.2367 9.28113C41.4467 9.03113 41.7387 8.86313 42.1167 8.86313C42.4507 8.86313 42.6177 8.94713 42.8697 9.11413C43.0787 9.24013 43.2037 9.32413 43.3297 9.32413C43.4977 9.32413 43.6227 9.24013 43.7487 9.15613C43.8756 9.03582 43.9505 8.87081 43.9577 8.69613C43.9577 8.31913 43.5387 8.02613 43.2877 7.90013C42.9527 7.73313 42.6177 7.64913 42.1577 7.64913ZM49.9437 13.3001C49.8177 13.5101 49.6087 13.6351 49.3157 13.6351C49.0227 13.6351 48.7717 13.5101 48.6877 13.3001C48.6047 13.1331 48.6047 13.0071 48.6047 12.6301V9.99313C48.6047 9.19813 48.1017 8.90513 47.5997 8.90513C47.0977 8.90513 46.5947 9.15613 46.5947 9.99313V12.6311C46.5947 13.0071 46.5947 13.1331 46.5107 13.3011C46.3857 13.5101 46.1767 13.6351 45.8837 13.6351C45.5907 13.6351 45.3387 13.5101 45.2557 13.3001C45.1717 13.1331 45.1717 13.0071 45.1717 12.6301V6.43613C45.1717 6.05913 45.1717 5.93413 45.2557 5.76613C45.3807 5.55713 45.5907 5.43213 45.8837 5.43213C46.1767 5.43213 46.4277 5.55713 46.5107 5.76613C46.5947 5.93413 46.5947 6.05913 46.5947 6.43613V8.19413C46.9717 7.81813 47.3907 7.56613 48.0597 7.56613C48.6457 7.56613 49.1487 7.77613 49.4837 8.11113C49.9857 8.61313 50.1107 9.15713 50.1107 9.82713V12.6731C50.0697 13.0081 50.0277 13.1321 49.9437 13.3001Z" fill="#4A5370"/>
<path d="M49.3157 13.7202C48.9807 13.7202 48.7297 13.5942 48.6037 13.3422C48.5207 13.1752 48.5207 13.0072 48.5207 12.6312V9.99417C48.5207 9.07317 47.8087 8.98917 47.5997 8.98917C47.3897 8.98917 46.6787 9.07317 46.6787 9.99417V12.6312C46.6787 13.0082 46.6787 13.1332 46.5947 13.3422C46.4697 13.5942 46.2177 13.7192 45.8837 13.7192C45.5487 13.7192 45.2977 13.5942 45.1717 13.3422C45.0877 13.1752 45.0877 13.0072 45.0877 12.6312V6.43517C45.0877 6.05917 45.0877 5.93317 45.1717 5.72417C45.2977 5.47317 45.5487 5.34717 45.8837 5.34717C46.2177 5.34717 46.4697 5.47317 46.5947 5.72417C46.6787 5.89117 46.6787 6.05917 46.6787 6.43517V8.06817C47.0977 7.69117 47.5157 7.52417 48.0597 7.52417C48.6457 7.52417 49.1487 7.73417 49.5247 8.06817C49.9447 8.48717 50.1527 9.03117 50.1527 9.82617V12.6732C50.1527 13.0492 50.1527 13.1752 50.0697 13.3842C49.9017 13.5942 49.6507 13.7192 49.3157 13.7192V13.7202ZM47.5997 8.86317C48.1017 8.86317 48.6457 9.15617 48.6457 9.99317V12.6312C48.6457 13.0082 48.6457 13.1332 48.7297 13.2592C48.8137 13.4682 49.0647 13.5942 49.3157 13.5942C49.5667 13.5942 49.8177 13.4682 49.9017 13.2592C49.9857 13.1332 49.9857 12.9662 49.9857 12.6312V9.78417C49.9857 9.03117 49.8177 8.52817 49.3997 8.15217C49.0647 7.81717 48.6047 7.64917 48.0187 7.64917C47.4317 7.64917 47.0137 7.81717 46.5947 8.23517L46.4697 8.36117V6.43517C46.4697 6.05917 46.4697 5.93317 46.3857 5.80817C46.3017 5.59817 46.0507 5.47317 45.7997 5.47317C45.5067 5.47317 45.2977 5.59817 45.2137 5.80817C45.1297 5.93317 45.1297 6.10117 45.1297 6.43517V12.6732C45.1297 13.0492 45.1297 13.1752 45.2137 13.3002C45.2977 13.5102 45.5487 13.6352 45.7997 13.6352C46.0507 13.6352 46.3017 13.5102 46.3857 13.3002C46.4697 13.1752 46.4697 13.0072 46.4697 12.6732V10.0352C46.5107 9.15617 47.0557 8.86317 47.5997 8.86317Z" fill="#4A5370"/>
</g>
</svg>
