<svg width="62" height="20" viewBox="0 0 62 20" fill="none" xmlns="http://www.w3.org/2000/svg">
<path d="M9.3465 18.4785C11.4499 18.4785 13.4672 17.6429 14.9546 16.1555C16.4419 14.6682 17.2775 12.6509 17.2775 10.5475C17.2775 8.44402 16.4419 6.42674 14.9546 4.93939C13.4672 3.45204 11.4499 2.61646 9.3465 2.61646C7.24307 2.61646 5.22578 3.45204 3.73843 4.93939C2.25108 6.42674 1.4155 8.44402 1.4155 10.5475C1.4155 12.6509 2.25108 14.6682 3.73843 16.1555C5.22578 17.6429 7.24307 18.4785 9.3465 18.4785Z" fill="#26A17B"/>
<path d="M10.192 11.28V11.2779C10.1371 11.281 9.85419 11.2979 9.22406 11.2979C8.72059 11.2979 8.36805 11.2842 8.24245 11.2768V11.2789C6.30561 11.1934 4.86064 10.8567 4.86064 10.4525C4.86064 10.0493 6.30667 9.71151 8.24245 9.62602V10.9433C8.36911 10.9517 8.7322 10.9739 9.23356 10.9739C9.83519 10.9739 10.136 10.9486 10.192 10.9433V9.62813C12.1256 9.71468 13.5664 10.0514 13.5664 10.4546C13.5664 10.8578 12.1235 11.1924 10.192 11.28ZM10.192 9.49197V8.31403H12.8887V6.51758H5.54671V8.31403H8.2435V9.49197C6.05229 9.5933 4.40466 10.026 4.40466 10.5475C4.40466 11.0668 6.05335 11.5006 8.2435 11.603V15.3795H10.1941V11.6019C12.3811 11.5016 14.0255 11.0678 14.0255 10.5475C14.0255 10.0292 12.3811 9.59435 10.1941 9.49302" fill="white"/>
<path d="M24.0151 7.00834V8.91351H25.8665V10.3427H24.0025V13.241C24.0025 13.8807 24.355 14.1931 24.8733 14.1931C25.1319 14.1931 25.4316 14.1118 25.6754 13.9894L26.1399 15.4038C25.6638 15.5937 25.268 15.6761 24.7645 15.6898C23.308 15.7447 22.3559 14.9151 22.3559 13.241V10.3427H21.1041V8.91351H22.3559V7.18566L24.0151 7.00834ZM55.9344 8.82379L56.0569 9.59958C56.574 8.76891 57.2686 8.64647 57.9494 8.64647C58.6428 8.64647 59.3099 8.91773 59.6772 9.28504L58.9278 10.7279C58.5879 10.4429 58.2755 10.292 57.7309 10.292C56.8601 10.292 56.0569 10.7543 56.0569 11.9924V15.5304H54.3966V8.82274L55.9344 8.82379ZM51.8655 11.396C51.7568 10.5253 51.076 10.0883 50.1239 10.0883C49.2267 10.0883 48.49 10.5253 48.2451 11.396H51.8655ZM48.2187 12.7703C48.3274 13.601 49.0484 14.1994 50.2189 14.1994C50.8311 14.1994 51.6354 13.9672 52.0164 13.5735L53.0772 14.6216C52.37 15.3563 51.2132 15.7109 50.1915 15.7109C47.8778 15.7109 46.5025 14.2818 46.5025 12.1317C46.5025 10.0904 47.8915 8.62008 50.069 8.62008C52.3141 8.62008 53.7168 10.0081 53.4582 12.7703H48.2187ZM40.8968 6.00562V9.73468C41.4963 8.95889 42.2309 8.72669 42.993 8.72669C44.8981 8.72669 45.7425 10.0197 45.7425 11.9934V15.5325H44.0822V12.0072C44.0822 10.7828 43.4426 10.2656 42.557 10.2656C41.5765 10.2656 40.8968 11.0963 40.8968 12.1032V15.5336H39.2375V6.00773L40.8968 6.00562ZM36.4879 6.93129V8.83646H38.3393V10.2656H36.4753V13.164C36.4753 13.8047 36.8299 14.1171 37.3461 14.1171C37.6047 14.1171 37.9055 14.0348 38.1493 13.9123L38.6127 15.3278C38.1366 15.5177 37.7408 15.6001 37.2373 15.6138C35.7808 15.6687 34.8287 14.837 34.8287 13.165V10.2645H33.5779V8.83646H34.8298V7.10861L36.4879 6.93129ZM31.9018 11.396C31.7931 10.5253 31.1123 10.0883 30.1602 10.0883C29.262 10.0883 28.5263 10.5253 28.2815 11.396H31.9018ZM28.2551 12.7703C28.3627 13.601 29.0847 14.1994 30.2552 14.1994C30.8674 14.1994 31.6707 13.9672 32.0517 13.5735L33.1125 14.6216C32.4053 15.3563 31.2485 15.7109 30.2267 15.7109C27.9131 15.7109 26.5388 14.2818 26.5388 12.1317C26.5388 10.0904 27.9268 8.62008 30.1032 8.62008C32.3493 8.62008 33.75 10.0081 33.4924 12.7703H28.2551Z" fill="#5B5A5D"/>
<path d="M24.0151 7.00834V8.91351H25.8665V10.3427H24.0025V13.241C24.0025 13.8807 24.355 14.1931 24.8733 14.1931C25.1319 14.1931 25.4316 14.1118 25.6754 13.9894L26.1399 15.4038C25.6638 15.5937 25.268 15.6761 24.7645 15.6898C23.308 15.7447 22.3559 14.9151 22.3559 13.241V10.3427H21.1041V8.91351H22.3559V7.18566L24.0151 7.00834ZM55.9344 8.82379L56.0569 9.59958C56.574 8.76891 57.2686 8.64647 57.9494 8.64647C58.6428 8.64647 59.3099 8.91773 59.6772 9.28504L58.9278 10.7279C58.5879 10.4429 58.2755 10.292 57.7309 10.292C56.8601 10.292 56.0569 10.7543 56.0569 11.9924V15.5304H54.3966V8.82274L55.9344 8.82379ZM51.8655 11.396C51.7568 10.5253 51.076 10.0883 50.1239 10.0883C49.2267 10.0883 48.49 10.5253 48.2451 11.396H51.8655ZM48.2187 12.7703C48.3274 13.601 49.0484 14.1994 50.2189 14.1994C50.8311 14.1994 51.6354 13.9672 52.0164 13.5735L53.0772 14.6216C52.37 15.3563 51.2132 15.7109 50.1915 15.7109C47.8778 15.7109 46.5025 14.2818 46.5025 12.1317C46.5025 10.0904 47.8915 8.62008 50.069 8.62008C52.3141 8.62008 53.7168 10.0081 53.4582 12.7703H48.2187ZM40.8968 6.00562V9.73468C41.4963 8.95889 42.2309 8.72669 42.993 8.72669C44.8981 8.72669 45.7425 10.0197 45.7425 11.9934V15.5325H44.0822V12.0072C44.0822 10.7828 43.4426 10.2656 42.557 10.2656C41.5765 10.2656 40.8968 11.0963 40.8968 12.1032V15.5336H39.2375V6.00773L40.8968 6.00562ZM36.4879 6.93129V8.83646H38.3393V10.2656H36.4753V13.164C36.4753 13.8047 36.8299 14.1171 37.3461 14.1171C37.6047 14.1171 37.9055 14.0348 38.1493 13.9123L38.6127 15.3278C38.1366 15.5177 37.7408 15.6001 37.2373 15.6138C35.7808 15.6687 34.8287 14.837 34.8287 13.165V10.2645H33.5779V8.83646H34.8298V7.10861L36.4879 6.93129ZM31.9018 11.396C31.7931 10.5253 31.1123 10.0883 30.1602 10.0883C29.262 10.0883 28.5263 10.5253 28.2815 11.396H31.9018ZM28.2551 12.7703C28.3627 13.601 29.0847 14.1994 30.2552 14.1994C30.8674 14.1994 31.6707 13.9672 32.0517 13.5735L33.1125 14.6216C32.4053 15.3563 31.2485 15.7109 30.2267 15.7109C27.9131 15.7109 26.5388 14.2818 26.5388 12.1317C26.5388 10.0904 27.9268 8.62008 30.1032 8.62008C32.3493 8.62008 33.75 10.0081 33.4924 12.7703H28.2551Z" fill="#BCBCBC"/>
<path fill-rule="evenodd" clip-rule="evenodd" d="M17.2775 10.5475C17.2775 12.6509 16.4419 14.6682 14.9546 16.1555C13.4672 17.6429 11.4499 18.4785 9.3465 18.4785C7.24307 18.4785 5.22578 17.6429 3.73843 16.1555C2.25108 14.6682 1.4155 12.6509 1.4155 10.5475C1.4155 8.44402 2.25108 6.42674 3.73843 4.93939C5.22578 3.45204 7.24307 2.61646 9.3465 2.61646C11.4499 2.61646 13.4672 3.45204 14.9546 4.93939C16.4419 6.42674 17.2775 8.44402 17.2775 10.5475ZM10.192 11.2789V11.281C12.1235 11.1945 13.5664 10.8578 13.5664 10.4546C13.5664 10.0514 12.1256 9.71572 10.192 9.62812V10.9443C10.136 10.9496 9.83519 10.9749 9.23356 10.9749C8.7322 10.9749 8.36805 10.9538 8.24245 10.9443V9.62706C6.30667 9.71256 4.86064 10.0503 4.86064 10.4535C4.86064 10.8578 6.30667 11.1945 8.24245 11.28V11.2779C8.36805 11.2842 8.72059 11.2979 9.22406 11.2979C9.85419 11.2979 10.1371 11.281 10.192 11.2768V11.2789ZM10.192 8.31297V9.49196L10.1941 9.49301C12.3811 9.59434 14.0255 10.0292 14.0255 10.5485C14.0255 11.0678 12.3811 11.5016 10.1941 11.6019V15.3795H8.2435V11.6019C6.05335 11.5006 4.40466 11.0668 4.40466 10.5464C4.40466 10.026 6.05124 9.59329 8.2435 9.49196V8.31403H5.54671V6.51757H12.8887V8.31403L10.192 8.31297Z" fill="#34405E"/>
<path d="M24.0151 7.00834V8.91351H25.8665V10.3427H24.0025V13.241C24.0025 13.8807 24.355 14.1931 24.8733 14.1931C25.1319 14.1931 25.4316 14.1118 25.6754 13.9894L26.1399 15.4038C25.6638 15.5937 25.268 15.6761 24.7645 15.6898C23.308 15.7447 22.3559 14.9151 22.3559 13.241V10.3427H21.1041V8.91351H22.3559V7.18566L24.0151 7.00834ZM55.9344 8.82379L56.0569 9.59958C56.574 8.76891 57.2686 8.64647 57.9494 8.64647C58.6428 8.64647 59.3099 8.91773 59.6772 9.28504L58.9278 10.7279C58.5879 10.4429 58.2755 10.292 57.7309 10.292C56.8601 10.292 56.0569 10.7543 56.0569 11.9924V15.5304H54.3966V8.82274L55.9344 8.82379ZM51.8655 11.396C51.7568 10.5253 51.076 10.0883 50.1239 10.0883C49.2267 10.0883 48.49 10.5253 48.2451 11.396H51.8655ZM48.2187 12.7703C48.3274 13.601 49.0484 14.1994 50.2189 14.1994C50.8311 14.1994 51.6354 13.9672 52.0164 13.5735L53.0772 14.6216C52.37 15.3563 51.2132 15.7109 50.1915 15.7109C47.8778 15.7109 46.5025 14.2818 46.5025 12.1317C46.5025 10.0904 47.8915 8.62008 50.069 8.62008C52.3141 8.62008 53.7168 10.0081 53.4582 12.7703H48.2187ZM40.8968 6.00562V9.73468C41.4963 8.95889 42.2309 8.72669 42.993 8.72669C44.8981 8.72669 45.7425 10.0197 45.7425 11.9934V15.5325H44.0822V12.0072C44.0822 10.7828 43.4426 10.2656 42.557 10.2656C41.5765 10.2656 40.8968 11.0963 40.8968 12.1032V15.5336H39.2375V6.00773L40.8968 6.00562ZM36.4879 6.93129V8.83646H38.3393V10.2656H36.4753V13.164C36.4753 13.8047 36.8299 14.1171 37.3461 14.1171C37.6047 14.1171 37.9055 14.0348 38.1493 13.9123L38.6127 15.3278C38.1366 15.5177 37.7408 15.6001 37.2373 15.6138C35.7808 15.6687 34.8287 14.837 34.8287 13.165V10.2645H33.5779V8.83646H34.8298V7.10861L36.4879 6.93129ZM31.9018 11.396C31.7931 10.5253 31.1123 10.0883 30.1602 10.0883C29.262 10.0883 28.5263 10.5253 28.2815 11.396H31.9018ZM28.2551 12.7703C28.3627 13.601 29.0847 14.1994 30.2552 14.1994C30.8674 14.1994 31.6707 13.9672 32.0517 13.5735L33.1125 14.6216C32.4053 15.3563 31.2485 15.7109 30.2267 15.7109C27.9131 15.7109 26.5388 14.2818 26.5388 12.1317C26.5388 10.0904 27.9268 8.62008 30.1032 8.62008C32.3493 8.62008 33.75 10.0081 33.4924 12.7703H28.2551Z" fill="#34405E"/>
<path d="M24.0151 7.00834V8.91351H25.8665V10.3427H24.0025V13.241C24.0025 13.8807 24.355 14.1931 24.8733 14.1931C25.1319 14.1931 25.4316 14.1118 25.6754 13.9894L26.1399 15.4038C25.6638 15.5937 25.268 15.6761 24.7645 15.6898C23.308 15.7447 22.3559 14.9151 22.3559 13.241V10.3427H21.1041V8.91351H22.3559V7.18566L24.0151 7.00834ZM55.9344 8.82379L56.0569 9.59958C56.574 8.76891 57.2686 8.64647 57.9494 8.64647C58.6428 8.64647 59.3099 8.91773 59.6772 9.28504L58.9278 10.7279C58.5879 10.4429 58.2755 10.292 57.7309 10.292C56.8601 10.292 56.0569 10.7543 56.0569 11.9924V15.5304H54.3966V8.82274L55.9344 8.82379ZM51.8655 11.396C51.7568 10.5253 51.076 10.0883 50.1239 10.0883C49.2267 10.0883 48.49 10.5253 48.2451 11.396H51.8655ZM48.2187 12.7703C48.3274 13.601 49.0484 14.1994 50.2189 14.1994C50.8311 14.1994 51.6354 13.9672 52.0164 13.5735L53.0772 14.6216C52.37 15.3563 51.2132 15.7109 50.1915 15.7109C47.8778 15.7109 46.5025 14.2818 46.5025 12.1317C46.5025 10.0904 47.8915 8.62008 50.069 8.62008C52.3141 8.62008 53.7168 10.0081 53.4582 12.7703H48.2187ZM40.8968 6.00562V9.73468C41.4963 8.95889 42.2309 8.72669 42.993 8.72669C44.8981 8.72669 45.7425 10.0197 45.7425 11.9934V15.5325H44.0822V12.0072C44.0822 10.7828 43.4426 10.2656 42.557 10.2656C41.5765 10.2656 40.8968 11.0963 40.8968 12.1032V15.5336H39.2375V6.00773L40.8968 6.00562ZM36.4879 6.93129V8.83646H38.3393V10.2656H36.4753V13.164C36.4753 13.8047 36.8299 14.1171 37.3461 14.1171C37.6047 14.1171 37.9055 14.0348 38.1493 13.9123L38.6127 15.3278C38.1366 15.5177 37.7408 15.6001 37.2373 15.6138C35.7808 15.6687 34.8287 14.837 34.8287 13.165V10.2645H33.5779V8.83646H34.8298V7.10861L36.4879 6.93129ZM31.9018 11.396C31.7931 10.5253 31.1123 10.0883 30.1602 10.0883C29.262 10.0883 28.5263 10.5253 28.2815 11.396H31.9018ZM28.2551 12.7703C28.3627 13.601 29.0847 14.1994 30.2552 14.1994C30.8674 14.1994 31.6707 13.9672 32.0517 13.5735L33.1125 14.6216C32.4053 15.3563 31.2485 15.7109 30.2267 15.7109C27.9131 15.7109 26.5388 14.2818 26.5388 12.1317C26.5388 10.0904 27.9268 8.62008 30.1032 8.62008C32.3493 8.62008 33.75 10.0081 33.4924 12.7703H28.2551Z" fill="#34405E"/>
</svg>
