<svg width="45" height="20" viewBox="0 0 45 20" fill="none" xmlns="http://www.w3.org/2000/svg">
<mask id="mask0_1_6028" style="mask-type:luminance" maskUnits="userSpaceOnUse" x="1" y="0" width="43" height="20">
<path d="M1.28806 0.871094H43.108V19.8692H1.28806V0.871094Z" fill="white"/>
</mask>
<g mask="url(#mask0_1_6028)">
<path d="M21.7822 11.6156H22.4323V13.0721H22.9019L23.7441 11.6156H24.4554L23.4433 13.3254V13.337L24.5156 15.203H23.781L22.9135 13.6378H22.4449V15.203H21.7948V11.6145H21.7822V11.6156ZM25.972 12.5665C26.7529 12.5665 27.3925 13.1322 27.3925 13.9154C27.3925 14.7101 26.7667 15.2632 25.9836 15.2632C25.2005 15.2632 24.5747 14.7101 24.5747 13.9154C24.5641 13.1206 25.1889 12.5665 25.972 12.5665ZM27.898 12.6267H28.5112V14.65H29.3185V12.6277H29.9317V14.65H30.738V12.6277H31.3522V15.203H27.9223V12.6277H27.897L27.898 12.6267ZM33.1706 12.5665C33.9041 12.5665 34.3136 13.109 34.3136 13.7834C34.3115 13.8679 34.303 13.9523 34.2904 14.0357H32.5205C32.5564 14.4811 32.9057 14.7217 33.2909 14.7217C33.5548 14.7217 33.8207 14.6014 34.0244 14.4452L34.2777 14.9022C33.9857 15.1412 33.6207 15.273 33.2434 15.2759C32.3886 15.2759 31.8577 14.6616 31.8577 13.927C31.8577 13.1206 32.3991 12.5665 33.1706 12.5665ZM34.6144 14.6616C34.9278 14.613 35.1568 14.3492 35.1568 13.433V12.6277H37.0354V15.203H36.3958V13.1449H35.77V13.433C35.77 14.5518 35.4692 15.203 34.6144 15.2273V14.6616ZM38.8643 12.5665C39.5978 12.5665 40.0073 13.109 40.0073 13.7834C40.0052 13.8679 39.9967 13.9523 39.983 14.0357H38.2142C38.2501 14.4811 38.5994 14.7217 38.9846 14.7217C39.2485 14.7217 39.5144 14.6014 39.7192 14.4452L39.9724 14.9022C39.6799 15.1416 39.3141 15.2735 38.9361 15.2759C38.0812 15.2759 37.5525 14.6616 37.5525 13.927C37.5525 13.1206 38.0939 12.5665 38.8643 12.5665ZM40.5371 12.6267H41.1756V13.6146H41.488L42.1148 12.6277H42.824L42.0061 13.8552V13.8668L42.9201 15.203H42.175L41.4996 14.156H41.164V15.203H40.5255V12.6277H40.5371V12.6267ZM25.972 14.7101C26.3931 14.7101 26.7424 14.3851 26.7424 13.9027C26.7424 13.4341 26.3931 13.0964 25.972 13.0964C25.5498 13.0964 25.2132 13.4225 25.2132 13.9027C25.2132 14.3851 25.5509 14.7101 25.972 14.7101ZM33.6635 13.5903C33.6635 13.2526 33.4345 13.0489 33.1463 13.0489C32.8213 13.0489 32.5807 13.2652 32.5205 13.5903H33.6635ZM39.3572 13.5903C39.3572 13.2526 39.1292 13.0489 38.84 13.0489C38.515 13.0489 38.2744 13.2652 38.2142 13.5903H39.3572Z" fill="#2D3540"/>
<path d="M21.7822 11.6156H22.4323V13.0721H22.9019L23.7441 11.6156H24.4554L23.4433 13.3254V13.337L24.5156 15.203H23.781L22.9135 13.6378H22.4449V15.203H21.7948V11.6145H21.7822V11.6156ZM25.972 12.5665C26.7529 12.5665 27.3925 13.1322 27.3925 13.9154C27.3925 14.7101 26.7667 15.2632 25.9836 15.2632C25.2005 15.2632 24.5747 14.7101 24.5747 13.9154C24.5641 13.1206 25.1889 12.5665 25.972 12.5665ZM27.898 12.6267H28.5112V14.65H29.3185V12.6277H29.9317V14.65H30.738V12.6277H31.3522V15.203H27.9223V12.6277H27.897L27.898 12.6267ZM33.1706 12.5665C33.9041 12.5665 34.3136 13.109 34.3136 13.7834C34.3115 13.8679 34.303 13.9523 34.2904 14.0357H32.5205C32.5564 14.4811 32.9057 14.7217 33.2909 14.7217C33.5548 14.7217 33.8207 14.6014 34.0244 14.4452L34.2777 14.9022C33.9857 15.1412 33.6207 15.273 33.2434 15.2759C32.3886 15.2759 31.8577 14.6616 31.8577 13.927C31.8577 13.1206 32.3991 12.5665 33.1706 12.5665ZM34.6144 14.6616C34.9278 14.613 35.1568 14.3492 35.1568 13.433V12.6277H37.0354V15.203H36.3958V13.1449H35.77V13.433C35.77 14.5518 35.4692 15.203 34.6144 15.2273V14.6616ZM38.8643 12.5665C39.5978 12.5665 40.0073 13.109 40.0073 13.7834C40.0052 13.8679 39.9967 13.9523 39.983 14.0357H38.2142C38.2501 14.4811 38.5994 14.7217 38.9846 14.7217C39.2485 14.7217 39.5144 14.6014 39.7192 14.4452L39.9724 14.9022C39.6799 15.1416 39.3141 15.2735 38.9361 15.2759C38.0812 15.2759 37.5525 14.6616 37.5525 13.927C37.5525 13.1206 38.0939 12.5665 38.8643 12.5665ZM40.5371 12.6267H41.1756V13.6146H41.488L42.1148 12.6277H42.824L42.0061 13.8552V13.8668L42.9201 15.203H42.175L41.4996 14.156H41.164V15.203H40.5255V12.6277H40.5371V12.6267ZM25.972 14.7101C26.3931 14.7101 26.7424 14.3851 26.7424 13.9027C26.7424 13.4341 26.3931 13.0964 25.972 13.0964C25.5498 13.0964 25.2132 13.4225 25.2132 13.9027C25.2132 14.3851 25.5509 14.7101 25.972 14.7101ZM33.6635 13.5903C33.6635 13.2526 33.4345 13.0489 33.1463 13.0489C32.8213 13.0489 32.5807 13.2652 32.5205 13.5903H33.6635ZM39.3572 13.5903C39.3572 13.2526 39.1292 13.0489 38.84 13.0489C38.515 13.0489 38.2744 13.2652 38.2142 13.5903H39.3572Z" fill="#BCBCBC"/>
<path d="M30.775 3.80304V9.88243C30.7754 9.90471 30.7712 9.92684 30.7629 9.9475C30.7546 9.96817 30.7422 9.98696 30.7264 10.0028C30.7106 10.0184 30.6918 10.0306 30.6712 10.0388C30.6505 10.047 30.6284 10.0509 30.6061 10.0502H29.3671C29.3448 10.0508 29.3226 10.0469 29.3018 10.0386C29.2811 10.0303 29.2622 10.0179 29.2464 10.0021C29.2306 9.98628 29.2182 9.96743 29.2099 9.94668C29.2017 9.92593 29.1977 9.90371 29.1983 9.88137V3.80199C29.1975 3.76837 29.2072 3.73534 29.2259 3.70738C29.2445 3.67943 29.2714 3.65792 29.3028 3.64578C29.3233 3.638 29.3452 3.63442 29.3671 3.63523H30.6072C30.6294 3.63465 30.6516 3.63859 30.6722 3.64681C30.6929 3.65503 30.7117 3.66735 30.7275 3.68303C30.7433 3.69872 30.7557 3.71744 30.7641 3.73807C30.7724 3.75869 30.7754 3.7808 30.775 3.80304ZM40.4527 3.63417C40.5155 3.63912 40.5749 3.66473 40.6216 3.707C40.6574 3.74288 40.6574 3.80199 40.6458 3.85054L38.5984 9.94259C38.5862 9.97399 38.5649 10.0011 38.5373 10.0204C38.5097 10.0397 38.477 10.0505 38.4433 10.0513H37.3351C37.2634 10.0513 37.2032 10.0144 37.179 9.94259L35.9864 6.391L34.7938 9.94259C34.7814 9.97379 34.7601 10.0006 34.7325 10.0198C34.7049 10.0389 34.6723 10.0495 34.6387 10.0502H33.5306C33.4588 10.0502 33.3986 10.0144 33.3744 9.94259L31.328 3.85054C31.3164 3.80304 31.3164 3.75449 31.3523 3.707C31.3766 3.65845 31.4367 3.63417 31.4842 3.63417H32.8688C32.9406 3.63417 33.0008 3.68167 33.025 3.75449L34.1205 7.35357L35.3236 3.75449C35.3362 3.72269 35.358 3.69535 35.3862 3.67599C35.4144 3.65663 35.4477 3.64611 35.4819 3.64578H36.456C36.5278 3.64578 36.588 3.68167 36.6122 3.75449L37.8164 7.35357L38.9119 3.75449C38.9216 3.72035 38.942 3.69023 38.9701 3.66857C38.9982 3.64691 39.0326 3.63485 39.0681 3.63417H40.4527ZM42.5476 3.63417C42.632 3.63417 42.7038 3.707 42.7165 3.80304V9.88243C42.7168 9.90471 42.7127 9.92684 42.7044 9.9475C42.696 9.96817 42.6836 9.98696 42.6679 10.0028C42.6521 10.0184 42.6333 10.0306 42.6126 10.0388C42.5919 10.047 42.5698 10.0509 42.5476 10.0502H41.3075C41.2852 10.0508 41.263 10.0469 41.2423 10.0386C41.2215 10.0303 41.2027 10.0179 41.1869 10.0021C41.1711 9.98628 41.1586 9.96743 41.1504 9.94668C41.1421 9.92593 41.1381 9.90371 41.1387 9.88137V3.80199C41.1379 3.76849 41.1473 3.73555 41.1658 3.70761C41.1843 3.67968 41.211 3.65809 41.2421 3.64578C41.263 3.63786 41.2852 3.63427 41.3075 3.63523L42.5476 3.63417ZM28.4754 9.83388C28.5482 9.91831 28.488 10.0386 28.3793 10.0386H26.8617C26.8319 10.0395 26.8023 10.0334 26.7752 10.021C26.7481 10.0085 26.7243 9.99002 26.7055 9.96687L26.4533 9.6534C25.911 10.0034 25.2802 10.1916 24.6349 10.1959C23.7619 10.1691 22.9337 9.80345 22.3257 9.17645C21.7177 8.54945 21.3777 7.71035 21.3777 6.83693C21.3777 5.96352 21.7177 5.12442 22.3257 4.49741C22.9337 3.87041 23.7619 3.50477 24.6349 3.47797C25.5255 3.47825 26.3796 3.83214 27.0095 4.46187C27.6394 5.09161 27.9935 5.94568 27.9941 6.8364C27.9941 7.49923 27.801 8.12405 27.4643 8.65389L28.4754 9.83388ZM15.8004 12.7839C16.1128 12.9042 16.2331 13.3728 16.2574 13.5776C16.3049 13.9512 16.1972 14.0958 16.0769 14.0958C15.9566 14.0958 15.7877 13.9512 15.6073 13.663C15.4268 13.3739 15.354 13.0488 15.4511 12.8799C15.5102 12.7712 15.6442 12.7237 15.8004 12.7839ZM13.9693 14.1443C14.1937 14.1541 14.4071 14.244 14.5709 14.3976C14.9445 14.7101 15.0532 15.071 14.8611 15.3359C14.7998 15.4061 14.7237 15.4619 14.6384 15.4993C14.553 15.5367 14.4604 15.5548 14.3672 15.5523C14.1601 15.5545 13.9593 15.4817 13.8015 15.3475C13.4638 15.0594 13.3688 14.5771 13.5841 14.3132C13.6306 14.2569 13.6897 14.2122 13.7566 14.1829C13.8235 14.1536 13.8964 14.1403 13.9693 14.1443ZM9.75844 17.6231C8.67064 17.6235 7.59341 17.4096 6.58829 16.9936C5.58317 16.5775 4.66986 15.9675 3.90052 15.1984C3.13118 14.4293 2.52089 13.5162 2.10451 12.5111C1.68813 11.5061 1.47382 10.4289 1.47382 9.34098C1.47382 7.14429 2.34638 5.03757 3.89955 3.48428C5.45273 1.93098 7.55928 1.05835 9.7558 1.05835C11.9523 1.05835 14.0589 1.93098 15.612 3.48428C17.1652 5.03757 18.0378 7.14429 18.0378 9.34098C18.0378 10.8925 17.6051 12.3501 16.8705 13.5902C16.8463 13.6261 16.7861 13.6145 16.7735 13.5659C16.4853 11.5321 15.2453 10.4112 13.4385 10.0745C13.2823 10.0502 13.2591 9.9542 13.4638 9.93098C14.0168 9.88243 14.7999 9.89404 15.2083 9.96687C15.2978 9.19907 15.2238 8.42105 14.9914 7.68385C14.7589 6.94665 14.3732 6.26695 13.8596 5.68935C13.3459 5.11176 12.7159 4.64934 12.0109 4.33243C11.3059 4.01552 10.5419 3.8513 9.76899 3.85054C8.31665 3.85166 6.92412 4.42914 5.89716 5.45618C4.8702 6.48322 4.29276 7.87586 4.29164 9.32832C4.29276 10.7808 4.8702 12.1734 5.89716 13.2005C6.92412 14.2275 8.31665 14.805 9.76899 14.8061H10.0223C9.93643 14.3174 9.90001 13.8213 9.91358 13.3253C9.92624 12.9876 9.99801 12.9401 10.1426 13.205C10.9014 14.5169 11.9853 15.6969 14.1034 16.1666C15.8363 16.5518 17.5703 16.9972 19.4361 19.3688C19.605 19.5736 19.3517 19.791 19.1596 19.6221C17.2579 17.9366 15.5239 17.3824 13.9461 17.3824C12.1773 17.3941 10.9732 17.6231 9.75738 17.6231H9.75844ZM25.4665 8.48607L24.8048 7.67865C24.733 7.59422 24.7932 7.46229 24.9008 7.46229H26.2971C26.3699 7.27019 26.4058 7.05277 26.4058 6.8364C26.4058 5.83795 25.6596 4.97037 24.6359 4.97037C23.6133 4.97037 22.8671 5.83795 22.8671 6.8364C22.8671 7.83591 23.6133 8.69083 24.6359 8.69083C24.9251 8.70244 25.2143 8.618 25.4665 8.48607Z" fill="#FF5C00"/>
</g>
<mask id="mask1_1_6028" style="mask-type:luminance" maskUnits="userSpaceOnUse" x="1" y="0" width="43" height="20">
<path d="M1.28806 0.871094H43.108V19.8692H1.28806V0.871094Z" fill="white"/>
</mask>
<g mask="url(#mask1_1_6028)">
<path d="M21.7822 11.6156H22.4323V13.0721H22.9019L23.7441 11.6156H24.4554L23.4433 13.3254V13.337L24.5156 15.203H23.781L22.9135 13.6378H22.4449V15.203H21.7948V11.6145H21.7822V11.6156ZM25.972 12.5665C26.7529 12.5665 27.3925 13.1322 27.3925 13.9154C27.3925 14.7101 26.7667 15.2632 25.9836 15.2632C25.2016 15.2632 24.5747 14.7101 24.5747 13.9154C24.5641 13.1206 25.1889 12.5665 25.972 12.5665ZM27.898 12.6267H28.5112V14.65H29.3185V12.6277H29.9317V14.65H30.738V12.6277H31.3522V15.203H27.9223V12.6277H27.898V12.6267ZM33.1706 12.5665C33.9041 12.5665 34.3136 13.109 34.3136 13.7834C34.3115 13.8679 34.303 13.9523 34.2904 14.0357H32.5205C32.5564 14.4811 32.9057 14.7217 33.2909 14.7217C33.5548 14.7217 33.8207 14.6014 34.0244 14.4452L34.2777 14.9022C33.9857 15.1412 33.6207 15.273 33.2434 15.2759C32.3886 15.2759 31.8577 14.6616 31.8577 13.927C31.8577 13.1206 32.4002 12.5665 33.1706 12.5665ZM34.6144 14.6616C34.9278 14.613 35.1568 14.3492 35.1568 13.433V12.6277H37.0354V15.203H36.3969V13.1449H35.77V13.433C35.77 14.5518 35.4692 15.203 34.6144 15.2273V14.6616ZM38.8643 12.5665C39.5978 12.5665 40.0073 13.109 40.0073 13.7834C40.0052 13.8679 39.9967 13.9523 39.9841 14.0357H38.2142C38.2501 14.4811 38.5994 14.7217 38.9846 14.7217C39.2485 14.7217 39.5144 14.6014 39.7192 14.4452L39.9725 14.9022C39.6799 15.1416 39.3141 15.2735 38.9361 15.2759C38.0812 15.2759 37.5525 14.6616 37.5525 13.927C37.5525 13.1206 38.0939 12.5665 38.8643 12.5665ZM40.5371 12.6267H41.1756V13.6146H41.489L42.1148 12.6277H42.824L42.0061 13.8552V13.8668L42.9211 15.203H42.175L41.4996 14.156H41.164V15.203H40.5255V12.6277H40.5371V12.6267ZM25.972 14.7101C26.3941 14.7101 26.7424 14.3851 26.7424 13.9027C26.7424 13.4341 26.3941 13.0964 25.972 13.0964C25.5498 13.0964 25.2132 13.4225 25.2132 13.9027C25.2132 14.3851 25.5509 14.7101 25.972 14.7101ZM33.6635 13.5903C33.6635 13.2526 33.4355 13.0489 33.1463 13.0489C32.8213 13.0489 32.5807 13.2652 32.5205 13.5903H33.6635ZM39.3582 13.5903C39.3582 13.2526 39.1292 13.0489 38.8411 13.0489C38.5139 13.0489 38.2744 13.2652 38.2142 13.5903H39.3582Z" fill="#34405E"/>
<path d="M21.7822 11.6155H22.4323V13.072H22.902L23.7441 11.6155H24.4555L23.4434 13.3253V13.3369L24.5156 15.2029H23.7811L22.9136 13.6377H22.445V15.2029H21.7949V11.6144H21.7822V11.6155ZM25.972 12.5664C26.753 12.5664 27.3925 13.1322 27.3925 13.9153C27.3925 14.7101 26.7667 15.2631 25.9836 15.2631C25.2016 15.2631 24.5747 14.7101 24.5747 13.9153C24.5642 13.1205 25.1889 12.5664 25.972 12.5664ZM27.8981 12.6266H28.5112V14.6499H29.3186V12.6277H29.9318V14.6499H30.7381V12.6277H31.3523V15.2029H27.9223V12.6277H27.8981V12.6266ZM33.1707 12.5664C33.9042 12.5664 34.3136 13.1089 34.3136 13.7834C34.3115 13.8678 34.3031 13.9522 34.2904 14.0356H32.5206C32.5565 14.481 32.9058 14.7217 33.291 14.7217C33.5548 14.7217 33.8208 14.6013 34.0245 14.4451L34.2778 14.9021C33.9858 15.1411 33.6208 15.2729 33.2435 15.2758C32.3886 15.2758 31.8578 14.6615 31.8578 13.9269C31.8578 13.1205 32.4003 12.5664 33.1707 12.5664ZM34.6144 14.6615C34.9279 14.613 35.1569 14.3491 35.1569 13.433V12.6277H37.0354V15.2029H36.3969V13.1448H35.77V13.433C35.77 14.5517 35.4693 15.2029 34.6144 15.2272V14.6615ZM38.8644 12.5664C39.5979 12.5664 40.0073 13.1089 40.0073 13.7834C40.0052 13.8678 39.9968 13.9522 39.9841 14.0356H38.2143C38.2502 14.481 38.5995 14.7217 38.9847 14.7217C39.2485 14.7217 39.5145 14.6013 39.7192 14.4451L39.9725 14.9021C39.6799 15.1416 39.3142 15.2734 38.9361 15.2758C38.0813 15.2758 37.5526 14.6615 37.5526 13.9269C37.5526 13.1205 38.094 12.5664 38.8644 12.5664ZM40.5371 12.6266H41.1756V13.6145H41.4891L42.1149 12.6277H42.8241L42.0062 13.8551V13.8667L42.9212 15.2029H42.1751L41.4996 14.1559H41.164V15.2029H40.5255V12.6277H40.5371V12.6266ZM25.972 14.7101C26.3942 14.7101 26.7424 14.385 26.7424 13.9026C26.7424 13.434 26.3942 13.0963 25.972 13.0963C25.5499 13.0963 25.2132 13.4224 25.2132 13.9026C25.2132 14.385 25.5509 14.7101 25.972 14.7101ZM33.6635 13.5902C33.6635 13.2525 33.4356 13.0488 33.1464 13.0488C32.8214 13.0488 32.5807 13.2651 32.5206 13.5902H33.6635ZM39.3583 13.5902C39.3583 13.2525 39.1293 13.0488 38.8412 13.0488C38.514 13.0488 38.2744 13.2651 38.2143 13.5902H39.3583ZM30.775 3.80304V9.88243C30.7754 9.90472 30.7714 9.92688 30.763 9.94756C30.7547 9.96824 30.7423 9.98703 30.7265 10.0028C30.7107 10.0186 30.6919 10.031 30.6713 10.0393C30.6506 10.0477 30.6284 10.0517 30.6061 10.0513H29.3671C29.3448 10.0519 29.3226 10.0479 29.3018 10.0396C29.2811 10.0313 29.2622 10.0189 29.2464 10.0031C29.2306 9.98733 29.2182 9.96848 29.2099 9.94773C29.2017 9.92698 29.1977 9.90476 29.1983 9.88243V3.80304C29.1977 3.78071 29.2017 3.75849 29.2099 3.73774C29.2182 3.71699 29.2306 3.69814 29.2464 3.68234C29.2622 3.66654 29.2811 3.65413 29.3018 3.64584C29.3226 3.63756 29.3448 3.63359 29.3671 3.63417H30.6072C30.6295 3.63359 30.6517 3.63756 30.6725 3.64584C30.6932 3.65413 30.7121 3.66654 30.7279 3.68234C30.7437 3.69814 30.7561 3.71699 30.7644 3.73774C30.7727 3.75849 30.7756 3.78071 30.775 3.80304ZM40.4527 3.63417C40.5155 3.63912 40.5749 3.66473 40.6216 3.707C40.6574 3.74288 40.6574 3.80199 40.6458 3.85054L38.5984 9.94259C38.586 9.97391 38.5647 10.0009 38.5372 10.0202C38.5096 10.0395 38.4769 10.0504 38.4433 10.0513H37.3351C37.2634 10.0513 37.2032 10.0144 37.179 9.94259L35.9864 6.391L34.7949 9.94259C34.7824 9.97395 34.7609 10.0009 34.7331 10.0201C34.7053 10.0392 34.6724 10.0497 34.6387 10.0502H33.5306C33.4588 10.0502 33.3986 10.0144 33.3744 9.94259L31.328 3.85054C31.3164 3.80304 31.3164 3.75449 31.3523 3.707C31.3766 3.65845 31.4367 3.63417 31.4842 3.63417H32.8688C32.9406 3.63417 33.0018 3.68167 33.0261 3.75449L34.1205 7.35357L35.3247 3.75449C35.337 3.72293 35.3584 3.69575 35.3863 3.6764C35.4141 3.65704 35.447 3.64639 35.4809 3.64578H36.456C36.5289 3.64578 36.589 3.68167 36.6122 3.75449L37.8164 7.35357L38.9119 3.75449C38.9216 3.72035 38.942 3.69023 38.9701 3.66857C38.9982 3.64691 39.0326 3.63485 39.0681 3.63417H40.4527ZM42.5476 3.63417C42.632 3.63417 42.7038 3.707 42.7165 3.80304V9.88243C42.7169 9.90472 42.7128 9.92688 42.7045 9.94756C42.6962 9.96824 42.6837 9.98703 42.668 10.0028C42.6522 10.0186 42.6334 10.031 42.6127 10.0393C42.592 10.0477 42.5699 10.0517 42.5476 10.0513H41.3075C41.2852 10.0519 41.263 10.0479 41.2423 10.0396C41.2215 10.0313 41.2027 10.0189 41.1869 10.0031C41.1711 9.98733 41.1586 9.96848 41.1504 9.94773C41.1421 9.92698 41.1381 9.90476 41.1387 9.88243V3.80304C41.1381 3.78071 41.1421 3.75849 41.1504 3.73774C41.1586 3.71699 41.1711 3.69814 41.1869 3.68234C41.2027 3.66654 41.2215 3.65413 41.2423 3.64584C41.263 3.63756 41.2852 3.63359 41.3075 3.63417H42.5476ZM28.4754 9.83388C28.5482 9.91831 28.488 10.0386 28.3793 10.0386H26.8617C26.8319 10.0395 26.8023 10.0334 26.7752 10.021C26.7481 10.0085 26.7243 9.99002 26.7055 9.96687L26.4533 9.6534C25.911 10.0034 25.2802 10.1916 24.6349 10.1959C23.7619 10.1691 22.9337 9.80345 22.3257 9.17645C21.7177 8.54945 21.3777 7.71035 21.3777 6.83693C21.3777 5.96352 21.7177 5.12442 22.3257 4.49741C22.9337 3.87041 23.7619 3.50477 24.6349 3.47797C25.5255 3.47825 26.3796 3.83214 27.0095 4.46187C27.6394 5.09161 27.9935 5.94568 27.9941 6.8364C27.9944 7.48035 27.8105 8.11096 27.4643 8.65389L28.4754 9.83388ZM15.8004 12.7839C16.1128 12.9042 16.2331 13.3728 16.2574 13.5776C16.3049 13.9512 16.1972 14.0958 16.0769 14.0958C15.9566 14.0958 15.7877 13.9512 15.6073 13.663C15.4268 13.3739 15.354 13.0488 15.4511 12.8799C15.5102 12.7712 15.6442 12.7237 15.8004 12.7839ZM13.9693 14.1443C14.1937 14.1541 14.4071 14.244 14.5709 14.3976C14.9445 14.7101 15.0532 15.071 14.8611 15.3359C14.7998 15.4061 14.7237 15.4619 14.6384 15.4993C14.553 15.5367 14.4604 15.5548 14.3672 15.5523C14.1601 15.5545 13.9593 15.4817 13.8015 15.3475C13.4638 15.0594 13.3688 14.5771 13.5841 14.3132C13.6306 14.2569 13.6897 14.2122 13.7566 14.1829C13.8235 14.1536 13.8964 14.1403 13.9693 14.1443ZM9.75844 17.6231C8.67064 17.6235 7.59341 17.4096 6.58829 16.9936C5.58317 16.5775 4.66986 15.9675 3.90052 15.1984C3.13118 14.4293 2.52089 13.5162 2.10451 12.5111C1.68813 11.5061 1.47382 10.4289 1.47382 9.34098C1.47382 7.14429 2.34638 5.03757 3.89955 3.48428C5.45273 1.93098 7.55928 1.05835 9.7558 1.05835C11.9523 1.05835 14.0589 1.93098 15.612 3.48428C17.1652 5.03757 18.0378 7.14429 18.0378 9.34098C18.0378 10.8925 17.6051 12.3501 16.8705 13.5902C16.8463 13.6261 16.7861 13.6145 16.7735 13.5659C16.4853 11.5321 15.2453 10.4112 13.4385 10.0745C13.2823 10.0502 13.2591 9.9542 13.4638 9.93098C14.0168 9.88243 14.7999 9.89404 15.2083 9.96687C15.2978 9.19907 15.2238 8.42105 14.9914 7.68385C14.7589 6.94665 14.3732 6.26695 13.8596 5.68935C13.3459 5.11176 12.7159 4.64934 12.0109 4.33243C11.3059 4.01552 10.5419 3.8513 9.76899 3.85054C8.31665 3.85166 6.92412 4.42914 5.89716 5.45618C4.8702 6.48322 4.29276 7.87586 4.29164 9.32832C4.29276 10.781 4.87034 12.1738 5.89753 13.2008C6.92472 14.2279 8.31752 14.8053 9.77005 14.8061H10.0233C9.93713 14.3174 9.90036 13.8213 9.91358 13.3253C9.92624 12.9876 9.99801 12.9401 10.1426 13.205C10.9025 14.5169 11.9853 15.6969 14.1034 16.1666C15.8373 16.5518 17.5703 16.9972 19.4361 19.3688C19.605 19.5736 19.3517 19.791 19.1596 19.6221C17.2579 17.9366 15.5239 17.3824 13.9461 17.3824C12.1773 17.3941 10.9732 17.6231 9.75738 17.6231H9.75844ZM25.4676 8.48607L24.8048 7.67865C24.733 7.59422 24.7932 7.46229 24.9008 7.46229H26.2971C26.3699 7.27019 26.4058 7.05277 26.4058 6.8364C26.4058 5.83795 25.6596 4.97037 24.6359 4.97037C23.6133 4.97037 22.8671 5.83795 22.8671 6.8364C22.8671 7.83591 23.6133 8.69083 24.6359 8.69083C24.9251 8.70244 25.2143 8.618 25.4676 8.48607Z" fill="#34405E"/>
</g>
</svg>
