<svg width="78" height="20" viewBox="0 0 78 20" fill="none" xmlns="http://www.w3.org/2000/svg">
<path fill-rule="evenodd" clip-rule="evenodd" d="M22.0346 4.32279C22.4209 5.51344 22.8061 6.70515 23.1587 7.76175C23.5946 9.05268 24.0389 10.3521 24.4833 11.6525C24.9266 12.9519 25.372 14.2512 25.8079 15.5432C26.0085 16.1312 26.209 16.736 26.4127 17.3503C26.685 18.1736 26.9616 19.0107 27.2497 19.8361H23.6948L22.3196 15.8451L16.1144 15.8789L14.775 19.8699H11.1842L17.5224 0.884885H20.9105C21.262 1.94148 21.6483 3.13319 22.0335 4.32279H22.0346ZM19.2006 6.25127L17.1213 12.726H21.3475L19.2006 6.25127ZM11.2054 1.55621C12.6482 2.26026 13.4197 3.53536 13.7216 5.07751C14.091 6.95637 14.0235 8.80146 13.2519 10.5452C12.682 11.719 11.7088 12.4568 10.5013 12.9265C9.0659 13.4765 7.07104 13.4701 5.48466 13.4649L5.03502 13.4638V19.8361H1.51289V0.884885H7.34969C8.95929 0.884885 9.96411 1.01894 11.2054 1.55621ZM7.65155 10.2771C8.62471 10.1431 9.26116 9.57201 9.5968 8.63363C9.89867 7.82825 9.83218 6.95532 9.69813 6.08449C9.63058 5.41317 9.32871 4.77562 8.6912 4.37346C7.75182 3.80346 5.03608 3.86996 5.03608 3.86996V10.4122C5.03608 10.4122 6.8135 10.3784 7.65155 10.2782V10.2771ZM33.9594 0.884885L30.6726 7.79447L27.3859 0.884885H23.4954C24.4347 2.96431 25.4406 5.17884 26.3451 7.15693C27.084 8.73391 28.7939 12.6922 28.7939 12.6922L28.7611 19.8361H32.45V12.6922C33.6913 10.0079 34.999 7.1242 36.2392 4.43996C36.7427 3.33375 37.3475 2.05865 37.8499 0.884885C36.5759 0.884885 35.1668 0.851108 33.9594 0.884885Z" fill="white"/>
<path fill-rule="evenodd" clip-rule="evenodd" d="M54.7459 11.6704H60.4139V8.48375H54.7459V4.05786H61.1189V0.870117H51.1911V19.8224H62.1923V16.6347H54.7459V11.6704ZM42.2469 11.6704H47.9149V8.48375H42.2469V4.05786H48.6189V0.870117H38.691V19.8224H49.6585V16.6347H42.2469V11.6704ZM76.1679 6.47189C76.1679 8.95347 74.5911 10.9326 72.5118 11.738L76.9722 19.8214H72.7461L68.521 12.1402H67.1119V19.8214H63.5233V0.870117H70.6003C73.6855 0.870117 76.1679 2.88304 76.1679 6.47189ZM67.1119 9.0548H69.8277C71.0689 9.0548 72.0759 7.87998 72.0759 6.47189C72.0759 4.86113 70.9676 3.98925 69.6271 3.98925H67.1119V9.0548Z" fill="#2972D6"/>
<path fill-rule="evenodd" clip-rule="evenodd" d="M21.4012 4.32279C21.7876 5.51344 22.1728 6.70515 22.5253 7.76175C22.9612 9.05268 23.4056 10.3521 23.85 11.6525C24.2943 12.9519 24.7387 14.2512 25.1746 15.5432C25.3751 16.1312 25.5757 16.736 25.7794 17.3503C26.0517 18.1736 26.3282 19.0107 26.6174 19.8361H23.0615L21.6862 15.8451L15.4821 15.8789L14.1395 19.8699H10.5509L16.8891 0.884885H20.2772C20.6286 1.94148 21.016 3.13319 21.4012 4.32279ZM18.5673 6.25127L16.488 12.726H20.7141L18.5673 6.25127ZM10.572 1.55621C12.0149 2.26026 12.7864 3.53536 13.0883 5.07751C13.4577 6.95637 13.3902 8.80146 12.6186 10.5452C12.0486 11.719 11.0755 12.4568 9.86802 12.9265C8.43257 13.4765 6.43771 13.4701 4.85133 13.4649L4.40169 13.4638V19.8361H0.879559V0.884885H6.71636C8.32597 0.884885 9.33078 1.01894 10.572 1.55621ZM7.01823 10.2771C7.99138 10.1431 8.62889 9.57201 8.96348 8.63363C9.26534 7.82825 9.19885 6.95532 9.0648 6.08449C8.99725 5.41317 8.69538 4.77562 8.05787 4.37346C7.1185 3.80346 4.40275 3.86996 4.40275 3.86996V10.4122C4.40275 10.4122 6.18018 10.3784 7.01823 10.2782V10.2771ZM33.3261 0.884885L30.0393 7.79447L26.7525 0.884885H22.862C23.8014 2.96431 24.8073 5.17884 25.7118 7.15693C26.4507 8.73391 28.1605 12.6922 28.1605 12.6922L28.1278 19.8361H31.8167V12.6922C33.058 10.0079 34.3657 7.1242 35.6069 4.43996C36.1104 3.33375 36.7141 2.05865 37.2165 0.884885C35.9426 0.884885 34.5335 0.851108 33.3261 0.884885ZM54.1127 11.6704H59.7806V8.48374H54.1127V4.05785H60.4856V0.870108H50.5578V19.8224H61.5591V16.6347H54.1137L54.1127 11.6704ZM41.6137 11.6704H47.2816V8.48374H41.6137V4.05785H47.9856V0.870108H38.0578V19.8224H49.0253V16.6347H41.6137V11.6704ZM75.5347 6.47188C75.5347 8.95346 73.9578 10.9326 71.8785 11.738L76.339 19.8213H72.1128L67.8867 12.1401H66.4787V19.8213H62.89V0.870108H69.967C73.0522 0.870108 75.5347 2.88303 75.5347 6.47188ZM66.4787 9.05479H69.1955C70.4356 9.05479 71.4426 7.87997 71.4426 6.47188C71.4426 4.86112 70.3354 3.98924 68.9939 3.98924H66.4787V9.05479Z" fill="#34405E"/>
</svg>
