<svg width="48" height="20" viewBox="0 0 48 20" fill="none" xmlns="http://www.w3.org/2000/svg">
<path fill-rule="evenodd" clip-rule="evenodd" d="M10.0742 3.27678C9.54114 3.90589 8.68931 4.40306 7.83642 4.33234C7.73086 3.48051 8.14781 2.57484 8.63547 2.0154C9.16853 1.36623 10.1006 0.906006 10.8553 0.870117C10.944 1.75784 10.5978 2.62762 10.0742 3.27678ZM10.8458 4.50123C10.0964 4.45795 9.41025 4.72712 8.85714 4.94456C8.50036 5.08389 8.19953 5.20212 7.97047 5.20212C7.71292 5.20212 7.39836 5.07756 7.04581 4.93823C6.58347 4.75351 6.0557 4.54451 5.50153 4.55401C4.23275 4.57195 3.05264 5.29078 2.40347 6.43606C1.07242 8.72662 2.05725 12.1181 3.34503 13.9822C3.9752 14.9058 4.72992 15.9171 5.72425 15.8822C6.16125 15.8653 6.47581 15.7323 6.80092 15.5941C7.1767 15.4357 7.5662 15.27 8.17314 15.27C8.76109 15.27 9.1337 15.4305 9.49153 15.5846C9.83142 15.7323 10.1565 15.8727 10.6421 15.8643C11.6723 15.8463 12.3204 14.9407 12.9506 14.0171C13.6304 13.027 13.9291 12.0601 13.9745 11.9133L13.9798 11.8965C13.9719 11.8922 13.9638 11.8883 13.9555 11.8848C13.7285 11.7793 11.99 10.9845 11.9742 8.85117C11.9573 7.0599 13.3528 6.15317 13.5723 6.00962L13.5987 5.99273C12.711 4.67856 11.3261 4.53606 10.8458 4.50123ZM17.975 15.7672V1.92567H23.1684C25.8495 1.92567 27.722 3.7729 27.722 6.4709C27.722 9.16995 25.8136 11.0341 23.0976 11.0341H20.1231V15.7661L17.975 15.7672ZM20.1231 3.73806H22.6005C24.4646 3.73806 25.5296 4.7324 25.5296 6.4804C25.5296 8.22945 24.4646 9.23328 22.591 9.23328H20.1231V3.73806ZM34.8164 14.1068C34.2475 15.1898 32.9956 15.8738 31.6466 15.8738C29.6495 15.8738 28.2551 14.6831 28.2551 12.8908C28.2551 11.1153 29.6041 10.0936 32.0994 9.94262L34.7805 9.78323V9.02006C34.7805 7.89273 34.0438 7.27945 32.7296 7.27945C31.6466 7.27945 30.856 7.83889 30.6966 8.69178H28.7607C28.824 6.89734 30.5098 5.59267 32.7919 5.59267C35.2513 5.59267 36.8484 6.88045 36.8484 8.87756V15.7672H34.8597V14.1068H34.8164ZM32.224 14.2313C31.0787 14.2313 30.3504 13.6803 30.3504 12.838C30.3504 11.9672 31.0513 11.4616 32.3918 11.3813L34.7805 11.2304V12.0115C34.7805 13.3077 33.6796 14.2313 32.224 14.2313ZM43.4445 16.3087C42.5832 18.7322 41.5984 19.5313 39.5031 19.5313C39.3437 19.5313 38.8106 19.5133 38.6861 19.4785V17.8171C38.8201 17.835 39.1484 17.853 39.3163 17.853C40.2663 17.853 40.7993 17.454 41.1276 16.4153L41.3229 15.8031L37.6833 5.72567H39.9295L42.4597 13.902H42.504L45.0342 5.72567H47.2181L43.4445 16.3087Z" fill="white"/>
<path fill-rule="evenodd" clip-rule="evenodd" d="M10.0742 3.27678C9.54114 3.90589 8.68931 4.40306 7.83642 4.33234C7.73086 3.48051 8.14781 2.57484 8.63547 2.0154C9.16853 1.36623 10.1006 0.906006 10.8553 0.870117C10.944 1.75784 10.5978 2.62762 10.0742 3.27678ZM10.8458 4.50123C10.0964 4.45795 9.41025 4.72712 8.85714 4.94456C8.50036 5.08389 8.19953 5.20212 7.97047 5.20212C7.71292 5.20212 7.39836 5.07756 7.04581 4.93823C6.58347 4.75351 6.0557 4.54451 5.50153 4.55401C4.23275 4.57195 3.05264 5.29078 2.40347 6.43606C1.07242 8.72662 2.05725 12.1181 3.34503 13.9822C3.9752 14.9058 4.72992 15.9171 5.72425 15.8822C6.16125 15.8653 6.47581 15.7323 6.80092 15.5941C7.1767 15.4357 7.5662 15.27 8.17314 15.27C8.76109 15.27 9.1337 15.4305 9.49153 15.5846C9.83142 15.7323 10.1565 15.8727 10.6421 15.8643C11.6723 15.8463 12.3204 14.9407 12.9506 14.0171C13.6304 13.027 13.9291 12.0601 13.9745 11.9133L13.9798 11.8965C13.9719 11.8922 13.9638 11.8883 13.9555 11.8848C13.7285 11.7793 11.99 10.9845 11.9742 8.85117C11.9573 7.0599 13.3528 6.15317 13.5723 6.00962L13.5987 5.99273C12.711 4.67856 11.3261 4.53606 10.8458 4.50123ZM17.975 15.7672V1.92567H23.1684C25.8495 1.92567 27.722 3.7729 27.722 6.4709C27.722 9.16995 25.8136 11.0341 23.0976 11.0341H20.1231V15.7661L17.975 15.7672ZM20.1231 3.73806H22.6005C24.4646 3.73806 25.5296 4.7324 25.5296 6.4804C25.5296 8.22945 24.4646 9.23328 22.591 9.23328H20.1231V3.73806ZM34.8164 14.1068C34.2475 15.1898 32.9956 15.8738 31.6466 15.8738C29.6495 15.8738 28.2551 14.6831 28.2551 12.8908C28.2551 11.1153 29.6041 10.0936 32.0994 9.94262L34.7805 9.78323V9.02006C34.7805 7.89273 34.0438 7.27945 32.7296 7.27945C31.6466 7.27945 30.856 7.83889 30.6966 8.69178H28.7607C28.824 6.89734 30.5098 5.59267 32.7919 5.59267C35.2513 5.59267 36.8484 6.88045 36.8484 8.87756V15.7672H34.8597V14.1068H34.8164ZM32.224 14.2313C31.0787 14.2313 30.3504 13.6803 30.3504 12.838C30.3504 11.9672 31.0513 11.4616 32.3918 11.3813L34.7805 11.2304V12.0115C34.7805 13.3077 33.6796 14.2313 32.224 14.2313ZM43.4445 16.3087C42.5832 18.7322 41.5984 19.5313 39.5031 19.5313C39.3437 19.5313 38.8106 19.5133 38.6861 19.4785V17.8171C38.8201 17.835 39.1484 17.853 39.3163 17.853C40.2663 17.853 40.7993 17.454 41.1276 16.4153L41.3229 15.8031L37.6833 5.72567H39.9295L42.4597 13.902H42.504L45.0342 5.72567H47.2181L43.4445 16.3087Z" fill="#34405E"/>
</svg>
