<svg width="21" height="20" viewBox="0 0 21 20" fill="none" xmlns="http://www.w3.org/2000/svg">
<path d="M12.0973 12.1678C12.74 13.1832 13.1146 14.2366 13.2201 15.3291C14.1561 16.089 15.6472 16.4637 17.6944 16.449C17.745 15.6189 17.6206 14.7875 17.3293 14.0086H17.3504C17.138 13.507 16.8418 13.0451 16.4746 12.6428C16.4738 12.635 16.4716 12.6275 16.468 12.6206C16.4644 12.6137 16.4594 12.6076 16.4534 12.6027C16.3239 12.46 16.1808 12.3302 16.0261 12.2153C15.1259 11.525 14.0591 11.0965 12.8255 10.9329C12.7115 11.4078 12.4582 11.8385 12.0973 12.1678Z" fill="#FF4182"/>
<path d="M12.0973 12.1677C12.74 13.1831 13.1146 14.2365 13.2201 15.3289C14.1561 16.0889 15.6472 16.4636 17.6944 16.4488C17.745 15.6188 17.6206 14.7874 17.3293 14.0085H17.3504C17.138 13.5068 16.8418 13.045 16.4746 12.6427C16.4739 12.6349 16.4716 12.6274 16.468 12.6205C16.4644 12.6136 16.4594 12.6075 16.4535 12.6026C16.3239 12.4598 16.1808 12.3301 16.0261 12.2152C15.1259 11.5249 14.0591 11.0963 12.8255 10.9327C12.7115 11.4077 12.4582 11.8384 12.0973 12.1677ZM16.0271 7.36933H16.0482C16.6307 6.48693 17.0043 5.22454 17.1668 3.58216C16.2698 3.44706 15.4436 3.48717 14.6859 3.7046C14.033 3.90031 13.4296 4.23358 12.9162 4.68201V4.70312L12.7938 4.8245H12.7727C11.9601 5.68368 11.4199 6.75186 11.1497 8.02903C11.5201 8.13986 11.8599 8.33724 12.1385 8.60534C13.3826 7.79365 14.6785 7.37989 16.0271 7.36933Z" fill="#FF4182"/>
<path d="M16.0271 7.36933H16.0482C16.6307 6.48693 17.0043 5.22454 17.1668 3.58216C16.2698 3.44706 15.4436 3.48717 14.6859 3.7046C14.033 3.90031 13.4296 4.23358 12.9162 4.68201V4.70312L12.7938 4.8245H12.7727C11.9601 5.68368 11.4199 6.75186 11.1497 8.02903C11.5201 8.13986 11.8599 8.33724 12.1385 8.60534C13.3826 7.79365 14.6785 7.37989 16.0271 7.36933ZM16.4345 11.7054C16.5695 11.8141 16.6983 11.9291 16.8207 12.0516C17.7704 11.794 18.8204 11.204 19.9728 10.2804C19.5024 9.58967 18.8837 9.01269 18.1619 8.59162C17.5651 8.25051 16.8962 8.05522 16.2097 8.02164H16.0271C14.8136 8.0322 13.6528 8.3974 12.5448 9.11409C12.7579 9.46769 12.8761 9.86878 12.8909 10.2794C14.2469 10.4609 15.4277 10.9359 16.4345 11.7054Z" fill="#FF4182"/>
<path d="M16.4345 11.7055C16.5695 11.8142 16.6983 11.9292 16.8207 12.0517C17.7704 11.7941 18.8204 11.2041 19.9728 10.2805C19.5024 9.58976 18.8837 9.01278 18.1619 8.5917C17.5651 8.2506 16.8962 8.05531 16.2097 8.02173H16.0271C14.8136 8.03228 13.6528 8.39749 12.5448 9.11418C12.7579 9.46778 12.8761 9.86887 12.8909 10.2795C14.2469 10.461 15.4277 10.936 16.4345 11.7055ZM10.01 12.7662C10.54 12.8655 11.0879 12.7845 11.5665 12.5361C12.168 13.4924 12.5078 14.4783 12.5891 15.4916V15.5327C12.6028 15.6605 12.6102 15.7892 12.6102 15.9191C12.6007 16.6706 12.3981 17.4073 12.0192 18.0575C11.6404 18.7373 11.0779 19.3421 10.3319 19.8698H10.3277C9.58264 19.3389 9.0223 18.7352 8.64346 18.0586C8.30859 17.4829 8.11038 16.8379 8.06412 16.1734C8.23507 16.0151 8.38703 15.8367 8.51894 15.6436L8.53793 15.6246C9.18543 14.7611 9.68308 13.7949 10.01 12.7662Z" fill="#FF4182"/>
<path d="M10.01 12.7662C10.54 12.8654 11.0879 12.7844 11.5665 12.5361C12.168 13.4924 12.5078 14.4782 12.5891 15.4915V15.5327C12.6028 15.6604 12.6102 15.7892 12.6102 15.919C12.6007 16.6705 12.3981 17.4073 12.0192 18.0575C11.6404 18.7372 11.0779 19.342 10.3319 19.8698H10.3277C9.58264 19.3389 9.0223 18.7351 8.64346 18.0585C8.30859 17.4828 8.11038 16.8379 8.06412 16.1734C8.23507 16.0151 8.38703 15.8367 8.51894 15.6435L8.53793 15.6245C9.18543 14.7611 9.68308 13.7948 10.01 12.7662ZM8.29839 5.23198V5.25309C8.42502 6.25265 8.77642 7.23322 9.35154 8.19479C9.69434 8.01876 10.0742 7.92721 10.4596 7.92775H10.5071C10.8036 6.52392 11.403 5.34597 12.3052 4.39707C12.3081 4.39764 12.3111 4.3975 12.3139 4.39664C12.3168 4.39579 12.3193 4.39425 12.3214 4.39216C12.3235 4.39007 12.325 4.3875 12.3259 4.38467C12.3268 4.38185 12.3269 4.37885 12.3263 4.37596C12.3242 4.37068 12.3263 4.3654 12.3305 4.36118C12.3326 4.35908 12.3351 4.35751 12.3378 4.35659C12.3406 4.35567 12.3435 4.35543 12.3464 4.3559C12.1427 3.31095 11.5127 2.14988 10.4553 0.870605C9.77584 1.35641 9.20718 1.98097 8.78697 2.70297C8.48913 3.22944 8.30237 3.8114 8.23824 4.4129C8.2634 4.44846 8.27737 4.49073 8.27834 4.53428C8.2509 4.76649 8.25723 5.00187 8.29944 5.23092L8.29839 5.23198Z" fill="#FF4182"/>
<path d="M8.2984 5.23198V5.25309C8.42506 6.25265 8.77655 7.23322 9.3518 8.19479C9.69468 8.01876 10.0747 7.92721 10.4601 7.92775H10.5076C10.8042 6.52392 11.4037 5.34597 12.3062 4.39707C12.3091 4.39764 12.3121 4.3975 12.3149 4.39664C12.3177 4.39579 12.3203 4.39425 12.3224 4.39216C12.3245 4.39007 12.326 4.3875 12.3269 4.38467C12.3277 4.38185 12.3279 4.37885 12.3273 4.37596C12.3252 4.37068 12.3273 4.3654 12.3315 4.36118C12.3335 4.35908 12.336 4.35751 12.3388 4.35659C12.3415 4.35567 12.3445 4.35543 12.3473 4.3559C12.1436 3.31095 11.5135 2.14988 10.4559 0.870605C9.7762 1.35641 9.20741 1.98097 8.7871 2.70297C8.48918 3.22944 8.30238 3.8114 8.23824 4.4129C8.26341 4.44846 8.27738 4.49073 8.27834 4.53428C8.2509 4.76649 8.25723 5.00187 8.29946 5.23092L8.2984 5.23198Z" fill="#FF4182"/>
<path d="M11.0849 12.0802C11.1165 12.0697 11.1482 12.0612 11.1788 12.0485C11.5579 11.8935 11.8719 11.6126 12.068 11.2531C12.2641 10.8935 12.3303 10.4774 12.2554 10.0747C12.2459 10.022 12.2364 9.96919 12.2238 9.91642C12.1121 9.49666 11.8584 9.12854 11.506 8.87463C11.4807 8.85774 11.4553 8.84085 11.4268 8.82396C11.3689 8.78825 11.309 8.75583 11.2474 8.72686C11.2052 8.70575 11.163 8.68464 11.1165 8.66669C10.9054 8.58225 10.6795 8.53792 10.4516 8.53687C10.4304 8.53687 10.4104 8.5432 10.3903 8.5432V8.54953C10.1497 8.56009 9.91325 8.61497 9.69159 8.70786C9.27748 8.88664 8.94442 9.21269 8.75686 9.6229C8.5693 10.0331 8.54059 10.4983 8.67627 10.9285C8.81195 11.3586 9.10238 11.7232 9.49136 11.9515C9.88033 12.1799 10.3402 12.2558 10.7819 12.1647L10.8611 12.1488C10.9371 12.1309 11.012 12.1087 11.0849 12.0802Z" fill="#FFD833"/>
<path d="M4.61981 8.04391L4.60714 8.02808C3.55716 8.1484 2.35099 8.67299 0.9897 9.60395C1.46246 10.3787 2.02491 10.9867 2.67812 11.4289C3.24796 11.8036 3.89062 12.0517 4.56388 12.1572L4.57971 12.1435L4.75066 12.1583L4.76543 12.1762C5.94311 12.2459 7.10812 11.9736 8.26046 11.3593C8.1072 11.0039 8.04064 10.6171 8.06629 10.2309C6.64591 9.79922 5.49673 9.06986 4.61981 8.04391Z" fill="#FF4182"/>
<path d="M4.61981 8.04397L4.60714 8.02814C3.55716 8.14847 2.35099 8.67306 0.9897 9.60402C1.46246 10.3788 2.02491 10.9867 2.67812 11.429C3.24796 11.8037 3.89062 12.0517 4.56388 12.1573L4.57971 12.1436L4.75066 12.1584L4.76543 12.1763C5.94311 12.246 7.10812 11.9736 8.26046 11.3593C8.1072 11.0039 8.04064 10.6172 8.06629 10.231C6.64591 9.79929 5.49673 9.06993 4.61981 8.04397ZM7.6769 4.945C7.67292 4.77171 7.67856 4.59834 7.69379 4.42568C6.88651 3.86415 5.75843 3.43773 4.31167 3.14746C4.08547 3.95199 4.04149 4.79685 4.18293 5.62052C4.30534 6.2971 4.58498 6.93569 5.00075 7.4835L5.11894 7.62388C5.90723 8.54745 6.93189 9.20292 8.19398 9.59135C8.32694 9.20081 8.55805 8.8525 8.86407 8.57806C8.12961 7.42122 7.736 6.2095 7.6769 4.945Z" fill="#FF4182"/>
<path d="M7.67683 4.945C7.67285 4.77171 7.67849 4.59834 7.69372 4.42568C6.88644 3.86415 5.75836 3.43773 4.3116 3.14746C4.0854 3.95199 4.04142 4.79685 4.18285 5.62052C4.30527 6.2971 4.58491 6.93569 5.00068 7.4835L5.11887 7.62388C5.90715 8.54745 6.93182 9.20292 8.19391 9.59135C8.32687 9.20081 8.55798 8.8525 8.864 8.57806C8.12954 7.42122 7.73593 6.2095 7.67683 4.945ZM7.95225 15.3449L7.96808 15.3312C8.65189 14.5913 9.17742 13.692 9.54254 12.6323C9.18728 12.4826 8.87289 12.2503 8.62551 11.9546L8.59596 11.9188C7.32965 12.5943 6.04434 12.8898 4.73792 12.8085C4.73642 12.8062 4.73439 12.8043 4.73201 12.8029C4.72963 12.8015 4.72696 12.8006 4.7242 12.8004C4.72144 12.8002 4.71867 12.8007 4.71611 12.8017C4.71355 12.8027 4.71126 12.8044 4.70943 12.8064C4.70753 12.8087 4.70508 12.8105 4.70232 12.8116C4.69955 12.8127 4.69656 12.8131 4.6936 12.8128C4.69082 12.8125 4.68812 12.8116 4.68574 12.8102C4.68336 12.8087 4.68135 12.8067 4.67988 12.8043C4.01085 13.6318 3.52754 14.8626 3.2289 16.4944C4.03723 16.7034 4.88038 16.7372 5.70243 16.5957C6.29706 16.4857 6.86276 16.2547 7.36447 15.917C7.37569 15.8749 7.3992 15.837 7.43201 15.8083C7.62723 15.6806 7.80241 15.5244 7.95225 15.3449Z" fill="#FF4182"/>
<path d="M7.95225 15.3449L7.96808 15.3312C8.65189 14.5913 9.17742 13.692 9.54254 12.6322C9.18728 12.4826 8.87289 12.2503 8.62551 11.9546L8.59596 11.9187C7.32965 12.5942 6.04434 12.8898 4.73792 12.8085C4.73642 12.8062 4.73439 12.8042 4.73201 12.8028C4.72963 12.8014 4.72696 12.8006 4.7242 12.8004C4.72144 12.8002 4.71867 12.8006 4.71611 12.8016C4.71355 12.8027 4.71126 12.8043 4.70943 12.8064C4.70753 12.8087 4.70508 12.8104 4.70232 12.8116C4.69955 12.8127 4.69656 12.8131 4.6936 12.8127C4.69082 12.8125 4.68812 12.8116 4.68574 12.8101C4.68336 12.8087 4.68135 12.8067 4.67988 12.8043C4.01085 13.6318 3.52754 14.8625 3.2289 16.4943C4.03723 16.7033 4.88038 16.7371 5.70243 16.5957C6.29706 16.4856 6.86276 16.2546 7.36447 15.917C7.37569 15.8748 7.3992 15.837 7.43201 15.8083C7.62723 15.6805 7.80241 15.5233 7.95225 15.3438V15.3449Z" fill="#FF4182"/>
<path d="M12.0973 12.1678C12.74 13.1832 13.1146 14.2366 13.2201 15.3291C14.1561 16.089 15.6472 16.4637 17.6944 16.449C17.745 15.6189 17.6206 14.7875 17.3293 14.0086H17.3504C17.138 13.507 16.8418 13.0451 16.4746 12.6428C16.4738 12.635 16.4716 12.6275 16.468 12.6206C16.4644 12.6137 16.4594 12.6076 16.4534 12.6027C16.3239 12.46 16.1808 12.3302 16.0261 12.2153C15.1259 11.525 14.0591 11.0965 12.8255 10.9329C12.7115 11.4078 12.4582 11.8385 12.0973 12.1678Z" fill="#34405E"/>
<path d="M12.0973 12.1677C12.74 13.1831 13.1146 14.2365 13.2201 15.3289C14.1561 16.0889 15.6472 16.4636 17.6944 16.4488C17.745 15.6188 17.6206 14.7874 17.3293 14.0085H17.3504C17.138 13.5068 16.8418 13.045 16.4746 12.6427C16.4739 12.6349 16.4716 12.6274 16.468 12.6205C16.4644 12.6136 16.4594 12.6075 16.4535 12.6026C16.3239 12.4598 16.1808 12.3301 16.0261 12.2152C15.1259 11.5249 14.0591 11.0963 12.8255 10.9327C12.7115 11.4077 12.4582 11.8384 12.0973 12.1677ZM16.0271 7.36933H16.0482C16.6307 6.48693 17.0043 5.22454 17.1668 3.58216C16.2698 3.44706 15.4436 3.48717 14.6859 3.7046C14.033 3.90031 13.4296 4.23358 12.9162 4.68201V4.70312L12.7938 4.8245H12.7727C11.9601 5.68368 11.4199 6.75186 11.1497 8.02903C11.5201 8.13986 11.8599 8.33724 12.1385 8.60534C13.3826 7.79365 14.6785 7.37989 16.0271 7.36933Z" fill="#34405E"/>
<path d="M16.0271 7.36933H16.0482C16.6307 6.48693 17.0043 5.22454 17.1668 3.58216C16.2698 3.44706 15.4436 3.48717 14.6859 3.7046C14.033 3.90031 13.4296 4.23358 12.9162 4.68201V4.70312L12.7938 4.8245H12.7727C11.9601 5.68368 11.4199 6.75186 11.1497 8.02903C11.5201 8.13986 11.8599 8.33724 12.1385 8.60534C13.3826 7.79365 14.6785 7.37989 16.0271 7.36933ZM16.4345 11.7054C16.5695 11.8141 16.6983 11.9291 16.8207 12.0516C17.7704 11.794 18.8204 11.204 19.9728 10.2804C19.5024 9.58967 18.8837 9.01269 18.1619 8.59162C17.5651 8.25051 16.8962 8.05522 16.2097 8.02164H16.0271C14.8136 8.0322 13.6528 8.3974 12.5448 9.11409C12.7579 9.46769 12.8761 9.86878 12.8909 10.2794C14.2469 10.4609 15.4277 10.9359 16.4345 11.7054Z" fill="#34405E"/>
<path d="M16.4345 11.7055C16.5695 11.8142 16.6983 11.9292 16.8207 12.0517C17.7704 11.7941 18.8204 11.2041 19.9728 10.2805C19.5024 9.58976 18.8837 9.01278 18.1619 8.5917C17.5651 8.2506 16.8962 8.05531 16.2097 8.02173H16.0271C14.8136 8.03228 13.6528 8.39749 12.5448 9.11418C12.7579 9.46778 12.8761 9.86887 12.8909 10.2795C14.2469 10.461 15.4277 10.936 16.4345 11.7055ZM10.01 12.7662C10.54 12.8655 11.0879 12.7845 11.5665 12.5361C12.168 13.4924 12.5078 14.4783 12.5891 15.4916V15.5327C12.6028 15.6605 12.6102 15.7892 12.6102 15.9191C12.6007 16.6706 12.3981 17.4073 12.0192 18.0575C11.6404 18.7373 11.0779 19.3421 10.3319 19.8698H10.3277C9.58264 19.3389 9.0223 18.7352 8.64346 18.0586C8.30859 17.4829 8.11038 16.8379 8.06412 16.1734C8.23507 16.0151 8.38703 15.8367 8.51894 15.6436L8.53793 15.6246C9.18543 14.7611 9.68308 13.7949 10.01 12.7662Z" fill="#34405E"/>
<path d="M10.01 12.7662C10.54 12.8654 11.0879 12.7844 11.5665 12.5361C12.168 13.4924 12.5078 14.4782 12.5891 15.4915V15.5327C12.6028 15.6604 12.6102 15.7892 12.6102 15.919C12.6007 16.6705 12.3981 17.4073 12.0192 18.0575C11.6404 18.7372 11.0779 19.342 10.3319 19.8698H10.3277C9.58264 19.3389 9.0223 18.7351 8.64346 18.0585C8.30859 17.4828 8.11038 16.8379 8.06412 16.1734C8.23507 16.0151 8.38703 15.8367 8.51894 15.6435L8.53793 15.6245C9.18543 14.7611 9.68308 13.7948 10.01 12.7662ZM8.29839 5.23198V5.25309C8.42502 6.25265 8.77642 7.23322 9.35154 8.19479C9.69434 8.01876 10.0742 7.92721 10.4596 7.92775H10.5071C10.8036 6.52392 11.403 5.34597 12.3052 4.39707C12.3081 4.39764 12.3111 4.3975 12.3139 4.39664C12.3168 4.39579 12.3193 4.39425 12.3214 4.39216C12.3235 4.39007 12.325 4.3875 12.3259 4.38467C12.3268 4.38185 12.3269 4.37885 12.3263 4.37596C12.3242 4.37068 12.3263 4.3654 12.3305 4.36118C12.3326 4.35908 12.3351 4.35751 12.3378 4.35659C12.3406 4.35567 12.3435 4.35543 12.3464 4.3559C12.1427 3.31095 11.5127 2.14988 10.4553 0.870605C9.77584 1.35641 9.20718 1.98097 8.78697 2.70297C8.48913 3.22944 8.30237 3.8114 8.23824 4.4129C8.2634 4.44846 8.27737 4.49073 8.27834 4.53428C8.2509 4.76649 8.25723 5.00187 8.29944 5.23092L8.29839 5.23198Z" fill="#34405E"/>
<path d="M8.2984 5.23198V5.25309C8.42506 6.25265 8.77655 7.23322 9.3518 8.19479C9.69468 8.01876 10.0747 7.92721 10.4601 7.92775H10.5076C10.8042 6.52392 11.4037 5.34597 12.3062 4.39707C12.3091 4.39764 12.3121 4.3975 12.3149 4.39664C12.3177 4.39579 12.3203 4.39425 12.3224 4.39216C12.3245 4.39007 12.326 4.3875 12.3269 4.38467C12.3277 4.38185 12.3279 4.37885 12.3273 4.37596C12.3252 4.37068 12.3273 4.3654 12.3315 4.36118C12.3335 4.35908 12.336 4.35751 12.3388 4.35659C12.3415 4.35567 12.3445 4.35543 12.3473 4.3559C12.1436 3.31095 11.5135 2.14988 10.4559 0.870605C9.7762 1.35641 9.20741 1.98097 8.7871 2.70297C8.48918 3.22944 8.30238 3.8114 8.23824 4.4129C8.26341 4.44846 8.27738 4.49073 8.27834 4.53428C8.2509 4.76649 8.25723 5.00187 8.29946 5.23092L8.2984 5.23198Z" fill="#34405E"/>
<path d="M11.0849 12.0802C11.1165 12.0697 11.1482 12.0612 11.1788 12.0485C11.5579 11.8935 11.8719 11.6126 12.068 11.2531C12.2641 10.8935 12.3303 10.4774 12.2554 10.0747C12.2459 10.022 12.2364 9.96919 12.2238 9.91642C12.1121 9.49666 11.8584 9.12854 11.506 8.87463C11.4807 8.85774 11.4553 8.84085 11.4268 8.82396C11.3689 8.78825 11.309 8.75583 11.2474 8.72686C11.2052 8.70575 11.163 8.68464 11.1165 8.66669C10.9054 8.58225 10.6795 8.53792 10.4516 8.53687C10.4304 8.53687 10.4104 8.5432 10.3903 8.5432V8.54953C10.1497 8.56009 9.91325 8.61497 9.69159 8.70786C9.27748 8.88664 8.94442 9.21269 8.75686 9.6229C8.5693 10.0331 8.54059 10.4983 8.67627 10.9285C8.81195 11.3586 9.10238 11.7232 9.49136 11.9515C9.88033 12.1799 10.3402 12.2558 10.7819 12.1647L10.8611 12.1488C10.9371 12.1309 11.012 12.1087 11.0849 12.0802Z" fill="#5D6375"/>
<path d="M4.61981 8.04391L4.60714 8.02808C3.55716 8.1484 2.35099 8.67299 0.9897 9.60395C1.46246 10.3787 2.02491 10.9867 2.67812 11.4289C3.24796 11.8036 3.89062 12.0517 4.56388 12.1572L4.57971 12.1435L4.75066 12.1583L4.76543 12.1762C5.94311 12.2459 7.10812 11.9736 8.26046 11.3593C8.1072 11.0039 8.04064 10.6171 8.06629 10.2309C6.64591 9.79922 5.49673 9.06986 4.61981 8.04391Z" fill="#34405E"/>
<path d="M4.61981 8.04397L4.60714 8.02814C3.55716 8.14847 2.35099 8.67306 0.9897 9.60402C1.46246 10.3788 2.02491 10.9867 2.67812 11.429C3.24796 11.8037 3.89062 12.0517 4.56388 12.1573L4.57971 12.1436L4.75066 12.1584L4.76543 12.1763C5.94311 12.246 7.10812 11.9736 8.26046 11.3593C8.1072 11.0039 8.04064 10.6172 8.06629 10.231C6.64591 9.79929 5.49673 9.06993 4.61981 8.04397ZM7.6769 4.945C7.67292 4.77171 7.67856 4.59834 7.69379 4.42568C6.88651 3.86415 5.75843 3.43773 4.31167 3.14746C4.08547 3.95199 4.04149 4.79685 4.18293 5.62052C4.30534 6.2971 4.58498 6.93569 5.00075 7.4835L5.11894 7.62388C5.90723 8.54745 6.93189 9.20292 8.19398 9.59135C8.32694 9.20081 8.55805 8.8525 8.86407 8.57806C8.12961 7.42122 7.736 6.2095 7.6769 4.945Z" fill="#34405E"/>
<path d="M7.67683 4.945C7.67285 4.77171 7.67849 4.59834 7.69372 4.42568C6.88644 3.86415 5.75836 3.43773 4.3116 3.14746C4.0854 3.95199 4.04142 4.79685 4.18285 5.62052C4.30527 6.2971 4.58491 6.93569 5.00068 7.4835L5.11887 7.62388C5.90715 8.54745 6.93182 9.20292 8.19391 9.59135C8.32687 9.20081 8.55798 8.8525 8.864 8.57806C8.12954 7.42122 7.73593 6.2095 7.67683 4.945ZM7.95225 15.3449L7.96808 15.3312C8.65189 14.5913 9.17742 13.692 9.54254 12.6323C9.18728 12.4826 8.87289 12.2503 8.62551 11.9546L8.59596 11.9188C7.32965 12.5943 6.04434 12.8898 4.73792 12.8085C4.73642 12.8062 4.73439 12.8043 4.73201 12.8029C4.72963 12.8015 4.72696 12.8006 4.7242 12.8004C4.72144 12.8002 4.71867 12.8007 4.71611 12.8017C4.71355 12.8027 4.71126 12.8044 4.70943 12.8064C4.70753 12.8087 4.70508 12.8105 4.70232 12.8116C4.69955 12.8127 4.69656 12.8131 4.6936 12.8128C4.69082 12.8125 4.68812 12.8116 4.68574 12.8102C4.68336 12.8087 4.68135 12.8067 4.67988 12.8043C4.01085 13.6318 3.52754 14.8626 3.2289 16.4944C4.03723 16.7034 4.88038 16.7372 5.70243 16.5957C6.29706 16.4857 6.86276 16.2547 7.36447 15.917C7.37569 15.8749 7.3992 15.837 7.43201 15.8083C7.62723 15.6806 7.80241 15.5244 7.95225 15.3449Z" fill="#34405E"/>
<path d="M7.95225 15.3449L7.96808 15.3312C8.65189 14.5913 9.17742 13.692 9.54254 12.6322C9.18728 12.4826 8.87289 12.2503 8.62551 11.9546L8.59596 11.9187C7.32965 12.5942 6.04434 12.8898 4.73792 12.8085C4.73642 12.8062 4.73439 12.8042 4.73201 12.8028C4.72963 12.8014 4.72696 12.8006 4.7242 12.8004C4.72144 12.8002 4.71867 12.8006 4.71611 12.8016C4.71355 12.8027 4.71126 12.8043 4.70943 12.8064C4.70753 12.8087 4.70508 12.8104 4.70232 12.8116C4.69955 12.8127 4.69656 12.8131 4.6936 12.8127C4.69082 12.8125 4.68812 12.8116 4.68574 12.8101C4.68336 12.8087 4.68135 12.8067 4.67988 12.8043C4.01085 13.6318 3.52754 14.8625 3.2289 16.4943C4.03723 16.7033 4.88038 16.7371 5.70243 16.5957C6.29706 16.4856 6.86276 16.2546 7.36447 15.917C7.37569 15.8748 7.3992 15.837 7.43201 15.8083C7.62723 15.6805 7.80241 15.5233 7.95225 15.3438V15.3449Z" fill="#34405E"/>
</svg>
