<svg width="17" height="17" viewBox="0 0 17 17" fill="none" xmlns="http://www.w3.org/2000/svg">
<g clip-path="url(#clip0_1_3362)">
<g clip-path="url(#clip1_1_3362)">
<g clip-path="url(#clip2_1_3362)">
<path d="M1.37927 11.8278V5.81677L4.41189 8.8494L1.37927 11.8278Z" fill="#FCC22D"/>
<path d="M15.8807 5.85291V11.864L12.8481 8.86144L15.8807 5.85291Z" fill="#FCC22D"/>
<path fill-rule="evenodd" clip-rule="evenodd" d="M11.0548 7.13415C11.0611 7.63455 10.9164 8.1252 10.6396 8.54215H6.03052V0.870341H8.45542C9.11202 0.859467 9.74682 1.10563 10.2245 1.55629C10.7079 1.99429 11.0033 2.6023 11.0488 3.25311C11.0548 3.32921 11.0548 3.40566 11.0488 3.48176L11.0548 7.13415ZM9.29782 3.40956C9.28522 3.19108 9.18812 2.98607 9.02702 2.83793C8.86587 2.687 8.65212 2.60496 8.43137 2.60928H7.74542V8.0006H8.44337C8.55732 8.0011 8.67017 7.97899 8.77552 7.9356C8.88087 7.89224 8.97657 7.82845 9.05712 7.7479C9.13767 7.66735 9.20147 7.5716 9.24487 7.4663C9.28822 7.36095 9.31032 7.24805 9.30987 7.13415L9.30382 3.48176L9.29782 3.40956Z" fill="black"/>
<path fill-rule="evenodd" clip-rule="evenodd" d="M10.8262 9.20386C11.0557 9.55951 11.1923 9.96711 11.2233 10.3893C11.2293 10.4634 11.2293 10.5378 11.2233 10.6119L11.2293 14.2643C11.2318 14.6067 11.1655 14.9462 11.0342 15.2625C10.9029 15.5788 10.7094 15.8655 10.4651 16.1055C10.2283 16.3523 9.94301 16.5476 9.62726 16.679C9.31146 16.8105 8.97196 16.8754 8.62991 16.8697H6.03656V9.20386H10.8262ZM9.41841 14.6006C9.46291 14.4941 9.48531 14.3797 9.48436 14.2643L9.49636 10.6179L9.49036 10.5457C9.47286 10.3273 9.37411 10.1233 9.21356 9.97406C9.05821 9.82546 8.85091 9.74341 8.63596 9.74541H7.76946V15.1368H8.62991C8.74111 15.1367 8.85111 15.1144 8.95346 15.0709C9.05581 15.0275 9.14836 14.964 9.22561 14.884C9.30836 14.8036 9.37396 14.7072 9.41841 14.6006Z" fill="black"/>
</g>
</g>
</g>
<defs>
<clipPath id="clip0_1_3362">
<rect width="16" height="16" fill="white" transform="translate(0.630005 0.869995)"/>
</clipPath>
<clipPath id="clip1_1_3362">
<rect width="16" height="16" fill="white" transform="translate(0.630005 0.869995)"/>
</clipPath>
<clipPath id="clip2_1_3362">
<rect width="16" height="16" fill="white" transform="translate(0.630005 0.869995)"/>
</clipPath>
</defs>
</svg>
