<svg width="17" height="17" viewBox="0 0 17 17" fill="none" xmlns="http://www.w3.org/2000/svg">
<g clip-path="url(#clip0_1_5260)">
<g clip-path="url(#clip1_1_5260)">
<g clip-path="url(#clip2_1_5260)">
<path d="M9.23075 6.38279C7.49885 6.49044 8.2765 8.74604 10.1911 8.62699C12.064 8.51054 11.076 6.26814 9.23075 6.38279Z" fill="#F7931A"/>
<path d="M8.50001 4.99071C7.39646 4.99071 6.31771 5.31792 5.40012 5.93102C4.48255 6.54417 3.76739 7.41557 3.34508 8.43512C2.92277 9.45467 2.81227 10.5766 3.02756 11.6589C3.24286 12.7413 3.77427 13.7355 4.55459 14.5158C5.33492 15.2961 6.32911 15.8275 7.41146 16.0428C8.49381 16.2581 9.61571 16.1476 10.6353 15.7253C11.6548 15.303 12.5262 14.5878 13.1393 13.6703C13.7524 12.7527 14.0797 11.6739 14.0797 10.5704C14.0797 9.09052 13.4918 7.67132 12.4454 6.62497C11.399 5.57857 9.97981 4.99071 8.50001 4.99071ZM8.50001 15.5653C7.51236 15.5654 6.54681 15.2727 5.72551 14.7241C4.90418 14.1755 4.26401 13.3957 3.88592 12.4833C3.50783 11.5708 3.40882 10.5667 3.6014 9.59802C3.79398 8.62932 4.2695 7.73947 4.96783 7.04102C5.66616 6.34257 6.55591 5.86687 7.52461 5.67412C8.49331 5.48137 9.49736 5.58022 10.4099 5.95812C11.3224 6.33607 12.1024 6.97612 12.6511 7.79732C13.1998 8.61852 13.4927 9.58402 13.4927 10.5717C13.4927 11.8959 12.9667 13.1659 12.0304 14.1024C11.0942 15.0388 9.82426 15.565 8.50001 15.5653ZM8.33176 1.09549C7.00711 2.09675 7.23736 3.63226 7.23736 3.63226C7.23736 3.63226 6.40476 1.47113 5.32356 0.150024C5.1777 1.85072 5.71061 4.10411 5.71061 4.10411C5.71061 4.10411 5.03359 2.707 3.37463 2.6288C4.75065 3.41961 5.28446 4.8444 5.40659 5.22662C6.22661 4.72046 7.16436 4.43669 8.12746 4.4033C8.01891 4.04744 7.63321 2.54796 8.33176 1.09549Z" fill="#F7931A"/>
<path d="M4.71588 11.1149V12.2827H4.23041V9.27405H5.2532C5.59941 9.27405 5.86006 9.3565 6.03521 9.5214C6.21036 9.6863 6.29826 9.91215 6.29886 10.1989C6.29886 10.4833 6.20936 10.707 6.03041 10.8702C5.85146 11.0333 5.59296 11.1149 5.25496 11.1149H4.71588ZM5.80416 10.1989C5.80416 10.0284 5.75656 9.8984 5.66136 9.80875C5.56616 9.71915 5.41341 9.67445 5.20312 9.67475H4.71588V10.7186H5.2018C5.60336 10.7186 5.80416 10.5454 5.80416 10.1989ZM7.13226 11.9035H8.17221V12.2827H6.64636V9.27405H7.13226V11.9035ZM10.3966 11.6307H9.12691L8.89666 12.2827H8.37651L9.48496 9.3211H10.0429L11.147 12.2827H10.6268L10.3966 11.6307ZM10.2604 11.2559L9.76176 9.85005L9.26311 11.2559H10.2604ZM13.0972 9.27405L12.096 11.1874V12.2827H11.607V11.1874L10.6013 9.27405H11.1641L11.8548 10.6676L12.545 9.27405H13.0972Z" fill="black"/>
</g>
</g>
</g>
<defs>
<clipPath id="clip0_1_5260">
<rect width="16" height="16" fill="white" transform="translate(0.5 0.150024)"/>
</clipPath>
<clipPath id="clip1_1_5260">
<rect width="16" height="16" fill="white" transform="translate(0.5 0.150024)"/>
</clipPath>
<clipPath id="clip2_1_5260">
<rect width="16" height="16" fill="white" transform="translate(0.5 0.150024)"/>
</clipPath>
</defs>
</svg>
