<svg width="27" height="24" viewBox="0 0 27 24" fill="none" xmlns="http://www.w3.org/2000/svg">
<path d="M1.883 19.859C0.955 19.859 0 20.585 0 21.856C0 23.018 0.84 23.838 1.883 23.838C2.744 23.838 3.128 23.274 3.128 23.274V23.52C3.128 23.636 3.241 23.766 3.38 23.766H4.003V19.946H3.128V20.431C3.128 20.431 2.741 19.859 1.883 19.859ZM2.039 20.64C2.803 20.64 3.204 21.296 3.204 21.855C3.204 22.479 2.728 23.07 2.04 23.071C1.466 23.071 0.89 22.616 0.89 21.847C0.89 21.153 1.385 20.64 2.039 20.64ZM5.218 23.767C5.083 23.767 4.966 23.673 4.966 23.521V19.947H5.841V20.42C6.039 20.129 6.426 19.859 7.021 19.859C7.992 19.859 8.509 20.615 8.509 21.322V23.767H7.902C7.83223 23.7676 7.76506 23.7406 7.71508 23.6919C7.66509 23.6432 7.63631 23.5768 7.635 23.507V21.51C7.635 21.118 7.389 20.642 6.82 20.642C6.206 20.642 5.84 21.208 5.84 21.742V23.767H5.218ZM11.062 19.862C10.134 19.862 9.179 20.588 9.179 21.858C9.179 23.02 10.019 23.841 11.062 23.841C11.923 23.841 12.307 23.276 12.307 23.276V23.522C12.307 23.639 12.42 23.768 12.559 23.768H13.182V18.038H12.307V20.433C12.307 20.433 11.92 19.862 11.062 19.862ZM11.218 20.642C11.982 20.642 12.383 21.299 12.383 21.858C12.383 22.481 11.907 23.073 11.219 23.073C10.645 23.073 10.069 22.619 10.069 21.85C10.069 21.156 10.564 20.642 11.218 20.642ZM14.396 23.764C14.261 23.764 14.144 23.67 14.144 23.518V19.944H15.018V20.581C15.168 20.224 15.494 19.901 16.071 19.901C16.231 19.901 16.382 19.93 16.382 19.93V20.812C16.382 20.812 16.194 20.74 15.967 20.74C15.353 20.74 15.018 21.306 15.018 21.839V23.764H14.396ZM21.69 23.768C21.555 23.768 21.437 23.674 21.437 23.522V19.948H22.312V23.768H21.69ZM24.88 19.862C23.951 19.862 22.997 20.588 22.997 21.858C22.997 23.02 23.837 23.841 24.88 23.841C25.741 23.841 26.125 23.276 26.125 23.276V23.522C26.125 23.639 26.238 23.768 26.377 23.768H27V18.038H26.125V20.433C26.125 20.433 25.738 19.862 24.88 19.862ZM25.036 20.642C25.8 20.642 26.201 21.299 26.201 21.858C26.201 22.481 25.725 23.073 25.037 23.073C24.462 23.073 23.887 22.619 23.887 21.85C23.887 21.156 24.382 20.642 25.036 20.642ZM21.87 19.122C22.189 19.122 22.448 18.87 22.448 18.558C22.4471 18.4829 22.4314 18.4087 22.4018 18.3397C22.3722 18.2706 22.3293 18.2081 22.2755 18.1556C22.2218 18.1031 22.1582 18.0618 22.0884 18.0339C22.0187 18.006 21.9441 17.9921 21.869 17.993C21.7175 17.9914 21.5715 18.05 21.4631 18.1559C21.3547 18.2619 21.2928 18.4065 21.291 18.558C21.291 18.87 21.55 19.122 21.869 19.122H21.87ZM18.69 19.859C17.719 19.859 16.65 20.567 16.65 21.85C16.65 23.02 17.56 23.84 18.689 23.84C20.079 23.84 20.759 22.749 20.759 21.858C20.759 20.765 19.883 19.859 18.69 19.859ZM18.694 20.656C19.366 20.656 19.868 21.186 19.868 21.853C19.868 22.532 19.336 23.056 18.696 23.056C18.102 23.056 17.526 22.585 17.526 21.864C17.526 21.132 18.074 20.656 18.694 20.656ZM20.086 5.28902L22.325 1.50502C22.3546 1.45465 22.3739 1.39885 22.3816 1.34093C22.3893 1.28301 22.3854 1.22412 22.37 1.16774C22.3546 1.11136 22.3281 1.05863 22.2921 1.01265C22.256 0.966674 22.2111 0.928377 22.16 0.900019C22.0567 0.840555 21.9342 0.824004 21.8188 0.853924C21.7034 0.883845 21.6044 0.957847 21.543 1.06002L19.276 4.89302C17.546 4.12302 15.598 3.69302 13.504 3.69302C11.41 3.69302 9.462 4.12302 7.732 4.89302L5.465 1.06102C5.40304 0.958638 5.30348 0.884572 5.18761 0.85467C5.07173 0.824768 4.94876 0.841404 4.845 0.901019C4.79392 0.929264 4.74903 0.967477 4.713 1.01339C4.67696 1.05931 4.65051 1.11199 4.63522 1.16832C4.61992 1.22465 4.6161 1.28348 4.62396 1.34131C4.63182 1.39915 4.65122 1.45482 4.681 1.50502L6.919 5.29002C5.00076 6.29928 3.3646 7.77114 2.15872 9.57228C0.952841 11.3734 0.215334 13.4469 0.013 15.605H26.995C26.7927 13.4465 26.0549 11.3727 24.8484 9.57146C23.642 7.77024 22.005 6.29762 20.086 5.28902ZM7.31 11.908C6.685 11.908 6.18 11.412 6.18 10.804C6.18 10.194 6.688 9.70002 7.31 9.70002C7.936 9.70002 8.441 10.196 8.441 10.804C8.444 11.412 7.935 11.908 7.31 11.908ZM19.697 11.908C19.071 11.908 18.566 11.412 18.566 10.804C18.566 10.194 19.074 9.70002 19.696 9.70002C20.322 9.70002 20.828 10.196 20.828 10.804C20.83 11.412 20.322 11.908 19.697 11.908Z" fill="#61DA84"/>
</svg>
