<svg width="17" height="16" viewBox="0 0 17 16" fill="none" xmlns="http://www.w3.org/2000/svg">
<g clip-path="url(#clip0_1_3285)">
<g clip-path="url(#clip1_1_3285)">
<g clip-path="url(#clip2_1_3285)">
<path d="M3.88538 8.00802C3.88538 5.97086 5.57351 5.34338 7.00549 5.34338H8.58491V6.37066H7.19501C5.63438 6.37066 5.01181 7.12187 5.01181 7.99933C5.01181 9.06125 5.64306 9.64538 7.00689 9.64538H7.52663V7.99933H8.58351V10.6727H7.00549C5.57351 10.6727 3.88538 10.0452 3.88538 8.00802Z" fill="black"/>
<path d="M9.17169 6.89317C9.17169 6.07393 9.63209 5.34741 10.9366 5.34741H12.9477V6.37469H10.8845C10.4241 6.37469 10.1852 6.55902 10.1852 6.95139C10.1852 7.37841 10.4241 7.49469 10.8758 7.49469H11.5838C13.0418 7.49469 13.3747 8.32137 13.3747 9.08997C13.3747 10.1259 12.9478 10.6767 11.5158 10.6767H9.40933V9.64942H11.5158C12.0616 9.64942 12.3599 9.49961 12.3599 9.05659C12.3599 8.56406 12.0616 8.47246 11.5158 8.47246H10.7571C9.52071 8.47246 9.17169 7.65307 9.17169 6.89317Z" fill="black"/>
</g>
</g>
</g>
<defs>
<clipPath id="clip0_1_3285">
<rect width="16" height="16" fill="white" transform="translate(0.630005 0.0100098)"/>
</clipPath>
<clipPath id="clip1_1_3285">
<rect width="16" height="16" fill="white" transform="translate(0.630005 0.0100098)"/>
</clipPath>
<clipPath id="clip2_1_3285">
<rect width="16" height="5.33333" fill="white" transform="translate(0.630005 5.34338)"/>
</clipPath>
</defs>
</svg>
