<svg width="17" height="16" viewBox="0 0 17 16" fill="none" xmlns="http://www.w3.org/2000/svg">
<g clip-path="url(#clip0_1_3305)">
<g clip-path="url(#clip1_1_3305)">
<g clip-path="url(#clip2_1_3305)">
<mask id="mask0_1_3305" style="mask-type:luminance" maskUnits="userSpaceOnUse" x="0" y="0" width="17" height="17">
<path d="M16.25 0.0100098H0.25V16.01H16.25V0.0100098Z" fill="white"/>
</mask>
<g mask="url(#mask0_1_3305)">
<path fill-rule="evenodd" clip-rule="evenodd" d="M0.846802 7.41321C0.846802 3.32442 4.16122 0.0100098 8.25001 0.0100098C12.3388 0.0100098 15.6532 3.32442 15.6532 7.41321C15.6532 11.502 12.3388 14.8164 8.25001 14.8164C6.03881 14.8164 4.05412 13.8471 2.69761 12.3102V16.01H0.848612V7.57846C0.847407 7.52351 0.846802 7.46846 0.846802 7.41321ZM4.90881 11.6577C4.90881 11.6577 6.20881 12.8314 8.32401 12.7612C8.32401 12.7612 10.1624 12.7638 11.7418 11.465L11.2072 10.4534C11.2072 10.4534 8.74116 12.8518 5.70871 10.8501C5.70871 10.8501 4.13825 9.78231 3.99409 7.50891L5.60156 7.52166L3.86907 4.38968C3.86907 4.38968 2.92756 5.56976 2.8625 6.96671C2.8625 6.96671 2.52697 10.0222 4.90881 11.6577ZM10.901 7.42086L12.6743 10.3015C12.6743 10.3015 13.561 9.08061 13.561 7.68241C13.561 7.68241 13.7536 4.61421 11.2991 3.09096C11.2991 3.09096 9.94676 1.97978 7.83666 2.1469C7.83666 2.1469 6.15141 2.21579 4.7302 3.44944L5.28516 4.39988C5.28516 4.39988 7.59301 1.9836 10.628 3.92658C10.628 3.92658 12.5034 5.11941 12.4013 7.42086H10.901Z" fill="#9B1C20"/>
</g>
</g>
</g>
</g>
<defs>
<clipPath id="clip0_1_3305">
<rect width="16" height="16" fill="white" transform="translate(0.25 0.0100098)"/>
</clipPath>
<clipPath id="clip1_1_3305">
<rect width="16" height="16" fill="white" transform="translate(0.25 0.0100098)"/>
</clipPath>
<clipPath id="clip2_1_3305">
<rect width="16" height="16" fill="white" transform="translate(0.25 0.0100098)"/>
</clipPath>
</defs>
</svg>
