<svg width="17" height="17" viewBox="0 0 17 17" fill="none" xmlns="http://www.w3.org/2000/svg">
<g clip-path="url(#clip0_1_3383)">
<g clip-path="url(#clip1_1_3383)">
<g clip-path="url(#clip2_1_3383)">
<mask id="mask0_1_3383" style="mask-type:luminance" maskUnits="userSpaceOnUse" x="0" y="0" width="17" height="17">
<path d="M16.25 0.869995H0.25V16.87H16.25V0.869995Z" fill="white"/>
</mask>
<g mask="url(#mask0_1_3383)">
<path d="M9.77995 14.2114C9.22355 14.5041 8.67701 14.8177 8.10872 15.0854C6.43693 15.8736 4.68652 16.4224 2.86677 16.75C2.65095 16.7888 2.4357 16.83 2.22016 16.87H2.13342C2.2892 16.5837 2.43976 16.2945 2.60221 16.012C2.82471 15.6247 3.05911 15.2441 3.28307 14.8577C3.67643 14.1797 4.06719 13.5003 4.45647 12.8201C4.62329 12.5282 4.78311 12.2326 4.94645 11.9385C5.11586 11.9858 5.28469 12.0653 5.45555 12.0708C5.62757 12.0763 5.80221 12.0081 5.97597 11.9724C6.00788 11.993 6.03923 12.0153 6.07259 12.0345C7.02609 12.5889 7.98051 13.1418 8.93316 13.6979C9.21803 13.8644 9.49797 14.0399 9.77995 14.2114Z" fill="#D3202B"/>
<path d="M4.94643 11.9384C4.78309 12.2326 4.62327 12.5282 4.45645 12.82C4.06714 13.5003 3.67641 14.1797 3.28302 14.8576C3.05908 15.244 2.82469 15.6246 2.60219 16.0119C2.43974 16.2945 2.28918 16.5837 2.1334 16.87H2.10439C1.70755 15.8593 1.37771 14.8271 1.13577 13.768C1.1262 13.7263 1.12069 13.6833 1.11344 13.641C1.0296 13.2331 0.920816 12.8287 0.866859 12.4171C0.766197 11.6443 0.697155 10.8677 0.61477 10.0926C0.601427 9.6879 0.588081 9.2832 0.574738 8.87854C1.00117 9.12134 1.42732 9.36385 1.85317 9.60784C1.87261 9.61914 1.88595 9.64149 1.9022 9.65888C1.92482 9.66614 1.94948 9.66962 1.96979 9.68123C2.62946 10.0612 3.28824 10.4433 3.94908 10.8213C4.12691 10.9231 4.31083 11.0136 4.49214 11.1094C4.49214 11.1491 4.4785 11.1964 4.49503 11.2277C4.61223 11.4488 4.73524 11.6669 4.85648 11.8859C4.88635 11.9033 4.91652 11.921 4.94643 11.9384Z" fill="#BA1218"/>
<path d="M9.81117 3.54319C9.80969 3.55537 9.80824 3.56756 9.8068 3.57974C9.73574 3.60556 9.65884 3.62209 9.59387 3.65893C8.89329 4.05751 8.19419 4.45901 7.49565 4.86078C7.18351 5.04036 6.87195 5.22078 6.56243 5.4047C6.36573 5.52163 6.17282 5.64576 5.97846 5.76644C5.63962 5.64112 5.30227 5.59935 4.96836 5.78182C4.91121 5.69423 4.85232 5.60777 4.7972 5.51929C4.67103 5.31681 4.54658 5.11315 4.42153 4.91011C4.35281 4.77898 4.28869 4.64526 4.21471 4.51702C3.92054 4.00532 3.62262 3.49591 3.32759 2.98476C3.04216 2.49045 2.75671 1.99613 2.47503 1.49949C2.35725 1.29237 2.24875 1.08002 2.1362 0.869995C3.66413 1.08524 5.15112 1.46439 6.5923 2.01412C7.64243 2.41444 8.6679 2.87134 9.6429 3.43527C9.70035 3.46863 9.75517 3.50722 9.81117 3.54319Z" fill="#9B1C20"/>
<path d="M4.47909 10.4587C4.47936 10.6757 4.4875 10.8924 4.49214 11.1094C4.31083 11.0137 4.12691 10.9232 3.94908 10.8213C3.28824 10.4433 2.62946 10.0613 1.96979 9.68127C1.94948 9.66967 1.92482 9.66619 1.9022 9.65896C1.88595 9.64154 1.87261 9.61919 1.85317 9.60789C1.42732 9.36393 1.00117 9.12142 0.574738 8.87859C0.574738 8.85887 0.574738 8.83944 0.575027 8.81972C0.766487 8.7231 0.96259 8.63377 1.14941 8.52789C1.71335 8.20762 2.2738 7.88068 2.836 7.55637C3.33961 7.26569 3.84349 6.97473 4.34796 6.68549C4.39322 6.6594 4.44455 6.64372 4.49329 6.62341C4.48836 6.74846 4.47936 6.87377 4.47909 6.99879C4.47791 8.15221 4.47791 9.30533 4.47909 10.4587Z" fill="#E84E1C"/>
<path d="M9.83629 14.1797C9.81743 14.1904 9.79886 14.2008 9.78 14.2113C9.49805 14.0398 9.21811 13.8643 8.93324 13.6978C7.98056 13.1417 7.02617 12.5888 6.07263 12.0344C6.03928 12.0153 6.00796 11.993 5.97604 11.9723C6.5098 11.6654 7.04533 11.362 7.57675 11.0516C8.32084 10.617 9.06204 10.1775 9.80438 9.74011C9.81454 10.669 9.82496 11.5981 9.83511 12.527C9.83541 13.0779 9.836 13.6288 9.83629 14.1797Z" fill="#E84E1C"/>
<path d="M4.9685 5.78182C4.67784 5.98749 4.54468 6.28225 4.49334 6.62338C4.4446 6.64369 4.39327 6.65934 4.34801 6.68546C3.84354 6.97467 3.33966 7.26566 2.83605 7.55631C2.27385 7.88065 1.71339 8.20756 1.14946 8.52783C0.962636 8.63371 0.766533 8.72307 0.575073 8.81966C0.59422 8.29518 0.595962 7.76954 0.637154 7.24679C0.682117 6.67617 0.740718 6.10471 0.835286 5.54076C0.941459 4.90719 1.09463 4.28177 1.2272 3.65255C1.23474 3.61629 1.2388 3.57916 1.24461 3.54232C1.43752 2.72629 1.69657 1.93115 1.99971 1.15022C2.03743 1.05362 2.09051 0.963405 2.13635 0.869995C2.2489 1.08002 2.3574 1.29237 2.47517 1.49949C2.75685 1.99613 3.0423 2.49045 3.32776 2.98476C3.62279 3.49591 3.92071 4.00532 4.21485 4.51702C4.28882 4.64526 4.35294 4.77898 4.42169 4.91011C4.54671 5.11315 4.67117 5.31681 4.79737 5.51929C4.85248 5.60777 4.91138 5.69423 4.9685 5.78182Z" fill="#E50539"/>
<path d="M15.9482 8.85014C14.0687 8.85044 12.1892 8.85044 10.31 8.85073C10.2772 8.72743 10.2563 8.59922 10.2096 8.48144C10.1232 8.26328 9.94738 8.11447 9.77274 7.96769C9.78404 7.90213 9.8032 7.83657 9.80494 7.77071C9.81713 7.30774 9.82699 6.84445 9.83423 6.38148C9.83511 6.32578 9.81654 6.27007 9.80698 6.21437C9.80724 5.90573 9.80784 5.59707 9.80813 5.2884C9.80784 4.71866 9.80754 4.14921 9.80698 3.57976C9.80843 3.56758 9.80987 3.5554 9.81132 3.54321C10.256 3.81909 10.706 4.08598 11.1428 4.37345C11.4344 4.56551 11.7068 4.78626 11.9882 4.99397C12.014 5.01283 12.0421 5.02848 12.0691 5.04589C12.3888 5.30608 12.7128 5.56138 13.0267 5.82856C13.3536 6.10703 13.6814 6.38611 13.9895 6.68489C14.641 7.31701 15.2662 7.97437 15.8293 8.68799C15.8707 8.74051 15.9085 8.79589 15.9482 8.85014Z" fill="#FF0000"/>
<path d="M15.9482 8.8501C15.9302 8.88957 15.9192 8.93453 15.8931 8.96729C15.272 9.74763 14.6117 10.4949 13.8708 11.1615C13.2085 11.7577 12.5083 12.3115 11.8242 12.8832C11.7839 12.9166 11.7366 12.9416 11.6928 12.9706C11.1623 13.325 10.6322 13.6804 10.1002 14.0329C10.0167 14.0886 9.92444 14.1312 9.83623 14.1797C9.83594 13.6288 9.83538 13.0779 9.83508 12.527C9.82493 11.5981 9.81448 10.669 9.80432 9.74011C10.0883 9.50949 10.2937 9.23389 10.31 8.85069C12.1892 8.85039 14.0687 8.85039 15.9482 8.8501Z" fill="#DC0436"/>
<path d="M10.31 8.85066C10.2937 9.23386 10.0883 9.50944 9.8043 9.74008C9.06198 10.1775 8.32079 10.617 7.5767 11.0516C7.04524 11.362 6.50975 11.6654 5.97599 11.9723C5.8022 12.008 5.62756 12.0762 5.45555 12.0707C5.28468 12.0652 5.11586 11.9857 4.94644 11.9384C4.91657 11.921 4.8864 11.9033 4.85652 11.8859C4.73525 11.6669 4.61224 11.4487 4.49505 11.2277C4.47851 11.1963 4.49245 11.1491 4.49215 11.1093C4.48752 10.8923 4.4794 10.6756 4.4791 10.4586C4.47795 9.30522 4.47795 8.15212 4.4791 6.99871C4.4794 6.87369 4.48837 6.74834 4.4933 6.62333C4.54467 6.28219 4.67781 5.98746 4.96849 5.78176C5.3024 5.5993 5.63975 5.64107 5.97859 5.76641C6.13378 5.84851 6.28899 5.9306 6.44418 6.0127C6.51497 6.04981 6.58777 6.08435 6.65652 6.12497C7.26455 6.48497 7.87173 6.84671 8.47975 7.20671C8.91025 7.46141 9.34163 7.71407 9.77268 7.96762C9.94733 8.1144 10.1231 8.26321 10.2096 8.48136C10.2563 8.59915 10.2772 8.72736 10.31 8.85066Z" fill="#FEFDFD"/>
<path d="M9.83416 6.38142C9.82693 6.84439 9.81707 7.30768 9.80488 7.77068C9.80314 7.83651 9.78398 7.90207 9.77267 7.96764C9.34159 7.71409 8.91024 7.46142 8.47974 7.20672C7.87171 6.84672 7.26454 6.48498 6.65651 6.12498C6.58776 6.08436 6.51496 6.04985 6.44417 6.01272C6.28895 5.93062 6.13376 5.84852 5.97858 5.76643C6.17294 5.64575 6.36585 5.52159 6.56252 5.40469C6.87204 5.22075 7.1836 5.04032 7.49574 4.86075C8.19428 4.45897 8.89341 4.0575 9.59399 3.65891C9.65896 3.62206 9.73583 3.60553 9.80692 3.57971C9.80748 4.14916 9.80777 4.71861 9.80807 5.28835C9.80777 5.59701 9.80718 5.90567 9.80692 6.21431C9.81648 6.27001 9.83505 6.32572 9.83416 6.38142Z" fill="#E60039"/>
</g>
</g>
</g>
</g>
<defs>
<clipPath id="clip0_1_3383">
<rect width="16" height="16" fill="white" transform="translate(0.25 0.869995)"/>
</clipPath>
<clipPath id="clip1_1_3383">
<rect width="16" height="16" fill="white" transform="translate(0.25 0.869995)"/>
</clipPath>
<clipPath id="clip2_1_3383">
<rect width="16" height="16" fill="white" transform="translate(0.25 0.869995)"/>
</clipPath>
</defs>
</svg>
