<svg width="17" height="16" viewBox="0 0 17 16" fill="none" xmlns="http://www.w3.org/2000/svg">
<g clip-path="url(#clip0_1_5453)">
<g clip-path="url(#clip1_1_5453)">
<g clip-path="url(#clip2_1_5453)">
<path d="M16.183 15.7711C16.183 15.8507 16.1469 15.9305 16.1275 16.01H8.11147C6.63927 15.9522 5.47552 15.2953 5.02199 15.0701C4.2418 14.6831 3.55391 14.1574 2.91965 13.5615C2.04684 12.7414 1.266 11.8519 0.789515 10.7322C0.725962 10.5828 0.574585 10.1855 0.574585 10.1855C0.655383 10.2171 0.74193 10.2602 0.807718 10.303C1.93825 11.036 3.17354 11.4119 4.52316 11.4077C5.05969 11.4061 5.59622 11.4112 6.13272 11.4134C6.18572 11.4119 6.23877 11.409 6.29212 11.409C7.96142 11.4083 9.63102 11.408 11.3003 11.4077H11.4859V10.3305H11.3172C10.6207 10.3305 9.92417 10.3308 9.22767 10.3298C7.87742 10.3286 6.52682 10.3264 5.17657 10.3244C4.34305 10.3241 3.50888 10.3481 2.67693 10.3152C2.02608 10.2893 1.4739 9.99801 1.09514 9.45896C0.888194 9.16451 0.574585 8.81001 0.574585 8.50501V0.0100098H8.33502C8.59727 0.0419459 8.86007 0.0674948 9.12102 0.107415C9.82742 0.215998 10.5042 0.415918 11.1643 0.698875C12.6477 1.33504 13.8252 2.35508 14.8653 3.56003C15.4182 4.20068 15.8231 4.92689 16.1402 5.70616C16.1517 5.73456 16.1578 5.76521 16.1786 5.83801C16.0955 5.80576 16.0371 5.79396 15.9908 5.76361C15.1873 5.24241 14.3215 4.87483 13.3717 4.73112C13.0156 4.67746 12.6528 4.64458 12.2929 4.64265C10.4626 4.6337 8.63207 4.63786 6.80182 4.63691C6.73792 4.63691 6.67437 4.63307 6.61052 4.63085H5.27846V5.72176H6.54507C7.91702 5.71986 9.28927 5.71861 10.6613 5.71541C11.7037 5.71316 12.7461 5.69721 13.7881 5.71156C14.0861 5.71541 14.3949 5.76716 14.6779 5.86006C15.2256 6.04051 15.6117 6.42086 15.8828 6.93376C16.0106 7.17486 16.1396 7.40801 16.1699 7.68266C16.177 7.74586 16.1849 7.80946 16.1849 7.87271C16.1856 10.5055 16.1862 13.1383 16.183 15.7711Z" fill="url(#paint0_linear_1_5453)"/>
</g>
</g>
</g>
<defs>
<linearGradient id="paint0_linear_1_5453" x1="16.4628" y1="5.75851" x2="0.60652" y2="5.75851" gradientUnits="userSpaceOnUse">
<stop stop-color="#A1509E"/>
<stop offset="1" stop-color="#34BDD6"/>
</linearGradient>
<clipPath id="clip0_1_5453">
<rect width="16" height="16" fill="white" transform="translate(0.380005 0.0100098)"/>
</clipPath>
<clipPath id="clip1_1_5453">
<rect width="16" height="16" fill="white" transform="translate(0.380005 0.0100098)"/>
</clipPath>
<clipPath id="clip2_1_5453">
<rect width="16" height="16" fill="white" transform="translate(0.380005 0.0100098)"/>
</clipPath>
</defs>
</svg>
