<svg width="23" height="23" viewBox="0 0 23 23" fill="none" xmlns="http://www.w3.org/2000/svg">
<path fill-rule="evenodd" clip-rule="evenodd" d="M1.61658 10.8902C1.61658 5.49926 5.9764 1.28195 11.3674 1.28195C16.7583 1.28195 21.1181 5.56813 21.1191 10.962C21.1223 12.239 20.8728 13.5041 20.385 14.6843C19.8972 15.8645 19.1808 16.9366 18.277 17.8388C17.3732 18.7411 16.2998 19.4556 15.1187 19.9412C13.9376 20.4269 12.6721 20.6742 11.3951 20.6687C6.00223 20.6687 1.61658 16.2812 1.61658 10.8902ZM13.9108 13.8487L13.9232 13.8057L15.0308 10.1135L18.3595 8.95517L18.3949 8.98865L20.3625 10.8366C20.3259 9.02723 19.7376 7.27215 18.6761 5.8063L18.1061 8.33056L14.8673 9.45734L11.7978 7.01247V6.97421L11.7863 4.23091L14.3804 2.56847C12.4842 1.88478 10.4111 1.87027 8.50545 2.52734L11.0833 4.26152V4.3036C11.089 4.66134 11.1062 6.9503 11.1062 6.9503V6.98856L11.0766 7.01343L8.03579 9.48317L7.99371 9.46882C6.95364 9.11447 5.91516 8.75545 4.87832 8.39178C4.87066 8.38795 4.86588 8.38508 4.8611 8.38508C4.80945 8.36787 4.76353 8.35065 4.14562 5.72691C3.14535 7.08744 2.55253 8.70433 2.43632 10.389C3.14476 9.95809 3.83953 9.50512 4.51962 9.03073L4.5531 9.00586L4.59232 9.01926L4.76832 9.0776C5.29345 9.2536 6.86884 9.7816 7.84449 10.0915L7.88658 10.1059L7.8971 10.148L8.93971 13.9042L8.91006 13.9377L6.81623 16.2506L6.77414 16.2439L3.80223 15.8134C4.89308 17.539 6.53802 18.8426 8.46719 19.5104L7.42458 16.8599L9.51171 14.306H13.2995L13.3234 14.3327L15.5808 16.9268C15.6229 16.9775 15.6229 16.9785 14.3565 19.4903C16.2883 18.8077 17.9291 17.4859 19.0071 15.7436L16.2839 16.5729L16.2552 16.5069C15.4879 15.6289 14.7163 14.7546 13.9404 13.8841L13.9117 13.8497L13.9108 13.8487Z" fill="white"/>
</svg>
