<svg width="23" height="23" viewBox="0 0 23 23" fill="none" xmlns="http://www.w3.org/2000/svg">
<path fill-rule="evenodd" clip-rule="evenodd" d="M20.7883 17.8623C21.2051 17.8623 21.6048 18.0279 21.8995 18.3226C22.1942 18.6173 22.3597 19.017 22.3597 19.4338C22.3597 19.8505 22.1942 20.2502 21.8995 20.5449C21.6048 20.8396 21.2051 21.0052 20.7883 21.0052H1.93117C1.5144 21.0052 1.1147 20.8396 0.820002 20.5449C0.525302 20.2502 0.359741 19.8505 0.359741 19.4338C0.359741 19.017 0.525302 18.6173 0.820002 18.3226C1.1147 18.0279 1.5144 17.8623 1.93117 17.8623H20.7883ZM20.7883 9.48139C21.2051 9.48139 21.6048 9.64695 21.8995 9.94165C22.1942 10.2363 22.3597 10.636 22.3597 11.0528C22.3597 11.4696 22.1942 11.8693 21.8995 12.164C21.6048 12.4587 21.2051 12.6242 20.7883 12.6242H1.93117C1.5144 12.6242 1.1147 12.4587 0.820002 12.164C0.525302 11.8693 0.359741 11.4696 0.359741 11.0528C0.359741 10.636 0.525302 10.2363 0.820002 9.94165C1.1147 9.64695 1.5144 9.48139 1.93117 9.48139H20.7883ZM20.7883 1.10043C21.2051 1.10043 21.6048 1.26599 21.8995 1.56069C22.1942 1.85539 22.3597 2.25509 22.3597 2.67186C22.3597 3.08863 22.1942 3.48833 21.8995 3.78303C21.6048 4.07773 21.2051 4.24329 20.7883 4.24329H1.93117C1.5144 4.24329 1.1147 4.07773 0.820002 3.78303C0.525302 3.48833 0.359741 3.08863 0.359741 2.67186C0.359741 2.25509 0.525302 1.85539 0.820002 1.56069C1.1147 1.26599 1.5144 1.10043 1.93117 1.10043H20.7883Z" fill="white"/>
</svg>
