<svg width="23" height="23" viewBox="0 0 23 23" fill="none" xmlns="http://www.w3.org/2000/svg">
<path d="M21.8563 10.0261C20.804 5.21666 19.3202 4.02988 18.417 3.55443C16.9699 2.79299 15.2942 3.23666 14.7369 3.52388C14.105 3.84777 13.6784 4.46499 13.0368 4.73388C12.2949 5.0431 11.2853 5.12621 10.5263 4.75343C9.92133 4.45643 9.38722 3.82088 8.65511 3.53977C7.72622 3.18166 6.17889 2.68054 4.64622 3.77566C4.28444 4.03477 1.70066 6.19566 0.925776 12.9435C0.446665 17.1052 2.73466 18.4435 2.64911 18.3824C3.23822 18.8041 4.55578 19.5154 6.34022 18.4008C7.53433 17.6577 8.50233 16.1885 8.50233 16.1885C8.50233 16.1885 8.93378 15.3697 9.50578 15.0225C9.91155 14.7769 10.519 14.9639 10.519 14.9639H12.6652C12.6652 14.9639 13.346 14.8783 13.8251 15.0885C14.2896 15.2914 14.5523 15.7913 14.5523 15.7913C14.5523 15.7913 15.9664 17.6149 17.3231 18.545C17.9 18.9398 20.2198 19.3944 21.4176 17.9339C22.1998 16.9793 22.7339 14.0423 21.8563 10.0261ZM10.3882 9.60077C10.3882 9.96621 10.0973 10.2608 9.738 10.2608H8.11244V11.9181C8.11244 12.2848 7.82155 12.5805 7.46222 12.5805H6.97333C6.79947 12.5786 6.63348 12.5078 6.5118 12.3836C6.39013 12.2594 6.3227 12.092 6.32433 11.9181V10.262H4.69755C4.61142 10.2614 4.52626 10.2437 4.44694 10.2101C4.36762 10.1765 4.29571 10.1276 4.23531 10.0662C4.17492 10.0048 4.12723 9.93209 4.09497 9.85222C4.06271 9.77235 4.04653 9.6869 4.04733 9.60077V9.10454C4.04733 8.73788 4.33822 8.44088 4.69755 8.44088H6.32311V6.78721C6.32311 6.42054 6.61522 6.12477 6.97333 6.12477H7.46222C7.82033 6.12477 8.11122 6.42054 8.11122 6.78721V8.4421H9.73678C10.0973 8.4421 10.3882 8.73788 10.3882 9.10454V9.60077ZM14.9691 11.9169C14.2957 11.9169 13.7493 11.362 13.7493 10.6751C13.7493 9.99066 14.2957 9.43454 14.9691 9.43454C15.6426 9.43454 16.1889 9.98943 16.1889 10.6751C16.1889 11.362 15.6426 11.9169 14.9691 11.9169ZM17.2058 9.15954C17.0459 9.15811 16.8879 9.12519 16.7408 9.06268C16.5936 9.00018 16.4602 8.90929 16.3482 8.79523C16.2362 8.68117 16.1477 8.54616 16.0879 8.39791C16.028 8.24966 15.998 8.09108 15.9994 7.93121C15.9968 7.60889 16.1223 7.29871 16.3483 7.06884C16.5742 6.83898 16.8822 6.70823 17.2046 6.70532C17.8707 6.70532 18.4109 7.25532 18.4109 7.93121C18.4123 8.09108 18.3823 8.24966 18.3224 8.39791C18.2626 8.54616 18.1742 8.68117 18.0621 8.79523C17.9501 8.90929 17.8167 9.00018 17.6696 9.06268C17.5224 9.12519 17.3656 9.15811 17.2058 9.15954Z" fill="white"/>
</svg>
