<svg width="113" height="20" viewBox="0 0 113 20" fill="none" xmlns="http://www.w3.org/2000/svg">
<path d="M101.352 0.870605C102.858 0.870605 104.289 1.21575 105.573 1.83111C105.774 1.92294 105.977 2.03166 106.178 2.14037L105.298 2.92144L103.977 1.55985L101.702 3.55474L100.361 2.12243L96.1785 5.84096L98.8573 8.76152L97.8113 9.66925L100.454 12.5888L99.4082 13.4954L103.188 17.6488L105.425 15.6181L107.372 17.7945C106.985 18.0858 106.563 18.3761 106.105 18.6294C104.659 19.439 103.029 19.8635 101.371 19.8622C96.0677 19.8622 91.7561 15.6001 91.7561 10.3585C91.7381 5.15171 96.0497 0.870605 101.352 0.870605ZM99.5908 9.77691L101.884 7.74508L103.94 10.0133L101.646 12.0441L99.5908 9.77691ZM101.225 13.696L103.499 11.6462L105.573 13.9134L103.279 15.9453L101.225 13.696ZM97.9591 5.91378L100.252 3.88195L102.307 6.14916L100.013 8.181L97.9591 5.91378ZM102.16 4.82451L103.867 3.30142L105.408 4.98811L103.702 6.52914L102.16 4.82451ZM105.206 11.8088L106.914 10.2857L108.455 11.9903L106.748 13.5155L105.207 11.8098L105.206 11.8088ZM106.711 15.237L108.418 13.7139L109.958 15.4006L108.252 16.9416L106.711 15.237ZM107.408 7.40098L108.545 6.38454L109.572 7.5097L108.436 8.52509L107.408 7.40098ZM105.941 4.04449L107.077 3.01116L108.105 4.15427L106.968 5.16966L105.941 4.04449ZM108.858 10.7575L109.995 9.74103L111.041 10.8662L109.885 11.8816L108.858 10.7575ZM103.739 8.23483L105.444 6.71174L106.985 8.39843L105.28 9.92257L103.739 8.23483ZM9.63824 7.88018H9.51687L7.24549 16.5131H5.38786L2.5993 4.24821H4.52554L6.45389 13.3994H6.57421L8.81181 4.24821H10.3433L12.7361 13.3994H12.8564L14.6116 4.24821H16.6255L13.8369 16.5131H11.9782L9.63719 7.87913L9.63824 7.88018ZM19.0699 11.2916H23.0111C22.9256 9.4761 22.0474 8.74991 21.1176 8.74991C20.0684 8.74991 19.2589 9.56265 19.0699 11.2916ZM24.3874 14.5436V15.8587C23.4602 16.3884 22.4091 16.663 21.3413 16.6546C18.4504 16.6546 17.263 14.8549 17.263 12.1233C17.263 9.49299 18.5886 7.58992 21.1693 7.58992C23.3203 7.58992 24.646 8.99162 24.646 11.8109V12.4505H19.0362C19.0362 14.5256 19.8784 15.4428 21.6516 15.4428C22.5804 15.4428 23.4417 15.1135 24.3874 14.5436ZM28.6505 15.2676C29.2004 15.5104 29.803 15.5452 30.2337 15.5452C31.5076 15.5452 32.4702 14.7483 32.4702 11.947C32.4702 9.75158 31.6786 9.04123 30.526 9.04123C29.8368 9.04123 29.3386 9.23228 28.6494 9.6112L28.6505 15.2676ZM28.6673 8.33299C29.1824 8.05645 30.0606 7.6923 30.9894 7.6923C33.1246 7.6923 34.2772 9.18056 34.2772 11.947C34.2772 15.1821 32.7288 16.7559 30.2347 16.7559C29.3217 16.7559 27.9106 16.4614 26.8773 15.9073V3.83551L28.6673 3.40381V8.33299ZM42.0233 13.9103H42.1098L45.7924 4.24187H47.9276V16.5057H46.0689V7.61419H45.9138L42.4022 16.5057H41.3024L37.7898 7.82213H37.6357V16.5057H36.0863V4.24082H38.1698L42.0233 13.9092V13.9103ZM55.5217 12.1222C55.5217 9.78747 54.575 8.80269 53.4055 8.80269C52.2698 8.80269 51.2882 9.78747 51.2882 12.1222C51.2882 14.4918 52.1843 15.4428 53.4055 15.4428C54.6267 15.4428 55.5217 14.4929 55.5217 12.1222ZM49.4812 12.1222C49.4812 9.09401 51.1341 7.58992 53.4055 7.58992C55.6779 7.58992 57.3297 9.09401 57.3297 12.1222C57.3297 15.0797 55.7634 16.6535 53.4055 16.6535C51.0476 16.6535 49.4812 15.0797 49.4812 12.1222ZM58.6892 8.8713C59.465 8.40371 61.0999 7.58992 63.0789 7.58992C65.1434 7.58992 65.917 8.40265 65.917 10.1843V16.4466H64.128V10.5812C64.128 9.21539 63.4578 8.97368 62.5796 8.97368C61.8915 8.97368 61.0133 9.28505 60.4793 9.59642V16.4456H58.6902L58.6892 8.8713ZM69.7051 11.2916H73.6463C73.5618 9.4761 72.6826 8.74991 71.7538 8.74991C70.7036 8.74991 69.8951 9.56265 69.7051 11.2916ZM75.0226 14.5436V15.8587C74.0954 16.3884 73.0443 16.663 71.9765 16.6546C69.0866 16.6546 67.8992 14.8549 67.8992 12.1233C67.8992 9.49299 69.2228 7.58992 71.8045 7.58992C73.9576 7.58992 75.2822 8.99162 75.2822 11.8109V12.4505H69.6714C69.6714 14.5256 70.5157 15.4428 72.2879 15.4428C73.2167 15.4428 74.078 15.1135 75.0226 14.5436ZM82.432 7.58992H84.2738L81.1581 16.2366C80.2968 18.6241 79.2477 19.8696 77.2697 19.8696V18.4521C78.4402 18.4521 79.1622 17.518 79.5759 16.2366L76.2723 7.58992H78.1647L80.3675 13.9546H80.4709L82.432 7.58992Z" fill="#3895D6"/>
<path d="M101.418 0.870605C102.922 0.870605 104.353 1.21575 105.638 1.83111C105.839 1.92294 106.042 2.03166 106.243 2.14037L105.362 2.92144L104.043 1.55985L101.767 3.55474L100.427 2.12243L96.2429 5.84096L98.9217 8.76152L97.8767 9.66925L100.519 12.5888L99.4737 13.4954L103.252 17.6488L105.49 15.6181L107.436 17.7945C107.051 18.0858 106.629 18.3761 106.17 18.6294C104.723 19.439 103.093 19.8635 101.436 19.8622C96.1331 19.8622 91.8204 15.6001 91.8204 10.3585C91.8036 5.15171 96.1152 0.870605 101.418 0.870605ZM99.6552 9.77691L101.95 7.74508L104.005 10.0133L101.711 12.0441L99.6552 9.77691ZM101.289 13.696L103.565 11.6462L105.638 13.9134L103.344 15.9453L101.289 13.696ZM98.0235 5.91378L100.317 3.88195L102.372 6.14916L100.077 8.181L98.0235 5.91378ZM102.224 4.82451L103.931 3.30142L105.473 4.98706L103.766 6.52809L102.225 4.82345L102.224 4.82451ZM105.271 11.8088L106.977 10.2846L108.519 11.9892L106.812 13.5144L105.271 11.8088ZM106.775 15.237L108.482 13.7139L110.022 15.4006L108.316 16.9416L106.775 15.237ZM107.473 7.40098L108.61 6.38454L109.638 7.5097L108.5 8.52509L107.473 7.40098ZM106.005 4.04449L107.143 3.01116L108.171 4.15427L107.032 5.16966L106.005 4.04449ZM108.922 10.7575L110.06 9.74103L111.106 10.8662L109.95 11.8816L108.922 10.7575ZM103.803 8.23483L105.51 6.71174L107.051 8.39843L105.344 9.92257L103.803 8.23483ZM9.70264 7.88018H9.58231L7.30883 16.5131H5.4512L2.6637 4.24821H4.59099L6.51828 13.3983H6.6386L8.8762 4.24715H10.4077L12.8004 13.3983H12.9208L14.6771 4.24715H16.6909L13.9013 16.5131H12.0426L9.70264 7.88018ZM19.1354 11.2916H23.0755C22.991 9.4761 22.1118 8.74991 21.183 8.74991C20.1328 8.74991 19.3243 9.56265 19.1354 11.2916ZM24.4518 14.5436V15.8587C23.5246 16.3884 22.4735 16.663 21.4057 16.6546C18.5158 16.6546 17.3284 14.8549 17.3284 12.1233C17.3284 9.49299 18.653 7.58992 21.2337 7.58992C23.3858 7.58992 24.7114 8.99162 24.7114 11.8109V12.4505H19.1006C19.1006 14.5256 19.9439 15.4428 21.7171 15.4428C22.6459 15.4428 23.5061 15.1135 24.4518 14.5436ZM28.7138 15.2676C29.2658 15.5104 29.8685 15.5452 30.2991 15.5452C31.572 15.5452 32.5357 14.7483 32.5357 11.947C32.5357 9.75158 31.7441 9.04123 30.5915 9.04123C29.9023 9.04123 29.403 9.23228 28.7148 9.6112L28.7138 15.2676ZM28.7328 8.33299C29.2479 8.05645 30.126 7.6923 31.0548 7.6923C33.189 7.6923 34.3426 9.18056 34.3426 11.947C34.3426 15.1821 32.7932 16.7559 30.3002 16.7559C29.3861 16.7559 27.975 16.4614 26.9417 15.9073V3.83551L28.7328 3.40381V8.33299ZM42.0887 13.9103H42.1753L45.8568 4.24187H47.992V16.5057H46.1344V7.61419H45.9781L42.4676 16.5057H41.3668L37.8542 7.82213H37.7001V16.5057H36.1506V4.24082H38.2341L42.0887 13.9092V13.9103ZM55.5861 12.1222C55.5861 9.78747 54.6404 8.80269 53.4699 8.80269C52.3342 8.80269 51.3526 9.78747 51.3526 12.1222C51.3526 14.4918 52.2498 15.4428 53.4699 15.4428C54.6911 15.4428 55.5861 14.4929 55.5861 12.1222ZM49.5467 12.1222C49.5467 9.09401 51.1996 7.58992 53.4699 7.58992C55.7423 7.58992 57.3941 9.09401 57.3941 12.1222C57.3941 15.0797 55.8278 16.6535 53.4699 16.6535C51.112 16.6535 49.5467 15.0797 49.5467 12.1222ZM58.7546 8.8713C59.5293 8.40371 61.1653 7.58992 63.1443 7.58992C65.2088 7.58992 65.9814 8.40265 65.9814 10.1843V16.4466H64.1935V10.5812C64.1935 9.21539 63.5232 8.97368 62.644 8.97368C61.9569 8.97368 61.0777 9.28505 60.5447 9.59642V16.4456H58.7546V8.8713ZM69.7706 11.2916H73.7117C73.6273 9.4761 72.7481 8.74991 71.8182 8.74991C70.768 8.74991 69.9606 9.56265 69.7706 11.2916ZM75.0881 14.5436V15.8587C74.1608 16.3884 73.1098 16.663 72.042 16.6546C69.1521 16.6546 67.9636 14.8549 67.9636 12.1233C67.9636 9.49299 69.2882 7.58992 71.8699 7.58992C74.022 7.58992 75.3477 8.99162 75.3477 11.8109V12.4505H69.7368C69.7368 14.5256 70.5801 15.4428 72.3523 15.4428C73.2811 15.4428 74.1423 15.1135 75.0881 14.5436ZM82.4964 7.58992H84.3382L81.2235 16.2366C80.3612 18.6241 79.3131 19.8696 77.3341 19.8696V18.4521C78.5057 18.4521 79.2266 17.518 79.6414 16.2366L76.3367 7.58992H78.2302L80.433 13.9546H80.5353L82.4964 7.58992Z" fill="#34405E"/>
</svg>
