<svg width="20" height="20" viewBox="0 0 20 20" fill="none" xmlns="http://www.w3.org/2000/svg">
<path d="M17.4158 1.19388C17.8213 1.19408 18.2101 1.35525 18.4968 1.64197C18.7835 1.92869 18.9447 2.31751 18.9449 2.723V18.0172C18.9449 18.4228 18.7838 18.8117 18.497 19.0985C18.2103 19.3853 17.8213 19.5464 17.4158 19.5464H2.12156C1.92072 19.5465 1.72184 19.507 1.53627 19.4302C1.3507 19.3534 1.18209 19.2407 1.04008 19.0987C0.898071 18.9567 0.785441 18.7881 0.708631 18.6025C0.631821 18.417 0.592337 18.2181 0.592437 18.0172V2.723C0.592437 2.31745 0.75354 1.92851 1.04031 1.64175C1.32707 1.35498 1.71601 1.19388 2.12156 1.19388H17.4158ZM17.4158 0.870117H2.12156C1.63033 0.870721 1.15939 1.06613 0.812039 1.41348C0.464687 1.76083 0.26928 2.23177 0.268677 2.723L0.268677 18.0172C0.26928 18.5085 0.464687 18.9794 0.812039 19.3268C1.15939 19.6741 1.63033 19.8695 2.12156 19.8701H17.4158C17.9071 19.8697 18.3781 19.6744 18.7255 19.327C19.0729 18.9796 19.2683 18.5085 19.2687 18.0172V2.723C19.2681 2.23177 19.0727 1.76083 18.7253 1.41348C18.378 1.06613 17.907 0.870721 17.4158 0.870117Z" fill="#4A5370"/>
<path fill-rule="evenodd" clip-rule="evenodd" d="M17.415 1.19385H2.12153C1.92072 1.19385 1.72188 1.2334 1.53636 1.31024C1.35084 1.38709 1.18227 1.49972 1.04028 1.64172C0.75351 1.92848 0.592407 2.31742 0.592407 2.72297V18.018C0.592407 18.4235 0.75351 18.8125 1.04028 19.0992C1.18227 19.2412 1.35084 19.3538 1.53636 19.4307C1.72188 19.5075 1.92072 19.5471 2.12153 19.5471H17.4142C17.6152 19.5472 17.8142 19.5077 17.9998 19.4308C18.1855 19.354 18.3542 19.2413 18.4963 19.0992C18.6383 18.9571 18.751 18.7884 18.8279 18.6028C18.9047 18.4171 18.9442 18.2181 18.9441 18.0172V2.72297C18.9439 2.31735 18.7827 1.92841 18.4958 1.64167C18.2089 1.35493 17.8199 1.19385 17.4142 1.19385H17.415ZM10.838 7.28221L10.8395 10.5684L11.7469 10.3572L11.7462 8.54305C11.7462 8.12581 11.9058 7.85297 12.2227 7.72757C12.3648 7.66753 12.5176 7.63637 12.6718 7.63409V6.79581C12.5922 6.7815 12.5102 6.78698 12.4332 6.81177C11.9179 6.94325 11.696 7.50945 11.696 7.50945V7.07929L10.838 7.28221ZM6.31825 11.637C6.31825 11.637 6.17841 11.428 6.17841 10.6885V9.05225L5.73761 9.15713V8.48377L6.17917 8.37889V7.64397L7.09117 7.42889V8.16381L7.73565 8.01029V8.68365L7.09117 8.83641V10.5023C7.09117 11.26 7.29257 11.406 7.29257 11.406L6.31825 11.637ZM8.09285 8.34469C7.91425 8.67149 7.83141 9.09785 7.83141 9.68229C7.83141 10.6399 8.12097 11.3041 9.20853 11.0457C10.3561 10.7744 10.4473 9.99237 10.4549 9.67773C10.4564 9.60173 10.4542 9.53333 10.4542 9.53333L9.62881 9.73093C9.62881 9.73093 9.62653 9.82821 9.62273 9.86621C9.59841 10.1018 9.51405 10.2918 9.21005 10.3556C8.85893 10.4301 8.74265 10.1672 8.74265 9.61237V9.58349L10.5058 9.16929C10.5058 9.16929 10.5036 9.03097 10.5089 8.74673C10.5233 7.95253 10.1623 7.36049 9.16141 7.58773C8.65373 7.70401 8.30565 7.95633 8.09285 8.34469ZM8.74645 9.02793C8.75329 8.55293 8.90605 8.26641 9.19789 8.19953C9.52241 8.12581 9.63261 8.31505 9.63413 8.67377C9.63413 8.74749 9.63413 8.79537 9.63261 8.81665L8.74645 9.02793ZM15.759 7.76025C15.7248 6.76009 15.9839 5.96589 17.1004 5.71281C17.8125 5.55093 18.0823 5.73561 18.2198 5.91497C18.3513 6.08597 18.4022 6.31625 18.4022 6.63849V6.69777L17.529 6.90525V6.78365C17.529 6.40137 17.4226 6.25545 17.1452 6.32537C16.8146 6.40897 16.6816 6.72209 16.6816 7.34529V7.63637C16.6816 8.26945 16.769 8.55977 17.1498 8.47997C17.4796 8.41157 17.5252 8.12201 17.5298 7.86741C17.5313 7.82789 17.5328 7.70021 17.5328 7.70021L18.4045 7.49349C18.4045 7.49349 18.406 7.55809 18.406 7.63029C18.4038 8.46097 17.9652 8.98385 17.1452 9.17537C16.0151 9.43985 15.7939 8.78701 15.759 7.76025ZM13.8559 7.88185C13.1848 8.16001 12.7387 8.40017 12.7387 9.16169C12.7387 9.72105 13.0883 10.1299 13.7465 9.97489C14.3742 9.82669 14.5559 9.36841 14.5559 9.36841C14.5848 9.47101 14.622 9.57057 14.6676 9.66709L15.4983 9.47025C15.4983 9.47025 15.3676 9.36689 15.3676 8.66313V7.20849C15.3668 6.59441 15.0666 6.19921 14.166 6.40669C13.4729 6.56629 13.0716 6.87333 12.9363 7.32857C12.8919 7.49139 12.8721 7.65996 12.8778 7.82865L13.7244 7.62877C13.7232 7.57247 13.725 7.51615 13.7298 7.46005C13.7331 7.35781 13.7708 7.25968 13.8369 7.1816C13.903 7.10352 13.9935 7.05005 14.0938 7.02989C14.394 6.95389 14.4791 7.10969 14.4753 7.29209C14.473 7.50945 14.4601 7.63333 13.8559 7.88261V7.88185ZM14.0277 8.38117C14.182 8.30669 14.3294 8.22005 14.4692 8.12277V8.58029C14.4692 8.92837 14.283 9.17917 14.014 9.24757C13.7632 9.30913 13.6256 9.16321 13.6256 8.94053C13.6256 8.68289 13.751 8.51645 14.0277 8.38117ZM1.54925 13.9406C1.45448 13.9402 1.36157 13.9143 1.28025 13.8657C1.19893 13.817 1.13219 13.7474 1.08704 13.6641C1.04188 13.5807 1.01998 13.4868 1.02361 13.3921C1.02724 13.2974 1.05628 13.2055 1.10769 13.1258L1.11301 13.1182L1.12365 13.116L2.36397 12.8234V13.7658L2.34421 13.7696C2.06301 13.838 1.72709 13.914 1.65717 13.9292C1.62169 13.9367 1.58552 13.9406 1.54925 13.9406ZM1.17685 14.9916C1.23859 15.0538 1.31485 15.0995 1.39871 15.1247C1.48258 15.1499 1.57141 15.1538 1.65717 15.136C1.72709 15.1216 2.06301 15.0433 2.34421 14.9764L2.36397 14.9711V14.0287L1.12365 14.3221L1.11301 14.3244L1.10769 14.3335C1.04233 14.4347 1.01363 14.5552 1.02635 14.6749C1.03907 14.7947 1.0917 14.9065 1.17685 14.9916ZM1.54925 16.3528C1.45452 16.3527 1.36157 16.3271 1.28017 16.2787C1.19878 16.2302 1.13197 16.1607 1.08676 16.0774C1.04156 15.9942 1.01965 15.9003 1.02333 15.8057C1.02701 15.711 1.05616 15.6191 1.10769 15.5396L1.11301 15.5305L2.36397 15.2356V16.178L2.34421 16.1833C2.04781 16.2548 1.71721 16.3292 1.65717 16.3429C1.62161 16.3498 1.58546 16.3531 1.54925 16.3528ZM1.40257 7.51401V12.7861L2.36397 12.5581V7.28829L1.40257 7.51553V7.51401ZM3.79657 12.3377C3.79657 12.1805 3.73411 12.0297 3.62294 11.9186C3.51177 11.8074 3.36099 11.7449 3.20377 11.7449C3.04655 11.7449 2.89577 11.8074 2.78459 11.9186C2.67342 12.0297 2.61097 12.1805 2.61097 12.3377L2.61173 17.264C2.61213 17.6896 2.78124 18.0976 3.08198 18.3986C3.38273 18.6996 3.79057 18.8691 4.21609 18.8699L5.89493 18.8676V16.8126L5.89569 14.5204C5.89587 14.3927 5.86446 14.2668 5.80427 14.1541C5.74407 14.0414 5.65694 13.9453 5.55065 13.8744L4.05497 12.8583V15.1649C4.05497 15.1988 4.04152 15.2313 4.01757 15.2552C3.99363 15.2792 3.96115 15.2926 3.92729 15.2926C3.89342 15.2926 3.86095 15.2792 3.837 15.2552C3.81306 15.2313 3.79961 15.1988 3.79961 15.1649V14.8343L3.79657 12.3377ZM4.09753 8.89873C4.24497 8.78473 4.41597 8.70417 4.59761 8.66161C5.28161 8.50125 5.50201 8.90025 5.50201 9.47253V11.83L4.59077 12.0436V9.81529C4.59077 9.46569 4.42661 9.39653 4.23129 9.43909C3.97061 9.49685 3.78897 9.78869 3.78897 10.155V11.6826C3.66656 11.5746 3.51666 11.5025 3.35585 11.4743C3.19504 11.4462 3.02957 11.463 2.87773 11.523L2.87697 9.15713L3.74185 8.95193V9.32281C3.82849 9.15789 3.95009 9.01273 4.09753 8.89873Z" fill="#4A5370"/>
<path d="M2.12153 1.19385H17.4142C17.6151 1.19375 17.814 1.23323 17.9996 1.31003C18.1853 1.38683 18.3539 1.49945 18.496 1.64145C18.6381 1.78345 18.7508 1.95205 18.8277 2.13762C18.9046 2.32319 18.9441 2.5221 18.9441 2.72297V18.0172C18.9442 18.2181 18.9047 18.4171 18.8279 18.6028C18.751 18.7884 18.6383 18.9571 18.4963 19.0992C18.3542 19.2413 18.1855 19.354 17.9998 19.4308C17.8142 19.5077 17.6152 19.5472 17.4142 19.5471H2.12153C1.71598 19.5471 1.32704 19.386 1.04028 19.0992C0.75351 18.8125 0.592407 18.4235 0.592407 18.018V2.72297C0.592407 2.31742 0.75351 1.92848 1.04028 1.64172C1.32704 1.35495 1.71598 1.19385 2.12153 1.19385Z" fill="#FDB913"/>
<path d="M17.4158 1.19388C17.8213 1.19408 18.2101 1.35525 18.4968 1.64197C18.7835 1.92869 18.9447 2.31751 18.9449 2.723V18.0172C18.9449 18.4228 18.7838 18.8117 18.497 19.0985C18.2103 19.3853 17.8213 19.5464 17.4158 19.5464H2.12156C1.92072 19.5465 1.72184 19.507 1.53627 19.4302C1.3507 19.3534 1.18209 19.2407 1.04008 19.0987C0.898071 18.9567 0.785441 18.7881 0.708631 18.6025C0.631821 18.417 0.592337 18.2181 0.592437 18.0172V2.723C0.592437 2.31745 0.75354 1.92851 1.04031 1.64175C1.32707 1.35498 1.71601 1.19388 2.12156 1.19388H17.4158ZM17.4158 0.870117H2.12156C1.63027 0.87052 1.15921 1.06586 0.811817 1.41326C0.464422 1.76065 0.269079 2.23171 0.268677 2.723L0.268677 18.0172C0.26928 18.5085 0.464687 18.9794 0.812039 19.3268C1.15939 19.6741 1.63033 19.8695 2.12156 19.8701H17.4158C17.9071 19.8697 18.3781 19.6744 18.7255 19.327C19.0729 18.9796 19.2683 18.5085 19.2687 18.0172V2.723C19.2683 2.23171 19.0729 1.76065 18.7255 1.41326C18.3781 1.06586 17.9071 0.87052 17.4158 0.870117Z" fill="#FDB913"/>
<path d="M10.8395 10.5685L10.838 7.28229L11.696 7.07937V7.50953C11.696 7.50953 11.9179 6.94333 12.4332 6.81185C12.5103 6.78706 12.5922 6.78158 12.6719 6.79589V7.63417C12.5175 7.63619 12.365 7.66793 12.2227 7.72765C11.9058 7.85305 11.7462 8.12589 11.7462 8.54313V10.3573L10.8395 10.5685ZM6.31826 11.6371C6.31826 11.6371 6.17842 11.4281 6.17842 10.6886V9.05233L5.73762 9.15721V8.48385L6.17918 8.37897V7.64405L7.09118 7.42897V8.16389L7.73566 8.01037V8.68373L7.09118 8.83649V10.5024C7.09118 11.2601 7.29258 11.4061 7.29258 11.4061L6.31826 11.6371ZM7.83066 9.68237C7.83066 9.09793 7.91426 8.67157 8.09286 8.34477C8.30566 7.95717 8.65374 7.70409 9.16142 7.58781C10.1623 7.36057 10.5233 7.95261 10.5097 8.74681C10.5036 9.03105 10.5051 9.16937 10.5051 9.16937L8.7419 9.58357V9.61245C8.7419 10.1673 8.85894 10.4302 9.21082 10.3557C9.51482 10.2919 9.59842 10.1011 9.62274 9.86629C9.62654 9.82829 9.62882 9.73177 9.62882 9.73177L10.4542 9.53417C10.4542 9.53417 10.4565 9.60105 10.4549 9.67705C10.4473 9.99245 10.3561 10.7745 9.20854 11.0458C8.12174 11.3042 7.83142 10.64 7.83142 9.68237H7.83066ZM9.19866 8.20037C8.90606 8.26649 8.7533 8.55301 8.74646 9.02801L9.63338 8.81673C9.6349 8.79545 9.6349 8.74833 9.6349 8.67385C9.63338 8.31513 9.52242 8.12665 9.1979 8.20037H9.19866ZM15.759 7.76033C15.7248 6.76017 15.9839 5.96597 17.1004 5.71289C17.8125 5.55101 18.0823 5.73569 18.2199 5.91505C18.3513 6.08605 18.4023 6.31633 18.4023 6.63857V6.69785L17.529 6.90533V6.78373C17.529 6.40145 17.4226 6.25553 17.1452 6.32545C16.8146 6.40905 16.6816 6.72217 16.6816 7.34537V7.63645C16.6816 8.26953 16.769 8.55985 17.1498 8.48005C17.4796 8.41165 17.5252 8.12209 17.5298 7.86749C17.5313 7.82797 17.5328 7.70029 17.5328 7.70029L18.4045 7.49357C18.4045 7.49357 18.4061 7.55817 18.4061 7.63037C18.4038 8.46105 17.9653 8.98393 17.1452 9.17545C16.0151 9.43993 15.7939 8.78709 15.759 7.76033ZM12.7395 9.16177C12.7395 8.40025 13.1849 8.16009 13.8567 7.88193C14.4594 7.63265 14.4723 7.50877 14.4753 7.29141C14.4791 7.10901 14.394 6.95245 14.0938 7.02921C13.9935 7.04938 13.903 7.10284 13.8369 7.18092C13.7708 7.25901 13.7331 7.35713 13.7298 7.45937C13.725 7.51547 13.7232 7.5718 13.7245 7.62809L12.8778 7.82797C12.8722 7.65929 12.8919 7.49071 12.9363 7.32789C13.0716 6.87189 13.4729 6.56637 14.166 6.40601C15.0666 6.19853 15.3668 6.59373 15.3676 7.20781V8.66321C15.3676 9.36773 15.4983 9.47033 15.4983 9.47033L14.6676 9.66717C14.6217 9.57109 14.5843 9.47115 14.5559 9.36849C14.5559 9.36849 14.3735 9.82677 13.7473 9.97421C13.0883 10.13 12.7395 9.72189 12.7395 9.16177ZM14.4693 8.12209C14.3294 8.22089 14.182 8.30677 14.0277 8.38049C13.7511 8.51653 13.6249 8.68297 13.6249 8.94061C13.6249 9.16329 13.7632 9.30921 14.014 9.24765C14.2831 9.17925 14.47 8.92845 14.47 8.58037V8.12209H14.4693ZM1.54926 13.9407C1.4545 13.9403 1.36159 13.9144 1.28027 13.8657C1.19895 13.8171 1.13221 13.7475 1.08706 13.6641C1.0419 13.5808 1.01999 13.4869 1.02363 13.3922C1.02726 13.2975 1.0563 13.2055 1.1077 13.1259L1.11302 13.1183L1.12366 13.1161L2.36398 12.8235V13.7659L2.34422 13.7697C2.06302 13.8381 1.7271 13.9141 1.65718 13.9293C1.62171 13.9368 1.58554 13.9406 1.54926 13.9407ZM1.54926 15.146C1.45454 15.1459 1.36158 15.1203 1.28019 15.0719C1.1988 15.0234 1.13198 14.9539 1.08678 14.8707C1.04158 14.7874 1.01967 14.6935 1.02335 14.5989C1.02703 14.5042 1.05617 14.4123 1.1077 14.3328L1.11302 14.3245L1.12366 14.3222L2.36398 14.0288V14.9712L2.34422 14.9765C2.06302 15.0434 1.7271 15.1217 1.65718 15.1361C1.62159 15.1426 1.58545 15.1465 1.54926 15.146ZM1.54926 16.3529C1.45454 16.3528 1.36158 16.3272 1.28019 16.2788C1.1988 16.2303 1.13198 16.1608 1.08678 16.0775C1.04158 15.9943 1.01967 15.9004 1.02335 15.8057C1.02703 15.7111 1.05617 15.6192 1.1077 15.5397L1.11302 15.5306L2.36398 15.2357V16.1781L2.34422 16.1834C2.04782 16.2549 1.71722 16.3293 1.65718 16.343C1.62163 16.3499 1.58548 16.3532 1.54926 16.3529ZM1.40334 12.7862V7.51485L2.36398 7.28761V12.559L1.40334 12.7862ZM3.79658 12.3378C3.79658 12.1806 3.73413 12.0298 3.62296 11.9186C3.51179 11.8075 3.361 11.745 3.20378 11.745C3.04656 11.745 2.89578 11.8075 2.78461 11.9186C2.67344 12.0298 2.61098 12.1806 2.61098 12.3378L2.61174 17.2641C2.61215 17.6896 2.78126 18.0976 3.082 18.3987C3.38275 18.6997 3.79058 18.8692 4.2161 18.87L5.89494 18.8677V16.8127L5.8957 14.5205C5.89582 14.3928 5.86438 14.267 5.80419 14.1543C5.744 14.0416 5.65691 13.9455 5.55066 13.8745L4.05498 12.8584V15.165C4.05498 15.1989 4.04153 15.2313 4.01759 15.2553C3.99364 15.2792 3.96117 15.2927 3.9273 15.2927C3.89344 15.2927 3.86097 15.2792 3.83702 15.2553C3.81308 15.2313 3.79962 15.1989 3.79962 15.165L3.79658 12.3378ZM4.59762 8.66169C4.41582 8.70386 4.24525 8.78476 4.09756 8.89887C3.94988 9.01298 3.82855 9.15761 3.74186 9.32289V8.95277L2.87698 9.15797L2.87774 11.5231C3.02958 11.4631 3.19505 11.4462 3.35587 11.4744C3.51668 11.5026 3.66657 11.5747 3.78898 11.6827V10.1551C3.78898 9.78877 3.97138 9.49693 4.2313 9.43917C4.42662 9.39661 4.59002 9.46653 4.59002 9.81537L4.59078 12.0437L5.50278 11.8301V9.47261C5.50278 8.90033 5.28238 8.50133 4.59762 8.66169Z" fill="#231F20"/>
</svg>
