<svg width="21" height="20" viewBox="0 0 21 20" fill="none" xmlns="http://www.w3.org/2000/svg">
<path d="M9.65854 0.870605L9.53085 1.30336V13.8661L9.65854 13.9927L15.5131 10.5465L9.65854 0.870605Z" fill="#2E3038"/>
<path d="M9.65854 0.870605L3.80394 10.5465L9.65854 13.9938V0.870605Z" fill="#8C8C8C"/>
<path d="M9.65853 15.0978L9.58678 15.1854V19.6607L9.65853 19.8697L15.5174 11.6526L9.65853 15.0978Z" fill="#3C3C3B"/>
<path d="M9.65854 19.8697V15.0978L3.80394 11.6526L9.65854 19.8697Z" fill="#8C8C8C"/>
<path d="M9.65854 13.9937L15.5131 10.5464L9.65854 7.896V13.9937Z" fill="#141414"/>
<path d="M3.80394 10.5464L9.65854 13.9937V7.896L3.80394 10.5464Z" fill="#393939"/>
<path d="M9.65854 0.870605L9.53085 1.30336V13.8661L9.65854 13.9927L15.5131 10.5465L9.65854 0.870605Z" fill="#34405E"/>
<path d="M9.65854 0.870605L3.80394 10.5465L9.65854 13.9938V0.870605Z" fill="#34405E"/>
<path d="M9.65853 15.0978L9.58678 15.1854V19.6607L9.65853 19.8697L15.5174 11.6526L9.65853 15.0978Z" fill="#34405E"/>
<path d="M9.65854 19.8697V15.0978L3.80394 11.6526L9.65854 19.8697Z" fill="#34405E"/>
<path d="M9.65854 13.9937L15.5131 10.5464L9.65854 7.896V13.9937Z" fill="#2E3038"/>
<path d="M3.80394 10.5464L9.65854 13.9937V7.896L3.80394 10.5464Z" fill="#3B3E49"/>
</svg>
