<svg width="76" height="26" viewBox="0 0 76 26" fill="none" xmlns="http://www.w3.org/2000/svg">
<g clip-path="url(#clip0_1_5859)">
<g clip-path="url(#clip1_1_5859)">
<g clip-path="url(#clip2_1_5859)">
<mask id="mask0_1_5859" style="mask-type:luminance" maskUnits="userSpaceOnUse" x="1" y="0" width="74" height="26">
<path d="M74.6112 0.870117H1.09889V25.8701H74.6112V0.870117Z" fill="white"/>
</mask>
<g mask="url(#mask0_1_5859)">
<path d="M6.75267 1.1772H16.1396L11.2138 17.7394C10.8681 18.9013 11.6016 19.8595 12.8101 19.8595C14.019 19.8595 15.2635 18.9013 15.6088 17.7394L20.5347 1.1772L28.8586 1.177L23.171 22.3488C22.669 24.2163 20.6741 25.7449 18.7378 25.7449H4.33626C2.03514 25.7449 0.640317 23.9289 1.23678 21.7083L6.75267 1.1772Z" fill="#FA4031"/>
<path d="M39.2995 10.2244L48.939 10.2246L47.188 15.9592H37.5451L34.8683 25.7452H25.8059L30.2371 10.2244H39.2995Z" fill="#FA4031"/>
<path d="M58.0545 0.928467H70.3137C72.107 0.928467 75.151 2.36528 74.5281 4.65019L74.2826 5.5498H63.3431C62.7812 5.5498 62.1965 6.00039 62.0446 6.55081L58.6447 18.8626C58.4928 19.4132 58.8282 19.8635 59.3902 19.8635H70.3795L69.5827 22.785C69.1215 24.4776 67.3029 25.8699 65.5105 25.8699H52.5684C50.2873 25.8699 48.8859 24.1035 49.4544 21.9453L54.2276 3.82685C54.6475 2.23256 56.3696 0.928467 58.0545 0.928467Z" fill="#FA4031"/>
<path d="M49.9064 6.87719H40.2866L40.2818 6.89372H31.2195L32.963 0.869873C39.1894 0.869873 45.4159 0.869873 51.6419 0.869873L49.9064 6.87719Z" fill="#FA4031"/>
</g>
</g>
</g>
</g>
<defs>
<clipPath id="clip0_1_5859">
<rect width="75" height="25" fill="white" transform="translate(0.240005 0.870117)"/>
</clipPath>
<clipPath id="clip1_1_5859">
<rect width="75" height="25" fill="white" transform="translate(0.240005 0.870117)"/>
</clipPath>
<clipPath id="clip2_1_5859">
<rect width="74" height="25" fill="white" transform="translate(0.740005 0.870117)"/>
</clipPath>
</defs>
</svg>
