<svg width="26" height="26" viewBox="0 0 26 26" fill="none" xmlns="http://www.w3.org/2000/svg">
<g clip-path="url(#clip0_1_5892)">
<g clip-path="url(#clip1_1_5892)">
<g clip-path="url(#clip2_1_5892)">
<mask id="mask0_1_5892" style="mask-type:luminance" maskUnits="userSpaceOnUse" x="1" y="0" width="24" height="26">
<path d="M24.5292 0.870117H1.19586V25.8701H24.5292V0.870117Z" fill="white"/>
</mask>
<g mask="url(#mask0_1_5892)">
<path d="M23.198 7.08584L24.0548 5.21575L22.0351 4.64278C21.4198 4.468 20.9672 4.00924 20.6893 3.27964L19.7974 0.931885L17.8065 2.51693C17.2787 2.93712 16.7441 3.14994 16.2169 3.14994C15.5121 3.14994 14.7099 2.82003 14.173 2.30966L12.8914 1.09033L11.6092 2.30977C11.0729 2.82013 10.2704 3.15005 9.56575 3.15005C9.03864 3.15005 8.50397 2.93723 7.97609 2.51704L5.98553 0.931992L5.0932 3.27975C4.8162 4.00945 4.36342 4.46821 3.74731 4.64289L1.72809 5.21586L2.58475 7.08595C2.98053 7.94919 3.18086 8.85016 3.18086 9.76362C3.18086 12.2915 1.8402 12.8665 1.8402 15.6742C1.8402 19.7192 5.09331 22.3662 8.1162 23.1143C9.64353 23.4718 10.1049 23.4958 11.484 23.8227C11.597 23.9394 12.8914 25.2791 12.8914 25.2791C12.8914 25.2791 14.186 23.9392 14.2987 23.8227C15.6778 23.4958 16.1393 23.4718 17.6667 23.1143C20.6893 22.366 23.9429 19.7193 23.9429 15.6742C23.9429 12.8666 22.602 12.2915 22.602 9.76362C22.6018 8.84973 22.8024 7.94909 23.198 7.08584ZM22.9783 12.7566C23.301 13.5334 23.6128 14.3439 23.6128 15.6743C23.6128 19.3693 20.7515 22.0233 17.5845 22.8071C16.0187 23.1874 15.2893 23.2243 14.1222 23.539C13.9701 23.6924 12.8921 24.8128 12.8921 24.8128C12.8921 24.8128 11.8137 23.6921 11.6617 23.539C10.4945 23.2245 9.76542 23.1874 8.19975 22.8071C5.75342 22.202 3.49086 20.4809 2.58675 18.0274C2.31986 17.3034 2.17086 16.5164 2.17086 15.6745C2.17086 12.9151 3.51186 12.3924 3.51186 9.76394C3.51186 8.68669 3.24253 7.73317 2.88742 6.95796L2.18253 5.41842L3.84097 4.94781C4.56286 4.7431 5.08886 4.21875 5.40408 3.38926L6.1352 1.46394L7.76553 2.76169C8.30186 3.18883 8.91475 3.46778 9.56619 3.46778C10.4385 3.46778 11.3022 3.04941 11.8419 2.53573L12.8915 1.53723L13.9414 2.53573C14.4813 3.04941 15.345 3.46778 16.217 3.46778C16.8677 3.46778 17.4811 3.18883 18.0173 2.76169L19.6478 1.46383L20.3788 3.38915C20.6943 4.21875 21.2195 4.7431 21.9419 4.9477L23.6004 5.41832L22.8955 6.95785C22.5405 7.73306 22.2711 8.68659 22.2711 9.76383C22.2717 11.1254 22.6315 11.9213 22.9783 12.7566Z" fill="white"/>
<path d="M22.5611 5.88797C22.5611 5.88797 20.0015 5.67344 19.3079 2.68135C19.3079 2.68135 17.7731 4.20144 16.2172 4.20144C14.2116 4.20144 12.8916 2.56201 12.8916 2.56201C12.8916 2.56201 11.5716 4.20144 9.56594 4.20144C8.00994 4.20144 6.47516 2.68135 6.47516 2.68135C5.7815 5.67376 3.2215 5.88797 3.2215 5.88797C3.2215 5.88797 4.26294 7.65966 4.26294 9.75752C4.26294 10.0331 4.2485 10.2871 4.22338 10.5261C4.00283 12.6217 2.92438 13.4623 2.92438 15.674C2.92438 18.3874 4.85749 21.236 8.38683 22.0946C10.0638 22.5019 11.2213 22.6058 12.0735 22.9016C12.1825 22.9997 12.8917 23.7388 12.8917 23.7388C12.8917 23.7388 13.6007 22.9997 13.7096 22.9016C14.5618 22.6058 15.7195 22.502 17.3959 22.0946C20.9256 21.236 22.8585 18.3877 22.8585 15.674C22.8585 13.2106 21.5202 12.4488 21.5202 9.75763C21.5198 7.65966 22.5611 5.88797 22.5611 5.88797ZM22.1063 15.6741C22.1063 18.8106 19.5646 20.8073 17.2081 21.3826C15.3418 21.8378 14.1219 21.8901 13.3025 22.27C13.3025 22.27 13.0042 22.532 12.8916 22.6527C12.7785 22.532 12.4807 22.27 12.4807 22.27C11.6612 21.8901 10.4414 21.8378 8.57505 21.3826C6.21861 20.8069 3.67661 18.8107 3.67661 15.6741C3.67661 13.431 5.01583 12.6073 5.01583 9.75774C5.01583 7.83765 4.26094 6.35806 4.26094 6.35806C4.26094 6.35806 6.00305 6.02013 6.81461 3.89973C6.81461 3.89973 7.9705 4.93712 9.56616 4.93712C11.5646 4.93712 12.8918 3.58787 12.8918 3.58787C12.8918 3.58787 14.2188 4.93712 16.2174 4.93712C17.8128 4.93712 18.9686 3.89973 18.9686 3.89973C19.7804 6.02013 21.5226 6.35806 21.5226 6.35806C21.5226 6.35806 20.7674 7.83776 20.7674 9.75774C20.7669 12.6073 22.1063 13.431 22.1063 15.6741Z" fill="white"/>
<path d="M16.2171 5.75885C14.7246 5.75885 13.5581 5.13289 12.8914 4.66162C12.2243 5.13289 11.0581 5.75885 9.56584 5.75885C8.58062 5.75885 7.74196 5.43833 7.15085 5.12007C6.60062 6.00329 5.91029 6.51665 5.36018 6.80671C5.59663 7.48737 5.87107 8.53919 5.87107 9.75724C5.87107 12.1031 5.03796 13.2018 4.68585 14.5297L16.9044 5.70703C16.6852 5.74004 16.4554 5.75885 16.2171 5.75885Z" fill="white"/>
<path d="M19.9114 9.75769C19.9114 8.53963 20.1862 7.48771 20.4224 6.80715C19.9517 6.55854 19.3769 6.14625 18.8769 5.47852L4.53448 15.8349C4.60304 17.8716 5.97204 19.3545 7.53548 20.1272L20.0147 11.1162C19.9504 10.7114 19.9114 10.2638 19.9114 9.75769ZM10.9114 16.775L9.80159 17.5759L8.6047 15.8138V18.4408L7.55481 19.1987V15.4834C7.55481 14.9585 7.0337 14.9445 7.0337 14.9445L8.52181 13.87L9.8617 15.843V12.9024L10.9116 12.1443L10.9114 16.775ZM15.1455 13.7178L14.1191 14.4592V12.766L12.9344 13.6209V15.3146L11.8557 16.0934V12.3778C11.8557 11.8528 11.3346 11.8388 11.3346 11.8388L12.9344 10.6837V12.3951L14.1191 11.54V9.82905L15.1455 9.08685V13.7178ZM19.0194 10.9205L16.0415 13.0708V9.35555C16.0415 8.83023 15.5204 8.81634 15.5204 8.81634L17.1199 7.66132V11.11L19.0195 9.73888C19.0194 9.73888 18.9548 10.1795 19.0194 10.9205Z" fill="white"/>
<path d="M8.61823 20.5415C8.67401 20.5567 8.73001 20.5717 8.78568 20.5847C10.264 20.9461 12.0721 21.1322 12.618 21.4323C12.7412 21.519 12.892 21.6727 12.892 21.6727C12.892 21.6727 13.0425 21.519 13.1656 21.4323C13.7119 21.1322 15.5199 20.9461 16.9983 20.5847C19.0463 20.0837 21.2518 18.3346 21.2518 15.6737C21.2518 14.3474 20.6468 13.4744 20.2498 12.1421L8.61823 20.5415Z" fill="white"/>
</g>
</g>
</g>
</g>
<defs>
<clipPath id="clip0_1_5892">
<rect width="25" height="25" fill="white" transform="translate(0.669983 0.870117)"/>
</clipPath>
<clipPath id="clip1_1_5892">
<rect width="25" height="25" fill="white" transform="translate(0.669983 0.870117)"/>
</clipPath>
<clipPath id="clip2_1_5892">
<rect width="24" height="25" fill="white" transform="translate(1.16998 0.870117)"/>
</clipPath>
</defs>
</svg>
