<svg width="63" height="26" viewBox="0 0 63 26" fill="none" xmlns="http://www.w3.org/2000/svg">
<g clip-path="url(#clip0_1_5853)">
<g clip-path="url(#clip1_1_5853)">
<g clip-path="url(#clip2_1_5853)">
<path d="M60.5814 14.3517C56.8038 10.5106 52.2885 7.45695 47.3013 5.37042C42.3211 3.29431 36.9709 2.22872 31.5676 2.23668C26.1652 2.22821 20.8159 3.29321 15.8364 5.36867C10.8492 7.45473 6.33363 10.5078 2.5555 14.3482L1.56888 13.3981C5.47624 9.42776 10.1458 6.27149 15.3029 4.115C20.4509 1.96711 25.9815 0.863727 31.5676 0.870145C37.3318 0.870145 42.8284 2.02496 47.8348 4.11675C52.9925 6.27301 57.6622 9.42998 61.5689 13.4016L60.5814 14.3517ZM48.84 25.8596C46.6417 23.4837 43.9693 21.5858 40.9921 20.2859C38.0208 18.9933 34.8102 18.3282 31.5649 18.3332C28.2067 18.3332 25.0163 19.0322 22.1315 20.2894C19.1527 21.5906 16.4796 23.4911 14.2819 25.8701L13.2634 24.9454C15.5914 22.4275 18.4224 20.4165 21.5768 19.0401C24.7242 17.6678 28.1261 16.9613 31.5649 16.9658C35.113 16.9658 38.4907 17.7059 41.5459 19.0366C44.6976 20.4119 47.5262 22.4211 49.8522 24.9366L48.84 25.8596Z" fill="white"/>
<path fill-rule="evenodd" clip-rule="evenodd" d="M12.3698 10.3684L15.3729 14.2179C17.1263 16.4663 16.1856 18.4252 14.3068 19.8634C12.3186 21.3857 10.1678 21.5686 8.53018 19.4706L5.51907 15.6107L7.22733 14.3036L10.2694 18.2029C11.0299 19.1784 12.2011 19.2195 13.1851 18.4663C14.0895 17.7742 14.5586 16.6684 13.6117 15.4558L10.6633 11.6764L12.3698 10.3684ZM29.077 13.7542L22.8349 15.0779L21.0198 6.69487L27.1771 5.38957L27.5092 6.92584L23.4629 7.78321L23.8427 9.5417L27.7026 8.72369L28.0356 10.2591L24.1757 11.078L24.6112 13.0946L28.7449 12.218L29.077 13.7542ZM41.8183 8.05355L38.0803 7.33266L37.7111 9.20837L41.4491 9.92751L41.1479 11.4708L37.409 10.7516L36.7315 14.2065L34.6125 13.7997L36.2634 5.38257L42.1204 6.51028L41.8183 8.05355ZM51.1882 16.9781L48.9976 15.4742L51.9584 13.4524L51.1882 16.9781ZM54.1383 12.4568L52.0838 11.0456L44.2827 16.1207L46.1597 17.4112L47.6674 16.3806L50.849 18.566L50.4577 20.3621L52.3656 21.6744L54.1383 12.4568Z" fill="white"/>
</g>
</g>
</g>
<defs>
<clipPath id="clip0_1_5853">
<rect width="61.66" height="25" fill="white" transform="translate(0.880005 0.870117)"/>
</clipPath>
<clipPath id="clip1_1_5853">
<rect width="61.66" height="25" fill="white" transform="translate(0.880005 0.870117)"/>
</clipPath>
<clipPath id="clip2_1_5853">
<rect width="61" height="25" fill="white" transform="translate(1.20999 0.870117)"/>
</clipPath>
</defs>
</svg>
