<svg width="35" height="36" viewBox="0 0 35 36" fill="none" xmlns="http://www.w3.org/2000/svg">
<g clip-path="url(#clip0_1_5845)">
<rect width="35" height="35" transform="translate(0 0.870117)" fill="white"/>
<path d="M21.876 17.5201C21.721 14.6761 20.167 13.0471 17.558 13.0301C15.984 13.0211 14.669 13.6881 13.863 14.9101L15.3 15.8941C15.903 14.9791 16.857 14.7891 17.547 14.7961C18.407 14.8011 19.055 15.0511 19.475 15.5391C19.78 15.8931 19.985 16.3831 20.086 17.0011C19.324 16.8711 18.499 16.8311 17.62 16.8821C15.138 17.0251 13.543 18.4721 13.65 20.4831C13.704 21.5031 14.212 22.3811 15.08 22.9551C15.814 23.4391 16.76 23.6751 17.742 23.6221C19.04 23.5511 20.059 23.0571 20.769 22.1511C21.309 21.4631 21.649 20.5711 21.799 19.4501C22.419 19.8231 22.876 20.3141 23.13 20.9041C23.56 21.9081 23.585 23.5581 22.24 24.9021C21.06 26.0791 19.643 26.5901 17.501 26.6051C15.125 26.5881 13.328 25.8251 12.161 24.3411C11.064 22.9501 10.5 20.9401 10.48 18.3701C10.5 15.7991 11.066 13.7901 12.16 12.3991C13.328 10.9141 15.125 10.1521 17.501 10.1351C19.895 10.1531 21.722 10.9181 22.936 12.4111C23.531 13.1421 23.979 14.0621 24.275 15.1351L25.957 14.6871C25.597 13.3671 25.034 12.2281 24.267 11.2841C22.712 9.37012 20.427 8.39012 17.496 8.37012C14.57 8.39012 12.322 9.37512 10.81 11.2951C9.46602 13.0051 8.77202 15.3951 8.74902 18.3771C8.77202 21.3571 9.46602 23.7361 10.81 25.4451C12.321 27.3651 14.581 28.3501 17.505 28.3701C20.106 28.3521 21.939 27.6711 23.448 26.1631C25.424 24.1891 25.364 21.7161 24.714 20.1981C24.214 19.0311 23.219 18.0971 21.876 17.5211H21.875L21.876 17.5201ZM17.649 21.8601C16.561 21.9211 15.432 21.4341 15.376 20.3881C15.335 19.6131 15.928 18.7481 17.716 18.6451C18.5238 18.591 19.3352 18.6468 20.128 18.8111C19.922 21.3841 18.714 21.8011 17.649 21.8611V21.8601Z" fill="#090F1E"/>
</g>
<defs>
<clipPath id="clip0_1_5845">
<rect y="0.870117" width="35" height="35" rx="10" fill="white"/>
</clipPath>
</defs>
</svg>
