<svg width="35" height="36" viewBox="0 0 35 36" fill="none" xmlns="http://www.w3.org/2000/svg">
<g clip-path="url(#clip0_1_5803)">
<g filter="url(#filter0_d_1_5803)">
<rect width="35" height="35" transform="translate(0 0.870117)" fill="url(#paint0_linear_1_5803)"/>
<path d="M26.8959 13.6567C26.7837 13.2433 26.5653 12.8664 26.2624 12.5635C25.9595 12.2606 25.5826 12.0422 25.1692 11.93C23.6348 11.51 17.5 11.51 17.5 11.51C17.5 11.51 11.3652 11.51 9.83081 11.9132C9.41756 12.0315 9.04168 12.2541 8.7393 12.5595C8.43691 12.865 8.21819 13.2432 8.10415 13.6576C7.70001 15.1911 7.70001 18.37 7.70001 18.37C7.70001 18.37 7.70001 21.5676 8.10321 23.0852C8.21541 23.4988 8.43392 23.8758 8.737 24.1787C9.04009 24.4816 9.41719 24.6999 9.83081 24.8119C11.3811 25.2319 17.5 25.2319 17.5 25.2319C17.5 25.2319 23.6348 25.2319 25.1692 24.8287C25.5827 24.7164 25.9597 24.4979 26.2626 24.1948C26.5655 23.8917 26.7838 23.5147 26.8959 23.1011C27.3 21.5676 27.3 18.3868 27.3 18.3868C27.3 18.3868 27.3159 15.1901 26.8959 13.6567Z" fill="white"/>
<path d="M20.6481 18.371L15.5465 15.4329V21.3091L20.6481 18.371Z" fill="#F96057"/>
</g>
</g>
<defs>
<filter id="filter0_d_1_5803" x="-16" y="-10.1299" width="67" height="67" filterUnits="userSpaceOnUse" color-interpolation-filters="sRGB">
<feFlood flood-opacity="0" result="BackgroundImageFix"/>
<feColorMatrix in="SourceAlpha" type="matrix" values="0 0 0 0 0 0 0 0 0 0 0 0 0 0 0 0 0 0 127 0" result="hardAlpha"/>
<feOffset dy="5"/>
<feGaussianBlur stdDeviation="8"/>
<feComposite in2="hardAlpha" operator="out"/>
<feColorMatrix type="matrix" values="0 0 0 0 0.964706 0 0 0 0 0.298039 0 0 0 0 0.298039 0 0 0 0.3 0"/>
<feBlend mode="normal" in2="BackgroundImageFix" result="effect1_dropShadow_1_5803"/>
<feBlend mode="normal" in="SourceGraphic" in2="effect1_dropShadow_1_5803" result="shape"/>
</filter>
<linearGradient id="paint0_linear_1_5803" x1="0" y1="0" x2="35" y2="35" gradientUnits="userSpaceOnUse">
<stop stop-color="#FF4F4F"/>
<stop offset="1" stop-color="#FF0000"/>
</linearGradient>
<clipPath id="clip0_1_5803">
<rect y="0.870117" width="35" height="35" rx="10" fill="white"/>
</clipPath>
</defs>
</svg>
