<svg width="35" height="36" viewBox="0 0 35 36" fill="none" xmlns="http://www.w3.org/2000/svg">
<g clip-path="url(#clip0_1_5837)">
<rect width="35" height="35" transform="translate(0 0.870117)" fill="url(#paint0_linear_1_5837)"/>
<path d="M24.512 11.2802C23.5952 10.3541 22.5032 9.61992 21.2996 9.1203C20.0961 8.62069 18.8051 8.36569 17.502 8.37018C12.042 8.37018 7.59202 12.8202 7.59202 18.2802C7.59202 20.0302 8.05202 21.7302 8.91202 23.2302L7.51202 28.3702L12.762 26.9902C14.212 27.7802 15.842 28.2002 17.502 28.2002C22.962 28.2002 27.412 23.7502 27.412 18.2902C27.412 15.6402 26.382 13.1502 24.512 11.2802ZM17.502 26.5202C16.022 26.5202 14.572 26.1202 13.302 25.3702L13.002 25.1902L9.88202 26.0102L10.712 22.9702L10.512 22.6602C9.68977 21.3471 9.25316 19.8294 9.25202 18.2802C9.25202 13.7402 12.952 10.0402 17.492 10.0402C19.692 10.0402 21.762 10.9002 23.312 12.4602C24.0796 13.2241 24.6878 14.1328 25.1015 15.1336C25.5152 16.1343 25.7261 17.2073 25.722 18.2902C25.742 22.8302 22.042 26.5202 17.502 26.5202ZM22.022 20.3602C21.772 20.2402 20.552 19.6402 20.332 19.5502C20.102 19.4702 19.942 19.4302 19.772 19.6702C19.602 19.9202 19.132 20.4802 18.992 20.6402C18.852 20.8102 18.702 20.8302 18.452 20.7002C18.202 20.5802 17.402 20.3102 16.462 19.4702C15.722 18.8102 15.232 18.0002 15.082 17.7502C14.942 17.5002 15.062 17.3702 15.192 17.2402C15.302 17.1302 15.442 16.9502 15.562 16.8102C15.682 16.6702 15.732 16.5602 15.812 16.4002C15.892 16.2302 15.852 16.0902 15.792 15.9702C15.732 15.8502 15.232 14.6302 15.032 14.1302C14.832 13.6502 14.622 13.7102 14.472 13.7002H13.992C13.822 13.7002 13.562 13.7602 13.332 14.0102C13.112 14.2602 12.472 14.8602 12.472 16.0802C12.472 17.3002 13.362 18.4802 13.482 18.6402C13.602 18.8102 15.232 21.3102 17.712 22.3802C18.302 22.6402 18.762 22.7902 19.122 22.9002C19.712 23.0902 20.252 23.0602 20.682 23.0002C21.162 22.9302 22.152 22.4002 22.352 21.8202C22.562 21.2402 22.562 20.7502 22.492 20.6402C22.422 20.5302 22.272 20.4802 22.022 20.3602Z" fill="white"/>
</g>
<defs>
<linearGradient id="paint0_linear_1_5837" x1="17.5" y1="0" x2="17.5" y2="35" gradientUnits="userSpaceOnUse">
<stop stop-color="#61FD7D"/>
<stop offset="1" stop-color="#25CF43"/>
</linearGradient>
<clipPath id="clip0_1_5837">
<rect y="0.870117" width="35" height="35" rx="10" fill="white"/>
</clipPath>
</defs>
</svg>
