<svg width="35" height="36" viewBox="0 0 35 36" fill="none" xmlns="http://www.w3.org/2000/svg">
<g clip-path="url(#clip0_1_5784)">
<g filter="url(#filter0_d_1_5784)">
<rect width="35" height="35" transform="translate(0 0.870117)" fill="url(#paint0_linear_1_5784)"/>
<path d="M15.3957 24.5473C14.8893 24.5473 14.9757 24.3566 14.8007 23.8744L13.3136 18.9801L24.7622 12.188" fill="#C8DAEA"/>
<path d="M15.3958 24.5474C15.7858 24.5474 15.9579 24.3688 16.1758 24.1574L18.2572 22.1331L15.6608 20.5674" fill="#A9C9DD"/>
<path d="M15.6609 20.5681L21.9523 25.2159C22.6702 25.6124 23.188 25.4066 23.3666 24.5495L25.928 12.4816C26.1902 11.4302 25.528 10.9531 24.8409 11.2652L9.80302 17.0638C8.77659 17.4752 8.7816 18.0481 9.61588 18.3031L13.4745 19.5081L22.4087 13.8709C22.8302 13.6145 23.218 13.7524 22.9002 14.0345" fill="url(#paint1_linear_1_5784)"/>
</g>
</g>
<defs>
<filter id="filter0_d_1_5784" x="-16" y="-10.1299" width="67" height="67" filterUnits="userSpaceOnUse" color-interpolation-filters="sRGB">
<feFlood flood-opacity="0" result="BackgroundImageFix"/>
<feColorMatrix in="SourceAlpha" type="matrix" values="0 0 0 0 0 0 0 0 0 0 0 0 0 0 0 0 0 0 127 0" result="hardAlpha"/>
<feOffset dy="5"/>
<feGaussianBlur stdDeviation="8"/>
<feComposite in2="hardAlpha" operator="out"/>
<feColorMatrix type="matrix" values="0 0 0 0 0.298039 0 0 0 0 0.635294 0 0 0 0 0.964706 0 0 0 0.3 0"/>
<feBlend mode="normal" in2="BackgroundImageFix" result="effect1_dropShadow_1_5784"/>
<feBlend mode="normal" in="SourceGraphic" in2="effect1_dropShadow_1_5784" result="shape"/>
</filter>
<linearGradient id="paint0_linear_1_5784" x1="38.2248" y1="5.6308" x2="-3.22479" y2="29.3692" gradientUnits="userSpaceOnUse">
<stop stop-color="#0FB1D6"/>
<stop offset="0.6134" stop-color="#0855C4"/>
</linearGradient>
<linearGradient id="paint1_linear_1_5784" x1="1129.47" y1="633.418" x2="1373.11" y2="1188.53" gradientUnits="userSpaceOnUse">
<stop stop-color="#EFF7FC"/>
<stop offset="1" stop-color="white"/>
</linearGradient>
<clipPath id="clip0_1_5784">
<rect y="0.870117" width="35" height="35" rx="10" fill="white"/>
</clipPath>
</defs>
</svg>
