<svg width="27" height="24" viewBox="0 0 27 24" fill="none" xmlns="http://www.w3.org/2000/svg">
<path d="M19.86 12.77C19.85 10.92 20.687 9.52397 22.38 8.49497C21.433 7.13997 20.001 6.39397 18.111 6.24797C16.322 6.10697 14.367 7.29097 13.651 7.29097C12.895 7.29097 11.161 6.29797 9.801 6.29797C6.989 6.34297 4 8.54097 4 13.011C4 14.331 4.242 15.697 4.726 17.103C5.371 18.953 7.699 23.489 10.128 23.413C11.398 23.383 12.295 22.511 13.948 22.511C15.551 22.511 16.383 23.413 17.798 23.413C20.248 23.378 22.355 19.255 22.97 17.401C19.684 15.854 19.86 12.865 19.86 12.769V12.77ZM17.008 4.49397C18.384 2.85997 18.258 1.37397 18.218 0.839966C17.003 0.909966 15.597 1.66697 14.795 2.59897C13.913 3.59697 13.395 4.83197 13.505 6.22197C14.82 6.32297 16.02 5.64797 17.008 4.49397Z" fill="white"/>
</svg>
