<svg width="25" height="26" viewBox="0 0 25 26" fill="none" xmlns="http://www.w3.org/2000/svg">
<path d="M25 12.84C25 19.744 19.404 25.34 12.5 25.34C5.596 25.34 0 19.744 0 12.84C0 5.93597 5.596 0.339966 12.5 0.339966C19.404 0.339966 25 5.93597 25 12.84Z" fill="url(#paint0_linear_1_11688)"/>
<path fill-rule="evenodd" clip-rule="evenodd" d="M14.925 7.748C14.984 7.582 15.067 7.44 15.175 7.322C15.282 7.204 15.412 7.112 15.564 7.049C15.716 6.985 15.884 6.953 16.071 6.953C16.239 6.953 16.391 6.979 16.526 7.029C16.661 7.079 16.776 7.146 16.874 7.231C17.0668 7.39736 17.1861 7.63312 17.206 7.887H16.705C16.6929 7.81912 16.6699 7.75362 16.637 7.693C16.6043 7.63357 16.5605 7.58096 16.508 7.538C16.452 7.49273 16.3883 7.45785 16.32 7.435C16.1453 7.37671 15.955 7.38635 15.787 7.462C15.6998 7.50495 15.6236 7.56719 15.564 7.644C15.4989 7.72956 15.4504 7.82657 15.421 7.93C15.386 8.05152 15.3691 8.17755 15.371 8.304C15.371 8.447 15.387 8.574 15.421 8.686C15.4502 8.78957 15.4995 8.8864 15.566 8.971C15.626 9.04737 15.7031 9.10866 15.791 9.15C15.8812 9.19172 15.9796 9.21289 16.079 9.212C16.251 9.212 16.391 9.172 16.499 9.091C16.6115 9.00347 16.6869 8.87669 16.71 8.736H17.212C17.2009 8.86492 17.164 8.99029 17.1035 9.10469C17.0431 9.21909 16.9602 9.32019 16.86 9.402C16.762 9.482 16.647 9.544 16.514 9.588C16.373 9.63259 16.2259 9.65453 16.078 9.653C15.89 9.653 15.72 9.622 15.568 9.56C15.4197 9.50026 15.2862 9.40879 15.177 9.292C15.0648 9.16922 14.9794 9.02451 14.926 8.867C14.8645 8.68578 14.8344 8.49537 14.837 8.304C14.836 8.1 14.866 7.914 14.925 7.748ZM13.758 8.633V8.427L13.118 8.471C12.937 8.482 12.801 8.521 12.709 8.586C12.665 8.61629 12.6294 8.65719 12.6055 8.70491C12.5815 8.75264 12.57 8.80564 12.572 8.859C12.572 8.972 12.617 9.062 12.708 9.129C12.798 9.196 12.92 9.229 13.072 9.229C13.1642 9.22981 13.2558 9.21493 13.343 9.185C13.4235 9.15783 13.4981 9.11577 13.563 9.061C13.6247 9.00816 13.6741 8.94248 13.7078 8.86855C13.7415 8.79463 13.7586 8.71424 13.758 8.633ZM8.287 6.988H7.785V9.623H8.282V8.006C8.282 7.941 8.308 7.879 8.332 7.821L8.352 7.769C8.3885 7.66177 8.4584 7.56905 8.55144 7.50445C8.64448 7.43984 8.75578 7.40674 8.869 7.41C8.946 7.41 9.016 7.422 9.079 7.445C9.13849 7.4668 9.19255 7.50124 9.23744 7.54596C9.28232 7.59067 9.31698 7.6446 9.339 7.704C9.362 7.765 9.374 7.834 9.374 7.91V9.623H9.891V7.988C9.891 7.903 9.905 7.826 9.933 7.754C9.95821 7.68703 9.9966 7.62579 10.0459 7.57392C10.0952 7.52204 10.1544 7.48059 10.22 7.452C10.2904 7.42294 10.3659 7.40831 10.442 7.409C10.607 7.409 10.734 7.457 10.823 7.551C10.913 7.646 10.957 7.781 10.957 7.953V9.623H11.481V7.827C11.481 7.696 11.461 7.577 11.42 7.47C11.3824 7.36749 11.3232 7.27426 11.2464 7.19662C11.1697 7.11898 11.0771 7.05875 10.975 7.02C10.8622 6.97768 10.7425 6.95698 10.622 6.959C10.5315 6.95849 10.4413 6.97026 10.354 6.994C10.1903 7.03893 10.043 7.13027 9.93 7.257C9.8746 7.32046 9.8297 7.39237 9.797 7.47H9.784C9.73948 7.31649 9.64432 7.18256 9.514 7.09C9.37567 6.999 9.21248 6.95323 9.047 6.959C8.96426 6.95848 8.88183 6.96925 8.802 6.991C8.65267 7.03254 8.51903 7.11746 8.418 7.235C8.3678 7.29462 8.3273 7.36178 8.298 7.434H8.288V6.988H8.287ZM8.927 19.601C6.622 19.601 5.177 18.001 5.177 15.445C5.177 12.889 6.622 11.283 8.927 11.283C11.23 11.283 12.67 12.889 12.67 15.445C12.67 18 11.23 19.601 8.926 19.601H8.927ZM12.93 9.65C13.1035 9.64976 13.2743 9.60647 13.427 9.524C13.4976 9.48384 13.5625 9.4344 13.62 9.377C13.6769 9.32027 13.7248 9.25519 13.762 9.184H13.775V9.624H14.277V7.815C14.277 7.684 14.251 7.565 14.201 7.459C14.1513 7.35377 14.0785 7.26113 13.988 7.188C13.8888 7.10919 13.7754 7.05012 13.654 7.014C13.5129 6.97201 13.3662 6.95177 13.219 6.954C13.069 6.954 12.932 6.974 12.806 7.014C12.679 7.054 12.57 7.111 12.477 7.184C12.3865 7.2536 12.3113 7.34108 12.256 7.441C12.2017 7.54015 12.1722 7.65097 12.17 7.764H12.663C12.6734 7.70885 12.6947 7.65632 12.7256 7.60945C12.7565 7.56259 12.7964 7.52233 12.843 7.491C12.8924 7.45661 12.9471 7.4306 13.005 7.414C13.0701 7.3961 13.1375 7.38735 13.205 7.388C13.381 7.388 13.517 7.428 13.613 7.506C13.71 7.586 13.758 7.701 13.758 7.853V8.057L13.047 8.097C12.72 8.119 12.47 8.195 12.298 8.325C12.214 8.38743 12.1466 8.46946 12.1016 8.56394C12.0567 8.65841 12.0355 8.76246 12.04 8.867C12.04 8.985 12.061 9.092 12.105 9.189C12.1476 9.2835 12.2104 9.36748 12.289 9.435C12.3711 9.50542 12.4663 9.55909 12.569 9.593C12.679 9.63 12.799 9.649 12.93 9.649V9.65ZM16.505 19.602C14.748 19.602 13.554 18.682 13.471 17.237H14.615C14.704 18.063 15.502 18.61 16.595 18.61C17.644 18.61 18.398 18.063 18.398 17.315C18.398 16.668 17.94 16.277 16.88 16.01L15.848 15.753C14.363 15.385 13.688 14.71 13.688 13.599C13.688 12.233 14.882 11.284 16.584 11.284C18.247 11.284 19.407 12.238 19.452 13.61H18.32C18.242 12.784 17.567 12.276 16.562 12.276C15.564 12.276 14.872 12.79 14.872 13.532C14.872 14.117 15.307 14.464 16.367 14.732L17.237 14.949C18.895 15.351 19.576 16.004 19.576 17.175C19.576 18.67 18.393 19.602 16.506 19.602H16.505ZM6.36 15.444C6.36 13.52 7.348 12.309 8.927 12.309C10.5 12.309 11.493 13.519 11.493 15.444C11.493 17.364 10.5 18.574 8.927 18.574C7.347 18.574 6.36 17.364 6.36 15.444Z" fill="white"/>
<defs>
<linearGradient id="paint0_linear_1_11688" x1="0" y1="0.339966" x2="26.517" y2="2.06897" gradientUnits="userSpaceOnUse">
<stop stop-color="#108DE7"/>
<stop offset="1" stop-color="#0855C4"/>
</linearGradient>
</defs>
</svg>
