<svg width="57" height="20" viewBox="0 0 57 20" fill="none" xmlns="http://www.w3.org/2000/svg">
<path fill-rule="evenodd" clip-rule="evenodd" d="M56.4585 18.5529H56.5682L56.5081 18.2605L56.4279 17.8742C56.2231 16.8904 56.0162 15.9066 55.8104 14.9239L55.1939 11.9726C55.0166 11.1302 54.8414 10.2847 54.6661 9.44029L54.1362 6.90801L52.9646 1.2819C52.9456 1.20273 52.9213 1.17212 52.8358 1.17212H49.1276C49.0231 1.17212 48.9134 1.17845 48.8099 1.1964C48.0214 1.32517 47.4841 1.76429 47.178 2.4979L43.8393 10.4705C42.7267 13.1273 41.6121 15.7852 40.5016 18.4421C40.4892 18.4796 40.4751 18.5166 40.4594 18.5529H45.0627C45.1366 18.5529 45.1682 18.5276 45.1925 18.4611C45.4849 17.6546 45.7784 16.8482 46.0655 16.0417C46.0834 15.9805 46.114 15.9562 46.1816 15.9562H51.7771C51.851 15.9562 51.8816 15.9805 51.8932 16.0481L52.1149 17.1015C52.2088 17.548 52.3027 17.9956 52.3946 18.4421C52.4125 18.5339 52.4495 18.5529 52.535 18.5529H56.4585ZM49.78 5.89467C50.2317 8.05645 50.6846 10.2193 51.1364 12.4011C49.8834 12.4011 48.6442 12.4011 47.3912 12.4064C48.1797 10.2256 48.9609 8.06279 49.7494 5.89362H49.78V5.89467Z" fill="white"/>
<path d="M0.920428 1.67244C0.957373 1.50144 0.987984 1.34311 1.02387 1.17844H8.60593C9.68682 1.17844 10.5175 1.84978 10.7318 2.90639C10.9398 3.96933 11.135 5.03333 11.3366 6.09628C11.5499 7.24472 11.7694 8.39317 11.9837 9.54161C12.1917 10.6594 12.4059 11.7773 12.6128 12.8888L12.6382 13.0112C12.711 12.8212 12.7785 12.6566 12.845 12.4919C14.3228 8.75944 15.7964 5.027 17.2678 1.29983C17.3048 1.20905 17.348 1.17844 17.4452 1.17844C18.9303 1.18372 20.4144 1.17844 21.8996 1.18372H22.0273C22.0094 1.22594 22.003 1.25761 21.9904 1.28822C19.59 7.01778 17.1887 12.7421 14.7883 18.4727C14.764 18.5402 14.7334 18.5708 14.6595 18.5645H10.0911C10.0605 18.5645 10.0362 18.5645 9.99926 18.5582C9.89582 18.1486 9.78604 17.7454 9.6826 17.3369L6.83998 6.34011L6.30904 4.31766C6.1676 3.79833 5.85621 3.43205 5.38648 3.18189C4.67871 2.81163 3.9358 2.51284 3.16876 2.28994C2.44782 2.07566 1.71421 1.89939 0.994317 1.70305C0.974261 1.68511 0.951039 1.67878 0.920428 1.67244ZM40.7085 5.30144C40.2271 5.08394 39.7286 4.90637 39.2181 4.7705C38.4216 4.5581 37.5984 4.46315 36.7745 4.48866C36.2256 4.50766 35.6873 4.59316 35.1922 4.856C34.8682 5.027 34.6 5.25289 34.4597 5.60122C34.2887 6.01605 34.3742 6.38233 34.6549 6.71905C34.9114 7.02516 35.2418 7.25 35.5838 7.44C36.2129 7.79361 36.8484 8.124 37.4838 8.47233C38.1921 8.86289 38.8698 9.30305 39.4387 9.88994C40.0488 10.5127 40.4584 11.24 40.6051 12.1066C40.679 12.5531 40.6843 12.9996 40.6357 13.4514C40.5694 14.1802 40.353 14.8875 40.0003 15.5287C39.4567 16.4998 38.6682 17.2081 37.7034 17.7401C36.8843 18.1919 36.005 18.4663 35.0824 18.6373C34.2454 18.7904 33.403 18.8516 32.5533 18.8273C31.1969 18.7851 29.8659 18.6014 28.5707 18.1856C28.3258 18.1064 28.0936 18.0146 27.8424 17.9227C28.1179 16.6518 28.387 15.3873 28.6551 14.1174C28.7048 14.1354 28.7417 14.1533 28.7776 14.1723C29.4194 14.4784 30.0664 14.7529 30.7568 14.9292C31.3226 15.0767 31.9018 15.1669 32.4858 15.1983C32.9386 15.2226 33.384 15.2353 33.8305 15.1741C34.4227 15.0949 34.9853 14.9418 35.4561 14.5513C35.9132 14.1776 36.0842 13.5981 35.9015 13.0788C35.8161 12.8503 35.6754 12.6465 35.492 12.4856C35.1708 12.1936 34.811 11.9471 34.4227 11.753C33.897 11.4722 33.3598 11.2094 32.8341 10.9223C32.0709 10.5064 31.3616 10.0061 30.7758 9.35161C30.2564 8.77105 29.8891 8.11133 29.755 7.34183C29.6336 6.6515 29.6938 5.9675 29.8712 5.29511C30.1952 4.10444 30.8982 3.16922 31.8757 2.443C32.7729 1.77694 33.7873 1.36739 34.8745 1.12355C35.845 0.912571 36.8393 0.83199 37.8311 0.883942C39.0534 0.938831 40.2378 1.19533 41.3873 1.60489C41.4664 1.6355 41.4791 1.65978 41.4664 1.74528C41.2163 2.90639 40.9661 4.0675 40.7212 5.22755C40.7275 5.23916 40.7212 5.26344 40.7085 5.30144ZM20.2677 18.5466L20.4514 17.6726C20.805 16.0227 21.1533 14.3792 21.508 12.7304C21.8679 11.0563 22.2226 9.37694 22.5836 7.70283L23.6645 2.66783C23.7627 2.20339 23.8598 1.74 23.9643 1.27555C23.9759 1.22066 23.9822 1.17211 24.0677 1.17211C25.5096 1.17844 26.9515 1.17211 28.3934 1.17211H28.4673C28.4383 1.32952 28.4052 1.48615 28.368 1.64183C27.7875 4.36094 27.2069 7.08533 26.6211 9.80444C26.0469 12.4803 25.4727 15.1561 24.9048 17.8309C24.8562 18.0515 24.8129 18.2658 24.7644 18.4853C24.7517 18.5339 24.7327 18.5529 24.6852 18.5529H20.311C20.2983 18.5582 20.2846 18.5529 20.2677 18.5466Z" fill="white"/>
<path fill-rule="evenodd" clip-rule="evenodd" d="M56.4585 18.5529H56.5682L56.5081 18.2605L56.4279 17.8742C56.2231 16.8904 56.0162 15.9077 55.8104 14.9239L55.1939 11.9726C55.0166 11.1302 54.8414 10.2847 54.6661 9.44029L54.1362 6.90801L52.9646 1.2819C52.9456 1.20273 52.9213 1.17212 52.8358 1.17212H49.1276C49.0231 1.17212 48.9134 1.17845 48.8099 1.1964C48.0214 1.32517 47.4841 1.76429 47.178 2.4979L43.8404 10.4695L40.5016 18.4421C40.4892 18.4796 40.4751 18.5166 40.4594 18.5529H45.0627C45.1366 18.5529 45.1682 18.5276 45.1925 18.4611C45.4849 17.6546 45.7784 16.8482 46.0655 16.0417C46.0834 15.9805 46.114 15.9562 46.1816 15.9562H51.7771C51.851 15.9562 51.8816 15.9805 51.8932 16.0481L52.1149 17.1015C52.2088 17.548 52.3027 17.9956 52.3946 18.4421C52.4125 18.5339 52.4495 18.5529 52.535 18.5529H56.4585ZM49.78 5.89467C50.2317 8.05645 50.6846 10.2193 51.1364 12.4011C49.8834 12.4011 48.6442 12.4011 47.3912 12.4064C48.1797 10.2256 48.9609 8.06279 49.7494 5.89362H49.78V5.89467Z" fill="#34405E"/>
<path d="M0.920428 1.67244C0.957373 1.50144 0.987984 1.34311 1.02387 1.17844H8.60593C9.68682 1.17844 10.5175 1.84978 10.7318 2.90639C10.9398 3.96933 11.135 5.03333 11.3366 6.09628C11.5499 7.24472 11.7694 8.39317 11.9837 9.54161C12.1917 10.6594 12.4059 11.7773 12.6128 12.8888L12.6382 13.0112C12.711 12.8212 12.7785 12.6566 12.845 12.4919C14.3228 8.75944 15.7964 5.027 17.2678 1.29983C17.3048 1.20905 17.348 1.17844 17.4452 1.17844C18.9303 1.18372 20.4144 1.17844 21.8996 1.18372H22.0273C22.0094 1.22594 22.003 1.25761 21.9904 1.28822C19.59 7.01778 17.1887 12.7421 14.7883 18.4727C14.764 18.5402 14.7334 18.5708 14.6595 18.5645H10.0911C10.0605 18.5645 10.0362 18.5645 9.99926 18.5582C9.89582 18.1486 9.78604 17.7454 9.6826 17.3369L6.83998 6.34011L6.30904 4.31766C6.1676 3.79833 5.85621 3.43205 5.38648 3.18189C4.67871 2.81163 3.9358 2.51284 3.16876 2.28994C2.44782 2.07566 1.71421 1.89939 0.994317 1.70305C0.974261 1.68511 0.951039 1.67878 0.920428 1.67244ZM40.7085 5.30144C40.2271 5.08394 39.7286 4.90637 39.2181 4.7705C38.4216 4.5581 37.5984 4.46315 36.7745 4.48866C36.2256 4.50766 35.6873 4.59316 35.1922 4.856C34.8682 5.027 34.6 5.25289 34.4597 5.60122C34.2887 6.01605 34.3742 6.38233 34.6549 6.71905C34.9114 7.02516 35.2418 7.25 35.5838 7.44C36.2129 7.79361 36.8484 8.124 37.4838 8.47233C38.1921 8.86289 38.8698 9.30305 39.4387 9.88994C40.0488 10.5127 40.4584 11.24 40.6051 12.1066C40.679 12.5531 40.6843 12.9996 40.6357 13.4514C40.5694 14.1802 40.353 14.8875 40.0003 15.5287C39.4567 16.4998 38.6682 17.2081 37.7034 17.7401C36.8843 18.1919 36.005 18.4663 35.0824 18.6373C34.2454 18.7904 33.403 18.8516 32.5533 18.8273C31.1969 18.7851 29.8659 18.6014 28.5707 18.1856C28.3258 18.1064 28.0936 18.0146 27.8424 17.9227C28.1179 16.6518 28.387 15.3873 28.6551 14.1174C28.7048 14.1354 28.7417 14.1533 28.7776 14.1723C29.4194 14.4784 30.0664 14.7529 30.7568 14.9292C31.3226 15.0767 31.9018 15.1669 32.4858 15.1983C32.9386 15.2226 33.384 15.2353 33.8305 15.1741C34.4227 15.0949 34.9853 14.9418 35.4561 14.5513C35.9132 14.1776 36.0842 13.5981 35.9015 13.0788C35.8161 12.8503 35.6754 12.6465 35.492 12.4856C35.1708 12.1936 34.811 11.9471 34.4227 11.753C33.897 11.4722 33.3598 11.2094 32.8341 10.9223C32.0709 10.5064 31.3616 10.0061 30.7758 9.35161C30.2564 8.77105 29.8891 8.11133 29.755 7.34183C29.6336 6.6515 29.6938 5.9675 29.8712 5.29511C30.1952 4.10444 30.8982 3.16922 31.8757 2.443C32.7729 1.77694 33.7873 1.36739 34.8745 1.12355C35.845 0.912571 36.8393 0.83199 37.8311 0.883942C39.0534 0.938831 40.2378 1.19533 41.3873 1.60489C41.4664 1.6355 41.4791 1.65978 41.4664 1.74528C41.2163 2.90639 40.9661 4.0675 40.7212 5.22755C40.7275 5.23916 40.7212 5.26344 40.7085 5.30144ZM20.2677 18.5466L20.4514 17.6726C20.805 16.0227 21.1533 14.3792 21.508 12.7304C21.8679 11.0563 22.2226 9.37694 22.5836 7.70283L23.6645 2.66783C23.7627 2.20339 23.8598 1.74 23.9643 1.27555C23.9759 1.22066 23.9822 1.17211 24.0677 1.17211C25.5096 1.17844 26.9515 1.17211 28.3934 1.17211H28.4673C28.4383 1.32952 28.4052 1.48615 28.368 1.64183C27.7875 4.36094 27.2069 7.08533 26.6211 9.80444C26.0469 12.4803 25.4727 15.1561 24.9048 17.8309C24.8562 18.0515 24.8129 18.2658 24.7644 18.4853C24.7517 18.5339 24.7327 18.5529 24.6852 18.5529H20.311C20.2983 18.5582 20.2846 18.5529 20.2677 18.5466Z" fill="#34405E"/>
</svg>
