<svg width="32" height="20" viewBox="0 0 32 20" fill="none" xmlns="http://www.w3.org/2000/svg">
<path d="M11.2129 2.90259H19.5236V17.8375H11.2129V2.90259Z" fill="#FF5C00"/>
<path d="M11.7406 10.3701C11.7409 8.93333 12.0662 7.51526 12.6922 6.22207C13.3181 4.92888 14.2285 3.79407 15.3551 2.90263C13.6871 1.58524 11.6234 0.869356 9.498 0.870852C4.24772 0.870852 0 5.11912 0 10.3701C0 15.621 4.24772 19.8693 9.498 19.8693C11.7142 19.8693 13.7457 19.1041 15.3551 17.8375C14.2263 16.9481 13.3143 15.8137 12.6881 14.52C12.062 13.2264 11.738 11.8073 11.7406 10.3701Z" fill="#E50539"/>
<path d="M30.7366 10.3701C30.7366 15.621 26.4889 19.8693 21.2386 19.8693C19.0224 19.8693 16.9909 19.1041 15.3815 17.8375C16.5125 16.9501 17.426 15.816 18.0524 14.522C18.6788 13.2279 19.0015 11.8078 18.996 10.3701C18.9957 8.93333 18.6704 7.51526 18.0444 6.22207C17.4185 4.92888 16.5081 3.79407 15.3815 2.90263C17.0495 1.58524 19.1132 0.869356 21.2386 0.870852C26.4889 0.870852 30.7366 5.14551 30.7366 10.3701Z" fill="#F7931A"/>
<path d="M11.2129 2.90259H19.5236V17.8375H11.2129V2.90259Z" fill="#455279"/>
<path d="M11.7406 10.3701C11.7409 8.93333 12.0662 7.51526 12.6922 6.22207C13.3181 4.92888 14.2285 3.79407 15.3551 2.90263C13.6871 1.58524 11.6234 0.869356 9.498 0.870852C4.24772 0.870852 0 5.11912 0 10.3701C0 15.621 4.24772 19.8693 9.498 19.8693C11.7142 19.8693 13.7457 19.1041 15.3551 17.8375C14.2263 16.9481 13.3143 15.8137 12.6881 14.52C12.062 13.2264 11.738 11.8073 11.7406 10.3701Z" fill="#1D2438"/>
<path d="M30.7366 10.3701C30.7366 15.621 26.4889 19.8693 21.2386 19.8693C19.0224 19.8693 16.9909 19.1041 15.3815 17.8375C16.5125 16.9501 17.426 15.816 18.0524 14.522C18.6788 13.2279 19.0015 11.8078 18.996 10.3701C18.9957 8.93333 18.6704 7.51526 18.0444 6.22207C17.4185 4.92888 16.5081 3.79407 15.3815 2.90263C17.0495 1.58524 19.1132 0.869356 21.2386 0.870852C26.4889 0.870852 30.7366 5.14551 30.7366 10.3701Z" fill="#34405E"/>
</svg>
