<svg width="27" height="20" viewBox="0 0 27 20" fill="none" xmlns="http://www.w3.org/2000/svg">
<mask id="mask0_1_6182" style="mask-type:luminance" maskUnits="userSpaceOnUse" x="1" y="0" width="25" height="20">
<path d="M1.02374 0.87207H25.6413V19.8681H1.02374V0.87207Z" fill="white"/>
</mask>
<g mask="url(#mask0_1_6182)">
<path d="M25.559 15.9897C25.5576 16.9963 25.1571 17.9612 24.4452 18.6728C23.7333 19.3844 22.7682 19.7847 21.7616 19.7858H1.10608V4.75039C1.10747 3.74423 1.50775 2.77966 2.21917 2.0681C2.93059 1.35653 3.89512 0.956021 4.90136 0.954346H25.559V15.9897Z" fill="white"/>
<path d="M18.8329 12.1324H20.4022C20.4465 12.1324 20.551 12.1177 20.5964 12.1177C20.7559 12.0835 20.8985 11.9947 20.9995 11.8665C21.1004 11.7384 21.1535 11.579 21.1494 11.4159C21.1494 11.0571 20.895 10.7879 20.5964 10.713C20.551 10.6982 20.4613 10.6982 20.4022 10.6982H18.8329V12.1324Z" fill="url(#paint0_linear_1_6182)"/>
<path d="M20.2227 2.22396C19.5011 2.22396 18.8091 2.5106 18.2989 3.02082C17.7887 3.53104 17.502 4.22305 17.502 4.94462V7.7687H21.3434C21.4332 7.7687 21.5376 7.7687 21.6126 7.78453C22.479 7.82885 23.1217 8.27737 23.1217 9.0541C23.1217 9.66725 22.689 10.1907 21.8817 10.2952V10.3247C22.7629 10.3849 23.4362 10.8777 23.4362 11.6397C23.4362 12.4628 22.689 13.0011 21.7023 13.0011H17.4872V18.531H21.4775C21.8348 18.531 22.1885 18.4607 22.5186 18.3239C22.8487 18.1872 23.1486 17.9868 23.4013 17.7342C23.6539 17.4815 23.8543 17.1816 23.991 16.8515C24.1278 16.5214 24.1981 16.1677 24.1981 15.8104V2.2229H20.2227V2.22396Z" fill="url(#paint1_linear_1_6182)"/>
<path d="M20.9552 9.2334C20.9552 8.87459 20.7008 8.63608 20.4022 8.5907C20.3716 8.5907 20.2966 8.57593 20.2523 8.57593H18.8329V9.89193H20.2523C20.2977 9.89193 20.3874 9.89193 20.4022 9.8761C20.5573 9.85586 20.6995 9.77909 20.8016 9.6605C20.9036 9.5419 20.9583 9.38982 20.9552 9.2334Z" fill="url(#paint2_linear_1_6182)"/>
<path d="M5.186 2.22396C4.82863 2.22396 4.47476 2.29436 4.1446 2.43115C3.81445 2.56795 3.51448 2.76844 3.26183 3.02119C3.00918 3.27394 2.8088 3.57399 2.67213 3.9042C2.53547 4.2344 2.4652 4.5883 2.46534 4.94567V11.6566C3.22729 12.0302 4.01985 12.2687 4.81241 12.2687C5.75377 12.2687 6.26139 11.7009 6.26139 10.9242V7.75287H8.59368V10.9083C8.59368 12.1325 7.83067 13.1351 5.2451 13.1351C3.67581 13.1351 2.45056 12.7911 2.45056 12.7911V18.5152H6.44079C7.16217 18.5152 7.85402 18.2287 8.36422 17.7187C8.87441 17.2087 9.16117 16.517 9.16145 15.7956V2.2229H5.186V2.22396Z" fill="url(#paint3_linear_1_6182)"/>
<path d="M12.7039 2.22396C11.9825 2.22452 11.2909 2.51155 10.7811 3.02194C10.2713 3.53233 9.98507 4.22429 9.98535 4.94567V8.50216C10.6724 7.91961 11.8681 7.54602 13.7962 7.63573C14.8272 7.68005 15.9332 7.96499 15.9332 7.96499V9.11531C15.2952 8.77422 14.5927 8.57074 13.8711 8.51799C12.4063 8.41246 11.524 9.13008 11.524 10.3859C11.524 11.6566 12.4063 12.3742 13.8711 12.2539C14.7228 12.1937 15.3802 11.9257 15.9332 11.6566V12.8069C15.9332 12.8069 14.842 13.0918 13.7962 13.1361C11.8681 13.2259 10.6724 12.8512 9.98535 12.2687V18.5469H13.9756C14.6971 18.5469 15.3892 18.2602 15.8994 17.75C16.4096 17.2398 16.6962 16.5478 16.6962 15.8262V2.2229H12.705L12.7039 2.22396Z" fill="url(#paint4_linear_1_6182)"/>
</g>
<mask id="mask1_1_6182" style="mask-type:luminance" maskUnits="userSpaceOnUse" x="1" y="0" width="25" height="20">
<path d="M1.02271 0.87207H25.6403V19.8681H1.02271V0.87207Z" fill="white"/>
</mask>
<g mask="url(#mask1_1_6182)">
<path d="M25.558 15.9897C25.5566 16.9961 25.1562 17.9608 24.4445 18.6724C23.7329 19.384 22.7681 19.7844 21.7617 19.7858H1.10504V4.75039C1.10644 3.74405 1.50686 2.77932 2.2185 2.06772C2.93015 1.35613 3.89495 0.955742 4.90138 0.954346H25.558V15.9897Z" fill="#1D2438"/>
<path d="M18.8318 12.1324H20.4011C20.4465 12.1324 20.551 12.1177 20.5953 12.1177C20.755 12.0835 20.8977 11.9948 20.9988 11.8666C21.1 11.7385 21.1532 11.5791 21.1494 11.4159C21.1494 11.0571 20.895 10.7879 20.5964 10.713C20.551 10.6982 20.4613 10.6982 20.4011 10.6982H18.8318V12.1324Z" fill="#4A5370"/>
<path d="M20.2227 2.22396C19.5011 2.22396 18.8091 2.5106 18.2989 3.02082C17.7887 3.53104 17.502 4.22305 17.502 4.94462V7.7687H21.3434C21.4332 7.7687 21.5376 7.7687 21.6126 7.78453C22.479 7.82885 23.1217 8.27737 23.1217 9.0541C23.1217 9.66725 22.689 10.1907 21.8817 10.2952V10.3247C22.7629 10.3849 23.4351 10.8777 23.4351 11.6397C23.4351 12.4628 22.6879 13.0011 21.7023 13.0011H17.4872V18.531H21.4775C22.199 18.531 22.891 18.2444 23.4013 17.7342C23.9115 17.2239 24.1981 16.5319 24.1981 15.8104V2.2229H20.2227V2.22396Z" fill="#4A5370"/>
<path d="M20.9542 9.23351C20.9542 8.87469 20.7009 8.63619 20.4012 8.59081C20.3716 8.59081 20.2967 8.57603 20.2523 8.57603H18.8317V9.89204H20.2523C20.2967 9.89204 20.3864 9.89204 20.4012 9.87621C20.5562 9.85575 20.6983 9.77891 20.8003 9.66037C20.9023 9.54182 20.9571 9.38987 20.9542 9.23351ZM5.18521 2.22396C4.8279 2.22409 4.47412 2.2946 4.14406 2.43146C3.814 2.56831 3.51413 2.76883 3.26157 3.02156C3.00902 3.2743 2.80872 3.5743 2.67211 3.90444C2.5355 4.23458 2.46526 4.58839 2.4654 4.94567V11.6566C3.22741 12.0302 4.02003 12.2687 4.81159 12.2687C5.75302 12.2687 6.26173 11.7009 6.26173 10.9242V7.75287H8.5942V10.9083C8.5942 12.1325 7.83114 13.1351 5.24537 13.1351C3.67596 13.1351 2.45062 12.7911 2.45062 12.7911V18.5152H6.44115C7.16259 18.5152 7.85449 18.2287 8.36472 17.7187C8.87495 17.2087 9.16174 16.517 9.16202 15.7956V2.2229H5.18521V2.22396ZM12.704 2.22396C12.3466 2.22396 11.9927 2.29436 11.6625 2.43115C11.3323 2.56795 11.0324 2.76844 10.7797 3.02119C10.527 3.27394 10.3266 3.57399 10.1899 3.9042C10.0533 4.2344 9.98299 4.5883 9.98313 4.94567V8.50216C10.6713 7.91961 11.8671 7.54602 13.7953 7.63573C14.8264 7.68005 15.9325 7.96499 15.9325 7.96499V9.11531C15.2944 8.77422 14.5919 8.57074 13.8702 8.51799C12.4053 8.41246 11.523 9.13008 11.523 10.3859C11.523 11.6566 12.4053 12.3742 13.8702 12.2539C14.722 12.1937 15.3795 11.9257 15.9325 11.6566V12.8069C15.9325 12.8069 14.8412 13.0918 13.7953 13.1361C11.8671 13.2259 10.6713 12.8512 9.98313 12.2687V18.5469H13.9747C14.6962 18.5466 15.3879 18.2598 15.898 17.7496C16.408 17.2394 16.6945 16.5476 16.6945 15.8262V2.2229H12.704V2.22396Z" fill="#4A5370"/>
</g>
<defs>
<linearGradient id="paint0_linear_1_6182" x1="17.5" y1="11.418" x2="24.2162" y2="11.418" gradientUnits="userSpaceOnUse">
<stop stop-color="#007940"/>
<stop offset="0.229" stop-color="#00873F"/>
<stop offset="0.743" stop-color="#40A737"/>
<stop offset="1" stop-color="#5CB531"/>
</linearGradient>
<linearGradient id="paint1_linear_1_6182" x1="17.4999" y1="10.3712" x2="24.2161" y2="10.3712" gradientUnits="userSpaceOnUse">
<stop stop-color="#007940"/>
<stop offset="0.229" stop-color="#00873F"/>
<stop offset="0.743" stop-color="#40A737"/>
<stop offset="1" stop-color="#5CB531"/>
</linearGradient>
<linearGradient id="paint2_linear_1_6182" x1="17.5" y1="9.23235" x2="24.2162" y2="9.23235" gradientUnits="userSpaceOnUse">
<stop stop-color="#007940"/>
<stop offset="0.229" stop-color="#00873F"/>
<stop offset="0.743" stop-color="#40A737"/>
<stop offset="1" stop-color="#5CB531"/>
</linearGradient>
<linearGradient id="paint3_linear_1_6182" x1="2.46217" y1="10.3712" x2="9.28282" y2="10.3712" gradientUnits="userSpaceOnUse">
<stop stop-color="#1F286F"/>
<stop offset="0.475" stop-color="#34405E"/>
<stop offset="0.826" stop-color="#0066B1"/>
<stop offset="1" stop-color="#006FBC"/>
</linearGradient>
<linearGradient id="paint4_linear_1_6182" x1="9.94525" y1="10.3712" x2="16.5696" y2="10.3712" gradientUnits="userSpaceOnUse">
<stop stop-color="#6C2C2F"/>
<stop offset="0.173" stop-color="#882730"/>
<stop offset="0.573" stop-color="#BE1833"/>
<stop offset="0.859" stop-color="#DC0436"/>
<stop offset="1" stop-color="#E60039"/>
</linearGradient>
</defs>
</svg>
