<svg width="22" height="20" viewBox="0 0 22 20" fill="none" xmlns="http://www.w3.org/2000/svg">
<path fill-rule="evenodd" clip-rule="evenodd" d="M8.95323 19.5845C14.2517 20.8542 19.6156 17.7574 20.936 12.668C22.2574 7.57955 19.034 2.42358 13.7366 1.15596C8.44028 -0.113773 3.07427 2.98403 1.75493 8.07351C0.43348 13.1609 3.65794 18.3168 8.95323 19.5855V19.5845ZM13.5308 6.62013C14.9008 7.07398 15.9024 7.75265 15.7051 9.01604C15.5626 9.94169 15.0296 10.3903 14.3203 10.5465C15.2934 11.0341 15.7895 11.7814 15.3167 13.0743C14.7319 14.6818 13.3408 14.818 11.4906 14.4813L11.042 16.2101L9.95699 15.9505L10.4003 14.2448C10.1111 14.1761 9.82254 14.1043 9.5348 14.0295L9.0915 15.7426L8.00753 15.4829L8.45611 13.7519L8.15002 13.6749L7.68245 13.5588L6.27128 13.221L6.80957 12.0284C6.80957 12.0284 7.60857 12.2331 7.59801 12.2183C7.9041 12.2901 8.04131 12.098 8.09514 11.9703L8.80441 9.23664L8.88252 9.25563L8.91946 9.26513C8.8826 9.25113 8.84487 9.23949 8.80652 9.2303L9.31315 7.27979C9.32581 7.05815 9.24665 6.77845 8.80652 6.6729C8.82447 6.66234 8.01914 6.48503 8.01914 6.48503L8.30729 5.37151L9.80394 5.73036L9.80289 5.73564C10.0277 5.78947 10.2589 5.84119 10.4953 5.89291L10.9396 4.18093L12.0247 4.44058L11.5887 6.11878C11.8801 6.18211 12.1724 6.24649 12.4574 6.3151L12.8901 4.64745L13.9752 4.90815L13.5308 6.62013ZM10.1005 12.8273C10.985 13.0522 12.9186 13.543 13.2268 12.3555C13.5424 11.1418 11.6658 10.7375 10.7507 10.5401L10.4837 10.481L9.88838 12.7746L10.0995 12.8273H10.1005ZM13.5625 8.9981C13.2817 10.0778 11.6711 9.66516 10.9344 9.47623L10.7549 9.43084L11.2953 7.35051C11.3576 7.36529 11.4325 7.38112 11.5191 7.39906C12.2832 7.56161 13.8485 7.89513 13.5614 8.9981H13.5625Z" fill="#F7931A"/>
<path fill-rule="evenodd" clip-rule="evenodd" d="M8.95323 19.5845C14.2517 20.8542 19.6156 17.7574 20.936 12.668C22.2574 7.57955 19.034 2.42358 13.7366 1.15596C8.44028 -0.113773 3.07427 2.98403 1.75493 8.07351C0.43348 13.1609 3.65794 18.3168 8.95323 19.5855V19.5845ZM13.5308 6.62013C14.9008 7.07398 15.9024 7.75265 15.7051 9.01604C15.5626 9.94169 15.0296 10.3903 14.3203 10.5465C15.2934 11.0341 15.7895 11.7814 15.3167 13.0743C14.7319 14.6818 13.3408 14.818 11.4906 14.4813L11.042 16.2101L9.95699 15.9505L10.4003 14.2448C10.1111 14.1761 9.82254 14.1043 9.5348 14.0295L9.0915 15.7426L8.00753 15.4829L8.45611 13.7519C8.35438 13.7264 8.25271 13.7008 8.15108 13.6749L7.68245 13.5588L6.27128 13.221L6.80957 12.0284C6.80957 12.0284 7.60857 12.2331 7.59801 12.2183C7.90515 12.2901 8.04131 12.098 8.09514 11.9703L8.80441 9.23664L8.88252 9.25563L8.91946 9.26513C8.8826 9.25113 8.84487 9.23949 8.80652 9.2303L9.31315 7.27979C9.32581 7.05815 9.24665 6.77845 8.80652 6.6729C8.82447 6.66234 8.01914 6.48503 8.01914 6.48503L8.30729 5.37151L9.80394 5.73036L9.80289 5.73564C10.0277 5.78947 10.2589 5.84119 10.4953 5.89291L10.9396 4.18093L12.0247 4.44058L11.5887 6.11878C11.8801 6.18211 12.1724 6.24649 12.4574 6.3151L12.8901 4.64745L13.9752 4.90815L13.5308 6.62013ZM10.1005 12.8273C10.985 13.0522 12.9186 13.543 13.2268 12.3555C13.5424 11.1418 11.6658 10.7375 10.7507 10.5401L10.4837 10.481L9.88838 12.7746L10.0995 12.8273H10.1005ZM13.5625 8.9981C13.2817 10.0778 11.6711 9.66516 10.9344 9.47623L10.7549 9.43084L11.2953 7.35051C11.3576 7.36529 11.4325 7.38112 11.5191 7.39906C12.2832 7.56161 13.8485 7.89513 13.5614 8.9981H13.5625Z" fill="#34405E"/>
</svg>
