<svg width="92" height="20" viewBox="0 0 92 20" fill="none" xmlns="http://www.w3.org/2000/svg">
<path fill-rule="evenodd" clip-rule="evenodd" d="M56.3821 2.00779C58.0031 2.00779 59.2579 2.38475 60.0795 3.12879C60.8569 3.82875 61.2901 4.85019 61.3016 6.01679C61.3016 7.21607 60.9459 8.19343 60.2353 8.92607C59.3248 9.86999 57.8922 10.3921 56.2042 10.3921C55.9375 10.3921 55.6707 10.3807 55.4153 10.3587V15.1117H52.9165V2.30723L53.3056 2.24035C54.3229 2.0806 55.3523 2.00283 56.3821 2.00779ZM56.2377 8.18203C57.1922 8.18203 58.7913 7.91603 58.7913 6.09431C58.7913 4.51731 57.4917 4.18443 56.4261 4.18443C56.0043 4.18443 55.6707 4.19507 55.4268 4.22851V8.13795C55.6487 8.17063 55.9154 8.18203 56.2377 8.18203ZM11.9487 15.1125L16.3909 2.09671H18.9232L23.3768 15.1125H20.7107L19.4225 11.3148H15.8133L14.5585 15.1125H11.9487ZM16.4577 9.14875H18.7887L17.8235 6.31699C17.7748 6.18475 17.7345 6.05631 17.695 5.92939C17.6722 5.85491 17.6487 5.78043 17.6236 5.70595C17.5818 5.84731 17.5347 5.98867 17.4853 6.13383L17.4351 6.28355L16.4577 9.14875Z" fill="white"/>
<path d="M26.4304 8.13802C26.4304 8.4823 26.5634 8.70422 27.7627 9.1815C28.8624 9.5919 30.3391 10.3595 30.3391 12.2139C30.3391 14.0569 28.851 15.301 26.641 15.301C25.675 15.301 24.6976 15.0563 23.965 14.6231L23.6428 14.4346L24.3093 12.3355L24.82 12.6357C25.2418 12.8911 25.9858 13.1799 26.6744 13.1799C27.119 13.1799 27.863 13.0795 27.863 12.3689C27.863 11.9912 27.7627 11.6804 26.5748 11.2365C25.3748 10.8033 23.9536 9.94758 23.9536 8.3379C23.9536 6.5823 25.4082 5.3169 27.4192 5.3169C28.3183 5.3169 29.2067 5.53882 29.795 5.92794L30.1066 6.12782L29.4286 8.1935L28.9179 7.87126C28.461 7.58664 27.9347 7.43286 27.3964 7.42666C26.796 7.42666 26.4304 7.69342 26.4304 8.13802ZM34.2592 3.25122L31.7717 4.00666V5.49474H30.428V7.63794H31.7717V11.8917C31.7717 13.0795 32.005 13.9239 32.5051 14.4909C32.9938 15.0122 33.715 15.3117 34.5594 15.3117C35.3148 15.3117 35.859 15.1566 36.1144 15.0677L36.4472 14.9567L36.3142 12.8021L35.7366 12.9693C35.5694 13.0134 35.3703 13.0575 34.9592 13.0575C34.659 13.0575 34.2486 13.0575 34.2486 11.8468V7.63794H36.5027V5.49474H34.2592V3.25122ZM42.1222 5.33894L42.5782 5.40582L42.5888 7.9047L42.0112 7.7831C41.9002 7.7603 41.7779 7.7603 41.578 7.7603C40.7344 7.7603 40.112 8.38274 39.9235 9.38214C39.9007 9.54858 39.8786 9.79254 39.8786 10.0259V15.1125H37.3577V8.67154C37.3577 7.58246 37.3243 6.73886 37.2802 5.99482L37.2468 5.49474H39.5792L39.6126 6.19394C40.1674 5.6285 40.8894 5.30626 41.6783 5.30626C41.8554 5.30626 41.9892 5.3169 42.1222 5.33894Z" fill="white"/>
<path fill-rule="evenodd" clip-rule="evenodd" d="M47.1641 5.31689C44.3543 5.31689 42.389 7.39397 42.389 10.3808C42.389 13.2908 44.2875 15.3117 47.0197 15.3117C49.3301 15.3117 51.8061 13.7233 51.8061 10.2364C51.8175 7.3385 49.9069 5.31689 47.1641 5.31689ZM49.2632 10.2926C49.2632 11.9692 48.3527 13.1905 47.1086 13.1905C45.8645 13.1905 44.9654 11.9806 44.9654 10.3367C44.9654 9.27041 45.4206 7.46009 47.142 7.46009C48.8186 7.43805 49.2632 9.30385 49.2632 10.2926ZM68.9533 12.5574V9.31525C68.9533 6.72746 67.6096 5.31765 65.1882 5.31765C64.0665 5.31765 62.8892 5.62773 62.0791 6.13845L61.7568 6.33833L62.434 8.33713L62.9447 7.99361C63.4668 7.63793 64.2215 7.42665 64.9549 7.42665C65.4656 7.41601 65.8327 7.53837 66.0767 7.77093C66.2765 7.97081 66.3989 8.27101 66.443 8.64873C64.4776 8.70421 63.045 9.17085 62.1566 10.0479C61.5455 10.6589 61.2347 11.425 61.2347 12.3469C61.2347 13.8236 62.301 15.3117 64.3659 15.3117C65.2437 15.3117 66.066 15.0343 66.7097 14.5456L66.7766 15.1232H69.1638L69.0749 14.579C68.9973 14.0463 68.9533 13.3683 68.9533 12.5574ZM64.755 13.2019C64.3773 13.2019 63.7556 13.0689 63.7556 12.1691C63.7556 11.8248 63.8559 11.5474 64.0779 11.3361C64.3667 11.0473 65.0218 10.7144 66.4871 10.6916V11.7252C66.4871 11.8027 66.4764 11.9357 66.443 12.0687C66.2651 12.5909 65.721 13.2011 64.7558 13.2011L64.755 13.2019Z" fill="white"/>
<path d="M74.0612 10.9035L75.8936 5.49463H78.5589L75.9498 12.3141C74.8835 15.1124 74.0726 16.8338 72.8513 17.9221C71.8291 18.7771 70.9407 18.9884 70.6853 19.0325L70.2749 19.11L69.6304 16.9562L70.075 16.8118C70.2855 16.7563 70.797 16.5671 71.2963 16.1339L71.3077 16.1232C71.7516 15.7675 72.1962 15.1679 72.4956 14.5348L72.5131 14.4907C72.5329 14.4398 72.5564 14.3798 72.5739 14.3463C72.5739 14.3235 72.5511 14.2574 72.4956 14.1465L72.485 14.1237L69.0422 5.49463H71.785L73.7838 10.9256C73.8393 11.0472 73.8841 11.1809 73.9282 11.3139C73.951 11.2478 73.9731 11.1779 73.9951 11.1087L74.0612 10.9035Z" fill="white"/>
<path d="M21.1447 5.67257C22.7658 4.01805 25.5192 3.02929 28.5068 3.02929C29.6726 3.02929 30.8058 3.17369 31.8827 3.47389L31.9716 3.49593L33.8823 2.91833L33.0265 2.58545C31.394 1.96301 29.5176 1.63013 27.5849 1.63013C24.7752 1.63013 22.1547 2.30729 20.2114 3.54001L20.0001 3.67377L20.811 6.03813L21.1439 5.67181L21.1447 5.67257Z" fill="#20D5B3"/>
<path fill-rule="evenodd" clip-rule="evenodd" d="M56.3821 2.00779C58.0031 2.00779 59.2579 2.38475 60.0795 3.12879C60.8569 3.82875 61.2901 4.85019 61.3016 6.01679C61.3016 7.21607 60.9459 8.19343 60.2353 8.92607C59.3248 9.86999 57.8922 10.3921 56.2042 10.3921C55.9375 10.3921 55.6707 10.3807 55.4153 10.3587V15.1117H52.9165V2.30723L53.3056 2.24035C54.3229 2.0806 55.3523 2.00283 56.3821 2.00779ZM56.2377 8.18203C57.1922 8.18203 58.7913 7.91603 58.7913 6.09431C58.7913 4.51731 57.4917 4.18443 56.4261 4.18443C56.0043 4.18443 55.6707 4.19507 55.4268 4.22851V8.13795C55.6487 8.17063 55.9154 8.18203 56.2377 8.18203ZM11.9487 15.1125L16.3909 2.09671H18.9232L23.3768 15.1125H20.7107L19.4225 11.3148H15.8133L14.5585 15.1125H11.9487ZM16.4577 9.14875H18.7887L17.8235 6.31699C17.7748 6.18475 17.7345 6.05631 17.695 5.92939C17.6722 5.85491 17.6487 5.78043 17.6236 5.70595C17.5818 5.84731 17.5347 5.98867 17.4853 6.13383L17.4351 6.28355L16.4577 9.14875Z" fill="#34405E"/>
<path d="M26.4304 8.13802C26.4304 8.4823 26.5634 8.70422 27.7627 9.1815C28.8624 9.5919 30.3391 10.3595 30.3391 12.2139C30.3391 14.0569 28.851 15.301 26.641 15.301C25.675 15.301 24.6976 15.0563 23.965 14.6231L23.6428 14.4346L24.3093 12.3355L24.82 12.6357C25.2418 12.8911 25.9858 13.1799 26.6744 13.1799C27.119 13.1799 27.863 13.0795 27.863 12.3689C27.863 11.9912 27.7627 11.6804 26.5748 11.2365C25.3748 10.8033 23.9536 9.94758 23.9536 8.3379C23.9536 6.5823 25.4082 5.3169 27.4192 5.3169C28.3183 5.3169 29.2067 5.53882 29.795 5.92794L30.1066 6.12782L29.4286 8.1935L28.9179 7.87126C28.461 7.58664 27.9347 7.43286 27.3964 7.42666C26.796 7.42666 26.4304 7.69342 26.4304 8.13802ZM34.2592 3.25122L31.7717 4.00666V5.49474H30.428V7.63794H31.7717V11.8917C31.7717 13.0795 32.005 13.9239 32.5051 14.4909C32.9938 15.0122 33.715 15.3117 34.5594 15.3117C35.3148 15.3117 35.859 15.1566 36.1144 15.0677L36.4472 14.9567L36.3142 12.8021L35.7366 12.9693C35.5694 13.0134 35.3703 13.0575 34.9592 13.0575C34.659 13.0575 34.2486 13.0575 34.2486 11.8468V7.63794H36.5027V5.49474H34.2592V3.25122ZM42.1222 5.33894L42.5782 5.40582L42.5888 7.9047L42.0112 7.7831C41.9002 7.7603 41.7779 7.7603 41.578 7.7603C40.7344 7.7603 40.112 8.38274 39.9235 9.38214C39.9007 9.54858 39.8786 9.79254 39.8786 10.0259V15.1125H37.3577V8.67154C37.3577 7.58246 37.3243 6.73886 37.2802 5.99482L37.2468 5.49474H39.5792L39.6126 6.19394C40.1674 5.6285 40.8894 5.30626 41.6783 5.30626C41.8554 5.30626 41.9892 5.3169 42.1222 5.33894Z" fill="#34405E"/>
<path fill-rule="evenodd" clip-rule="evenodd" d="M47.1641 5.31689C44.3543 5.31689 42.389 7.39397 42.389 10.3808C42.389 13.2908 44.2875 15.3117 47.0197 15.3117C49.3301 15.3117 51.8061 13.7233 51.8061 10.2364C51.8175 7.3385 49.9069 5.31689 47.1641 5.31689ZM49.2632 10.2926C49.2632 11.9692 48.3527 13.1905 47.1086 13.1905C45.8645 13.1905 44.9654 11.9806 44.9654 10.3367C44.9654 9.27041 45.4206 7.46009 47.142 7.46009C48.8186 7.43805 49.2632 9.30385 49.2632 10.2926ZM68.9533 12.5574V9.31525C68.9533 6.72746 67.6096 5.31765 65.1882 5.31765C64.0665 5.31765 62.8892 5.62773 62.0791 6.13845L61.7568 6.33833L62.434 8.33713L62.9447 7.99361C63.4668 7.63793 64.2215 7.42665 64.9549 7.42665C65.4656 7.41601 65.8327 7.53837 66.0767 7.77093C66.2765 7.97081 66.3989 8.27101 66.443 8.64873C64.4776 8.70421 63.045 9.17085 62.1566 10.0479C61.5455 10.6589 61.2347 11.425 61.2347 12.3469C61.2347 13.8236 62.301 15.3117 64.3659 15.3117C65.2437 15.3117 66.066 15.0343 66.7097 14.5456L66.7766 15.1232H69.1638L69.0749 14.579C68.9973 14.0463 68.9533 13.3683 68.9533 12.5574ZM64.755 13.2019C64.3773 13.2019 63.7556 13.0689 63.7556 12.1691C63.7556 11.8248 63.8559 11.5474 64.0779 11.3361C64.3667 11.0473 65.0218 10.7144 66.4871 10.6916V11.7252C66.4871 11.8027 66.4764 11.9357 66.443 12.0687C66.2651 12.5909 65.721 13.2011 64.7558 13.2011L64.755 13.2019Z" fill="#34405E"/>
<path d="M74.0612 10.9035L75.8936 5.49463H78.5589L75.9498 12.3141C74.8835 15.1124 74.0726 16.8338 72.8513 17.9221C71.8291 18.7771 70.9407 18.9884 70.6853 19.0325L70.2749 19.11L69.6304 16.9562L70.075 16.8118C70.2855 16.7563 70.797 16.5671 71.2963 16.1339L71.3077 16.1232C71.7516 15.7675 72.1962 15.1679 72.4956 14.5348L72.5131 14.4907C72.5329 14.4398 72.5564 14.3798 72.5739 14.3463C72.5739 14.3235 72.5511 14.2574 72.4956 14.1465L72.485 14.1237L69.0422 5.49463H71.785L73.7838 10.9256C73.8393 11.0472 73.8841 11.1809 73.9282 11.3139C73.951 11.2478 73.9731 11.1779 73.9951 11.1087L74.0612 10.9035Z" fill="#34405E"/>
<path d="M21.1447 5.67257C22.7658 4.01805 25.5192 3.02929 28.5068 3.02929C29.6726 3.02929 30.8058 3.17369 31.8827 3.47389L31.9716 3.49593L33.8823 2.91833L33.0265 2.58545C31.394 1.96301 29.5176 1.63013 27.5849 1.63013C24.7752 1.63013 22.1547 2.30729 20.2114 3.54001L20.0001 3.67377L20.811 6.03813L21.1439 5.67181L21.1447 5.67257Z" fill="#20D5B3"/>
</svg>
