<svg width="63" height="20" viewBox="0 0 63 20" fill="none" xmlns="http://www.w3.org/2000/svg">
<mask id="mask0_1_6089" style="mask-type:luminance" maskUnits="userSpaceOnUse" x="0" y="0" width="62" height="20">
<path d="M0.45015 0.87085H61.6647V19.8695H0.45015V0.87085Z" fill="white"/>
</mask>
<g mask="url(#mask0_1_6089)">
<path fill-rule="evenodd" clip-rule="evenodd" d="M44.3368 5.79577C45.7215 5.79577 46.8445 4.83845 46.8445 3.65736C46.8445 2.47522 45.7215 1.51685 44.3368 1.51685C42.9542 1.51685 41.8312 2.47522 41.8312 3.65736C41.8312 4.83845 42.9531 5.79577 44.3368 5.79577ZM25.1302 6.95152C25.0172 7.19428 24.2025 9.15747 22.233 11.1924V2.49105L16.9844 3.37555V19.1487H22.233V14.2723C23.7528 16.2197 24.5033 19.1487 24.5033 19.1487H30.7904C30.1677 16.9427 27.4479 12.8738 27.4479 12.8738C29.8891 10.232 30.9625 7.41699 31.1313 6.95152H25.1302ZM38.9277 6.78686C34.2269 6.91563 31.8406 8.71523 31.8406 12.2933V19.1487H36.9699V13.5588C36.9699 11.4162 37.2982 10.4979 40.2766 10.4103V6.84914C39.7763 6.75837 38.9277 6.78686 38.9277 6.78686ZM8.18324 8.68779C7.53943 8.6519 6.05128 8.56957 6.05128 7.42649C6.05128 6.04592 8.19379 6.04592 8.99803 6.04592C10.4112 6.04592 12.2413 6.40267 13.548 6.7362C13.548 6.7362 14.2762 6.95574 14.8978 7.1795L14.9548 7.19322V3.4146L14.8757 3.39349C13.3337 2.9333 11.5405 2.49105 8.2149 2.49105C2.48184 2.49105 0.45015 5.34085 0.45015 7.78324C0.45015 9.19125 1.15728 12.5044 7.72307 12.8865C8.27928 12.916 9.75688 12.9889 9.75688 14.17C9.75688 15.1463 8.54736 15.7215 6.51356 15.7215C4.2845 15.7215 2.12194 15.236 0.807938 14.7758V18.6684C2.77419 19.1086 4.99058 19.3281 7.58904 19.3281C13.1944 19.3281 15.7052 16.6313 15.7052 13.9578C15.7052 10.9265 12.8968 8.95693 8.18324 8.68779ZM41.7943 19.1487H46.8814V6.96524H41.7943V19.1487ZM56.4604 3.26789V19.1487H61.5476V2.49105L56.4604 3.26789ZM49.0366 3.26789L54.1195 2.49105V19.1487H49.0355L49.0366 3.26789Z" fill="url(#paint0_linear_1_6089)"/>
</g>
<mask id="mask1_1_6089" style="mask-type:luminance" maskUnits="userSpaceOnUse" x="0" y="0" width="63" height="20">
<path d="M0.872337 0.87085H62.0869V19.8695H0.872337V0.87085Z" fill="white"/>
</mask>
<g mask="url(#mask1_1_6089)">
<path fill-rule="evenodd" clip-rule="evenodd" d="M44.759 5.79577C46.1447 5.79577 47.2667 4.83845 47.2667 3.65736C47.2667 2.47522 46.1437 1.51685 44.759 1.51685C43.3764 1.51685 42.2534 2.47522 42.2534 3.65736C42.2534 4.83845 43.3753 5.79577 44.759 5.79577ZM25.5524 6.95152C25.4394 7.19428 24.6246 9.15747 22.6552 11.1924V2.49105L17.4066 3.37555V19.1487H22.6552V14.2723C24.175 16.2197 24.9254 19.1487 24.9254 19.1487H31.2126C30.5899 16.9427 27.8701 12.8738 27.8701 12.8738C30.3113 10.232 31.3846 7.41699 31.5546 6.95152H25.5524ZM39.3499 6.78686C34.6491 6.91563 32.2627 8.71523 32.2627 12.2933V19.1487H37.3921V13.5588C37.3921 11.4162 37.7203 10.4979 40.6998 10.4103V6.84914C40.1985 6.75837 39.3499 6.78686 39.3499 6.78686ZM8.60648 8.68779C7.96267 8.6519 6.47452 8.56957 6.47452 7.42649C6.47452 6.04592 8.61703 6.04592 9.42127 6.04592C10.8345 6.04592 12.6646 6.40267 13.9712 6.7362C13.9712 6.7362 14.6994 6.95574 15.3211 7.1795L15.3781 7.19322V3.4146L15.2989 3.39349C13.7569 2.9333 11.9638 2.49105 8.63814 2.49105C2.90508 2.49105 0.87339 5.34085 0.87339 7.78324C0.87339 9.19125 1.58052 12.5044 8.14632 12.8865C8.70252 12.916 10.1801 12.9889 10.1801 14.17C10.1801 15.1463 8.9706 15.7215 6.9368 15.7215C4.70774 15.7215 2.54518 15.236 1.23118 14.7758V18.6684C3.19743 19.1086 5.41488 19.3281 8.01228 19.3281C13.6187 19.3281 16.1285 16.6313 16.1285 13.9578C16.1285 10.9265 13.32 8.95693 8.60648 8.68779ZM42.2175 19.1487H47.3046V6.96524H42.2175V19.1487ZM56.8826 3.26789V19.1487H61.9698V2.49105L56.8826 3.26789ZM49.4588 3.26789L54.5417 2.49105V19.1487H49.4588V3.26789Z" fill="#34405E"/>
</g>
<defs>
<linearGradient id="paint0_linear_1_6089" x1="16.9728" y1="1.51685" x2="20.3452" y2="23.6713" gradientUnits="userSpaceOnUse">
<stop stop-color="#6B195F"/>
<stop offset="1" stop-color="#4C255B"/>
</linearGradient>
</defs>
</svg>
