<svg width="58" height="26" viewBox="0 0 58 26" fill="none" xmlns="http://www.w3.org/2000/svg">
<g clip-path="url(#clip0_1_5913)">
<g clip-path="url(#clip1_1_5913)">
<g clip-path="url(#clip2_1_5913)">
<mask id="mask0_1_5913" style="mask-type:luminance" maskUnits="userSpaceOnUse" x="1" y="0" width="56" height="26">
<path d="M56.0858 0.870117H1.08585V25.8701H56.0858V0.870117Z" fill="white"/>
</mask>
<g mask="url(#mask0_1_5913)">
<path d="M48.8439 13.1457C47.6306 12.5956 46.4523 11.9394 45.27 11.9394C45.0026 11.9394 44.7022 11.9451 44.3785 12.0408C44.3969 11.0315 44.8698 9.5104 46.1664 8.32415C46.9639 7.59518 47.8341 7.21826 48.7063 7.21826C49.4079 7.21826 50.3643 7.38376 51.1105 7.69084C53.2007 8.5547 54.1649 9.85193 54.1649 11.1147C54.1649 11.2831 54.1542 11.4496 54.1242 11.616C53.9188 12.7707 52.9807 13.8833 51.5039 13.8833C50.6405 13.8833 50.06 13.7226 48.8439 13.1457Z" fill="#FFDB00"/>
<path d="M50.1254 18.2751C53.3398 18.2751 56.0075 15.5801 56.0075 12.3667C56.0075 10.6256 55.3466 9.21454 54.2148 8.18422C52.8562 6.94918 51.0664 6.45459 49.9025 6.45459C49.6438 6.45459 49.3318 6.4919 49.073 6.56365C48.979 6.59139 48.9257 6.63731 48.9257 6.69662C48.9257 6.77603 48.9907 6.82386 49.2262 6.83725C50.9578 6.931 52.8669 7.72216 53.959 8.82901C54.8999 9.77993 55.1441 10.7902 55.1102 11.5066C55.0249 13.3779 53.6498 14.6952 51.7311 14.6952C50.9501 14.6952 50.1341 14.4216 49.4316 14.0982C47.9645 13.419 46.7163 12.4537 45.193 12.4537C44.5098 12.4537 44.3654 12.6766 44.3654 12.9732C44.3654 14.0963 44.9749 15.5217 46.1107 16.6152C47.0826 17.5498 48.4335 18.2751 50.1254 18.2751Z" fill="#FFDB00"/>
<path d="M42.828 8.53094C30.0472 1.30053 19.5719 -0.740982 11.6916 2.46382C3.54091 5.77864 1.2433 13.7151 1.22102 13.7945C1.17838 13.9456 1.25881 14.1025 1.40611 14.158C1.5534 14.2145 1.72007 14.1513 1.79178 14.0126C3.99539 9.70571 7.49268 6.76304 12.1868 5.26587C15.9631 4.06048 20.5205 3.77923 25.734 4.42879C34.6453 5.53947 42.4694 9.0351 42.5479 9.07049C42.6962 9.13746 42.8735 9.07623 42.9491 8.93273C43.0227 8.78828 42.9704 8.6113 42.828 8.53094Z" fill="#07C790"/>
<path d="M6.47769 25.8403V11.6817C6.47769 11.0446 6.87597 10.8159 7.42639 10.8159H10.507V22.8622C10.507 23.2008 10.4682 23.5299 10.3907 23.8064C10.0389 25.0548 8.89934 25.8403 7.0785 25.8403H6.47769Z" fill="#07C790"/>
<path d="M21.5116 13.6199H24.7424C25.8616 13.6199 26.2425 13.3492 26.3859 12.7943L26.8355 10.8159H14.3542C13.6071 10.8159 13.2611 11.0063 13.11 11.654L12.6274 13.6199H17.4871V25.8402H17.4881H18.086C19.8681 25.8402 21.0649 25.1017 21.4089 23.7652C21.4903 23.4515 21.5116 23.108 21.5116 22.8536V13.6199Z" fill="#07C790"/>
<path d="M29.9408 10.8164C29.1268 10.8164 28.8691 11.1025 28.8691 11.7741V25.8407H29.4718C31.4564 25.8407 32.5418 24.9224 32.8276 23.6366C32.878 23.4051 32.9032 23.0712 32.9032 22.8177V19.6387H35.4905C36.3617 19.6387 36.7648 19.4139 36.9848 18.7797L37.5711 16.8348H32.9061V13.63H37.2833C38.357 13.63 38.6777 13.3114 38.9132 12.5662L39.4656 10.8164H29.9408Z" fill="#07C790"/>
</g>
</g>
</g>
</g>
<defs>
<clipPath id="clip0_1_5913">
<rect width="56.66" height="25" fill="white" transform="translate(0.72998 0.870117)"/>
</clipPath>
<clipPath id="clip1_1_5913">
<rect width="56.66" height="25" fill="white" transform="translate(0.72998 0.870117)"/>
</clipPath>
<clipPath id="clip2_1_5913">
<rect width="56" height="25" fill="white" transform="translate(1.05997 0.870117)"/>
</clipPath>
</defs>
</svg>
