<svg width="17" height="17" viewBox="0 0 17 17" fill="none" xmlns="http://www.w3.org/2000/svg">
<g clip-path="url(#clip0_1_3414)">
<g clip-path="url(#clip1_1_3414)">
<g clip-path="url(#clip2_1_3414)">
<mask id="mask0_1_3414" style="mask-type:luminance" maskUnits="userSpaceOnUse" x="0" y="0" width="17" height="17">
<path d="M16.88 0.869995H0.880005V16.87H16.88V0.869995Z" fill="white"/>
</mask>
<g mask="url(#mask0_1_3414)">
<path d="M11.3207 7.7609C11.5376 7.4626 11.7817 7.1643 11.9715 6.8931H15.4969L16.88 5.13041H13.1918C13.9783 3.85585 14.3308 2.98806 14.0867 2.79823C14.0596 2.74399 13.9783 2.74399 13.8427 2.77111C13.5715 2.85247 13.2461 3.09653 13.002 3.25924C12.7579 3.44907 12.4868 3.66602 12.1885 3.93721C11.5376 4.53381 11.5647 4.50669 12.1613 3.99144C12.4868 3.72026 12.7579 3.53043 12.9749 3.42195C13.0291 3.39484 13.0834 3.36772 13.1376 3.36772C13.219 3.3406 13.2732 3.3406 13.3003 3.36772C13.463 3.50331 13.1647 4.15415 12.5139 5.1033C11.7817 6.21515 10.6156 7.76089 9.20544 9.41514L9.09694 9.52359C8.33764 10.4185 7.60544 11.2321 6.92749 11.9643H11.3207V9.46939H15.1986L16.4732 7.81515L11.3207 7.7609Z" fill="#FDB913"/>
<path d="M9.23245 7.97769C9.31385 7.86919 9.3952 7.73364 9.4494 7.57089C9.50365 7.40819 9.53075 7.21839 9.53075 7.02854C9.53075 6.73024 9.47655 6.43194 9.34095 6.21499C9.20535 5.97094 9.04265 5.78109 8.7986 5.61838C8.5545 5.45567 8.2833 5.34719 7.9579 5.26584C7.60535 5.18448 7.2528 5.13025 6.84605 5.13025H2.26302L0.879974 6.92004H6.9274C7.0901 6.92004 7.1986 6.94719 7.3342 7.00144C7.46975 7.05564 7.524 7.19124 7.524 7.35394C7.524 7.54379 7.46975 7.65224 7.3342 7.70649C7.2257 7.76074 7.0901 7.78784 6.9274 7.78784H5.27317H0.879974V11.9641H5.27317H5.67995C5.57147 12.0726 5.43588 12.2353 5.27317 12.3709C4.70368 12.9404 3.97148 13.6454 3.37488 13.9709C3.32064 13.998 3.2664 14.0251 3.21216 14.0522C3.10369 14.1064 3.02233 14.1064 2.9681 14.0522C2.72403 13.8353 3.75453 12.5065 3.75453 12.5065C2.99522 13.32 2.18166 14.6759 2.5342 14.9471C2.58844 15.0014 2.72403 15.0014 2.85962 14.9471C2.99522 14.8929 3.15793 14.7844 3.37488 14.6488C3.45623 14.5946 3.53759 14.5403 3.61894 14.459C4.05284 14.1336 4.62233 13.6726 5.24605 13.0759C5.62571 12.7234 6.0325 12.3437 6.4664 11.937C7.2528 11.1505 8.0935 10.2556 8.93415 9.27939C9.04265 9.14379 9.17825 9.00819 9.2867 8.87259C9.2596 8.84549 9.23245 8.79124 9.17825 8.76414C9.04265 8.65564 8.93415 8.54719 8.77145 8.49294C8.7172 8.46584 8.63585 8.43869 8.58165 8.41159C8.6901 8.38444 8.7986 8.30309 8.93415 8.22174C9.04265 8.19464 9.1511 8.08614 9.23245 7.97769ZM7.3884 10.0929C7.27995 10.1743 7.11725 10.2285 6.9003 10.2285H5.27317H2.99522V9.25224H5.27317H6.9003C7.14435 9.25224 7.30705 9.27939 7.3884 9.36074C7.4969 9.44209 7.5511 9.55054 7.5511 9.71329C7.5511 9.87599 7.4969 10.0116 7.3884 10.0929Z" fill="black"/>
</g>
</g>
</g>
</g>
<defs>
<clipPath id="clip0_1_3414">
<rect width="16" height="16" fill="white" transform="translate(0.880005 0.869995)"/>
</clipPath>
<clipPath id="clip1_1_3414">
<rect width="16" height="16" fill="white" transform="translate(0.880005 0.869995)"/>
</clipPath>
<clipPath id="clip2_1_3414">
<rect width="16" height="16" fill="white" transform="translate(0.880005 0.869995)"/>
</clipPath>
</defs>
</svg>
