<svg width="16" height="17" viewBox="0 0 16 17" fill="none" xmlns="http://www.w3.org/2000/svg">
<g clip-path="url(#clip0_1_3168)">
<g clip-path="url(#clip1_1_3168)">
<g clip-path="url(#clip2_1_3168)">
<path d="M14.245 13.0847C14.1814 13.1808 14.1221 13.2801 14.0534 13.3726C13.8545 13.6406 13.6313 13.8877 13.3894 14.1174C13.0113 14.4764 12.5989 14.7911 12.1491 15.0553C11.9672 15.1621 11.7816 15.2642 11.5922 15.357C11.2242 15.5374 10.8428 15.6853 10.4486 15.7985C10.2613 15.8524 10.0735 15.905 9.88382 15.9495C9.72237 15.9876 9.55852 16.0164 9.39477 16.0433C9.27127 16.0636 9.14647 16.0765 9.02177 16.0891C8.83927 16.1076 8.65647 16.1227 8.47387 16.1398C8.46962 16.1401 8.46602 16.1465 8.46217 16.1501H7.56447C7.49622 16.1427 7.42802 16.1349 7.35967 16.1279C7.20292 16.1117 7.04547 16.0997 6.88932 16.0789C6.72952 16.0575 6.56902 16.0355 6.41202 15.9998C6.12162 15.9338 5.82947 15.8709 5.54522 15.7832C4.36052 15.4174 3.31037 14.8129 2.39504 13.9765C2.14766 13.7504 1.93808 13.4945 1.82238 13.1738C1.79707 13.1036 1.78097 13.0299 1.76068 12.9578C1.76721 12.9445 1.77549 12.9318 1.78016 12.9178C1.80652 12.8371 1.82343 12.752 1.85935 12.6759C1.96362 12.4556 2.13297 12.2866 2.31573 12.131C2.63845 11.8562 3.00013 11.6401 3.37744 11.4513C3.62537 11.3272 3.88196 11.2205 4.13365 11.1036C4.76392 10.811 5.39347 10.5172 6.02332 10.2236C6.56867 9.96939 7.11372 9.71454 7.65927 9.46074C7.70792 9.43814 7.75927 9.42109 7.80927 9.40149C7.70072 9.48094 7.59022 9.55804 7.48402 9.64034C7.21072 9.85194 6.93222 10.0574 6.66922 10.2811C6.40972 10.5018 6.15917 10.7345 5.91822 10.9752C5.54667 11.3463 5.27802 11.7851 5.11392 12.2854C5.06122 12.4463 5.02602 12.6106 5.00967 12.78C4.96571 13.2359 5.11407 13.6359 5.35792 14.0093C5.53242 14.2763 5.77337 14.4697 6.04837 14.6238C6.34297 14.7888 6.66132 14.8931 6.98822 14.9684C7.16362 15.0088 7.34357 15.0311 7.52247 15.0538C7.68857 15.0749 7.85557 15.0914 8.02272 15.0994C8.17387 15.1067 8.32572 15.1025 8.47712 15.0988C8.66257 15.0943 8.84837 15.0912 9.03307 15.0764C9.44447 15.0433 9.85372 14.991 10.2594 14.9143C10.7464 14.8223 11.227 14.7038 11.6924 14.532C11.9668 14.4306 12.2375 14.3179 12.5051 14.1992C12.8821 14.0321 13.2374 13.8244 13.5748 13.5875C13.7314 13.4776 13.8821 13.3594 14.0341 13.243C14.0915 13.199 14.144 13.1486 14.2002 13.1029C14.2122 13.0931 14.2304 13.091 14.2458 13.0854L14.245 13.0847Z" fill="#F7931A"/>
<path d="M7.80928 9.40128C7.75923 9.42088 7.70793 9.43788 7.65928 9.46053C7.11368 9.71433 6.56863 9.96918 6.02328 10.2234C5.39348 10.517 4.76391 10.8108 4.13365 11.1034C3.88195 11.2203 3.62536 11.327 3.3774 11.4511C3.00009 11.6399 2.63842 11.856 2.3157 12.1308C2.13294 12.2864 1.96371 12.4554 1.85933 12.6757C1.82329 12.7518 1.80649 12.8369 1.78014 12.9176C1.77559 12.9316 1.76731 12.9443 1.76066 12.9576C1.75587 12.9023 1.75028 12.847 1.74654 12.7917C1.72893 12.531 1.80906 12.2932 1.92511 12.0658C2.08944 11.7439 2.32095 11.4717 2.57346 11.2175C2.83075 10.9584 3.10028 10.7115 3.35557 10.4506C3.73159 10.0662 4.04897 9.63883 4.25716 9.13843C4.34975 8.91573 4.41997 8.68643 4.4399 8.44433C4.4475 8.35263 4.46626 8.26028 4.46079 8.16928C4.45063 7.99948 4.43839 7.82828 4.40596 7.66173C4.25996 6.91108 3.82292 6.32778 3.30556 5.79573C3.04163 5.52433 2.7617 5.26848 2.49613 4.99858C2.27768 4.77649 2.08477 4.53298 1.93712 4.25643C1.79774 3.99542 1.7231 3.71971 1.74713 3.42169C1.74864 3.40245 1.76066 3.38415 1.76789 3.36536C1.77885 3.40212 1.7897 3.43886 1.80066 3.47547C1.86738 3.70056 2.01013 3.87587 2.17376 4.036C2.43957 4.29587 2.74852 4.49646 3.06913 4.68039C3.40749 4.87446 3.76589 5.02668 4.11964 5.18963C5.33353 5.74873 6.54358 6.31638 7.75538 6.88043C7.77218 6.88823 7.79118 6.89148 7.80918 6.89688L7.80833 6.89628C7.82008 6.90328 7.83188 6.91013 7.84368 6.91718C8.04723 7.05128 8.25853 7.17538 8.45213 7.32243C8.65533 7.47673 8.84288 7.65343 8.94303 7.89778C9.01068 8.06273 9.00928 8.23263 8.94408 8.39823C8.86163 8.60798 8.70348 8.76098 8.53928 8.90503C8.32793 9.09048 8.09348 9.24453 7.84588 9.37818C7.84123 9.38193 7.83653 9.38578 7.83188 9.38948C7.83188 9.38948 7.83258 9.38903 7.83248 9.38903C7.82468 9.39323 7.81708 9.39718 7.80928 9.40128Z" fill="#F0271D"/>
<path d="M7.80914 6.89717C7.79119 6.89177 7.77219 6.88862 7.75539 6.88072C6.54369 6.31667 5.33364 5.74902 4.11962 5.18987C3.76588 5.02697 3.40748 4.87475 3.06912 4.68068C2.74852 4.49674 2.43956 4.29603 2.17376 4.03628C2.01001 3.87628 1.86737 3.70088 1.80066 3.47576C1.78981 3.43902 1.77885 3.40229 1.76788 3.36568C1.78258 3.16425 1.86783 2.9886 1.97129 2.82065C2.13317 2.55765 2.35465 2.34841 2.58698 2.14967C3.31955 1.52289 4.13514 1.03526 5.03529 0.689329C5.60064 0.472046 6.18304 0.318556 6.78254 0.233767C7.00044 0.202976 7.22064 0.187464 7.44034 0.172535C7.63714 0.159123 7.83444 0.149909 8.03154 0.150026C8.23029 0.150142 8.42974 0.15679 8.62779 0.173235C9.32594 0.231084 10.0124 0.35063 10.6787 0.574096C10.9844 0.676614 11.283 0.794999 11.5739 0.934139C12.011 1.14302 12.422 1.39401 12.8079 1.68664C13.1003 1.90836 13.3745 2.15083 13.6259 2.41815C13.8527 2.65935 14.0629 2.91453 14.2417 3.19434C14.2478 3.20389 14.2516 3.21487 14.2566 3.22524L14.2576 3.22443C14.2058 3.18664 14.153 3.15012 14.1024 3.11083C13.9577 2.99863 13.8177 2.87966 13.6687 2.77364C13.361 2.55461 13.0369 2.3624 12.6984 2.19364C12.4305 2.0601 12.1565 1.94265 11.8774 1.83499C11.5439 1.70647 11.203 1.60407 10.8563 1.52079C10.6176 1.46341 10.3758 1.41827 10.1346 1.37185C9.97114 1.34036 9.80669 1.31284 9.64164 1.28998C9.51894 1.27295 9.39499 1.26607 9.27149 1.25534C9.08239 1.23901 8.89334 1.22187 8.70419 1.20834C8.63849 1.20367 8.57214 1.2088 8.50614 1.20857C8.34099 1.20822 8.17574 1.20262 8.01079 1.20834C7.87879 1.21289 7.74724 1.2305 7.61564 1.24333C7.50754 1.25394 7.39859 1.26094 7.29164 1.27855C7.02259 1.32275 6.75679 1.38142 6.49939 1.47461C6.13144 1.6078 5.78959 1.78519 5.52399 2.07911C5.27099 2.35914 5.10014 2.68535 5.03464 3.06009C5.01514 3.17158 4.99927 3.28611 5.00194 3.39868C5.00779 3.64872 5.06239 3.89134 5.15229 4.12469C5.29574 4.4971 5.48279 4.84547 5.75559 5.14009C5.94784 5.34757 6.14274 5.55427 6.35229 5.74352C6.60024 5.96762 6.86164 6.17752 7.12444 6.38432C7.34434 6.55742 7.57469 6.71707 7.80029 6.88292C7.80449 6.88592 7.80609 6.89227 7.80914 6.89717Z" fill="#2972D6"/>
</g>
</g>
</g>
<defs>
<clipPath id="clip0_1_3168">
<rect width="16" height="16" fill="white" transform="translate(0 0.150024)"/>
</clipPath>
<clipPath id="clip1_1_3168">
<rect width="16" height="16" fill="white" transform="translate(0 0.150024)"/>
</clipPath>
<clipPath id="clip2_1_3168">
<rect width="16" height="16" fill="white" transform="translate(0 0.150024)"/>
</clipPath>
</defs>
</svg>
