<svg width="16" height="17" viewBox="0 0 16 17" fill="none" xmlns="http://www.w3.org/2000/svg">
<g clip-path="url(#clip0_1_3342)">
<g clip-path="url(#clip1_1_3342)">
<g clip-path="url(#clip2_1_3342)">
<path d="M15.9792 8.7616H8.26229V11.4852H12.7048C12.2801 12.3828 11.7219 13.0421 11.0294 13.4631C10.337 13.8841 9.48599 14.0948 8.47684 14.0948C6.92474 14.0948 5.61969 13.584 4.56197 12.562C3.50431 11.5403 2.97546 10.294 2.97546 8.8234C2.97546 7.35275 3.48512 6.19275 4.50445 5.19872C5.52379 4.20467 6.78849 3.70748 8.29874 3.70748C10.0313 3.70748 11.5481 4.39089 12.8493 5.75813L14.9055 3.73857C13.9668 2.73055 13.0074 2.01953 12.0272 1.60512C10.8654 1.1153 9.61789 0.869995 8.28304 0.869995C6.08669 0.869995 4.24647 1.52815 2.76095 2.84329C2.768 2.88683 2.76134 2.93814 2.73825 2.97391C2.73825 2.97429 2.73785 2.97507 2.73746 2.97546C2.72885 3.07731 2.64625 3.15195 2.5433 3.15662C2.53861 3.15662 2.53391 3.15662 2.52921 3.15662C2.52921 3.15662 2.52843 3.1574 2.52804 3.15778C2.31 3.33855 2.12955 3.55392 1.9624 3.78095C1.92521 4.13355 1.57526 4.3874 1.35018 4.6537C1.30712 4.73687 1.26406 4.81968 1.21787 4.90016C1.09457 5.11669 1.02293 5.34721 0.950124 5.58398C0.882404 5.8044 0.794724 6.01469 0.713694 6.23044C0.546154 6.6775 0.479607 7.14555 0.33673 7.59885C0.260398 7.84064 0.162928 8.0817 0.146879 8.3367C0.131221 8.58785 0.139441 8.83545 0.0959912 9.08465C0.0932507 9.10019 0.0877707 9.11419 0.0811157 9.12745C0.323421 10.745 0.850694 12.3326 1.83048 13.6629C2.70497 14.8505 4.01045 15.6677 5.36484 16.2174C6.77639 16.79 8.39579 16.8841 9.89189 16.6411C11.3434 16.4056 12.742 15.808 13.728 14.6955C14.7298 13.5653 15.3999 12.2102 15.7706 10.7551C15.7902 10.6785 15.8411 10.6365 15.8998 10.6221C15.9664 10.2229 16 9.8167 16 9.40419L15.9792 8.7616Z" fill="url(#paint0_linear_1_3342)"/>
<path d="M15.9349 10.3896C15.8045 11.3631 15.4785 12.298 14.957 13.1937C14.2618 14.3883 13.3615 15.2995 12.2561 15.9277C11.1506 16.556 9.85416 16.8701 8.36626 16.8701C6.77426 16.8701 5.35411 16.5264 4.10616 15.8395C3.38827 15.4445 2.75686 14.9528 2.21158 14.3646C2.09532 14.2394 3.27121 14.6402 5.10121 14.7856C6.56291 14.9018 8.49976 14.8295 10.1043 14.3821C11.7362 13.9269 13.2648 12.997 14.299 12.1145C15.3923 11.1815 15.9447 10.3092 15.9341 10.3893L15.9349 10.3896Z" fill="url(#paint1_linear_1_3342)"/>
<path d="M6.1252 16.6106C5.4711 16.4804 4.66434 16.2269 3.84113 15.7297C2.90519 15.1645 2.33681 14.5188 1.95202 14.074C1.70032 13.7836 1.31475 13.3346 0.94366 12.6559C0.55887 11.9522 0.289945 11.1856 0.137281 10.3568C-0.124987 8.93245 -0.0114683 7.5357 0.477838 6.16655C0.823875 5.19814 1.31475 4.35418 1.95084 3.6342C2.37086 3.15876 2.7948 2.81433 2.7948 2.81433C2.7948 2.81433 2.48203 4.19673 2.23973 5.9461C1.89604 8.42475 2.48321 10.6612 2.48321 10.6612C2.88993 12.2869 3.54638 13.4373 3.82588 13.8956C4.60133 15.1684 5.4809 16.0535 6.1252 16.6106Z" fill="url(#paint2_linear_1_3342)"/>
</g>
</g>
</g>
<defs>
<linearGradient id="paint0_linear_1_3342" x1="4.67395" y1="3.46217" x2="13.7187" y2="16.4717" gradientUnits="userSpaceOnUse">
<stop offset="0.6"/>
<stop offset="1" stop-color="#352711"/>
</linearGradient>
<linearGradient id="paint1_linear_1_3342" x1="2.92244" y1="15.8434" x2="16.3753" y2="12.7447" gradientUnits="userSpaceOnUse">
<stop stop-color="#352711"/>
<stop offset="1" stop-color="#F2A50A"/>
</linearGradient>
<linearGradient id="paint2_linear_1_3342" x1="1.27599" y1="4.25659" x2="3.49591" y2="15.4561" gradientUnits="userSpaceOnUse">
<stop stop-color="#352711"/>
<stop offset="1" stop-color="#F2A50A"/>
</linearGradient>
<clipPath id="clip0_1_3342">
<rect width="16" height="16" fill="white" transform="translate(0 0.869995)"/>
</clipPath>
<clipPath id="clip1_1_3342">
<rect width="16" height="16" fill="white" transform="translate(0 0.869995)"/>
</clipPath>
<clipPath id="clip2_1_3342">
<rect width="16" height="16" fill="white" transform="translate(0 0.869995)"/>
</clipPath>
</defs>
</svg>
