<svg width="16" height="16" viewBox="0 0 16 16" fill="none" xmlns="http://www.w3.org/2000/svg">
<g clip-path="url(#clip0_1_3247)">
<g clip-path="url(#clip1_1_3247)">
<path d="M0.926637 10.0023C0.926637 10.1876 0.880305 10.3112 0.772197 10.4038C0.710421 10.4656 0.617756 10.481 0.494204 10.481C0.339764 10.481 0.231656 10.4193 0.138992 10.3112C0.0617718 10.2031 0.0308838 10.0949 0.0308838 9.97139C0.0308838 9.81695 0.0617718 9.6934 0.154436 9.58529C0.200768 9.53896 0.2471 9.49263 0.293432 9.46174C0.355208 9.43085 0.416984 9.41541 0.494204 9.41541C0.571424 9.41541 0.6332 9.43085 0.710421 9.44629C0.772197 9.46174 0.818529 9.49263 0.849417 9.53896C0.864861 9.5544 0.864861 9.56985 0.864861 9.58529C0.864861 9.60073 0.864861 9.61618 0.849417 9.63162C0.833973 9.64707 0.818529 9.64707 0.803085 9.64707C0.787641 9.64707 0.772197 9.64707 0.756753 9.63162C0.710421 9.60073 0.679532 9.56985 0.648644 9.5544C0.602312 9.53896 0.571424 9.52351 0.509648 9.52351C0.40154 9.52351 0.308876 9.56985 0.2471 9.66251C0.200768 9.73973 0.16988 9.83239 0.16988 9.9405C0.16988 10.0949 0.216212 10.2031 0.293432 10.2957C0.339764 10.342 0.40154 10.3729 0.47876 10.3729C0.525092 10.3729 0.586868 10.3575 0.6332 10.342C0.741309 10.2957 0.803085 10.1876 0.803085 10.0486V10.0023H0.617756C0.586868 10.0023 0.55598 9.98683 0.55598 9.9405C0.55598 9.89417 0.571424 9.87873 0.617756 9.87873H0.849417C0.895749 9.87873 0.926637 9.92506 0.926637 9.98683V10.0023Z" fill="white"/>
<path d="M15.9846 10.0023C15.9846 10.1876 15.9382 10.3112 15.8301 10.4038C15.7683 10.4656 15.6757 10.481 15.5521 10.481C15.3977 10.481 15.2896 10.4193 15.1969 10.3112C15.1197 10.2031 15.0888 10.0949 15.0888 9.97139C15.0888 9.81695 15.1197 9.6934 15.2124 9.58529C15.2587 9.53896 15.305 9.49263 15.3514 9.46174C15.4131 9.43085 15.4749 9.41541 15.5521 9.41541C15.6293 9.41541 15.6911 9.43085 15.7683 9.44629C15.8301 9.46174 15.8765 9.49263 15.9073 9.53896C15.9228 9.5544 15.9228 9.56985 15.9228 9.58529C15.9228 9.60073 15.9228 9.61618 15.9073 9.63162C15.8919 9.64707 15.8765 9.64707 15.861 9.64707C15.8456 9.64707 15.8301 9.64707 15.8147 9.63162C15.7683 9.60073 15.7375 9.56985 15.7066 9.5544C15.6602 9.53896 15.6293 9.52351 15.5676 9.52351C15.4595 9.52351 15.3668 9.56985 15.305 9.66251C15.2587 9.73973 15.2278 9.83239 15.2278 9.9405C15.2278 10.0949 15.2741 10.2031 15.3514 10.2957C15.3977 10.342 15.4595 10.3729 15.5367 10.3729C15.583 10.3729 15.6448 10.3575 15.6911 10.342C15.7992 10.2957 15.861 10.1876 15.861 10.0486V10.0023H15.6757C15.6448 10.0023 15.6139 9.98683 15.6139 9.9405C15.6139 9.89417 15.6293 9.87873 15.6757 9.87873H15.9073C15.9691 9.87873 16 9.90961 16 9.97139V10.0023H15.9846Z" fill="white"/>
<path d="M7.30503 10.4038C7.30503 10.4655 7.28958 10.4964 7.24325 10.4964C7.21236 10.4964 7.18147 10.481 7.18147 10.4347L7.05792 9.58523L6.81082 10.4347C6.79537 10.4655 6.77993 10.481 6.74904 10.481C6.71815 10.481 6.68726 10.4655 6.68726 10.4347L6.44016 9.58523L6.31661 10.4347C6.31661 10.481 6.28572 10.4964 6.23939 10.4964C6.2085 10.4964 6.17761 10.4655 6.17761 10.4192C6.17761 10.4038 6.17761 10.4038 6.17761 10.3883L6.33205 9.50801C6.33205 9.47712 6.3475 9.46168 6.36294 9.44623C6.37838 9.43079 6.40927 9.41535 6.42472 9.41535C6.4556 9.41535 6.47105 9.41535 6.48649 9.43079C6.50194 9.44623 6.51738 9.46168 6.51738 9.47712L6.7336 10.2339L6.94981 9.46168C6.94981 9.44623 6.96526 9.43079 6.9807 9.41535C6.99615 9.3999 7.01159 9.3999 7.04248 9.3999C7.07337 9.3999 7.08881 9.3999 7.10425 9.41535C7.1197 9.43079 7.13514 9.44623 7.13514 9.47712L7.30503 10.4038Z" fill="white"/>
<path d="M9.71431 10.4193C9.71431 10.4656 9.69887 10.4965 9.65254 10.4965C9.6062 10.4965 9.59076 10.481 9.59076 10.4347V9.50807C9.59076 9.46173 9.6062 9.44629 9.65254 9.44629C9.69887 9.44629 9.71431 9.46173 9.71431 9.50807V10.4193Z" fill="white"/>
<path d="M12.8185 10.4193C12.8185 10.4656 12.8031 10.481 12.7568 10.481C12.7259 10.481 12.7104 10.4656 12.6795 10.4347L12.1236 9.64707V10.4038C12.1236 10.4502 12.1081 10.4656 12.0618 10.4656C12.0154 10.4656 12 10.4502 12 10.4038V9.47718C12 9.43085 12.0154 9.41541 12.0463 9.41541C12.0772 9.41541 12.0927 9.43085 12.1236 9.46174L12.6641 10.2494V9.49263C12.6641 9.47718 12.6641 9.46174 12.6795 9.44629C12.695 9.43085 12.7104 9.43085 12.7259 9.43085C12.7722 9.43085 12.7876 9.44629 12.7876 9.49263V10.4193H12.8185Z" fill="white"/>
<path d="M3.98456 10.4347C3.98456 10.4656 3.96911 10.481 3.92278 10.481C3.90734 10.481 3.89189 10.481 3.87645 10.4656C3.861 10.4656 3.861 10.4656 3.861 10.4502L3.79923 10.2648H3.32046L3.2278 10.4502C3.21236 10.481 3.19691 10.4965 3.16602 10.4965C3.13514 10.4965 3.10425 10.481 3.10425 10.4502V10.4347V10.4193L3.44402 9.52351C3.45946 9.49262 3.45946 9.47718 3.4749 9.46173C3.49035 9.44629 3.50579 9.44629 3.52124 9.44629C3.53668 9.44629 3.55212 9.44629 3.58301 9.46173C3.59846 9.47718 3.6139 9.49262 3.6139 9.52351L3.95367 10.4193C3.98456 10.4193 3.98456 10.4347 3.98456 10.4347ZM3.7529 10.1413L3.55212 9.56984L3.33591 10.1413H3.7529Z" fill="white"/>
<path d="M13.4054 6.34203C13.6357 6.34203 13.8224 6.15534 13.8224 5.92505C13.8224 5.69475 13.6357 5.50806 13.4054 5.50806C13.1751 5.50806 12.9884 5.69475 12.9884 5.92505C12.9884 6.15534 13.1751 6.34203 13.4054 6.34203Z" fill="white"/>
<path d="M16 5.92505C16 6.15671 15.8147 6.34203 15.583 6.34203C15.3513 6.34203 15.166 6.15671 15.166 5.92505C15.166 5.69338 15.3513 5.50806 15.583 5.50806C15.8147 5.50806 16 5.69338 16 5.92505Z" fill="white"/>
<path d="M13.4054 8.38061C13.6357 8.38061 13.8224 8.19392 13.8224 7.96362C13.8224 7.73332 13.6357 7.54663 13.4054 7.54663C13.1751 7.54663 12.9884 7.73332 12.9884 7.96362C12.9884 8.19392 13.1751 8.38061 13.4054 8.38061Z" fill="white"/>
<path d="M16 7.96362C16 8.19528 15.8147 8.38061 15.583 8.38061C15.3513 8.38061 15.166 8.19528 15.166 7.96362C15.166 7.73196 15.3513 7.54663 15.583 7.54663C15.8147 7.54663 16 7.73196 16 7.96362Z" fill="white"/>
<path d="M14.9189 6.94433C14.9189 7.17599 14.7335 7.36132 14.5019 7.36132C14.2702 7.36132 14.0849 7.17599 14.0849 6.94433C14.0849 6.71267 14.2702 6.52734 14.5019 6.52734C14.7335 6.52734 14.9189 6.71267 14.9189 6.94433Z" fill="white"/>
<path d="M12.2934 8.28798L11.1351 5.55439C11.1197 5.5235 11.1042 5.50806 11.0734 5.50806H10.8417H10.8108H10.5791C10.5483 5.50806 10.5328 5.5235 10.5174 5.55439L9.34363 8.28798V8.30342C9.34363 8.33431 9.35907 8.34976 9.38996 8.34976H9.91506C9.94594 8.34976 9.96139 8.33431 9.97683 8.30342L10.2239 7.67022H11.4595L11.7066 8.30342C11.722 8.33431 11.7375 8.34976 11.7683 8.34976H12.2934C12.3243 8.34976 12.3398 8.33431 12.3398 8.30342C12.3089 8.30342 12.3089 8.28798 12.2934 8.28798ZM10.3938 7.17601L10.8263 6.07949L11.2587 7.17601H10.3938Z" fill="white"/>
<path d="M4.0618 6.38837C4.09269 6.28026 4.13902 6.23393 4.13902 6.23393C4.13902 6.23393 4.2008 6.12582 4.3398 6.06404C4.47879 6.00227 4.60234 6.00227 4.60234 6.00227H5.63709C5.66798 6.00227 5.69887 5.97138 5.69887 5.94049V5.56983C5.69887 5.53894 5.66798 5.50806 5.63709 5.50806H4.49424C3.86103 5.50806 3.35138 6.06404 3.35138 6.74358V6.91346V6.92891V6.95979V6.97524V7.14512C3.35138 7.82466 3.86103 8.38064 4.49424 8.38064H5.63709C5.66798 8.38064 5.69887 8.34976 5.69887 8.31887V7.93277C5.69887 7.90188 5.66798 7.87099 5.63709 7.87099H4.60234C4.60234 7.87099 4.46335 7.87099 4.3398 7.80921C4.2008 7.74744 4.13902 7.63933 4.13902 7.63933C4.13902 7.63933 4.09269 7.57755 4.0618 7.48489C4.03092 7.37678 4.03092 7.23779 4.03092 7.23779V7.17601H5.63709C5.66798 7.17601 5.69887 7.14512 5.69887 7.11423V6.72813C5.69887 6.69725 5.66798 6.66636 5.63709 6.66636H4.03092V6.63547C4.03092 6.63547 4.04636 6.49647 4.0618 6.38837Z" fill="white"/>
<path d="M7.6139 8.34976H8.55599C8.58687 8.34976 8.60232 8.31887 8.60232 8.28798V7.90188C8.60232 7.87099 8.58687 7.8401 8.55599 7.8401H7.70657C7.70657 7.8401 7.59846 7.8401 7.49035 7.77833C7.38224 7.71655 7.32047 7.60844 7.32047 7.60844C7.32047 7.60844 7.25869 7.54667 7.25869 7.43856C7.25869 7.34589 7.25869 7.22234 7.25869 7.22234V6.94435V5.55439C7.25869 5.5235 7.24325 5.50806 7.21236 5.50806H6.71815C6.68726 5.50806 6.65637 5.53894 6.65637 5.56983C6.65637 5.56983 6.65637 5.56983 6.65637 5.58528V6.95979V7.14512V7.43856V7.454C6.67182 7.94821 7.0888 8.34976 7.6139 8.34976Z" fill="white"/>
<path d="M2.54826 8.28798L1.88417 7.17601C2.22394 7.09879 2.4556 6.86713 2.4556 6.35748C2.47104 5.67794 2.00772 5.5235 1.43629 5.50806H1.2973H0.0617761C0.030888 5.50806 0 5.53894 0 5.56983V8.30342C0 8.33431 0.030888 8.3652 0.0617761 8.3652H0.555984C0.586873 8.3652 0.617761 8.33431 0.617761 8.30342V7.23779H1.31274L1.9305 8.31887C1.94595 8.34976 1.97683 8.3652 2.00772 8.3652H2.53282C2.56371 8.3652 2.57915 8.34976 2.57915 8.31887C2.54826 8.30342 2.54826 8.28798 2.54826 8.28798ZM1.45174 6.72813L1.2973 6.74358H0.602317V6.01771H1.31274H1.45174C1.77606 6.01771 1.86873 6.17215 1.86873 6.37292C1.85328 6.57369 1.76062 6.72813 1.45174 6.72813Z" fill="white"/>
</g>
</g>
<defs>
<clipPath id="clip0_1_3247">
<rect width="16" height="16" fill="white" transform="translate(0 0.0100098)"/>
</clipPath>
<clipPath id="clip1_1_3247">
<rect width="16" height="5.00386" fill="white" transform="translate(0 5.50806)"/>
</clipPath>
</defs>
</svg>
